<?xml version="1.0" encoding="utf-8"?>
<!-- Generator: Adobe Illustrator 25.4.1, SVG Export Plug-In . SVG Version: 6.00 Build 0)  -->
<svg version="1.1" id="Layer_1" xmlns="http://www.w3.org/2000/svg" xmlns:xlink="http://www.w3.org/1999/xlink" x="0px" y="0px"
	 viewBox="0 0 600 600" style="enable-background:new 0 0 600 600;" xml:space="preserve">
<style type="text/css">
	.st0{fill:#4CA27D;}
	.st1{fill:#3774CC;}
	.st2{fill:#F4CBA2;}
	.st3{fill:#092D35;}
	.st4{fill:#F6D6B6;}
	.st5{fill:#715C9C;}
	.st6{fill:#2ABCE9;}
	.st7{fill:none;stroke:#092D35;stroke-miterlimit:10;}
	.st8{fill:#6566A4;}
	.st9{fill:#E68839;}
	.st10{fill:#D4C242;}
	.st11{fill:#BABD44;}
	.st12{fill:#60AA59;stroke:#092D35;stroke-miterlimit:10;}
	.st13{fill:#76A3AA;}
	.st14{fill:#2593AD;}
	.st15{fill:#2C6775;}
	.st16{fill:#DB6338;}
	.st17{fill:#D8AC84;}
	.st18{fill:#D73A27;}
	.st19{display:none;}
	.st20{display:inline;opacity:0.57;fill:#EC008C;enable-background:new    ;}
	.st21{display:inline;fill:#2ABCE9;}
	.st22{display:inline;}
	.st23{display:inline;fill:none;stroke:#092D35;stroke-width:4;stroke-linecap:round;stroke-linejoin:round;stroke-miterlimit:10;}
</style>
<circle class="st0" cx="300" cy="300" r="248.91"/>
<path class="st1" d="M163.17,348.59c0,0-8.18,62.35-3.34,91.78c7.04,42.79,28.97,81.02,28.97,81.02s40.24,35.6,122.81,29.02
	c105.89-8.43,111.95-33.53,111.95-33.53s-29.82-66.68-24.99-97.91c4.83-31.23,20.81-71.09,5.23-85.87
	c-15.58-14.78-47.64-12.53-47.64-12.53l-40.12,59.12l-81.9-69.16c0,0-5.6-9.86-35.46,11.6S163.17,348.59,163.17,348.59z"/>
<path class="st2" d="M362.38,256.22c-0.52,13.57-0.55,43.38,3.83,55.36c0.98,2.68,8.08,9.78,10.9,9.78
	c18.52,0,30.61,14.02,28.05,18.6c-1.82,3.25-13.54,2.69-14.95,9.16c-0.78,3.57-6.44-5.65-12.3-4.01c-4.24,1.18,2.31,7.14-16.07,3.63
	c-3.54-0.68-0.62,3.74-3.2,3.49c-7.59-0.72-6.96,0.65-15.19-1.35c-1.67-0.41-17.27,27.97-17.99,30.02
	c-0.95,2.72-21.34-3.42-30.26,3.15c11.1-17.89,11.3-23.68,0-33.06c-2.72-2.26-19.87-13.79-24.91-16.86
	c-16.93-10.31-21.09-14.36-36.14-23.6c-14.37-8.82-45.55,23.8-57.56,20.69c-13.19-3.41,22.46-22.87,30.64-59.32
	c-7.49-44.57,4.14-47.23,4.71-68.07c1.48-53.9-1.34-85.93,60.21-97C361.83,90.72,366.69,144.25,362.38,256.22z"/>
<g>
	<g>
		<path class="st3" d="M276.69,141.95c0.03,2.23,1.04,4.35,2.13,6.25c1.39,2.4,3.09,4.62,4.83,6.78c3.31,4.1,6.95,7.95,10.7,11.66
			c0.83,0.82,1.66,1.64,2.51,2.43c2.35,2.2,5.89-1.33,3.54-3.54c-2.17-2.04-4.27-4.16-6.33-6.32c-3.72-3.9-7.29-7.81-10.09-12.16
			c-0.69-1.06-1.32-2.16-1.84-3.31c-0.12-0.26,0.06,0.15,0.07,0.16c-0.05-0.14-0.11-0.28-0.16-0.42c-0.08-0.24-0.17-0.48-0.23-0.73
			c-0.05-0.2-0.08-0.41-0.14-0.61c-0.12-0.39,0.03,0.17,0.03,0.23c0-0.14-0.02-0.27-0.02-0.41
			C281.64,138.73,276.64,138.72,276.69,141.95L276.69,141.95z"/>
	</g>
</g>
<g>
	<g>
		<path class="st3" d="M250.25,258.16c3.39,5.7,8.59,10.34,13.7,14.45c5.45,4.39,11.24,8.41,17.32,11.86
			c2.23,1.26,4.5,2.45,6.88,3.4c1.43,0.57,3.09,1.16,4.63,0.7c1.08-0.32,2.02-1.05,3.11-1.41c0.99-0.32,2-0.55,3.04-0.62
			c1.81-0.12,3.59,0.11,5.39,0.25c1.66,0.13,3.34,0.07,4.87-0.67c1.27-0.62,2.37-1.73,3.34-2.73c2.58-2.67,4.81-5.71,6.93-8.74
			c1.94-2.77,3.8-5.61,5.44-8.56c2.15-3.85,3.85-8,5.64-12.03c1.92-4.34,3.77-8.71,5.52-13.12c2.31-5.84,4.53-11.77,6.13-17.85
			c0.43-1.63,1.13-3.67,0.96-5.37c-0.08-0.76-0.27-1.52-0.37-2.28c0.07,0.53-0.04-0.34-0.05-0.51c-0.04-0.41-0.08-0.81-0.11-1.22
			c-0.07-0.92-0.1-1.85-0.1-2.77c0.01-1.85,0.19-3.68,0.76-5.45c0.46-1.43,1.3-2.7,1.74-4.15c0.95-3.15,1.01-6.6,0.84-9.85
			c-0.31-5.82-1.38-11.66-2.84-17.3c-0.09-0.33-0.17-0.66-0.26-0.99c-0.87-3.09-5.69-1.78-4.82,1.33c1.08,3.87,1.94,8.23,2.45,11.92
			c0.44,3.23,0.69,6.54,0.47,9.8c-0.09,1.39-0.2,2.27-0.65,3.77c-0.05,0.17-0.31,0.91-0.26,0.78c0.07-0.18-0.23,0.48-0.29,0.59
			c-0.46,0.9-0.88,1.82-1.19,2.78c-1.12,3.5-1.11,7.4-0.7,11.02c0.13,1.12,0.27,2.24,0.49,3.35c0.01,0.05,0.01,0.13,0.04,0.18
			c0.02,0.04-0.13-0.85-0.11-0.47c0,0.01,0.13-0.72,0.05-0.37c-0.08,0.34-0.11,0.69-0.18,1.03c-0.93,4.74-2.58,9.37-4.22,13.9
			c-2.97,8.2-6.39,16.22-10.03,24.14c-1.46,3.18-2.93,6.3-4.76,9.28c-1.87,3.04-3.87,6.01-6.02,8.86c-0.98,1.3-2.01,2.58-3.1,3.79
			c-0.47,0.52-0.95,1.03-1.45,1.52c-0.22,0.22-0.45,0.43-0.68,0.64c-0.14,0.13-0.95,0.71-0.45,0.39c-0.13,0.08-0.83,0.42-0.36,0.25
			c-0.13,0.05-0.93,0.22-0.41,0.14c-0.73,0.1-1.5,0.04-2.23-0.02c-1.74-0.14-3.47-0.36-5.22-0.26c-2.37,0.13-4.59,0.71-6.74,1.69
			c-0.35,0.16-0.71,0.32-1.04,0.52c-0.29,0.17-0.93,0.35,0.08,0.03c-0.23,0.07-0.55,0.08,0.38-0.03c-0.1,0.01-0.2,0-0.29,0
			c-0.28-0.02,0.76,0.2,0.17,0.02c-0.71-0.22-1.41-0.41-2.11-0.68c-0.1-0.04-0.2-0.08-0.3-0.12c-0.31-0.13,0.44,0.19,0.13,0.05
			c-0.22-0.1-0.44-0.2-0.66-0.3c-0.52-0.24-1.03-0.48-1.53-0.74c-5.61-2.81-10.91-6.3-15.95-10.01
			c-5.25-3.86-10.43-8.16-14.55-13.26c-0.36-0.45-0.58-0.73-1.05-1.4c-0.38-0.54-0.74-1.1-1.07-1.67
			C252.93,252.88,248.6,255.39,250.25,258.16L250.25,258.16z"/>
	</g>
</g>
<g>
	<g>
		<path class="st3" d="M284.04,101.37c16.76-1.63,33.77,1.17,47.92,10.51c5.73,3.78,10.87,8.61,15.22,14.12
			c3.68,4.66,7.34,11.11,9.49,16.5c1.28,3.21,2.33,6.51,3.11,9.88c0.38,1.65,0.71,3.31,0.96,4.98c0.03,0.19,0.06,0.38,0.08,0.57
			c0.08,0.55-0.04-0.36,0.03,0.25c0.05,0.38,0.09,0.75,0.13,1.13c0.09,0.82,0.16,1.64,0.21,2.46c0.09,1.35,1.09,2.5,2.5,2.5
			c1.28,0,2.59-1.15,2.5-2.5c-0.86-13.17-5.79-26.1-13.54-36.74c-9.17-12.59-22.19-21.85-37.19-26.14
			c-10.18-2.91-20.92-3.53-31.42-2.51c-1.34,0.13-2.5,1.06-2.5,2.5C281.54,100.12,282.69,101.5,284.04,101.37L284.04,101.37z"/>
	</g>
</g>
<g>
	<g>
		<path class="st3" d="M269.69,105.49c-7.41-2.16-15.28-0.79-22.27,2.14c-7.15,3-13.71,7.54-19.15,13.06
			c-2.58,2.62-4.98,5.52-6.8,8.72c-1.59,2.8,2.73,5.32,4.32,2.52c2.96-5.22,7.54-9.69,12.46-13.31c5.69-4.2,12.18-7.57,19.19-8.81
			c3.65-0.65,7.39-0.53,10.94,0.5C271.45,111.21,272.78,106.39,269.69,105.49L269.69,105.49z"/>
	</g>
</g>
<g>
	<g>
		<path class="st3" d="M316.65,148.06c0.33,0.07,0.66,0.17,0.98,0.28c0.17,0.06,0.33,0.12,0.5,0.18c0.54,0.19-0.2-0.11,0.2,0.08
			c0.91,0.43,1.8,0.89,2.67,1.4c2.02,1.19,4.04,2.61,5.76,3.99c4.03,3.22,8,6.99,10.68,11.21c0.35,0.54,0.67,1.1,0.97,1.67
			c0.13,0.25,0.26,0.51,0.38,0.77c0.17,0.36-0.02-0.12,0.16,0.37c0.19,0.51,0.36,1.03,0.49,1.57c0.05,0.2,0.14,0.91,0.08,0.34
			c0.02,0.26,0.04,0.51,0.04,0.77c0.05,3.21,5.05,3.22,5,0c-0.07-5.18-3.76-9.85-7.06-13.51c-3.81-4.21-8.3-7.98-13.12-10.98
			c-1.96-1.22-4.13-2.46-6.4-2.97C314.84,142.54,313.51,147.36,316.65,148.06L316.65,148.06z"/>
	</g>
</g>
<g>
	<g>
		<path class="st3" d="M269.64,106.84c0.86,10.03,3.87,19.74,8.94,28.44c1.62,2.78,5.94,0.26,4.32-2.52
			c-4.61-7.91-7.48-16.78-8.26-25.92c-0.12-1.35-1.07-2.5-2.5-2.5C270.88,104.34,269.52,105.49,269.64,106.84L269.64,106.84z"/>
	</g>
</g>
<g>
	<g>
		<path class="st3" d="M377.11,323.86c3.22,0,3.22-5,0-5C373.89,318.86,373.88,323.86,377.11,323.86L377.11,323.86z"/>
	</g>
</g>
<g>
	<g>
		<path class="st3" d="M356.85,190.18c-0.4,0.58-0.54,1.41-0.67,2.09c-0.25,1.3-0.41,2.61-0.57,3.92c-0.47,3.81-0.8,7.65-1.11,11.48
			c-0.98,12.11-1.63,24.26-2.13,36.4c-0.6,14.64-0.96,29.29-0.92,43.94c0.04,12.99,0.28,26.03,1.61,38.96
			c0.49,4.74,1.09,9.52,2.23,14.16c0.74,2.97,1.69,6.3,3.83,8.59c0.42,0.45,0.91,0.85,1.44,1.17c2.77,1.66,5.29-2.67,2.52-4.32
			c-0.02-0.01-0.26-0.17-0.26-0.17c-0.01-0.01-0.02-0.01-0.02-0.02c-0.19-0.14-0.06-0.05,0.36,0.28c0,0-0.11-0.09-0.12-0.1
			c-0.15-0.18-0.35-0.37-0.52-0.53c-0.39-0.38,0.24,0.39,0.13,0.17c-0.06-0.11-0.15-0.2-0.21-0.3c-0.16-0.25-0.31-0.5-0.46-0.76
			c-0.14-0.26-0.27-0.52-0.4-0.79c-0.07-0.14-0.12-0.29-0.19-0.43c-0.19-0.37,0.24,0.64,0.1,0.24c-0.03-0.09-0.08-0.19-0.11-0.28
			c-0.27-0.72-0.52-1.44-0.74-2.18c-0.55-1.84-0.96-3.72-1.31-5.61c-0.2-1.08-0.38-2.16-0.54-3.25c-0.08-0.55-0.16-1.1-0.24-1.66
			c0.11,0.77-0.02-0.17-0.05-0.36c-0.04-0.35-0.09-0.7-0.13-1.05c-1.48-12.34-1.78-24.84-1.9-37.25c-0.13-14.5,0.16-29.01,0.7-43.5
			c0.46-12.53,1.1-25.06,2.03-37.57c0.32-4.25,0.66-8.51,1.12-12.75c0.08-0.76,0.17-1.52,0.26-2.28c0.04-0.33,0.08-0.66,0.13-0.99
			c0.06-0.47-0.11,0.77-0.01,0.1c0.02-0.16,0.05-0.32,0.07-0.49c0.12-0.81,0.28-1.61,0.45-2.42c0.17-0.78-0.27,0.38-0.04,0.06
			c0.77-1.11,0.21-2.78-0.9-3.42C359.03,188.56,357.62,189.07,356.85,190.18L356.85,190.18z"/>
	</g>
</g>
<g>
	<g>
		<path class="st3" d="M246.68,125.47c-3.56,2.53-6.77,5.54-9.02,9.31c-1.93,3.23-2.99,6.83-3.38,10.55
			c-0.74,7.08,1.3,14.23,3.61,20.84c1.1,3.14,2.3,6.25,3.4,9.39c0.51,1.46,0.99,2.92,1.39,4.41c0.17,0.6,0.27,1.23,0.45,1.83
			c0.11,0.37,0.02-0.59-0.01,0.04c-0.01,0.2-0.02,0.42-0.01,0.62c0.03,0.54,0.16-0.56-0.01,0.08c-0.04,0.18-0.08,0.35-0.12,0.53
			c-0.05,0.18-0.1,0.35-0.16,0.53c-0.07,0.2-0.4,0.91-0.05,0.19c-0.36,0.76-0.74,1.5-1.14,2.24c-0.97,1.77-1.93,3.6-2.41,5.58
			c-1.93,8.07,4.01,15.42,9.18,20.88c0-1.18,0-2.36,0-3.54c-3.51,2.76-6.6,6.1-8.27,10.3c-1.2,3.02-1.34,6.26-0.77,9.43
			c0.46,2.58,1.49,5,2.48,7.41c0.41,1,0.83,2,1.13,3.04c0.06,0.22,0.12,0.45,0.17,0.67c0.02,0.09,0.13,0.83,0.08,0.39
			c-0.05-0.45,0.01,0.27,0.01,0.36c0,0.4-0.15,0.62,0.03,0.13c-3.21,8.77-5.93,17.55-7.23,26.83c-1.2,8.57-1.49,17.26-0.12,25.83
			c1.09,6.77,3.41,14.36,8.82,18.96c1.03,0.87,2.53,1.01,3.54,0c0.9-0.9,1.03-2.66,0-3.54c-2.04-1.74-3.12-3.34-4.35-5.84
			c-1.23-2.5-2.16-5.65-2.77-8.65c-1.58-7.73-1.42-15.82-0.52-23.62c1.06-9.2,3.45-18.3,6.84-26.91c0.9-2.29,0.9-4.29,0.11-6.63
			c-0.74-2.19-1.78-4.28-2.52-6.47c-0.23-0.69-0.44-1.38-0.61-2.08c-0.09-0.36-0.17-0.72-0.23-1.08c-0.03-0.16-0.06-0.33-0.08-0.49
			c-0.13-0.78,0.02,0.25-0.03-0.2c-0.08-0.76-0.11-1.53-0.07-2.29c0.04-0.87,0.07-1.05,0.3-1.99c1.03-4.14,4.26-7.38,7.61-10.02
			c1.08-0.85,0.84-2.65,0-3.54c-2.77-2.92-5.47-6.09-7.12-9.8c-0.13-0.28-0.38-0.96-0.55-1.56c-0.09-0.3-0.16-0.59-0.23-0.89
			c-0.04-0.18-0.19-1.21-0.13-0.61c-0.05-0.49-0.08-0.99-0.07-1.48c0-0.25,0.03-0.5,0.04-0.75c0.02-0.55-0.09,0.34,0.04-0.32
			c0.09-0.45,0.19-0.9,0.33-1.34c0.07-0.21,0.14-0.43,0.21-0.64c0.07-0.18,0.42-1,0.12-0.32c0.35-0.78,0.74-1.53,1.15-2.28
			c0.83-1.53,1.75-3.1,2.15-4.81c0.55-2.4-0.1-4.66-0.8-6.96c-0.91-2.96-2.02-5.86-3.08-8.77c-2.26-6.16-4.58-12.64-4.83-19.07
			c-0.13-3.52,0.31-6.93,1.79-10.09c1.82-3.88,4.79-7,8.26-9.46c1.1-0.78,1.62-2.18,0.9-3.42
			C249.47,125.28,247.79,124.69,246.68,125.47L246.68,125.47z"/>
	</g>
</g>
<g>
	<g>
		<path class="st3" d="M221.46,129.41c-4.86,7.16-6.89,15.97-8.08,24.41c-1.34,9.48-1.67,19.06-2.07,28.62
			c-0.33,7.95-0.4,15.89-2.39,23.35c-1.48,5.56-4.05,10.77-5.69,16.28c-1.71,5.73-2.28,11.77-1.74,17.73
			c0.96,10.59,4.86,20.91,3.28,31.66c0.05-0.33-0.02,0.14-0.04,0.21c-0.03,0.15-0.07,0.3-0.11,0.45c-0.1,0.38-0.22,0.74-0.36,1.11
			c-0.07,0.19-0.15,0.37-0.22,0.55c-0.09,0.25,0.26-0.56-0.05,0.1c-0.21,0.44-0.41,0.88-0.63,1.32c-1.08,2.14-2.33,4.2-3.6,6.24
			c-6.66,10.6-14.36,20.53-20.83,31.25c-2.24,3.72-4.93,7.91-5.51,12.3c-0.23,1.71,0.04,3.51,1.37,4.73
			c1.56,1.44,3.75,1.37,5.71,1.01c1.04-0.19,2.06-0.52,3.05-0.88c1.27-0.46,2.12-1.7,1.75-3.08c-0.34-1.22-1.8-2.21-3.08-1.75
			c-1.02,0.37-2.05,0.67-3.11,0.9c-0.5,0.11-0.24,0.01,0.01,0.01c-0.18,0.01-0.36,0.03-0.54,0.04c-0.15,0-0.29-0.01-0.44,0
			c-0.71,0.02,0.54,0.02,0.06,0.01c-0.11,0-0.27-0.12-0.37-0.1c-0.11,0.01,0.64,0.33,0.21,0.07c-0.4-0.25,0.53,0.48,0.19,0.15
			c-0.38-0.38,0.3,0.44,0.14,0.21c-0.42-0.61,0.12,0.56-0.04-0.08c-0.14-0.56-0.03,0.46,0.01,0.22c0.03-0.14-0.02-0.35-0.02-0.49
			c0-0.13,0.03-0.27,0.02-0.4c-0.03-0.45-0.16,0.72-0.01,0.09c0.09-0.37,0.16-0.75,0.26-1.11c0.11-0.4,0.25-0.79,0.39-1.18
			c0.08-0.21,0.16-0.42,0.24-0.63c0.23-0.59-0.19,0.39,0.08-0.19c0.99-2.16,2.11-4.24,3.31-6.28c6.26-10.61,13.81-20.39,20.47-30.74
			c2.35-3.65,5.01-7.55,6.26-11.76c0.45-1.51,0.52-3.14,0.63-4.7c0.19-2.78,0.13-5.57-0.14-8.35c-0.5-5.1-1.64-10.09-2.55-15.12
			c-0.91-5.08-1.34-10.22-0.72-15.36c0.73-6.11,3.2-11.78,5.31-17.51c1.39-3.77,2.43-7.51,3-11.49c0.57-4.03,0.88-8.08,1.1-12.14
			c0.51-9.22,0.64-18.45,1.49-27.65c0.76-8.27,2.06-17.17,5.51-24.59c0.79-1.7,1.71-3.34,2.77-4.9
			C227.59,129.27,223.26,126.76,221.46,129.41L221.46,129.41z"/>
	</g>
</g>
<g>
	<g>
		<path class="st3" d="M273.59,133.58c-6.15-0.56-11.24,5.52-14.42,9.97c-4.34,6.09-7.61,13.31-9.25,20.6
			c-0.83,3.7-1.25,7.52-0.57,11.27c0.24,1.33,1.86,2.08,3.08,1.75c1.4-0.38,1.99-1.74,1.75-3.08c-0.03-0.14-0.05-0.28-0.07-0.42
			c0.07,0.51,0.01,0.12,0,0.01c-0.04-0.34-0.06-0.68-0.08-1.02c-0.04-0.68-0.04-1.36-0.01-2.04c0.07-1.7,0.2-2.56,0.52-4.19
			c0.67-3.36,1.74-6.66,3.07-9.81c2.41-5.7,5.71-11.52,10.35-15.61c0.29-0.26,0.59-0.51,0.89-0.74c-0.37,0.28,0.44-0.3,0.57-0.39
			c0.52-0.34,1.05-0.63,1.61-0.91s-0.34,0.12,0.02-0.01c0.15-0.05,0.29-0.11,0.44-0.16c0.29-0.09,0.58-0.16,0.87-0.23
			c0.66-0.15-0.3-0.04,0.37-0.04c0.28,0,0.56,0,0.85,0.03c1.35,0.12,2.5-1.24,2.5-2.5C276.09,134.62,274.94,133.7,273.59,133.58
			L273.59,133.58z"/>
	</g>
</g>
<g>
	<g>
		<path class="st3" d="M295.3,138.23c12.02,7.14,20.4,19.53,23.14,33.18c0.78,3.88,1.02,7.84,0.82,11.79c-0.17,3.22,4.83,3.21,5,0
			c0.8-15.26-5.41-30.61-16.2-41.36c-3.06-3.05-6.52-5.72-10.23-7.93C295.05,132.27,292.54,136.59,295.3,138.23L295.3,138.23z"/>
	</g>
</g>
<g>
	<g>
		<path class="st3" d="M294.19,141.26c0.24,13.06,5.41,25.74,14.34,35.27c2.2,2.35,5.74-1.19,3.54-3.54
			c-8.02-8.56-12.66-20.01-12.88-31.73C299.13,138.05,294.13,138.04,294.19,141.26L294.19,141.26z"/>
	</g>
</g>
<g>
	<g>
		<path class="st3" d="M278.33,146.37c-1.66,7.57-0.58,15.39-2.23,22.95c-0.29,1.32,0.4,2.7,1.75,3.08
			c1.25,0.34,2.78-0.42,3.08-1.75c1.66-7.57,0.58-15.39,2.23-22.95c0.29-1.32-0.4-2.7-1.75-3.08
			C280.15,144.28,278.62,145.05,278.33,146.37L278.33,146.37z"/>
	</g>
</g>
<g>
	<g>
		<path class="st3" d="M276.92,140.79c-5.18,3.27-9.06,7.6-10.94,13.49c-1.8,5.65-2.25,11.67-3.8,17.4
			c-0.84,3.11,3.98,4.44,4.82,1.33c1.48-5.48,1.99-11.18,3.57-16.63c0.66-2.29,1.38-3.98,2.84-6c1.41-1.94,3.8-3.87,6.03-5.28
			C282.16,143.39,279.66,139.06,276.92,140.79L276.92,140.79z"/>
	</g>
</g>
<g>
	<g>
		<path class="st3" d="M325.1,442.87c3.22,0,3.22-5,0-5S321.88,442.87,325.1,442.87L325.1,442.87z"/>
	</g>
</g>
<g>
	<g>
		<path class="st3" d="M376.44,323.77c5.08,1.02,10.24,2.26,14.99,4.27c4.5,1.9,8.98,4.65,11.68,8.6c1.57,2.3,2.57,4.8,2.93,7.6
			c0.17,1.34,1.03,2.5,2.5,2.5c1.22,0,2.67-1.15,2.5-2.5c-0.76-5.95-3.47-11.23-8.1-15.1c-4.53-3.78-10.01-6.15-15.62-7.86
			c-3.14-0.95-6.34-1.69-9.55-2.34c-1.32-0.27-2.7,0.38-3.08,1.75C374.36,321.93,375.11,323.5,376.44,323.77L376.44,323.77z"/>
	</g>
</g>
<g>
	<g>
		<path class="st3" d="M325.1,442.87c3.22,0,3.22-5,0-5S321.88,442.87,325.1,442.87L325.1,442.87z"/>
	</g>
</g>
<g>
	<g>
		<path class="st3" d="M158.3,348.59c3.22,0,3.22-5,0-5S155.08,348.59,158.3,348.59L158.3,348.59z"/>
	</g>
</g>
<g>
	<g>
		<path class="st3" d="M166.32,346.09c-1.27,13.47-2.97,26.89-4.67,40.31c-1.44,11.39-2.88,22.8-3.59,34.27
			c-0.64,10.42-0.63,20.9,0.69,31.27c1.37,10.73,4.06,21.19,8.13,31.22c4.85,11.95,11.32,23.14,18.69,33.71
			c1.06,1.52,2.14,3.03,3.24,4.52c0.8,1.09,2.17,1.63,3.42,0.9c1.07-0.63,1.7-2.32,0.9-3.42c-7.74-10.58-14.74-21.78-20.05-33.79
			c-4.29-9.69-7.3-19.94-8.93-30.41c-1.52-9.79-1.75-20.31-1.28-30.43c0.53-11.25,1.86-22.44,3.25-33.61
			c1.63-13.01,3.34-26,4.67-39.05c0.19-1.83,0.36-3.66,0.54-5.49c0.13-1.35-1.24-2.5-2.5-2.5
			C167.36,343.59,166.44,344.74,166.32,346.09L166.32,346.09z"/>
	</g>
</g>
<g>
	<g>
		<path class="st3" d="M406.04,344.24c0.94,10.05,0.62,20.14-0.6,30.16c-0.07,0.55-0.14,1.1-0.21,1.64
			c-0.02,0.14-0.11,0.86-0.05,0.39c-0.04,0.31-0.08,0.62-0.13,0.93c-0.16,1.16-0.33,2.32-0.51,3.48c-0.35,2.3-0.74,4.6-1.13,6.9
			c-0.79,4.56-1.63,9.11-2.4,13.68c-1.67,9.85-2.98,19.78-3.21,29.78c-0.28,11.97,0.97,23.95,3.42,35.67
			c3.3,15.78,8.72,31.04,15.07,45.83c0.96,2.24,1.96,4.47,2.96,6.7c0.56,1.23,2.34,1.53,3.42,0.9c1.26-0.74,1.46-2.19,0.9-3.42
			c-6.84-15.06-12.71-30.64-16.52-46.76c-2.78-11.78-4.32-23.57-4.3-35.7c0.01-5.09,0.29-10.18,0.79-15.25
			c0.12-1.23,0.26-2.46,0.4-3.68c0.07-0.57,0.14-1.13,0.21-1.7c0.04-0.28,0.07-0.56,0.11-0.84c0.01-0.06,0.07-0.56,0.04-0.27
			c-0.04,0.28,0.06-0.4,0.05-0.39c0.32-2.33,0.67-4.65,1.05-6.97c1.48-9.11,3.32-18.17,4.57-27.31c1.35-9.84,2.01-19.75,1.39-29.67
			c-0.08-1.36-0.19-2.72-0.32-4.08c-0.13-1.34-1.06-2.5-2.5-2.5C407.29,341.74,405.91,342.89,406.04,344.24L406.04,344.24z"/>
	</g>
</g>
<g>
	<g>
		<path class="st3" d="M259.85,385.18c2.96,10.79,11.83,18.34,20.67,24.48c9.43,6.55,19.94,12,28.52,19.44
			c4.51,3.92,8.15,8.04,10.48,13.55c0.53,1.24,2.36,1.52,3.42,0.9c1.29-0.75,1.43-2.17,0.9-3.42
			c-4.33-10.23-13.88-17.24-22.86-23.17c-9.42-6.23-19.66-11.63-27.69-19.47c-4.03-3.93-7.17-8.33-8.62-13.64
			C263.82,380.75,258.99,382.07,259.85,385.18L259.85,385.18z"/>
	</g>
</g>
<g>
	<g>
		<path class="st3" d="M223.62,308.03c-3.27-0.19-6.84,1.23-9.86,2.3c-5.21,1.85-10.3,4.07-15.3,6.41
			c-11.02,5.15-21.99,10.92-31.86,18.07c-3.79,2.75-8.09,5.85-10.46,10.01c-1.6,2.8,2.72,5.32,4.32,2.52
			c0.17-0.3,0.36-0.6,0.56-0.89c0.11-0.15,0.22-0.31,0.33-0.46c-0.32,0.43-0.13,0.16,0.07-0.08c0.58-0.68,1.19-1.34,1.83-1.96
			c0.74-0.72,1.52-1.41,2.31-2.08c0.43-0.37,0.88-0.72,1.32-1.08c0.12-0.09,0.73-0.57,0.37-0.29c0.24-0.19,0.48-0.37,0.73-0.55
			c4.53-3.4,9.37-6.38,14.28-9.2c5.36-3.08,10.85-5.95,16.43-8.62c2.62-1.26,5.27-2.47,7.93-3.63c2.06-0.89,4.33-1.83,6.76-2.74
			c2.13-0.8,4.29-1.55,6.5-2.14c0.81-0.22,1.63-0.39,2.46-0.55c0.68-0.13-0.37,0.01-0.04,0c0.16-0.01,0.31-0.03,0.47-0.04
			c0.28-0.02,0.56-0.03,0.85-0.01C226.83,313.22,226.82,308.22,223.62,308.03L223.62,308.03z"/>
	</g>
</g>
<g>
	<g>
		<path class="st3" d="M202.14,407.59c0.27,7.94,0.54,15.87,0.82,23.81c0.13,3.93,0.17,7.87,0.59,11.79
			c0.74,6.99,2.02,13.92,3.52,20.78c4.17,19.09,10.2,38.17,19.46,55.44c4.99,9.31,11.13,18.35,19.21,25.27
			c1.02,0.88,2.53,1.01,3.54,0c0.9-0.9,1.03-2.65,0-3.54c-7.02-6.01-12.29-13.39-16.84-21.39c-4.88-8.58-8.75-17.66-12.03-26.96
			c-3.14-8.92-5.74-18.04-7.86-27.26c-0.9-3.91-1.71-7.84-2.42-11.78c-0.29-1.64-0.57-3.29-0.82-4.93
			c-0.12-0.78-0.23-1.55-0.34-2.33c-0.02-0.12-0.03-0.25-0.05-0.37c-0.09-0.64,0.07,0.56-0.01-0.06c-0.05-0.41-0.11-0.82-0.16-1.22
			c-0.44-3.65-0.56-7.27-0.69-10.94c-0.3-8.76-0.6-17.53-0.9-26.29C207.03,404.39,202.03,404.37,202.14,407.59L202.14,407.59z"/>
	</g>
</g>
<g>
	<g>
		<path class="st3" d="M192.31,326.54c3.22,0,3.22-5,0-5C189.1,321.54,189.09,326.54,192.31,326.54L192.31,326.54z"/>
	</g>
</g>
<g>
	<g>
		<path class="st3" d="M319.18,441.39c-1.66,28.19,2.46,56.47,13.06,82.7c3.06,7.57,6.57,14.93,10.49,22.09
			c1.55,2.82,5.87,0.3,4.32-2.52c-13.27-24.19-21.36-50.86-22.94-78.45c-0.45-7.93-0.4-15.88,0.06-23.81
			C324.37,438.18,319.37,438.19,319.18,441.39L319.18,441.39z"/>
	</g>
</g>
<g>
	<path class="st4" d="M347.55,231.19c2.18,1.98,33.67-49.44,33.67-49.44c-13.41-15.91-28.3-38.16-38.09-49.82"/>
	<g>
		<path class="st3" d="M345.79,232.96c2.96,2.4,5.66-1.52,7.28-3.61c2.98-3.84,5.72-7.87,8.42-11.91
			c6.13-9.17,12.02-18.51,17.85-27.88c1.36-2.18,2.71-4.36,4.05-6.55c0.62-1.01,0.32-2.18-0.39-3.03
			c-10.93-12.99-20.54-27-30.77-40.52c-2.38-3.14-4.79-6.27-7.32-9.3c-0.87-1.04-2.64-0.9-3.54,0c-1.03,1.03-0.87,2.5,0,3.54
			c4.68,5.59,8.97,11.49,13.29,17.36c5.18,7.04,10.32,14.1,15.65,21.02c2.98,3.87,6.01,7.7,9.15,11.44
			c-0.13-1.01-0.26-2.02-0.39-3.03c-3.43,5.6-6.91,11.16-10.42,16.71c-5.69,8.99-11.39,18.04-17.65,26.65
			c-0.33,0.46-0.67,0.91-1.01,1.37c-0.14,0.19-0.29,0.38-0.43,0.57c-0.46,0.62,0.16-0.2-0.16,0.2c-0.51,0.64-1.02,1.28-1.56,1.9
			c-0.36,0.41-0.79,0.77-1.15,1.17c-0.3,0.33,0.58-0.4,0.22-0.17c-0.07,0.04-0.13,0.09-0.2,0.12c0.78-0.37,1.62-0.39,2.61,0.41
			c-1.05-0.85-2.51-1.02-3.54,0C344.91,230.3,344.73,232.1,345.79,232.96L345.79,232.96z"/>
	</g>
</g>
<g>
	<path class="st4" d="M224.63,235.33c-2.18,1.98-33.67-49.44-33.67-49.44c13.41-15.91,28.3-38.16,38.09-49.82"/>
	<g>
		<path class="st3" d="M222.86,233.57c0.5-0.4,1.02-0.68,1.61-0.68c0.68,0,0.36,0.08,0.78,0.17c0.39,0.08,0.29,0.13,0.13,0.04
			c-0.35-0.19,0.06-0.03,0.01,0.03c0.05-0.06,0.3,0.29,0.03,0.01c-0.08-0.08-0.17-0.15-0.25-0.23c-0.19-0.18-0.38-0.38-0.56-0.58
			c-0.44-0.48-0.86-0.99-1.27-1.5c-0.11-0.14-0.23-0.28-0.34-0.43c-0.07-0.09-0.51-0.66-0.25-0.32c0.27,0.35-0.17-0.22-0.22-0.29
			c-0.16-0.21-0.32-0.43-0.48-0.64c-2.85-3.83-5.51-7.8-8.15-11.78c-5.82-8.78-11.45-17.69-17.01-26.64
			c-1.26-2.03-2.53-4.07-3.78-6.11c-0.13,1.01-0.26,2.02-0.39,3.03c11.04-13.13,20.79-27.27,31.12-40.96c2.26-3,4.56-5.98,6.98-8.86
			c0.87-1.03,1.01-2.52,0-3.54c-0.89-0.89-2.66-1.04-3.54,0c-10.38,12.39-19.38,25.91-29.21,38.73c-2.88,3.76-5.83,7.47-8.88,11.09
			c-0.71,0.84-1,2.03-0.39,3.03c3.66,5.97,7.37,11.9,11.12,17.81c5.8,9.13,11.55,18.39,18.06,27.04c1.68,2.24,5.03,7.83,8.42,5.09
			c1.05-0.85,0.88-2.65,0-3.54C225.36,232.53,223.91,232.71,222.86,233.57L222.86,233.57z"/>
	</g>
</g>
<g>
	<path class="st4" d="M224.63,286.64c-2.18,1.98-33.67-49.44-33.67-49.44c13.41-15.91,28.3-38.16,38.09-49.82"/>
	<g>
		<path class="st3" d="M222.86,284.87c0.5-0.4,1.02-0.68,1.61-0.68c0.68,0,0.36,0.08,0.78,0.17c0.39,0.08,0.29,0.13,0.13,0.04
			c-0.35-0.19,0.06-0.03,0.01,0.03c0.05-0.06,0.3,0.29,0.03,0.01c-0.08-0.08-0.17-0.15-0.25-0.23c-0.19-0.18-0.38-0.38-0.56-0.58
			c-0.44-0.48-0.86-0.99-1.27-1.5c-0.11-0.14-0.23-0.28-0.34-0.43c-0.07-0.09-0.51-0.66-0.25-0.32c0.27,0.35-0.17-0.22-0.22-0.29
			c-0.16-0.21-0.32-0.43-0.48-0.64c-2.85-3.83-5.51-7.8-8.15-11.78c-5.82-8.78-11.45-17.69-17.01-26.64
			c-1.26-2.03-2.53-4.07-3.78-6.11c-0.13,1.01-0.26,2.02-0.39,3.03c11.04-13.13,20.79-27.27,31.12-40.96c2.26-3,4.56-5.98,6.98-8.86
			c0.87-1.03,1.01-2.52,0-3.54c-0.89-0.89-2.66-1.04-3.54,0c-10.38,12.39-19.38,25.91-29.21,38.73c-2.88,3.76-5.83,7.47-8.88,11.09
			c-0.71,0.84-1,2.03-0.39,3.03c3.66,5.97,7.37,11.9,11.12,17.81c5.8,9.13,11.55,18.39,18.06,27.04c1.68,2.24,5.03,7.83,8.42,5.09
			c1.05-0.85,0.88-2.65,0-3.54C225.36,283.83,223.91,284.02,222.86,284.87L222.86,284.87z"/>
	</g>
</g>
<g>
	<g>
		<path class="st3" d="M243.76,240.27c0.3,0.44,0.54,0.92,0.76,1.41c0.07,0.15,0.14,0.31,0.21,0.47c-0.27-0.62-0.01-0.02,0.03,0.09
			c0.18,0.45,0.35,0.91,0.52,1.36c0.71,1.93,1.32,3.9,1.92,5.87c1.34,4.43,2.54,8.91,3.68,13.4c2.78,10.91,5.13,22.09,2.16,33.25
			c-1.89,7.07-5.54,13.59-10.61,18.87c-2.23,2.32,1.3,5.86,3.54,3.54c10.25-10.69,14.73-25.24,13.17-39.87
			c-1.04-9.75-3.87-19.47-6.62-28.85c-0.7-2.38-1.42-4.76-2.26-7.1c-0.59-1.66-1.18-3.47-2.18-4.95
			C246.28,235.1,241.95,237.6,243.76,240.27L243.76,240.27z"/>
	</g>
</g>
<g>
	<g>
		<path class="st3" d="M311.15,277.75c-1.08,5.16-0.41,10.53,0.68,15.62c1.31,6.16,3.39,12.15,5.73,17.99
			c4.78,11.93,10.66,23.47,17.37,34.43c2.3,3.77,4.67,7.64,7.58,10.98c0.89,1.02,2.63,0.91,3.54,0c1.01-1.01,0.89-2.51,0-3.54
			c-0.19-0.22-0.38-0.44-0.56-0.67c-0.1-0.13-0.2-0.26-0.31-0.38c-0.2-0.24,0.35,0.47-0.01-0.02c-0.49-0.66-0.98-1.32-1.45-2
			c-1.22-1.74-2.37-3.52-3.5-5.33c-3.02-4.83-5.83-9.79-8.49-14.83c-5.92-11.24-11.33-22.87-14.45-35.23
			c-0.39-1.53-0.73-3.08-1.01-4.63c-0.13-0.74-0.25-1.47-0.36-2.21c-0.06-0.42,0.04,0.36-0.01-0.06c-0.02-0.2-0.05-0.4-0.07-0.59
			c-0.04-0.35-0.07-0.7-0.1-1.05c-0.11-1.32-0.17-2.65-0.12-3.98c0.02-0.61,0.07-1.22,0.13-1.84c0.05-0.55-0.06,0.26,0.05-0.4
			c0.05-0.31,0.11-0.62,0.17-0.93c0.28-1.32-0.39-2.7-1.75-3.08C312.99,275.66,311.43,276.42,311.15,277.75L311.15,277.75z"/>
	</g>
</g>
<g>
	<g>
		<path class="st3" d="M377.11,318.86c-0.12,0-0.24,0-0.36,0c0.74,0.03,0.17,0.06,0.12-0.02c0.01,0.01-0.58-0.28,0.04,0.03
			c-0.13-0.06-0.25-0.13-0.37-0.2c-0.13-0.08-0.25-0.16-0.37-0.25c0.04,0.03,0.27,0.21,0.04,0.03c-0.3-0.24-0.58-0.51-0.85-0.78
			c-1.03-1.02-1.99-2.26-2.82-3.34c-1.01-1.31-1.99-2.66-3.12-3.88c-0.4-0.44-0.82-0.84-1.28-1.21c-0.31-0.25-0.65-0.53-1-0.73
			c-0.37-0.21-0.39-0.35,0.19,0.2c-0.24-0.23,0.47,0.68,0.25,0.31c-0.23-0.38,0.2,0.77,0.11,0.25c-0.05-0.3-0.15-0.6-0.21-0.9
			c-0.03-0.17-0.07-0.8-0.04-0.26c0.02,0.58-0.02-0.22-0.04-0.39c-0.06-0.54-0.1-1.08-0.13-1.62c-0.48-7.49-0.19-15.06-0.03-22.56
			c0.24-10.49,0.6-20.97,0.91-31.45c0.29-9.59,0.6-19.18,0.63-28.77c0.01-3.24,0.01-6.5-0.17-9.74c-0.1-1.88-0.02-4.29-1.01-5.97
			c-0.28-0.48-0.64-0.91-1.13-1.18c-2.81-1.57-5.34,2.75-2.52,4.32c-0.29-0.16-0.54-0.44-0.73-0.72c0.26,0.39-0.12-0.2-0.11-0.31
			c-0.02,0.22,0.17,0.6,0.21,0.83c0.04,0.18,0.06,0.37,0.09,0.55c0.1,0.49-0.06-0.58-0.04-0.27c0.01,0.11,0.03,0.23,0.04,0.34
			c0.05,0.52,0.1,1.05,0.14,1.57c0.21,3.13,0.23,6.27,0.22,9.4c0,9.49-0.3,18.97-0.59,28.45c-0.32,10.6-0.69,21.21-0.93,31.82
			c-0.18,7.71-0.46,15.48-0.03,23.18c0.1,1.88,0.05,4.25,1.02,5.94c0.33,0.57,0.73,0.9,1.28,1.24c0.54,0.34,0.02-0.06,0.32,0.2
			c0.24,0.21,0.46,0.42,0.68,0.64c0.5,0.51,0.97,1.06,1.42,1.62c1.86,2.28,3.59,5.06,6,6.98c1.2,0.95,2.58,1.7,4.16,1.65
			C380.32,323.76,380.33,318.76,377.11,318.86L377.11,318.86z"/>
	</g>
</g>
<g>
	<g>
		<path class="st3" d="M293.13,266c1.87-0.01,3.74-0.01,5.61-0.02c0.92,0,1.83-0.01,2.75-0.01c0.38,0,0.77,0.02,1.15,0.01
			c0.51-0.01-0.46-0.17-0.01-0.01c0.26,0.08,0.21,0.05-0.15-0.1c0.23,0.13,0.19,0.09-0.12-0.12c0.98,0.86,2.58,1.04,3.54,0
			c0.87-0.95,1.05-2.61,0-3.54c-1-0.88-2.1-1.21-3.42-1.25c-1.02-0.03-2.05,0-3.08,0.01c-2.09,0.01-4.18,0.01-6.27,0.02
			c-1.31,0-2.56,1.15-2.5,2.5C290.69,264.85,291.73,266,293.13,266L293.13,266z"/>
	</g>
</g>
<g>
	<g>
		<path class="st3" d="M371.18,323.86c1.96,0.03,3.81,0.81,5.11,1.9s2.32,2.41,3.47,3.64c4.36,4.65,9.1,8.99,13.63,13.46
			c2.29,2.26,5.83-1.27,3.54-3.54c-2.56-2.52-5.12-5.05-7.67-7.57c-2.11-2.08-4.36-4.08-6.33-6.3c-3.19-3.62-6.66-6.51-11.75-6.59
			C367.96,318.8,367.96,323.8,371.18,323.86L371.18,323.86z"/>
	</g>
</g>
<path class="st5" d="M325.45,380.9c27.87-13.43,28.35-17.54,28.35-17.54s-28.56-27.55-33.72-12.67
	C314.73,366.04,325.45,380.9,325.45,380.9c-2.52,18.59-5.59,39.86-3.76,60.49c8.76-11.51,37.19-71.32,32.11-78.04"/>
<g>
	<path class="st3" d="M326.71,383.05c6.14-2.96,12.26-6.04,18.12-9.54c2.93-1.75,5.85-3.6,8.45-5.81c0.96-0.81,1.97-1.74,2.58-2.86
		c0.25-0.46,0.43-0.96,0.43-1.5c0-1.18-0.78-1.82-1.54-2.53c-5.2-4.82-10.83-9.42-16.98-12.99c-5.66-3.29-15.69-7.35-19.51,0.71
		c-2.93,6.19-2.65,13.86-0.95,20.35c1.16,4.43,3.05,8.82,5.56,12.66c0.13,0.21,0.27,0.41,0.41,0.61c-0.08-0.64-0.17-1.28-0.25-1.93
		c-2.12,15.65-4.33,31.36-4.4,47.18c-0.02,4.66,0.15,9.33,0.55,13.98c0.22,2.59,3.15,3.25,4.66,1.26c2.76-3.64,4.95-7.76,7.12-11.77
		c3.23-5.96,6.26-12.04,9.16-18.17c3.18-6.73,6.21-13.54,9.01-20.44c2.35-5.78,4.6-11.65,6.26-17.67c0.67-2.44,1.24-4.94,1.45-7.46
		c0.13-1.63,0.11-3.66-0.89-5.04c-0.79-1.09-2.17-1.63-3.42-0.9c-1.08,0.63-1.7,2.32-0.9,3.42c0.06,0.08,0.11,0.21,0.18,0.28
		c0.3,0.28-0.13-0.59-0.09-0.23c0.02,0.18,0.28,1.05,0.15,0.52c-0.12-0.52,0-0.01,0.01,0.14c0.01,0.17,0.02,0.35,0.02,0.52
		c0.01,0.39-0.01,0.78-0.04,1.17c-0.02,0.28-0.2,1.52-0.06,0.66c-0.08,0.49-0.15,0.99-0.25,1.48c-0.21,1.07-0.46,2.14-0.73,3.2
		c-1.5,5.75-3.61,11.34-5.8,16.85c-5.03,12.61-11.02,25.41-17.54,37.62c-2.42,4.53-4.85,9.2-7.95,13.31
		c1.55,0.42,3.11,0.84,4.66,1.26c-1.27-14.64-0.16-29.36,1.59-43.91c0.41-3.41,0.85-6.81,1.31-10.22c0.23-1.68,0.46-3.37,0.68-5.05
		c0.14-1.01,0.25-1.84-0.28-2.74c-1.52-2.57-3.05-5.2-4.05-7.85c-1.89-4.99-2.94-10.49-2.08-15.82c0.25-1.56,0.68-3.05,1.16-4.55
		c0.05-0.14,0.23-0.56-0.01-0.02c0.07-0.16,0.15-0.33,0.23-0.49c0.16-0.3,0.34-0.58,0.53-0.86c-0.41,0.61,0.18-0.16,0.32-0.32
		c0.1-0.11,0.22-0.2,0.34-0.29c-0.51,0.44-0.24,0.17-0.09,0.09c0.23-0.12,0.47-0.25,0.7-0.38c-0.66,0.38,0.1-0.02,0.37-0.08
		c0.14-0.04,0.3-0.05,0.44-0.09c0.49-0.15-0.58-0.01-0.06,0.01c0.29,0.01,0.58-0.04,0.87-0.03c0.3,0,0.6,0.03,0.9,0.05
		c0.59,0.04-0.57-0.13,0.02,0c0.17,0.04,0.35,0.06,0.52,0.1c0.7,0.14,1.4,0.34,2.08,0.57c0.35,0.12,0.69,0.24,1.03,0.37
		c0.19,0.07,0.38,0.15,0.57,0.23c-0.53-0.22,0.06,0.03,0.17,0.08c3.17,1.46,6.13,3.31,8.97,5.33c0.81,0.57,1.61,1.16,2.4,1.76
		c0.64,0.48,0.28,0.21,0.9,0.69c0.34,0.27,0.67,0.53,1.01,0.8c1.29,1.03,2.55,2.09,3.8,3.18c1.19,1.04,2.38,2.09,3.52,3.19
		c-0.24-0.59-0.49-1.18-0.73-1.77c0.03-0.21,0.07-1.06,0.29-1.11c-0.04,0.01-0.2,0.35-0.23,0.4c-0.31,0.5,0.39-0.41,0.14-0.18
		c-0.12,0.12-0.22,0.26-0.34,0.39c-0.33,0.36-0.69,0.7-1.06,1.02c-0.23,0.21-0.47,0.4-0.71,0.6c-0.14,0.12-0.29,0.23-0.44,0.35
		c-0.18,0.15,0.46-0.34-0.15,0.11c-0.8,0.59-1.6,1.16-2.43,1.71c-2.51,1.68-5.12,3.2-7.75,4.67c-4.73,2.64-9.57,5.07-14.45,7.42
		c-1.22,0.59-1.54,2.32-0.9,3.42C324.01,383.4,325.49,383.64,326.71,383.05L326.71,383.05z"/>
</g>
<g>
	<path class="st6" d="M167.91,342.48c-9.61,18.07-4.6,20.33-9.94,70.47"/>
	<g>
		<path class="st3" d="M165.75,341.22c-3.17,5.97-5.49,12.06-6.37,18.78c-1.13,8.59-1.08,17.35-1.61,25.99
			c-0.56,9-1.34,17.99-2.3,26.96c-0.14,1.34,1.25,2.5,2.5,2.5c1.47,0,2.36-1.15,2.5-2.5c1.43-13.45,2.36-26.92,3-40.44
			c0.17-3.66,0.33-7.34,0.73-10.98c0.04-0.36,0.08-0.72,0.13-1.08c0.05-0.38,0.06-0.44,0-0.01c0.03-0.22,0.06-0.44,0.1-0.67
			c0.1-0.7,0.22-1.39,0.36-2.09c0.27-1.41,0.62-2.8,1.04-4.17c0.24-0.78,0.5-1.55,0.79-2.31c0.15-0.41,0.31-0.82,0.47-1.22
			c0.08-0.2,0.16-0.39,0.24-0.59c-0.21,0.51-0.04,0.1,0.07-0.15c0.82-1.87,1.73-3.7,2.69-5.51
			C171.58,340.91,167.26,338.38,165.75,341.22L165.75,341.22z"/>
	</g>
</g>
<g>
	<g>
		<path class="st3" d="M167.91,344.98c6.69,0.59,13.04,2.36,18.52,6.09c1.28,0.87,1.77,1.25,2.98,2.35
			c1.02,0.93,1.98,1.92,2.87,2.97c0.19,0.22,0.37,0.45,0.56,0.68c0.09,0.11,0.18,0.23,0.27,0.34c-0.3-0.38,0,0,0.07,0.1
			c0.4,0.55,0.8,1.1,1.17,1.67c0.69,1.06,1.33,2.16,1.9,3.29c0.27,0.52,0.52,1.06,0.77,1.59c0.13,0.28,0.25,0.57,0.37,0.85
			c-0.22-0.53,0.15,0.38,0.21,0.54c0.44,1.13,0.83,2.28,1.18,3.44c0.66,2.22,1.15,4.49,1.5,6.78c0.04,0.27,0.08,0.55,0.12,0.82
			c0.06,0.39-0.08-0.63-0.01-0.03c0.01,0.12,0.03,0.24,0.04,0.36c0.06,0.53,0.12,1.06,0.17,1.59c0.09,1.01,0.16,2.01,0.21,3.02
			c0.08,1.77,0.08,3.53,0.02,5.3c-0.05,1.37-0.14,2.74-0.29,4.1c-0.02,0.22-0.05,0.43-0.08,0.65c-0.08,0.67,0-0.09,0.02-0.14
			c-0.04,0.12-0.04,0.28-0.06,0.41c-0.22,1.33,0.35,2.69,1.75,3.08c1.2,0.33,2.85-0.41,3.08-1.75c0.91-5.51,0.83-11.28,0.12-16.81
			c-1.41-10.99-5.87-21.54-14.89-28.41c-6.51-4.96-14.54-7.18-22.59-7.88c-1.35-0.12-2.5,1.23-2.5,2.5
			C165.41,343.94,166.56,344.87,167.91,344.98L167.91,344.98z"/>
	</g>
</g>
<path class="st7" d="M311.88,200.3"/>
<path class="st8" d="M298.57,380.99c10.59-6.42,19.51,0.19,24.3,0.55c-1.19,7.33-4.3,46.32-4.3,46.32S291.04,393.83,298.57,380.99z"
	/>
<path class="st5" d="M305.22,378.45l13.36,49.41l-2.53-48.17c0,0-0.76-1.08-5.54-1.37C305.13,378,305.22,378.45,305.22,378.45z"/>
<g>
	<path class="st9" d="M362.56,286.7c-0.39-10.61,1.98-75.44,1.98-75.44l-6.84,11.5l-1.72,47.34c0,0,0.43,42.73,0.19,50.47
		s5.65,28.18,5.65,28.18l11.11,2.4l5.21-7.08c-5.31-11.21-3-13.9-6.97-25.66"/>
</g>
<g>
	<g>
		<path class="st3" d="M346.46,355.35c2.21-0.59,4.42-0.7,6.6-0.1c1.6,0.44,2.29,0.88,3.85,1.61c1.82,0.85,3.79,0.95,4.98-1.01
			c0.85-1.39,0.92-3.12,1.34-4.65c0.05-0.18,0.1-0.36,0.16-0.54c0.12-0.38,0.06,0.03-0.02,0.04c0.03-0.05,0.06-0.11,0.09-0.16
			c-0.09,0.14-0.2,0.26-0.34,0.34c-0.09,0.05-0.8,0.34-0.43,0.23c-0.73,0.23-0.2,0.03,0.19,0.05c0.19,0.01,1.08,0.13,0.54,0.04
			c1.72,0.26,3.42,0.7,5.1,1.16c0.72,0.2,1.44,0.41,2.15,0.63c0.26,0.08,0.52,0.16,0.78,0.25c0.29,0.1,1.01,0.49,0.15,0.02
			c1.52,0.84,3.2,0.71,4.43-0.57c1.01-1.05,1.43-2.57,1.85-3.92c0.19-0.61,0.38-1.23,0.6-1.83c0.15-0.42-0.03,0.08-0.06,0.13
			c0.02-0.03,0.17-0.4,0.2-0.4c-0.1-0.01,0.93-0.75-0.17,0.19c0.18-0.15-0.59,0.32-0.69,0.35c-0.31,0.09-1.57-0.16-1.39-0.16
			c0.24,0.01-0.36-0.27-0.2-0.16c0.3,0.21,0.46,0.37,0.74,0.53c0.41,0.23,0.86,0.41,1.29,0.6c1.57,0.68,3.16,1.32,4.76,1.91
			c1.48,0.54,2.97,1.07,4.5,1.45c1.29,0.31,2.8,0.63,4.01-0.1c2.19-1.34,3.01-4.12,2.45-6.51c-0.14-0.59-0.34-1.27-0.62-1.81
			c-0.16-0.31,0.12-0.33-0.01,0.2c0.17-0.66-0.95,2.21-1.86,2c0.2,0.05,0.49-0.01,0.7-0.02c1.68-0.13,3.37-0.47,5.03-0.74
			c1-0.16,2.01-0.33,3.02-0.48c1.1-0.17,1.4-0.22,2.5-0.33c0.76-0.08,1.53-0.16,2.3-0.15c0.15,0,0.32,0.03,0.46,0.02
			c0.44-0.04-0.58-0.13-0.18-0.02c0.21,0.06,0.28,0.15-0.35-0.16c-0.57-0.28-0.1-0.16,0.01,0.06c-0.27-0.52,0.07,0.12,0.12,0.19
			c0.12,0.2,0.24,0.41,0.36,0.61c0.21,0.37,0.39,0.76,0.58,1.14c0.28,0.59,0.51,1.3,1.01,1.75c0.84,0.76,2.03,0.96,3.03,0.39
			c1.49-0.85,1.3-2.43,0.97-3.82c-0.75-3.13-5.57-1.8-4.82,1.33c0.05,0.19,0.07,0.46,0.15,0.65c0.16,0.4-0.03-0.47-0.04-0.32
			c0.41-0.72,0.83-1.44,1.24-2.16l-0.01,0.01c1.01,0.13,2.02,0.26,3.03,0.39c0.63,0.57,0.3,0.42,0.13,0.03
			c-0.12-0.29-0.27-0.58-0.41-0.87c-0.35-0.73-0.73-1.45-1.21-2.11c-1.09-1.51-2.38-2.11-4.22-2.1c-3.5,0.03-7.05,0.84-10.49,1.39
			c-0.38,0.06-0.75,0.12-1.13,0.18c-0.18,0.03-1.25,0.15-0.47,0.07c-0.43,0.05-0.85,0.06-1.28,0.09c-2.4,0.16-3.62,2.13-2.86,4.37
			c0.11,0.31,0.24,0.62,0.35,0.93c0.06,0.17,0.25,1.13,0.2,0.67c0-0.02-0.04,0.71,0.01,0.4c0.04-0.29-0.23,0.33-0.02,0.07
			c-0.05,0.08-0.1,0.17-0.15,0.25c0,0,0,0,0.01,0c-0.31,0.28-0.33,0.33-0.06,0.15c0.22-0.15,0.45-0.22,0.71-0.24
			c0.59-0.34-0.17,0.2-0.23-0.05c0,0,0.67,0.14,0.05-0.01c-0.12-0.03-0.24-0.05-0.35-0.07c-0.79-0.18-1.57-0.42-2.34-0.67
			c-1.63-0.53-3.23-1.13-4.82-1.76c-0.35-0.14-0.7-0.28-1.05-0.43c0.5,0.21-0.24-0.1-0.39-0.17c-0.26-0.12-0.89-0.57-1.18-0.57
			c-0.29,0,0.6,0.5,0.33,0.26c-0.21-0.19-0.43-0.37-0.67-0.52c-0.48-0.29-1.01-0.45-1.57-0.47c-0.9-0.03-1.74,0.32-2.38,0.95
			c-1.04,1.01-1.43,2.56-1.85,3.9c-0.19,0.6-0.38,1.19-0.59,1.77c-0.2,0.56,0.19-0.34,0.01-0.03c-0.06,0.1-0.16,0.25-0.19,0.36
			c-0.02,0.09-0.14,0.16-0.16,0.25c0.07-0.29,0.29-0.39,0.66-0.54c0.38-0.16,0.7-0.14,1.1-0.07c0.2,0.03,0.57,0.25,0.21,0.08
			c-0.27-0.13-0.54-0.24-0.82-0.35c-0.55-0.21-1.11-0.39-1.68-0.56c-1.65-0.51-3.31-0.96-5-1.33c-1.47-0.32-3.05-0.7-4.56-0.58
			c-2.5,0.21-3.44,2.36-3.91,4.54c-0.19,0.86-0.35,1.72-0.6,2.56c-0.15,0.5,0.18-0.13,0-0.01c0.27-0.18,1.19-0.69,1.96-0.68
			c-0.07,0-0.15-0.06-0.22-0.07c-0.43-0.08,0.49,0.26,0.08,0.03c-4.48-2.46-9.3-3.35-14.31-2.01
			C342.03,351.36,343.34,356.18,346.46,355.35L346.46,355.35z"/>
	</g>
</g>
<path class="st10" d="M370.99,319.52c0,0,9.32,9.6,11.61,12.22s8.3,8.41,8.3,8.41s-1.82,0.71-1.82,1.8s0.22,4.73,0.22,4.73
	l-10.08-3.33c0,0-1.29-0.33-1.96-0.96C375.24,340.46,370.99,319.52,370.99,319.52z"/>
<path class="st11" d="M379.43,323.26c0,0,13.46,3.32,17.83,7.11s9.17,9.24,9.17,9.24s-2.91-0.86-5.3-0.53s-5.97,0.89-5.97,0.89
	L379.43,323.26z"/>
<path class="st12" d="M265.8,358.06"/>
<path class="st5" d="M285.85,351.14c0,0-21.86-0.07-22.8,8.44c-0.94,8.51-4.68,16.11,0,24.47s11.69,17.3,20.38,22.3
	s31.14,21.51,31.14,21.51s-24.14-27.1-19.57-44.1c4.58-16.99,10.18-13.4,8.56-18.76C299.14,350.31,285.85,351.14,285.85,351.14z"/>
<g>
	<g>
		<path class="st3" d="M291.85,348.58c-7.32-1.11-15.06-1.33-21.95,1.75c-4.49,2.01-8.13,5.63-10.12,10.13
			c-3.19,7.17-3.18,16.47,0,23.67c0.5,1.14,1.18,2.35,2.31,2.98c2.01,1.1,4.07-0.34,4.51-2.39c-0.8,0.61-1.61,1.22-2.41,1.84
			c4.42,0.27,8.85,0.52,13.28,0.35c5.24-0.2,10.47-0.35,15.72-0.35c-0.72-0.41-1.44-0.83-2.16-1.24c2.69,5.56,5.39,11.12,8.11,16.67
			c1.55,3.16,3.08,6.35,4.72,9.47c1.81,3.42,3.84,6.72,5.85,10.03c1.55,2.56,3.12,5.12,4.71,7.66c1.7,2.72,6.03,0.22,4.32-2.52
			c-3.45-5.53-6.93-11.07-10.07-16.78c-3.64-6.62-6.78-13.56-10.08-20.35c-1.08-2.23-2.16-4.45-3.24-6.68
			c-0.37-0.77-1.33-1.24-2.16-1.24c-5.25,0-10.48,0.15-15.72,0.35c-4.43,0.17-8.86-0.08-13.28-0.35c-1.03-0.06-2.19,0.82-2.41,1.84
			c-0.07,0.34-0.36,0.79,0.1-0.08c-0.28,0.54,0.39-0.39,0.18-0.19c0.98-0.96,2.13-0.65,2.87-0.07c-0.11-0.08-0.2-0.18-0.28-0.29
			c0.37,0.43,0.29,0.46,0.06,0.04c-0.1-0.18-0.21-0.36-0.3-0.55c-0.14-0.26-0.44-1.16-0.12-0.22c-0.43-1.24-0.85-2.44-1.13-3.72
			c-0.17-0.78-0.29-1.57-0.43-2.36c-0.07-0.39,0.07,0.62,0-0.01c-0.03-0.23-0.05-0.46-0.08-0.69c-0.04-0.43-0.08-0.85-0.11-1.28
			c-0.12-1.87-0.05-3.72,0.14-5.57c0.07-0.71-0.08,0.41,0.03-0.18c0.04-0.23,0.07-0.46,0.11-0.69c0.08-0.46,0.18-0.92,0.29-1.38
			c0.23-0.98,0.53-1.93,0.88-2.87c0.1-0.27,0.27-0.64,0.05-0.14c0.1-0.22,0.19-0.44,0.3-0.65c0.22-0.46,0.45-0.91,0.7-1.35
			c0.24-0.42,0.5-0.83,0.78-1.23c0.12-0.18,0.25-0.35,0.38-0.53c0.32-0.45-0.27,0.33-0.04,0.05c0.11-0.13,0.21-0.26,0.31-0.38
			c0.68-0.8,1.43-1.52,2.23-2.19c0.47-0.4-0.11,0.07,0.19-0.15c0.24-0.17,0.48-0.35,0.73-0.51c0.46-0.31,0.94-0.59,1.43-0.85
			c0.28-0.15,0.56-0.3,0.85-0.43c0.15-0.07,0.3-0.14,0.44-0.2c0.5-0.23-0.04,0.01,0.13-0.06c0.68-0.27,1.36-0.51,2.06-0.72
			c0.71-0.21,1.43-0.39,2.15-0.54c0.38-0.08,0.76-0.15,1.15-0.21c0.2-0.03,0.39-0.06,0.59-0.09c0.27-0.04-0.28,0.03,0.19-0.02
			c3.96-0.43,7.99-0.24,11.92,0.35c1.33,0.2,2.69-0.34,3.08-1.75C293.92,350.47,293.2,348.78,291.85,348.58L291.85,348.58z"/>
	</g>
</g>
<g>
	<g>
		<path class="st3" d="M231.98,311.8c6.2,8.77,15.55,14.73,24.73,19.98c9.88,5.65,20.23,10.55,29.66,16.97
			c4.12,2.8,8.02,5.93,11.32,9.73c1.41,1.63,3.03,3.45,3.32,5.68c-0.05-0.35,0,0.28,0,0.38c0.01,0.26-0.01,0.52-0.02,0.77
			c-0.03,0.44,0.04-0.08-0.05,0.36c-0.06,0.3-0.13,0.6-0.22,0.89c-0.32,1.1-0.69,1.85-1.3,2.97c-2.73,5-6.14,9.51-6.86,15.33
			c-0.68,5.45,1.08,10.9,3.19,15.85c2.6,6.08,6.07,11.77,9.59,17.36c3.96,6.29,8.08,12.48,11.89,18.87
			c0.93,1.56,1.83,3.12,2.71,4.71c1.57,2.81,5.89,0.29,4.32-2.52c-6.98-12.53-15.83-23.99-22.27-36.82
			c-2.34-4.66-4.53-9.93-4.57-14.97c-0.02-2.4,0.48-4.61,1.59-7c1.16-2.48,2.68-4.75,4.07-7.11c1.29-2.19,2.47-4.52,2.82-7.07
			c0.37-2.69-0.32-5.32-1.83-7.57c-2.89-4.3-6.75-7.86-10.83-11.01c-8.97-6.92-19.21-11.96-29.11-17.39
			c-9.24-5.07-18.89-10.38-25.87-18.42c-0.8-0.93-1.28-1.54-1.96-2.5c-0.78-1.1-2.18-1.62-3.42-0.9
			C231.79,309.01,231.2,310.69,231.98,311.8L231.98,311.8z"/>
	</g>
</g>
<ellipse class="st13" cx="331.63" cy="197.81" rx="9.04" ry="11.54"/>
<path class="st13" d="M302.43,191.55c2.55,10.71-5.69,16.03-13.16,16.03s-16.52-4.49-16.52-12.77c0-8.27,6.06-14.98,13.52-14.98
	S300.63,183.97,302.43,191.55z"/>
<g>
	<g>
		<path class="st3" d="M291.02,250.68c0.78,2.38,2.3,4.28,4.55,5.41c1.97,0.99,4.28,1.81,6.45,2.21c3.08,0.57,6.23,0.68,9.13-0.68
			c2.38-1.11,4.42-3.4,4.82-6.05c0.2-1.33-0.33-2.69-1.75-3.08c-1.18-0.32-2.87,0.4-3.08,1.75c-0.23,1.5-1.07,2.47-2.5,3.05
			c-1.79,0.72-4.1,0.46-6.04,0.04c-0.87-0.19-1.7-0.51-2.54-0.8c-0.34-0.12-0.69-0.24-1.03-0.36c-0.19-0.07-0.38-0.14-0.56-0.21
			c-0.25-0.1,0.22,0.12-0.17-0.08c-0.76-0.39-1.09-0.55-1.48-0.91c-0.59-0.56-0.74-0.83-0.99-1.61c-0.42-1.28-1.73-2.12-3.08-1.75
			C291.51,247.95,290.6,249.39,291.02,250.68L291.02,250.68z"/>
	</g>
</g>
<g>
	<g>
		<path class="st3" d="M290.85,176.39c-3.81-0.01-7.76,0.95-11.21,2.51c-5.77,2.61-9.42,7.99-9.1,14.41
			c0.12,2.37,0.52,4.92,1.66,7.02c1.37,2.52,3.67,4.72,6.16,6.11c2.81,1.58,5.33-2.74,2.52-4.32c-1.69-0.95-3.2-2.34-4.19-4.01
			c-0.84-1.41-1.06-3.24-1.15-4.67c-0.04-0.71-0.02-1.42,0.02-2.13c0.01-0.11,0.07-0.65,0.01-0.2c0.02-0.16,0.05-0.32,0.08-0.47
			c0.07-0.34,0.14-0.68,0.24-1.02c0.08-0.29,0.18-0.57,0.28-0.85c0.04-0.12,0.25-0.56,0.04-0.11c0.06-0.13,0.12-0.26,0.18-0.39
			c0.29-0.56,0.61-1.09,0.98-1.6c-0.31,0.43,0.15-0.17,0.25-0.28c0.18-0.2,0.36-0.4,0.55-0.58c0.19-0.19,0.39-0.37,0.59-0.54
			c0.1-0.09,0.2-0.17,0.3-0.26c0.51-0.43-0.42,0.29,0.12-0.09c0.91-0.65,1.87-1.19,2.89-1.67c0.12-0.05,0.24-0.11,0.35-0.16
			c-0.07,0.03-0.49,0.2-0.07,0.03c0.24-0.09,0.47-0.18,0.71-0.27c0.52-0.19,1.05-0.36,1.58-0.51c0.92-0.26,1.86-0.47,2.8-0.64
			c0.25-0.04,0.49-0.08,0.74-0.12c0.67-0.11-0.5,0.05,0.16-0.02c0.35-0.04,0.71-0.08,1.06-0.11c0.48-0.04,0.95-0.07,1.43-0.07
			C294.07,181.4,294.08,176.4,290.85,176.39L290.85,176.39z"/>
	</g>
</g>
<g>
	<g>
		<path class="st3" d="M285.52,182.03c2.47-0.81,4.42-0.94,6.7-0.17c0.13,0.04,0.74,0.28,0.56,0.21c-0.16-0.07,0.39,0.2,0.53,0.27
			c0.53,0.28,1.05,0.61,1.53,0.98c-0.34-0.26,0.19,0.17,0.29,0.26c0.2,0.18,0.39,0.36,0.58,0.55c0.19,0.19,0.37,0.39,0.55,0.59
			c0.08,0.09,0.15,0.17,0.23,0.26c0.48,0.55-0.14-0.21,0.11,0.13c1.53,2.04,2.08,3.56,2.57,6.06c0.11,0.55,0.02-0.02,0.06,0.4
			c0.03,0.28,0.05,0.56,0.07,0.83c0.03,0.6,0.03,1.2-0.01,1.79c-0.01,0.1-0.1,1.01-0.03,0.53c-0.04,0.28-0.09,0.55-0.14,0.83
			c-0.12,0.59-0.27,1.17-0.47,1.74c-0.75,2.21-2.47,4.35-4.67,5.74c-2.72,1.71-0.21,6.04,2.52,4.32c5.38-3.39,8.38-9.44,7.73-15.78
			c-0.6-5.89-3.91-11.66-9.51-14.05c-3.36-1.43-7.06-1.42-10.52-0.29C281.15,178.21,282.45,183.04,285.52,182.03L285.52,182.03z"/>
	</g>
</g>
<g>
	<g>
		<path class="st3" d="M334.89,185.91c-3.46-0.38-7.04-0.13-10.2,1.42c-3.31,1.63-5.46,4.88-6.29,8.41
			c-0.64,2.73-0.66,5.56-0.4,8.34c0.13,1.3,1.06,2.56,2.5,2.5c1.25-0.06,2.63-1.11,2.5-2.5c-0.12-1.2-0.18-2.39-0.16-3.6
			c0.01-0.51,0.03-1.03,0.08-1.54c0.02-0.24,0.05-0.48,0.07-0.72c-0.05,0.55,0.02-0.11,0.06-0.32c0.15-0.83,0.36-1.65,0.65-2.44
			c0,0.01,0.1-0.31,0.12-0.31c0,0-0.26,0.57-0.06,0.15c0.07-0.14,0.13-0.29,0.21-0.43c0.17-0.34,0.37-0.67,0.58-0.99
			c0.08-0.12,0.18-0.34,0.3-0.42c-0.02,0.01-0.4,0.48-0.12,0.16c0.05-0.05,0.09-0.11,0.14-0.16c0.23-0.27,0.48-0.52,0.74-0.76
			c0.12-0.11,0.25-0.21,0.37-0.32c0.17-0.17-0.22,0.18-0.23,0.18c0.02,0,0.19-0.14,0.22-0.16c0.29-0.19,0.58-0.38,0.88-0.55
			c0.14-0.08,0.29-0.15,0.43-0.22c0.09-0.04,0.62-0.29,0.21-0.1c-0.41,0.18,0.14-0.05,0.23-0.08c0.18-0.06,0.36-0.12,0.54-0.18
			c0.17-0.05,1.99-0.45,1.99-0.43c0,0.06-0.6,0.06-0.22,0.03c0.1-0.01,0.2-0.02,0.3-0.03c0.23-0.02,0.46-0.04,0.68-0.05
			c0.41-0.02,0.83-0.03,1.24-0.03c0.89,0.01,1.77,0.07,2.65,0.17c1.3,0.14,2.56-1.25,2.5-2.5
			C337.33,186.93,336.29,186.06,334.89,185.91L334.89,185.91z"/>
	</g>
</g>
<g>
	<g>
		<path class="st3" d="M339.97,207.26c1.05-1.61,1.22-3.74,1.19-5.6c-0.01-0.8-0.07-1.6-0.16-2.39c-0.06-0.47-0.12-0.95-0.19-1.42
			c-0.07-0.46,0.08,0.69,0.02,0.17c-0.02-0.18-0.04-0.35-0.06-0.53c-0.35-3.02-0.42-6.33-1.53-9.19c-0.32-0.81-0.67-1.6-1.47-2.06
			c-0.47-0.27-1.11-0.45-1.63-0.61c-1.78-0.53-3.72-0.78-5.58-0.64c-2.2,0.17-4.46,0.75-6.24,2.09c-1.4,1.06-2.52,2.42-3.37,3.97
			c-1.09,1.99-1.91,4.27-2.24,6.53c-0.2,1.33,0.33,2.69,1.75,3.08c1.18,0.32,2.88-0.4,3.08-1.75c0.13-0.87,0.35-1.73,0.6-2.56
			c0.11-0.38,0.24-0.75,0.38-1.12c0.08-0.23,0.17-0.45,0.27-0.68c-0.26,0.63,0.08-0.15,0.13-0.27c0.2-0.41,0.41-0.82,0.65-1.21
			c0.1-0.17,0.21-0.34,0.32-0.5c0.07-0.1,0.6-0.76,0.2-0.29c0.31-0.35,0.63-0.67,0.96-1c0.21-0.18,0.2-0.17-0.05,0.02
			c0.11-0.08,0.21-0.16,0.32-0.23c0.17-0.11,0.34-0.21,0.51-0.31c1.17-0.63,2.4-0.78,3.58-0.79c0.27,0,0.55,0.01,0.82,0.02
			c0.09,0.01,1.09,0.11,0.59,0.04c0.5,0.07,0.99,0.17,1.47,0.3c0.35,0.09,0.7,0.19,1.04,0.31c0.28,0.1,1.02,0.42-0.07-0.05
			c-0.3-0.3-0.6-0.6-0.9-0.9c0.06,0.1,0.11,0.21,0.18,0.31c0.22,0.33-0.12-0.43-0.06-0.14s0.19,0.59,0.27,0.88
			c0.19,0.72,0.32,1.46,0.44,2.19c0.06,0.36,0.11,0.73,0.16,1.1c-0.08-0.57,0.02,0.16,0.03,0.22c0.02,0.18,0.04,0.36,0.07,0.55
			c0.09,0.74,0.17,1.47,0.25,2.21c0.08,0.7,0.16,1.39,0.26,2.09c0.02,0.13,0.07,0.63,0,0c0.02,0.17,0.04,0.34,0.06,0.51
			c0.04,0.41,0.08,0.83,0.1,1.24c0.05,0.88,0.04,1.76-0.05,2.64c0.03-0.36,0.01-0.07-0.03,0.13c-0.04,0.18-0.07,0.35-0.12,0.53
			c-0.04,0.14-0.29,0.66-0.02,0.15c-0.09,0.16-0.17,0.32-0.27,0.47c-0.74,1.13-0.23,2.76,0.9,3.42
			C337.76,208.87,339.22,208.39,339.97,207.26L339.97,207.26z"/>
	</g>
</g>
<g>
	<g>
		<path class="st3" d="M276.46,185.77c3.22,0,3.22-5,0-5C273.25,180.77,273.24,185.77,276.46,185.77L276.46,185.77z"/>
	</g>
</g>
<g>
	<g>
		<path class="st3" d="M301.05,232.52h0.01c-0.38-0.5-0.77-1-1.15-1.49c0,0.01,0,0.01,0,0.02c0-0.44,0-0.89,0-1.33
			c-0.07,0.39,0.37-0.74,0.05-0.12c-0.13,0.25-0.26,0.49-0.39,0.74c-0.25,0.48-0.52,0.95-0.75,1.44c-0.48,1-0.73,1.91-0.16,2.98
			c0.44,0.82,1.34,1.09,2.13,1.44c0.53,0.24,1.07,0.47,1.6,0.71c2.27,1,4.66,2.15,7.21,1.98c2.38-0.16,4.43-1.23,6.38-2.53
			c1.09-0.72,1.66-2.24,0.9-3.42c-0.7-1.08-2.26-1.67-3.42-0.9c-0.86,0.57-1.74,1.16-2.69,1.56c0.49-0.21-0.37,0.11-0.46,0.13
			c-0.22,0.06-0.44,0.11-0.67,0.15c0.53-0.1-0.42,0.01-0.54,0.01c-0.17,0-0.34-0.01-0.51-0.03c0.2,0.03,0.22,0.04,0.04,0.01
			c-0.58-0.12-1.15-0.26-1.71-0.46c-0.28-0.1-0.55-0.2-0.83-0.31c0.38,0.15-0.36-0.16-0.44-0.19c-1.19-0.52-2.37-1.05-3.56-1.57
			c0.3,0.3,0.6,0.6,0.9,0.9l-0.01-0.01c0.11,0.42,0.23,0.84,0.34,1.26c0.02,0.42-0.15,0.82-0.05,0.51c0.01-0.02-0.32,0.67-0.16,0.39
			c0.1-0.17,0.17-0.36,0.26-0.53c0.21-0.41,0.43-0.81,0.65-1.22c0.24-0.46,0.49-0.92,0.66-1.41c0.37-1.04-0.04-2.52-1.1-3.01
			c-1.19-0.54-2.75-0.38-3.42,0.9C299.57,230.2,299.78,231.94,301.05,232.52L301.05,232.52z"/>
	</g>
</g>
<g>
	<g>
		<path class="st3" d="M299.87,236.42c3.22,0,3.22-5,0-5S296.65,236.42,299.87,236.42L299.87,236.42z"/>
	</g>
</g>
<path class="st14" d="M298.91,196.16c0.17,2.24-2.33,7.83-8.77,8.2c-8.2,0.47-13.13-4.31-13.3-6.55c-0.17-2.24,4.54-1.15,10.97-1.64
	S298.74,193.92,298.91,196.16z"/>
<path class="st14" d="M336.54,202.83c0,2.25-3.12,5.6-6.97,5.6s-6.97-1.82-6.97-4.07s3.12-4.07,6.97-4.07
	C333.41,200.3,336.54,200.59,336.54,202.83z"/>
<ellipse transform="matrix(0.3404 -0.9403 0.9403 0.3404 27.3121 439.5488)" class="st15" cx="326.95" cy="200.31" rx="7.19" ry="4.96"/>
<g>
	<g>
		<path class="st15" d="M292.25,193.02c0.13,0.16,0.26,0.55,0.17,0.17c-0.11-0.46-0.01,0.3-0.02-0.19
			c-0.01-0.53-0.01-1.06-0.06-1.58c-0.13-1.4-0.58-2.62-1.53-3.68c-1.7-1.89-4.38-2.39-6.78-1.9c-2.16,0.44-4.53,1.82-5.94,3.52
			c-1.94,2.32-1.93,5.12-0.5,7.72c1.06,1.94,2.97,3.72,5.2,4.14c2.5,0.47,5.15-0.36,6.57-2.57c1.45-2.26,0.85-5.09-0.31-7.32
			c-0.79-1.52-2.22-2.74-4.04-2.08c-1.28,0.47-2.44,1.54-3.25,2.62c-1.85,2.5-0.72,6.45,2.55,6.89c1.24,0.17,2.36-0.29,3.44-0.85
			c0.19-0.1,0.37-0.2,0.55-0.29c0.08-0.04,0.16-0.08,0.24-0.12s0.16-0.08,0.24-0.11c0.13-0.06,0.11-0.05-0.06,0.03
			c-0.38-0.01,0.26,0.05,0.33-0.07c0,0-0.54,0.06-0.28,0.06c0.14,0,0.1,0-0.11-0.02c-0.18,0-0.34-0.05-0.48-0.16
			c0.84,0.37,1.68,0.49,2.52,0c0.75-0.44,1.25-1.28,1.24-2.16c-0.02-1.51-0.23-3.03-0.65-4.48c-1.22,0.94-2.45,1.88-3.67,2.82
			c0.13,0.06,0.25,0.13,0.36,0.21c-0.58-0.38,0.16,0.2-0.11-0.07c-0.19-0.19,0.08,0.12,0.12,0.18c0.08,0.12,0.15,0.25,0.23,0.37
			c0.4,0.68,0.77,1.36,1.3,1.95c1.12,1.27,3.03,2.05,4.71,1.58c1.97-0.56,3.15-2.79,2.46-4.73c-0.79-2.2-3.46-3.2-5.46-1.91
			c-1.1,0.71-1.65,2.25-0.9,3.42c0.71,1.1,2.24,1.65,3.42,0.9c-0.65,0.42-1.68-0.26-1.81-0.9c-0.16-0.73,0.34-1.56,1.13-1.62
			c0.13-0.01,0.71,0.12,0.29,0c-0.28-0.08-0.1-0.07,0.06,0.03c-0.39-0.24,0.12,0.19-0.07-0.02c-0.09-0.1-0.37-0.44-0.07-0.01
			c-0.95-1.36-1.56-2.9-3.13-3.69c-1.88-0.95-4.3,0.63-3.67,2.82c0.36,1.28,0.45,1.93,0.47,3.15c1.25-0.72,2.51-1.44,3.76-2.16
			c-1.18-0.52-2.38-0.67-3.61-0.19c-0.47,0.19-0.94,0.4-1.39,0.63c-0.21,0.11-0.42,0.23-0.63,0.33c-0.05,0.03-0.1,0.05-0.16,0.08
			c-0.25,0.12-0.21,0.1,0.13-0.04c-0.01,0.09-0.44,0.08-0.46,0.14c0.41-0.04,0.48-0.05,0.21-0.04c0.39,0.07,0.49,0.09,0.3,0.04
			c-0.18-0.05-0.1-0.02,0.24,0.1c0.16,0.09,0.29,0.21,0.39,0.36c0.12,0.2,0.08,0.72,0.13,0.34c-0.07,0.34-0.07,0.36-0.01,0.08
			c-0.13,0.26-0.15,0.31-0.06,0.13c0.05-0.1,0.11-0.2,0.17-0.29c-0.16,0.21-0.15,0.21,0.04-0.01c0.17-0.15,0.33-0.31,0.51-0.45
			c-0.21,0.16-0.19,0.15,0.04-0.02c0.35-0.22,0.23-0.22-0.39-0.01c-0.42-0.11-0.84-0.23-1.26-0.34c-0.07-0.04-0.56-0.76-0.45-0.41
			c0.03,0.1,0.13,0.22,0.18,0.31c0.08,0.14,0.15,0.29,0.22,0.43c0,0.01,0.17,0.37,0.07,0.15c-0.1-0.23,0.05,0.14,0.05,0.15
			c0.04,0.12,0.08,0.23,0.11,0.35c0.04,0.15,0.06,0.32,0.12,0.46c0.12,0.32,0.01-0.3,0.01,0.03c0,0.11,0,0.71,0.02,0.47
			c0.03-0.28-0.26,0.59-0.02,0.16c-0.05,0.1-0.12,0.19-0.17,0.29c-0.12,0.24,0.04-0.08,0.08-0.11c-0.1,0.08-0.19,0.19-0.29,0.27
			c0.17-0.14,0.25-0.17,0.01-0.05c-0.42,0.2,0.32-0.05-0.14,0.06c-0.09,0.02-0.21,0.04-0.29,0.08c-0.33,0.12,0.41,0.01,0.06,0
			c-0.2-0.01-0.41,0-0.61,0c-0.29,0,0.13,0.01,0.16,0.02c-0.15-0.06-0.34-0.1-0.5-0.14c-0.27-0.07,0.05,0.02,0.09,0.04
			c-0.09-0.05-0.19-0.1-0.29-0.16c-0.14-0.08-0.62-0.49-0.3-0.18c-0.16-0.15-0.33-0.3-0.48-0.46c-0.08-0.08-0.14-0.17-0.22-0.25
			c-0.25-0.27,0.27,0.44-0.08-0.12c-0.12-0.19-0.24-0.38-0.35-0.57c-0.04-0.08-0.28-0.56-0.16-0.28c-0.07-0.16-0.11-0.33-0.17-0.49
			c0,0-0.11-0.42-0.06-0.17c0.05,0.23-0.01-0.16-0.01-0.18c-0.01-0.19,0.04-0.35-0.02-0.07c0.03-0.14,0.07-0.28,0.12-0.42
			c-0.03,0.08-0.18,0.29-0.02,0.1c0.06-0.08,0.13-0.2,0.17-0.28c-0.02,0.04-0.25,0.27-0.05,0.06c0.18-0.2,0.36-0.39,0.56-0.57
			c0.09-0.08,0.17-0.15,0.26-0.22c0.3-0.25-0.28,0.19,0.04-0.03c0.45-0.3,0.9-0.59,1.38-0.84c0.09-0.05,0.65-0.29,0.33-0.17
			c0.32-0.12,0.64-0.21,0.97-0.3c0.01,0,0.42-0.08,0.16-0.04c-0.25,0.04,0.15-0.01,0.17-0.01c0.17,0,0.34,0,0.5,0
			c0.06,0,0.39,0.05,0.09,0c-0.3-0.05,0.3,0.1,0.39,0.12c0.34,0.05-0.31-0.19-0.01-0.02c0.12,0.07,0.25,0.13,0.37,0.2
			c0.09,0.05,0.18,0.11,0.26,0.17c-0.19-0.14-0.2-0.16-0.03,0.01c0.1,0.11,0.22,0.34,0-0.03c0.07,0.12,0.14,0.24,0.21,0.35
			c-0.04-0.06-0.09-0.37-0.06-0.12c0.01,0.05,0.12,0.5,0.07,0.2c-0.06-0.32,0.01,0.15,0.01,0.23c0.01,0.15,0.01,0.3,0.01,0.46
			c0.03,1.67,0.27,3.01,1.34,4.35c0.82,1.03,2.69,0.92,3.54,0C293.25,195.47,293.13,194.12,292.25,193.02L292.25,193.02z"/>
	</g>
</g>
<g>
	<g>
		<path class="st15" d="M333.16,203.58c3.22,0,3.22-5,0-5C329.95,198.58,329.94,203.58,333.16,203.58L333.16,203.58z"/>
	</g>
</g>
<path d="M289.67,194.75c0,3.5-2.48,6.4-5.98,6.4s-7.23-1.71-8.21-6.87c-0.65-3.44,6.35-5.87,9.85-5.87
	C288.84,188.41,289.67,191.25,289.67,194.75z"/>
<path d="M330.25,200.72c0,2.28-1.84,3.12-4.12,3.12s-4.53-2.17-4.12-4.41c1.19-6.43,1.84-2.83,4.12-2.83
	S330.25,198.45,330.25,200.72z"/>
<path d="M271.48,194.28c0,0-1.66-8.42,5.37-11.98c5.9-2.99,9.33-2.47,9.33-2.47s6.01,21.01-1.77,23.44
	C271.44,207.31,271.48,194.28,271.48,194.28z"/>
<circle class="st2" cx="291.45" cy="189.65" r="3.46"/>
<g>
	<g>
		<path d="M340.67,186.95c-1.62-0.03-3.24-0.11-4.85-0.27c-0.41-0.04-0.82-0.08-1.23-0.13c-0.19-0.02-0.38-0.04-0.57-0.07
			c-0.06-0.01-0.13-0.02-0.19-0.02c-0.28-0.04-0.25-0.03,0.1,0.01c-0.31-0.14-0.79-0.11-1.13-0.17c-0.44-0.07-0.87-0.14-1.31-0.22
			c-0.68-0.12-1.31-0.11-1.93,0.25c-0.52,0.3-1.01,0.9-1.15,1.49c-0.28,1.22,0.37,2.83,1.75,3.08c3.47,0.61,6.98,0.98,10.5,1.04
			c1.31,0.02,2.56-1.17,2.5-2.5C343.11,188.07,342.07,186.97,340.67,186.95L340.67,186.95z"/>
	</g>
</g>
<path d="M328.69,190.7c0,0-0.79-4.42-4.66,0.89c-1.62,2.22-2.01,7.84-2.01,7.84s5.09-0.46,7.24-3.43
	C331.41,193.04,328.69,190.7,328.69,190.7z"/>
<path d="M317.43,198.56c0,0-0.86-5.8,3.71-8.97c4.78-3.31,10.74-3.29,10.74-3.29s1.64,16.97-5.41,19.03
	C317.34,208.01,317.43,198.56,317.43,198.56z"/>
<circle class="st2" cx="332.63" cy="194.73" r="2.38"/>
<circle class="st13" cx="325.45" cy="188.31" r="3.95"/>
<g>
	<g>
		<path class="st3" d="M310.62,186.93c4.42,2.18,9.13,2.62,13.99,2.36c4.57-0.24,9.21-0.88,13.74,0.13c3.13,0.7,4.47-4.11,1.33-4.82
			c-4.57-1.03-9.13-0.69-13.75-0.39c-4.35,0.28-8.78,0.38-12.78-1.6c-1.21-0.6-2.71-0.33-3.42,0.9
			C309.07,184.61,309.4,186.33,310.62,186.93L310.62,186.93z"/>
	</g>
</g>
<path class="st2" d="M262.54,179.83c0,0,21.1,6.67,25.86,6.44s15.09-3.74,15.09-3.74l-7.07-7.76l-23.67,3.31"/>
<path class="st2" d="M279.42,208.48c4.79,1.77,9.14,1.23,13.93-0.28s4.83-4.76,4.83-4.76h-43.73"/>
<g>
	<g>
		<path class="st3" d="M251.5,213.01c9.14-0.22,18.22,0.3,27.35,0.67c4.93,0.2,10.09,0.18,14.46-2.42c2.59-1.54,4.73-3.74,6.64-6.04
			c0.86-1.04,1.02-2.52,0-3.54c-0.89-0.89-2.67-1.04-3.54,0c-0.88,1.05-1.79,2.08-2.78,3.03c-0.43,0.41-0.87,0.8-1.32,1.18
			c-0.54,0.46,0.26-0.16-0.21,0.17c-0.24,0.17-0.48,0.34-0.72,0.5c-0.43,0.28-0.87,0.54-1.32,0.78c-0.2,0.1-0.41,0.19-0.6,0.29
			c-0.16,0.08-0.52,0.2,0.12-0.04c-0.14,0.05-0.27,0.11-0.41,0.16c-0.96,0.34-1.92,0.58-2.92,0.76c-0.13,0.02-0.26,0.04-0.39,0.06
			c-0.36,0.06,0.66-0.05,0.11-0.02c-0.27,0.02-0.55,0.06-0.82,0.08c-0.58,0.05-1.17,0.08-1.75,0.09c-1.33,0.04-2.65,0.01-3.98-0.04
			c-3.5-0.13-7-0.36-10.5-0.52c-5.8-0.25-11.6-0.31-17.4-0.17C248.29,208.08,248.27,213.08,251.5,213.01L251.5,213.01z"/>
	</g>
</g>
<path class="st2" d="M317.37,206.51c3.03,1.77,12.53,1.25,15.79,0.35c3.85-1.06,3.37-4.04,3.37-4.04l-27.78-0.72L317.37,206.51z"/>
<g>
	<g>
		<path class="st3" d="M314.07,208.22c4.83,1.94,10.15,3.79,15.44,3.43c1.63-0.11,3.23-0.42,4.82-0.8c0.67-0.16,1.35-0.33,2.03-0.46
			c0.33-0.07,0.66-0.11,0.98-0.18c0.54-0.11-0.5,0.04,0.02,0c0.24-0.02,0.48-0.05,0.72-0.07c1.35-0.11,2.5-1.07,2.5-2.5
			c0-1.27-1.15-2.61-2.5-2.5c-1.59,0.13-3.14,0.43-4.69,0.8c-0.65,0.16-1.3,0.32-1.95,0.45c-0.36,0.07-0.71,0.13-1.07,0.19
			c-0.65,0.11,0.42-0.02-0.12,0.01c-0.18,0.01-0.36,0.04-0.54,0.05c-0.84,0.07-1.68,0.07-2.53,0.02c-0.27-0.02-0.53-0.04-0.8-0.06
			c-0.1-0.01-0.78-0.09-0.3-0.03c-0.53-0.07-1.06-0.17-1.58-0.27c-3.12-0.63-6.14-1.71-9.08-2.9c-1.25-0.5-2.75,0.55-3.08,1.75
			C311.93,206.57,312.81,207.72,314.07,208.22L314.07,208.22z"/>
	</g>
</g>
<g>
	<g>
		<path d="M271.98,183.48c-1.89-0.36-3.8-0.52-5.69-0.88c-0.79-0.15-1.56-0.35-2.31-0.63c-0.08-0.03-0.4-0.16-0.01,0
			c0.41,0.17,0.02,0-0.07-0.04c-0.19-0.09-0.37-0.19-0.56-0.29c-0.41-0.23-0.8-0.49-1.19-0.77c-1.06-0.78-2.83-0.21-3.42,0.9
			c-0.69,1.3-0.23,2.59,0.9,3.42c1.53,1.13,3.34,1.84,5.2,2.21c1.93,0.38,3.89,0.53,5.82,0.9c1.28,0.24,2.76-0.36,3.08-1.75
			C274,185.33,273.35,183.75,271.98,183.48L271.98,183.48z"/>
	</g>
</g>
<path class="st13" d="M272.58,185.46c0,3.54,2.87,6.42,6.42,6.42c3.54,0,6.42-2.87,6.42-6.42s-2.87-3.42-6.42-3.42
	C275.45,182.04,272.58,181.91,272.58,185.46z"/>
<g>
	<g>
		<path class="st3" d="M262.26,183.37c5.71,2.85,12.53,2.98,18.78,3.1c3.36,0.07,6.73,0.05,10.09,0.15c2.9,0.09,5.61,0.22,8.21,0.81
			c3.13,0.72,4.47-4.1,1.33-4.82c-6.03-1.38-12.41-1.03-18.54-1.12c-3.28-0.05-6.57-0.15-9.84-0.51c-2.5-0.28-5.5-0.92-7.5-1.92
			C261.91,177.62,259.37,181.93,262.26,183.37L262.26,183.37z"/>
	</g>
</g>
<g>
	<path class="st4" d="M339.32,343.3c2.18,1.98,33.67-49.44,33.67-49.44c-13.41-15.91-28.3-38.16-38.09-49.82"/>
	<g>
		<path class="st3" d="M337.56,345.07c2.96,2.4,5.66-1.52,7.28-3.61c2.98-3.84,5.72-7.87,8.42-11.91
			c6.13-9.17,12.02-18.51,17.85-27.88c1.36-2.18,2.71-4.36,4.05-6.55c0.62-1.01,0.32-2.18-0.39-3.03
			c-10.93-12.99-20.54-27-30.77-40.52c-2.38-3.14-4.79-6.27-7.32-9.3c-0.87-1.04-2.64-0.9-3.54,0c-1.03,1.03-0.87,2.5,0,3.54
			c4.68,5.59,8.97,11.49,13.29,17.36c5.18,7.04,10.32,14.1,15.65,21.02c2.98,3.87,6.01,7.7,9.15,11.44
			c-0.13-1.01-0.26-2.02-0.39-3.03c-3.43,5.6-6.91,11.16-10.42,16.71c-5.69,8.99-11.39,18.04-17.65,26.65
			c-0.33,0.46-0.67,0.91-1.01,1.37c-0.14,0.19-0.29,0.38-0.43,0.57c-0.46,0.62,0.16-0.2-0.16,0.2c-0.51,0.64-1.02,1.28-1.56,1.9
			c-0.36,0.41-0.79,0.77-1.15,1.17c-0.3,0.33,0.58-0.4,0.22-0.17c-0.07,0.04-0.13,0.09-0.2,0.12c0.78-0.37,1.62-0.39,2.61,0.41
			c-1.05-0.85-2.51-1.02-3.54,0C336.68,342.41,336.5,344.21,337.56,345.07L337.56,345.07z"/>
	</g>
</g>
<path class="st16" d="M353.72,328.24c0,0-6.05,7.13-7.93,9.65c-1.14,1.53-5.33,7.38-5.33,7.38l3.81,6.65c0,0,5.31-0.92,7.92-0.61
	s6.43,2.92,6.43,2.92l1-4.52c0,0-3.54-2.79-4.32-9.96S353.72,328.24,353.72,328.24z"/>
<path class="st16" d="M347.89,234.11c0,0-6.38-0.62-8.12-0.73s-4.87,8.6-4.87,8.6l17.56,21.84l1.35-36.72L347.89,234.11z"/>
<circle class="st17" cx="299.74" cy="277.13" r="3.17"/>
<ellipse class="st4" cx="259.52" cy="221.7" rx="17.47" ry="10.95"/>
<circle class="st4" cx="328.31" cy="221.24" r="8.14"/>
<path class="st3" d="M285.44,242.84c0,0,4.49,3.69,7.99,4.17s3.8,3.47,3.8,3.47s3.46,6.08-4.34,1.66S285.44,242.84,285.44,242.84z"
	/>
<path class="st3" d="M320.32,245.99c0,0-3.11,1.3-6.61,1.78s-3.8,3.47-3.8,3.47s-3.46,6.08,4.34,1.66
	C322.05,248.47,320.32,245.99,320.32,245.99z"/>
<path class="st18" d="M291.77,246.6c0,0,6.42,0.22,11.79,0.01c4.21-0.16,10.15,1.16,10.15,1.16s-0.9,5.91-9.58,4.33
	S291.77,246.6,291.77,246.6z"/>
<path class="st3" d="M311.9,250.78c0,0-4.25-0.26-9.63-0.47c-4.21-0.16-6.24-0.83-6.24-0.83s2.89,6.85,10.09,6.54
	C316.51,255.56,311.9,250.78,311.9,250.78z"/>
<path class="st18" d="M310.92,253.08c0,0-4.25-0.19-9.63-0.35c-4.21-0.12-6.24-0.63-6.24-0.63s2.89,5.16,10.09,4.92
	C315.53,256.68,310.92,253.08,310.92,253.08z"/>
<g id="Layer_11">
</g>
<g id="Layer_1_00000152247476739830122230000000701145509722080679_">
	<g>
		<g>
			<path class="st3" d="M790.13,249.73c1.55-1.04,2.04-1.42,1.46-1.13c0.6-0.25,1.19-0.5,1.79-0.76c-0.02,0.01-0.03,0.01-0.05,0.01
				c0.66-0.09,1.33-0.18,1.99-0.27c-0.03,0-0.05,0-0.08,0c0.66,0.09,1.33,0.18,1.99,0.27c-0.06-0.01-0.11-0.03-0.16-0.05
				c0.6,0.25,1.19,0.5,1.79,0.76c-0.94-0.45,1.11,0.87,1.16,0.94c-0.1-0.14-0.29-0.26-0.42-0.39c-0.37-0.37-0.69-0.78-1.02-1.19
				c-0.67-0.82,1.34,1.76,0.81,1.05c-0.1-0.14-0.2-0.27-0.3-0.4c-0.23-0.31-0.46-0.63-0.69-0.95c-0.51-0.72-1.01-1.45-1.5-2.18
				c-2.61-3.9-5.05-7.91-7.46-11.93c-5.13-8.55-10.08-17.2-14.97-25.89c-1.09-1.94-2.18-3.87-3.25-5.81
				c-0.39,3.03-0.78,6.06-1.17,9.09c11.32-13.45,21.32-27.95,31.9-41.97c0.61-0.81,1.22-1.61,1.83-2.41
				c0.14-0.18,0.28-0.37,0.42-0.55c0.81-1.06-0.94,1.21-0.44,0.57c0.31-0.39,0.61-0.79,0.92-1.18c1.13-1.45,2.29-2.88,3.47-4.29
				c1.31-1.56,2.2-3.2,2.2-5.3c0-1.84-0.82-4.04-2.2-5.3c-2.78-2.55-7.92-3.21-10.61,0c-10.65,12.72-19.9,26.58-30,39.74
				c-0.13,0.17-0.26,0.33-0.38,0.5c-0.95,1.24,1.1-1.42,0.15-0.19c-0.34,0.44-0.68,0.88-1.02,1.31c-0.76,0.97-1.53,1.94-2.3,2.91
				c-1.49,1.87-3,3.72-4.54,5.55c-2.21,2.63-2.89,5.98-1.17,9.09c3.31,5.97,6.68,11.91,10.08,17.83
				c5.25,9.13,10.46,18.37,16.43,27.05c1.24,1.81,2.52,3.65,4.01,5.26c0.7,0.76,1.54,1.43,2.41,1.96c1.08,0.66,2.77,1.16,4.04,1.11
				c2.22-0.09,3.77-0.88,5.46-2.25c1.4-1.14,2.2-3.58,2.2-5.3c0-1.84-0.82-4.04-2.2-5.3c-1.43-1.31-3.31-2.29-5.3-2.2
				C793.34,247.63,791.76,248.41,790.13,249.73L790.13,249.73z"/>
		</g>
	</g>
	<g>
		<g>
			<path class="st3" d="M761.26,127.74c1.64,1.33,3.23,2.24,5.42,2.25c1.34,0,2.83-0.37,3.99-1.07c0.79-0.48,1.56-1.07,2.21-1.74
				c1.29-1.33,2.35-2.92,3.38-4.45c2.49-3.71,4.71-7.6,6.91-11.48c5.22-9.19,10.2-18.53,15.11-27.9c1.15-2.19,2.29-4.37,3.42-6.57
				c1.65-3.21,1.09-6.4-1.17-9.09c-2.74-3.25-5.38-6.58-7.99-9.94c-0.58-0.74,0.98,1.27,0.4,0.52c-0.13-0.17-0.26-0.33-0.38-0.5
				c-0.34-0.45-0.68-0.89-1.02-1.34c-0.68-0.9-1.37-1.8-2.05-2.7c-1.36-1.81-2.72-3.62-4.07-5.44c-4.97-6.7-9.85-13.47-14.88-20.12
				c-2.64-3.48-5.3-6.96-8.11-10.31c-1.17-1.4-3.55-2.2-5.3-2.2c-1.84,0-4.04,0.82-5.3,2.2c-1.31,1.43-2.29,3.31-2.2,5.3
				c0.09,2.09,0.86,3.7,2.2,5.3c1.04,1.24,2.06,2.5,3.06,3.77c0.48,0.61,0.95,1.21,1.43,1.82c-1.56-1.99-0.49-0.64-0.13-0.16
				c0.32,0.42,0.64,0.84,0.96,1.26c2.43,3.19,4.81,6.42,7.18,9.65c5.18,7.04,10.32,14.1,15.65,21.02c3.24,4.21,6.51,8.39,9.93,12.45
				c-0.39-3.03-0.78-6.06-1.17-9.09c-2.79,5.41-5.63,10.8-8.5,16.16c-4.73,8.86-9.47,17.74-14.73,26.31
				c-0.98,1.6-1.98,3.2-3.08,4.73c-0.1,0.14-0.21,0.28-0.31,0.42c-0.68,0.93,1.35-1.7,0.82-1.05c-0.17,0.21-0.34,0.42-0.52,0.63
				c-0.15,0.16-0.32,0.31-0.46,0.47c-0.45,0.51,2.06-1.32,1.11-0.9c0.6-0.25,1.19-0.5,1.79-0.76c-0.04,0.02-0.08,0.03-0.12,0.03
				c0.66-0.09,1.33-0.18,1.99-0.27c-0.03,0-0.05,0-0.08,0c0.66,0.09,1.33,0.18,1.99,0.27c-0.02,0-0.03-0.01-0.05-0.01
				c0.6,0.25,1.19,0.5,1.79,0.76c-0.58-0.28-0.1,0.1,1.46,1.13c-1.59-1.29-3.17-2.2-5.3-2.2c-1.84,0-4.04,0.82-5.3,2.2
				C758.75,119.87,758.01,125.1,761.26,127.74L761.26,127.74z"/>
		</g>
	</g>
	<g>
		<g>
			<path class="st3" d="M836.05,615.38c1.55-1.04,2.04-1.42,1.46-1.13c0.6-0.25,1.19-0.5,1.79-0.76c-0.02,0.01-0.03,0.01-0.05,0.01
				c0.66-0.09,1.33-0.18,1.99-0.27c-0.03,0-0.05,0-0.08,0c0.66,0.09,1.33,0.18,1.99,0.27c-0.06-0.01-0.11-0.03-0.16-0.05
				c0.6,0.25,1.19,0.5,1.79,0.76c-0.94-0.45,1.11,0.87,1.16,0.94c-0.1-0.14-0.29-0.26-0.42-0.39c-0.37-0.37-0.69-0.78-1.02-1.19
				c-0.67-0.82,1.34,1.76,0.81,1.05c-0.1-0.14-0.2-0.27-0.3-0.4c-0.23-0.31-0.46-0.63-0.69-0.95c-0.51-0.72-1.01-1.45-1.5-2.18
				c-2.61-3.9-5.05-7.91-7.46-11.93c-5.13-8.55-10.08-17.2-14.97-25.89c-1.09-1.93-2.18-3.87-3.25-5.81
				c-0.39,3.03-0.78,6.06-1.17,9.09c11.32-13.45,21.32-27.95,31.9-41.97c0.61-0.81,1.22-1.61,1.83-2.41
				c0.14-0.18,0.28-0.37,0.42-0.55c0.81-1.06-0.94,1.21-0.44,0.57c0.31-0.39,0.61-0.79,0.92-1.18c1.13-1.45,2.29-2.88,3.47-4.29
				c1.31-1.56,2.2-3.2,2.2-5.3c0-1.84-0.82-4.04-2.2-5.3c-2.78-2.55-7.92-3.21-10.61,0c-10.65,12.72-19.9,26.58-30,39.74
				c-0.13,0.17-0.26,0.33-0.38,0.5c-0.95,1.24,1.1-1.42,0.15-0.19c-0.34,0.44-0.68,0.88-1.02,1.31c-0.76,0.97-1.53,1.94-2.3,2.91
				c-1.49,1.87-3,3.72-4.54,5.55c-2.21,2.63-2.89,5.98-1.17,9.09c3.31,5.97,6.68,11.91,10.08,17.83
				c5.25,9.12,10.46,18.37,16.43,27.05c1.24,1.81,2.52,3.65,4.01,5.26c0.7,0.76,1.54,1.43,2.41,1.96c1.08,0.66,2.77,1.16,4.04,1.11
				c2.22-0.09,3.77-0.88,5.46-2.25c1.4-1.14,2.2-3.58,2.2-5.3c0-1.84-0.82-4.04-2.2-5.3c-1.43-1.31-3.31-2.29-5.3-2.2
				C839.25,613.28,837.67,614.06,836.05,615.38L836.05,615.38z"/>
		</g>
	</g>
	<g>
		<g>
			<path class="st3" d="M852.89,526.67c1.64,1.33,3.23,2.24,5.42,2.25c1.34,0,2.83-0.37,3.99-1.07c0.79-0.48,1.56-1.07,2.21-1.74
				c1.29-1.33,2.35-2.92,3.38-4.45c2.49-3.71,4.71-7.6,6.91-11.48c5.22-9.19,10.2-18.53,15.11-27.9c1.15-2.19,2.29-4.37,3.42-6.57
				c1.65-3.21,1.09-6.4-1.17-9.09c-2.74-3.25-5.38-6.58-7.99-9.94c-0.58-0.74,0.98,1.27,0.4,0.52c-0.13-0.17-0.26-0.33-0.38-0.5
				c-0.34-0.45-0.68-0.89-1.02-1.34c-0.68-0.9-1.37-1.8-2.05-2.7c-1.36-1.81-2.72-3.62-4.07-5.44c-4.97-6.7-9.85-13.47-14.88-20.12
				c-2.64-3.48-5.3-6.96-8.11-10.31c-1.17-1.4-3.55-2.2-5.3-2.2c-1.84,0-4.04,0.82-5.3,2.2c-1.31,1.43-2.29,3.31-2.2,5.3
				c0.09,2.09,0.86,3.7,2.2,5.3c1.04,1.24,2.06,2.5,3.06,3.77c0.48,0.61,0.95,1.21,1.43,1.82c-1.56-1.99-0.49-0.64-0.13-0.16
				c0.32,0.42,0.64,0.84,0.96,1.26c2.42,3.19,4.81,6.42,7.18,9.65c5.18,7.04,10.32,14.1,15.65,21.02c3.24,4.21,6.51,8.39,9.93,12.45
				c-0.39-3.03-0.78-6.06-1.17-9.09c-2.79,5.41-5.63,10.8-8.5,16.16c-4.73,8.86-9.47,17.74-14.73,26.31
				c-0.98,1.6-1.98,3.2-3.08,4.73c-0.1,0.14-0.21,0.28-0.31,0.42c-0.68,0.93,1.36-1.7,0.82-1.05c-0.17,0.21-0.34,0.42-0.52,0.63
				c-0.15,0.16-0.32,0.31-0.46,0.47c-0.45,0.51,2.06-1.32,1.11-0.9c0.6-0.25,1.19-0.5,1.79-0.76c-0.04,0.02-0.08,0.03-0.12,0.03
				c0.66-0.09,1.33-0.18,1.99-0.27c-0.03,0-0.05,0-0.08,0c0.66,0.09,1.33,0.18,1.99,0.27c-0.02,0-0.03-0.01-0.05-0.01
				c0.6,0.25,1.19,0.5,1.79,0.76c-0.58-0.28-0.1,0.1,1.46,1.13c-1.59-1.29-3.17-2.2-5.3-2.2c-1.84,0-4.04,0.82-5.3,2.2
				C850.38,518.8,849.64,524.03,852.89,526.67L852.89,526.67z"/>
		</g>
	</g>
	<g>
		<path class="st3" d="M842.31,305.25c0.74,3.42-3.72,8.79-5.36,12.06c-14.89,26.66-26.21,53.46-40.96,82.06
			c-5.06,6.11-19.06,9.38-17.42-5.21c10.72-23.68,21.45-46.46,34.1-68.95c4.17-7.15,10.13-22.64,17.57-24.27
			C835.16,299.73,841.57,301.52,842.31,305.25z"/>
	</g>
</g>
<g id="Layer_2_00000118369338381538906070000002816109157141828489_">
</g>
<g id="Layer_3">
</g>
<g id="Layer_7" class="st19">
	<path class="st20" d="M629.59,191.8l-3.8,14.24l-4.01,14.23c2.29,1.36,4.95,2.16,7.81,2.16c8.46,0,15.31-6.86,15.31-15.31
		S638.05,191.8,629.59,191.8z"/>
	<path class="st20" d="M660.22,164.23c-8.46,0-15.31,6.86-15.31,15.31c0,5.02,2.43,9.46,6.16,12.25l11.9-27.31
		C662.07,164.33,661.16,164.23,660.22,164.23z"/>
	<path class="st20" d="M626.51,179.66l-11.9,27.31c2.56,1.91,5.72,3.06,9.16,3.06c8.46,0,15.31-6.86,15.31-15.31
		C639.08,187.2,633.65,180.96,626.51,179.66z"/>
	<polygon class="st21" points="286.99,275.93 317.81,318.09 291.07,353.54 	"/>
	<g class="st22">
		<path class="st3" d="M288.38,369.99c2.18,1.98,33.67-49.44,33.67-49.44c-13.41-15.91-28.3-38.16-38.09-49.82"/>
		<g>
			<path class="st3" d="M286.61,371.76c2.96,2.4,5.66-1.52,7.28-3.61c2.98-3.84,5.72-7.87,8.42-11.91
				c6.13-9.17,12.02-18.51,17.85-27.88c1.36-2.18,2.71-4.36,4.05-6.55c0.62-1.01,0.32-2.18-0.39-3.03
				c-10.93-12.99-20.54-27-30.77-40.52c-2.38-3.14-4.79-6.27-7.32-9.3c-0.87-1.04-2.64-0.9-3.54,0c-1.03,1.03-0.87,2.5,0,3.54
				c4.68,5.59,8.97,11.49,13.29,17.36c5.18,7.04,10.32,14.1,15.65,21.02c2.98,3.87,6.01,7.7,9.15,11.44
				c-0.13-1.01-0.26-2.02-0.39-3.03c-3.43,5.6-6.91,11.16-10.42,16.71c-5.69,8.99-11.39,18.04-17.65,26.65
				c-0.33,0.46-0.67,0.91-1.01,1.37c-0.14,0.19-0.29,0.38-0.43,0.57c-0.46,0.62,0.16-0.2-0.16,0.2c-0.51,0.64-1.02,1.28-1.56,1.9
				c-0.36,0.41-0.79,0.77-1.15,1.17c-0.3,0.33,0.58-0.4,0.22-0.17c-0.07,0.04-0.13,0.09-0.2,0.12c0.78-0.37,1.62-0.39,2.61,0.41
				c-1.05-0.85-2.51-1.02-3.54,0C285.73,369.1,285.56,370.91,286.61,371.76L286.61,371.76z"/>
		</g>
	</g>
	<path class="st23" d="M245.35,278.39c0,0,0.16,5.6-2.03,11.37c-1.73,4.56-6.04,9.24-5.22,11.35c1.42,3.67,7.26,4.18,7.26,4.18"/>
</g>
<g id="Layer_4">
</g>
<g id="Layer_5">
</g>
<g id="Layer_6">
</g>
<g id="Layer_8">
</g>
<g id="Layer_10">
</g>
</svg>
