<?xml version="1.0" encoding="utf-8"?>
<!-- Generator: Adobe Illustrator 25.4.1, SVG Export Plug-In . SVG Version: 6.00 Build 0)  -->
<svg version="1.1" id="Layer_2" xmlns="http://www.w3.org/2000/svg" xmlns:xlink="http://www.w3.org/1999/xlink" x="0px" y="0px"
	 viewBox="0 0 228.07 227.12" style="enable-background:new 0 0 228.07 227.12;" xml:space="preserve">
<path d="M146.17,162.13c-4.27,6.78-10.12,11.23-18.17,12.95c-11.59,2.48-22.51,1.15-32.69-4.88c-2.71-1.6-5.54-6.03-8.25-7.76
	c1.97,0.19,3.97,1.24,5.91,1.61c3.4,0.65,6.67,0.56,9.85-0.86c0.69-0.31,1.46-0.44,2.17-0.7c2.42-0.85,4.77,1.22,7.32,1.78
	c2.17,0.48,4.68,0.71,6.75,0.13c3.63-1.02,7.11-0.9,10.5,0.23c3.29,1.1,6.31,0.86,9.46-0.3C141.3,163.49,143.7,162.88,146.17,162.13
	z"/>
<path d="M86.93,91.89c5.29,0.52,10.39,1.02,15.64,1.54c0-5.42-5.52-13.46-5.52-18.84c2.72,2.26,10.33,11.81,5.98,18.91
	c-7.84,0-15.61,0.06-23.37-0.03c-3.39-0.04-6.79-0.25-10.14-0.69c-1.59-0.21-3.08-1.14-4.62-1.74c0.06-0.21,0.11-0.41,0.17-0.62
	c1.65,0.11,3.29,0.22,4.89,0.33c0.59-2.31,1.16-4.53,1.73-6.75c-2.91-0.72-4.82,0.23-5.92,3c-1.17,2.96-5.36,4.38-8.15,2.76
	c-1.95-1.14-2.22-3.09-0.57-4.91c2-2.21,4.62-3.33,7.45-4c2.81-0.67,5.58-0.49,8.31,0.51c0.51,0.19,1.24,0.17,1.73-0.05
	c3.3-1.48,6.49-1.11,9.44,0.73c2.9,1.8,3.34,4.81,3.21,7.94C87.17,90.54,87.04,91.11,86.93,91.89z"/>
<path d="M134.21,91.83c-0.41-2.62-0.42-5.08,0.78-7.37c1.87-3.54,7.54-5.23,11.24-3.3c0.87,0.45,1.55,0.45,2.43,0.15
	c5.37-1.86,10.24-0.62,14.62,2.72c2.51,1.92,2.52,4.36,0.28,5.73c-2.64,1.61-6.89,0.25-8.11-2.59c-1.28-2.99-2.84-3.81-6.01-3.19
	c0.57,2.17,1.14,4.35,1.77,6.75c1.49-0.09,3.19-0.19,5.3-0.32c-1.83,1.77-3.77,2.5-5.77,2.59c-9.15,0.42-15.3,0.67-24.46,0.98
	c-0.01-0.18-0.03-0.36-0.04-0.54C129.89,92.9,130.54,92.36,134.21,91.83z"/>
<path d="M51.45,81.3c0.54-0.71,1.06-1.43,1.63-2.11c4.17-5.1,9.7-7.67,16.13-8.25c7.33-0.66,14.69-1.12,22.04-1.6
	c0.58-0.04,1.35,0.27,1.76,0.69c1.42,1.45,2.84,2.94,4.04,4.56c1.44,1.95,0.95,2.91-1.41,3.06c-1.98,0.13-3.98,0.21-5.96,0.15
	c-6.35-0.18-12.71-0.3-19.05-0.68c-6.04-0.36-11.61,1.18-17.04,3.58c-0.65,0.28-1.3,0.55-1.95,0.83
	C51.58,81.45,51.51,81.38,51.45,81.3z"/>
<path d="M127.13,94.91c-3.22-4.42-7.22-10-4.97-15.08c0.29-0.65,0.42-1.4,0.79-1.99c0.58-0.92,1.15-1.94,1.98-2.59
	c3.01-2.32,6.45-3.67,10.22-4.23c4.96-0.73,9.93-1.33,14.92-0.68c4.77,0.62,8.96,2.48,11.86,6.55c0.36,0.5,0.63,1.06,0.77,1.89
	c-0.8-0.26-1.58-0.56-2.39-0.77c-3.04-0.78-6.07-1.7-9.15-2.26c-3.62-0.65-7.09,0.66-10.61,1.28c-4.38,0.77-8.76,1.58-13.15,2.29
	c-1.22,0.2-2.49,0.12-3.84,0.16C123.73,84.25,126.95,90.02,127.13,94.91z"/>
<path d="M98.32,213.72l9.66,4.24v6.01l-15.52-7.76v-5.08l15.52-7.78v6.01L98.32,213.72z"/>
<path d="M113.35,223.81c0-0.97,0.32-1.76,0.97-2.39c0.65-0.62,1.49-0.94,2.53-0.94c1.01,0,1.85,0.31,2.52,0.93
	c0.67,0.62,1,1.42,1,2.4c0,1-0.34,1.79-1.01,2.4s-1.51,0.91-2.51,0.91c-1.01,0-1.84-0.31-2.51-0.92S113.35,224.79,113.35,223.81z"/>
<path d="M135.81,213.64l-9.85-4.29v-5.97l15.74,7.76v5.08L125.96,224v-5.97L135.81,213.64z"/>
<path d="M136.01,122.63l27.82-16.97v4.91l-23.8,14.25l23.8,14.51v4.93l-27.82-16.97V122.63z"/>
<path d="M201.02,127.25l-27.82,16.97v-4.91l23.8-14.25l-23.8-14.51v-4.93l27.82,16.97V127.25z"/>
<path d="M125.62,9.28l15.18-9.26V2.7l-12.99,7.78l12.99,7.92v2.69l-15.18-9.26V9.28z"/>
<path d="M161.1,11.8l-15.18,9.26v-2.68l12.99-7.78l-12.99-7.92V0l15.18,9.26V11.8z"/>
<path d="M182.68,216.39c0-3.23,0.44-5.57,0.44-8.53c0-1.72-1.19-3.4-6.41-3.45v-2.3c5.21-0.04,6.41-1.72,6.41-3.45
	c0-2.78-0.44-5.48-0.44-8.53c0-4.55,2.65-5.88,8.17-5.88h2.74v2.08h-2.3c-4.51,0-5.48,1.15-5.48,4.02c0,2.52,0.26,5.26,0.26,8
	c0,2.87-0.97,4.29-4.02,4.82v0.18c3.05,0.53,4.02,1.94,4.02,4.82c0,3-0.26,5.3-0.26,8c0,2.87,0.97,4.02,5.48,4.02h2.3v2.08h-2.74
	C185.33,222.27,182.68,220.94,182.68,216.39z"/>
<path d="M48.76,67.47c0,0.4-0.8,0.31-1.11,0.49c-0.26,0.18-0.62,0-1.15,0.22c-0.57,0.27-1.28,0.71-1.59,1.46
	c-0.27,0.79-0.75,1.59-0.97,1.77c-0.22,0.18-0.13,0.75-0.4,1.5c-0.22,0.75-0.71,1.72-0.75,2.78c-0.04,1.1-0.49,2.08-1.1,2.96
	c-0.66,0.84-1.06,1.1-1.28,1.68c-0.26,0.57-0.35,0.44-0.79,0.84c-0.58,0.62-1.37,1.02-2.03,1.55c-0.62,0.49-1.68,0.4-1.68,1.06
	c0,0.35,0.97,0.93,1.5,1.72c0.53,0.8,1.19,1.55,1.37,2.39c0.04,0.22,0.09,0.49,0.09,0.79c0,0.62-0.09,1.33-0.09,1.9
	c0,0.27,0,0.44,0.04,0.66c0.22,0.97,0.31,0.97,0.4,1.94c0.09,1.02,0.04,1.5,0.18,2.08c0.13,0.57,0.49,1.28,0.84,1.59
	c0.4,0.26,0.44,0.66,1.19,0.97c0.44,0.18,0.71,0.22,1.9,0.22c0.35,0,0.57-0.13,0.75-0.13c0.09,0,0.22,0.04,0.22,0.18
	c0,0.13-0.26,0.31-0.71,0.53c-0.44,0.26-0.88,0.31-1.28,0.31s-0.8-0.04-1.19-0.09c-0.88-0.13-0.97-0.53-1.55-0.57
	c-0.53-0.04-1.72-0.97-1.99-1.41c-0.31-0.49-0.62-1.5-0.79-2.21c-0.22-0.71-0.4-1.77-0.44-2.78c-0.04-0.62-0.09-0.75-0.09-1.02
	c0-0.18,0-0.35,0.09-0.71c0.04-0.27,0.09-0.49,0.09-0.66c0-0.49-0.18-0.8-0.22-1.19c-0.09-0.53-0.18-0.79-0.22-1.46
	c-0.04-0.49-0.31-0.88-0.53-1.33c0-0.04-0.04-0.09-0.31-0.53c-0.44-0.62-1.68-0.53-2.12-0.84c-0.13-0.09-0.18-0.27-0.18-0.44
	c0-0.49,0.4-1.1,0.93-1.28c0.35-0.13,0.79-0.13,1.19-0.13c0.4,0,0.79,0,1.06-0.31c0.57-0.57,1.06-0.84,1.55-1.68
	c0.53-0.84,0.75-1.46,1.24-2.61c0.49-1.15,0.75-1.24,0.8-1.9s0.35-0.88,0.62-1.68c0.31-0.8,0.57-2.03,1.11-2.87
	c0.53-0.88,1.15-1.33,1.33-1.55c0.18-0.18,0.26-0.8,0.8-1.06c0.53-0.31,1.63-0.88,2.21-1.06s1.99-0.57,2.39-0.57
	C48.31,66.98,48.76,67.12,48.76,67.47z"/>
<path d="M89.73,148.39c0,0.4-0.8,0.31-1.11,0.49c-0.26,0.18-0.62,0-1.15,0.22c-0.57,0.27-1.28,0.71-1.59,1.46
	c-0.27,0.79-0.75,1.59-0.97,1.77c-0.22,0.18-0.13,0.75-0.4,1.5c-0.22,0.75-0.71,1.72-0.75,2.78c-0.04,1.1-0.49,2.08-1.1,2.96
	c-0.66,0.84-1.06,1.1-1.28,1.68c-0.26,0.57-0.35,0.44-0.79,0.84c-0.58,0.62-1.37,1.02-2.03,1.55c-0.62,0.49-1.68,0.4-1.68,1.06
	c0,0.35,0.97,0.93,1.5,1.72c0.53,0.8,1.19,1.55,1.37,2.39c0.04,0.22,0.09,0.49,0.09,0.79c0,0.62-0.09,1.33-0.09,1.9
	c0,0.27,0,0.44,0.04,0.66c0.22,0.97,0.31,0.97,0.4,1.94c0.09,1.02,0.04,1.5,0.18,2.08c0.13,0.57,0.49,1.28,0.84,1.59
	c0.4,0.26,0.44,0.66,1.19,0.97c0.44,0.18,0.71,0.22,1.9,0.22c0.35,0,0.57-0.13,0.75-0.13c0.09,0,0.22,0.04,0.22,0.18
	c0,0.13-0.26,0.31-0.71,0.53c-0.44,0.26-0.88,0.31-1.28,0.31s-0.8-0.04-1.19-0.09c-0.88-0.13-0.97-0.53-1.55-0.57
	c-0.53-0.04-1.72-0.97-1.99-1.41c-0.31-0.49-0.62-1.5-0.79-2.21c-0.22-0.71-0.4-1.77-0.44-2.78c-0.04-0.62-0.09-0.75-0.09-1.02
	c0-0.18,0-0.35,0.09-0.71c0.04-0.27,0.09-0.49,0.09-0.66c0-0.49-0.18-0.8-0.22-1.19c-0.09-0.53-0.18-0.79-0.22-1.46
	c-0.04-0.49-0.31-0.88-0.53-1.33c0-0.04-0.04-0.09-0.31-0.53c-0.44-0.62-1.68-0.53-2.12-0.84c-0.13-0.09-0.18-0.27-0.18-0.44
	c0-0.49,0.4-1.1,0.93-1.28c0.35-0.13,0.79-0.13,1.19-0.13c0.4,0,0.79,0,1.06-0.31c0.57-0.57,1.06-0.84,1.55-1.68
	c0.53-0.84,0.75-1.46,1.24-2.61c0.49-1.15,0.75-1.24,0.8-1.9c0.04-0.66,0.35-0.88,0.62-1.68c0.31-0.8,0.57-2.03,1.11-2.87
	c0.53-0.88,1.15-1.33,1.33-1.55c0.18-0.18,0.26-0.8,0.8-1.06c0.53-0.31,1.63-0.88,2.21-1.06s1.99-0.57,2.39-0.57
	C89.28,147.91,89.73,148.04,89.73,148.39z"/>
<path d="M29.24,130.92c0,0.4-0.8,0.31-1.11,0.49c-0.26,0.18-0.62,0-1.15,0.22c-0.57,0.26-1.28,0.71-1.59,1.46
	c-0.27,0.79-0.75,1.59-0.97,1.77c-0.22,0.18-0.13,0.75-0.4,1.5c-0.22,0.75-0.71,1.72-0.75,2.78c-0.04,1.1-0.49,2.08-1.1,2.96
	c-0.66,0.84-1.06,1.1-1.28,1.68c-0.26,0.58-0.35,0.44-0.79,0.84c-0.58,0.62-1.37,1.02-2.03,1.55c-0.62,0.49-1.68,0.4-1.68,1.06
	c0,0.35,0.97,0.93,1.5,1.72c0.53,0.79,1.19,1.55,1.37,2.39c0.04,0.22,0.09,0.49,0.09,0.8c0,0.62-0.09,1.33-0.09,1.9
	c0,0.27,0,0.44,0.04,0.66c0.22,0.97,0.31,0.97,0.4,1.94c0.09,1.02,0.04,1.5,0.18,2.08c0.13,0.57,0.49,1.28,0.84,1.59
	c0.4,0.26,0.44,0.66,1.19,0.97c0.44,0.18,0.71,0.22,1.9,0.22c0.35,0,0.57-0.13,0.75-0.13c0.09,0,0.22,0.04,0.22,0.18
	s-0.26,0.31-0.71,0.53c-0.44,0.26-0.88,0.31-1.28,0.31s-0.8-0.04-1.19-0.09c-0.88-0.13-0.97-0.53-1.55-0.57
	c-0.53-0.04-1.72-0.97-1.99-1.41c-0.31-0.49-0.62-1.5-0.79-2.21c-0.22-0.71-0.4-1.77-0.44-2.78c-0.04-0.62-0.09-0.75-0.09-1.02
	c0-0.18,0-0.35,0.09-0.71c0.04-0.27,0.09-0.49,0.09-0.66c0-0.49-0.18-0.79-0.22-1.19c-0.09-0.53-0.18-0.79-0.22-1.46
	c-0.04-0.49-0.31-0.88-0.53-1.33c0-0.04-0.04-0.09-0.31-0.53c-0.44-0.62-1.68-0.53-2.12-0.84c-0.13-0.09-0.18-0.27-0.18-0.44
	c0-0.49,0.4-1.1,0.93-1.28c0.35-0.13,0.79-0.13,1.19-0.13c0.4,0,0.79,0,1.06-0.31c0.57-0.58,1.06-0.84,1.55-1.68
	c0.53-0.84,0.75-1.46,1.24-2.61c0.49-1.15,0.75-1.24,0.8-1.9c0.04-0.66,0.35-0.88,0.62-1.68c0.31-0.79,0.57-2.03,1.11-2.87
	c0.53-0.88,1.15-1.33,1.33-1.55c0.18-0.18,0.26-0.79,0.8-1.06c0.53-0.31,1.63-0.88,2.21-1.06s1.99-0.57,2.39-0.57
	C28.8,130.43,29.24,130.56,29.24,130.92z"/>
<path d="M29.24,36.63c0,0.4-0.8,0.31-1.11,0.49c-0.26,0.18-0.62,0-1.15,0.22c-0.57,0.27-1.28,0.71-1.59,1.46
	c-0.27,0.79-0.75,1.59-0.97,1.77c-0.22,0.18-0.13,0.75-0.4,1.5c-0.22,0.75-0.71,1.72-0.75,2.78c-0.04,1.1-0.49,2.08-1.1,2.96
	c-0.66,0.84-1.06,1.1-1.28,1.68c-0.26,0.57-0.35,0.44-0.79,0.84c-0.58,0.62-1.37,1.02-2.03,1.55c-0.62,0.49-1.68,0.4-1.68,1.06
	c0,0.35,0.97,0.93,1.5,1.72s1.19,1.55,1.37,2.39c0.04,0.22,0.09,0.49,0.09,0.8c0,0.62-0.09,1.33-0.09,1.9c0,0.27,0,0.44,0.04,0.66
	c0.22,0.97,0.31,0.97,0.4,1.94c0.09,1.02,0.04,1.5,0.18,2.08c0.13,0.57,0.49,1.28,0.84,1.59c0.4,0.26,0.44,0.66,1.19,0.97
	c0.44,0.18,0.71,0.22,1.9,0.22c0.35,0,0.57-0.13,0.75-0.13c0.09,0,0.22,0.04,0.22,0.18c0,0.13-0.26,0.31-0.71,0.53
	c-0.44,0.26-0.88,0.31-1.28,0.31s-0.8-0.04-1.19-0.09c-0.88-0.13-0.97-0.53-1.55-0.57c-0.53-0.04-1.72-0.97-1.99-1.41
	c-0.31-0.49-0.62-1.5-0.79-2.21c-0.22-0.71-0.4-1.77-0.44-2.78c-0.04-0.62-0.09-0.75-0.09-1.02c0-0.18,0-0.35,0.09-0.71
	c0.04-0.27,0.09-0.49,0.09-0.66c0-0.49-0.18-0.8-0.22-1.19c-0.09-0.53-0.18-0.79-0.22-1.46c-0.04-0.49-0.31-0.88-0.53-1.33
	c0-0.04-0.04-0.09-0.31-0.53c-0.44-0.62-1.68-0.53-2.12-0.84c-0.13-0.09-0.18-0.27-0.18-0.44c0-0.49,0.4-1.1,0.93-1.28
	c0.35-0.13,0.79-0.13,1.19-0.13c0.4,0,0.79,0,1.06-0.31c0.57-0.57,1.06-0.84,1.55-1.68c0.53-0.84,0.75-1.46,1.24-2.61
	c0.49-1.15,0.75-1.24,0.8-1.9s0.35-0.88,0.62-1.68c0.31-0.8,0.57-2.03,1.11-2.87c0.53-0.88,1.15-1.33,1.33-1.55
	c0.18-0.18,0.26-0.8,0.8-1.06c0.53-0.31,1.63-0.88,2.21-1.06s1.99-0.57,2.39-0.57C28.8,36.14,29.24,36.27,29.24,36.63z"/>
<path d="M146.17,183.84c0-0.4,0.8-0.31,1.11-0.49c0.26-0.18,0.62,0,1.15-0.22c0.57-0.26,1.28-0.71,1.59-1.46
	c0.26-0.79,0.75-1.59,0.97-1.77c0.22-0.18,0.13-0.75,0.4-1.5c0.22-0.75,0.71-1.72,0.75-2.78c0.04-1.1,0.49-2.08,1.1-2.96
	c0.66-0.84,1.06-1.1,1.28-1.68c0.27-0.58,0.35-0.44,0.8-0.84c0.57-0.62,1.37-1.02,2.03-1.55c0.62-0.49,1.68-0.4,1.68-1.06
	c0-0.35-0.97-0.93-1.5-1.72c-0.53-0.79-1.19-1.55-1.37-2.39c-0.04-0.22-0.09-0.49-0.09-0.8c0-0.62,0.09-1.33,0.09-1.9
	c0-0.27,0-0.44-0.04-0.66c-0.22-0.97-0.31-0.97-0.4-1.94c-0.09-1.02-0.04-1.5-0.18-2.08c-0.13-0.57-0.49-1.28-0.84-1.59
	c-0.4-0.26-0.44-0.66-1.19-0.97c-0.44-0.18-0.71-0.22-1.9-0.22c-0.35,0-0.57,0.13-0.75,0.13c-0.09,0-0.22-0.04-0.22-0.18
	s0.27-0.31,0.71-0.53c0.44-0.26,0.88-0.31,1.28-0.31s0.79,0.04,1.19,0.09c0.88,0.13,0.97,0.53,1.55,0.57
	c0.53,0.04,1.72,0.97,1.99,1.41c0.31,0.49,0.62,1.5,0.8,2.21c0.22,0.71,0.4,1.77,0.44,2.78c0.04,0.62,0.09,0.75,0.09,1.02
	c0,0.18,0,0.35-0.09,0.71c-0.04,0.27-0.09,0.49-0.09,0.66c0,0.49,0.18,0.79,0.22,1.19c0.09,0.53,0.18,0.79,0.22,1.46
	c0.04,0.49,0.31,0.88,0.53,1.33c0,0.04,0.04,0.09,0.31,0.53c0.44,0.62,1.68,0.53,2.12,0.84c0.13,0.09,0.18,0.27,0.18,0.44
	c0,0.49-0.4,1.1-0.93,1.28c-0.35,0.13-0.79,0.13-1.19,0.13c-0.4,0-0.79,0-1.06,0.31c-0.57,0.58-1.06,0.84-1.55,1.68
	c-0.53,0.84-0.75,1.46-1.24,2.61c-0.49,1.15-0.75,1.24-0.8,1.9c-0.04,0.66-0.35,0.88-0.62,1.68c-0.31,0.79-0.58,2.03-1.11,2.87
	c-0.53,0.88-1.15,1.33-1.33,1.55c-0.18,0.18-0.27,0.79-0.8,1.06c-0.53,0.31-1.63,0.88-2.21,1.06s-1.99,0.57-2.39,0.57
	C146.62,184.33,146.17,184.19,146.17,183.84z"/>
<path d="M116.17,188.88c0-1.61,1.28-2.69,2.72-2.69c1.44,0,2.72,1.08,2.72,2.69c0,1.61-1.28,2.69-2.72,2.69
	C117.45,191.56,116.17,190.48,116.17,188.88z"/>
<path d="M220.54,129.88h-1.5c-5.23,0.26-5.74,2.82-5.74,7.6l0.39,11.69c0,8.24-3.5,10.84-10.04,10.84h-1.06v-3.4h0.79
	c4.84,0,6.57-1.86,6.57-7.45l-0.39-11.4c-0.08-6.1,1.52-8.73,5.25-9.61c-4.03-1.1-5.33-3.16-5.25-9.88l0.39-11.52
	c0-6.09-2.47-7.38-6.74-7.38h-0.62v-3.4h1.12c5.68,0,9.97,1.75,9.97,10.45l-0.39,12.11c0,4.56,0.58,7.58,5.36,7.58h1.88V129.88z"/>
<path d="M168.31,215.11c0.4,1.28,1.94,3.09,2.08,4.11c0.18,1.5-1.19,2.83-2.21,3.05c-1.81,0.35-4.2-3.31-4.73-4.6
	c-1.77-4.02-0.31-11.58,3.8-12.59c0.49-0.13,1.55,0.26,2.03,0.57C171.85,208.39,166.94,210.78,168.31,215.11z"/>
<path d="M165.1,179.19c2.5-6.39,4.64-14.85,4.89-23.04h4.54c-0.2,7.61-2.56,17.18-5.54,23.04H165.1z"/>
<path d="M176.41,179.19c2.5-6.39,4.64-14.85,4.89-23.04h4.54c-0.2,7.61-2.56,17.18-5.54,23.04H176.41z"/>
<path d="M187.72,179.19c2.5-6.39,4.64-14.85,4.89-23.04h4.54c-0.2,7.61-2.56,17.18-5.54,23.04H187.72z"/>
<path d="M66.78,165.17c-2.99-5.86-5.35-15.43-5.54-23.04h4.54c0.25,8.19,2.39,16.65,4.89,23.04H66.78z"/>
<path d="M55.48,165.17c-2.99-5.86-5.35-15.43-5.54-23.04h4.54c0.25,8.19,2.39,16.65,4.89,23.04H55.48z"/>
<path d="M44.17,165.17c-2.99-5.86-5.35-15.43-5.54-23.04h4.54c0.25,8.19,2.39,16.65,4.89,23.04H44.17z"/>
<path d="M25.46,125.22c-2.99-5.86-5.35-15.43-5.54-23.04h4.54c0.25,8.19,2.39,16.65,4.89,23.04H25.46z"/>
<path d="M14.16,125.22c-2.99-5.86-5.35-15.43-5.54-23.04h4.54c0.25,8.19,2.39,16.65,4.89,23.04H14.16z"/>
<path d="M171.31,94.11c2.5-6.39,4.64-14.85,4.89-23.04h4.54c-0.2,7.61-2.56,17.18-5.54,23.04H171.31z"/>
<path d="M182.61,94.11c2.5-6.39,4.64-14.85,4.89-23.04h4.54c-0.2,7.61-2.56,17.18-5.54,23.04H182.61z"/>
<path d="M193.92,94.11c2.5-6.39,4.64-14.85,4.89-23.04h4.54c-0.2,7.61-2.56,17.18-5.54,23.04H193.92z"/>
<path d="M100.94,14.1v0.21l-6.98,13.23l-2.82-1.26c0.16-0.3,0.88-1.85,2.15-4.63c1.27-2.78,2.58-5.87,3.92-9.27L100.94,14.1z"/>
<path d="M111.1,14.1v0.21l-6.98,13.23l-2.82-1.26c0.16-0.3,0.88-1.85,2.15-4.63c1.27-2.78,2.58-5.87,3.92-9.27L111.1,14.1z"/>
<path d="M121.25,14.1v0.21l-6.98,13.23l-2.82-1.26c0.16-0.3,0.88-1.85,2.15-4.63c1.27-2.78,2.58-5.87,3.92-9.27L121.25,14.1z"/>
<path d="M41.31,180.82v0.21l-6.98,13.23L31.52,193c0.16-0.3,0.88-1.85,2.15-4.63c1.27-2.78,2.58-5.87,3.92-9.27L41.31,180.82z"/>
<path d="M51.46,180.82v0.21l-6.98,13.23L41.67,193c0.16-0.3,0.88-1.85,2.15-4.63c1.27-2.78,2.58-5.87,3.92-9.27L51.46,180.82z"/>
<path d="M61.62,180.82v0.21l-6.98,13.23L51.82,193c0.16-0.3,0.88-1.85,2.15-4.63c1.27-2.78,2.58-5.87,3.92-9.27L61.62,180.82z"/>
<path d="M207.77,196.6v0.21l-6.98,13.23l-2.82-1.26c0.16-0.3,0.88-1.85,2.15-4.63c1.27-2.78,2.58-5.87,3.92-9.27L207.77,196.6z"/>
<path d="M217.92,196.6v0.21l-6.98,13.23l-2.82-1.26c0.16-0.3,0.88-1.85,2.15-4.63c1.27-2.78,2.58-5.87,3.92-9.27L217.92,196.6z"/>
<path d="M228.07,196.6v0.21l-6.98,13.23l-2.82-1.26c0.16-0.3,0.88-1.85,2.15-4.63c1.27-2.78,2.58-5.87,3.92-9.27L228.07,196.6z"/>
<path d="M9.79,180.82v0.21l-6.98,13.23L0,193c0.16-0.3,0.88-1.85,2.15-4.63c1.27-2.78,2.58-5.87,3.92-9.27L9.79,180.82z"/>
<path d="M19.95,180.82v0.21l-6.98,13.23L10.15,193c0.16-0.3,0.88-1.85,2.15-4.63c1.27-2.78,2.58-5.87,3.92-9.27L19.95,180.82z"/>
<path d="M30.1,180.82v0.21l-6.98,13.23L20.31,193c0.16-0.3,0.88-1.85,2.15-4.63c1.27-2.78,2.58-5.87,3.92-9.27L30.1,180.82z"/>
<path d="M52.19,41.28v0.21l-6.98,13.23l-2.82-1.26c0.16-0.3,0.88-1.85,2.15-4.63c1.27-2.78,2.58-5.87,3.92-9.27L52.19,41.28z"/>
<path d="M62.34,41.28v0.21l-6.98,13.23l-2.82-1.26c0.16-0.3,0.88-1.85,2.15-4.63c1.27-2.78,2.58-5.87,3.92-9.27L62.34,41.28z"/>
<path d="M72.5,41.28v0.21l-6.98,13.23l-2.82-1.26c0.16-0.3,0.88-1.85,2.15-4.63c1.27-2.78,2.58-5.87,3.92-9.27L72.5,41.28z"/>
<path d="M9.79,78.69v0.21L2.82,92.13L0,90.87c0.16-0.3,0.88-1.85,2.15-4.63c1.27-2.78,2.58-5.87,3.92-9.27L9.79,78.69z"/>
<path d="M19.95,78.69v0.21l-6.98,13.23l-2.82-1.26c0.16-0.3,0.88-1.85,2.15-4.63c1.27-2.78,2.58-5.87,3.92-9.27L19.95,78.69z"/>
<path d="M30.1,78.69v0.21l-6.98,13.23l-2.82-1.26c0.16-0.3,0.88-1.85,2.15-4.63c1.27-2.78,2.58-5.87,3.92-9.27L30.1,78.69z"/>
<path d="M85.39,50.03V36.06h8.09v8.09L85.39,50.03z"/>
<path d="M100.14,50.03V36.06h8.09v8.09L100.14,50.03z"/>
<path d="M114.9,50.03V36.06h8.09v8.09L114.9,50.03z"/>
<path d="M41.96,31.77V17.81h8.09v8.09L41.96,31.77z"/>
<path d="M56.71,31.77V17.81h8.09v8.09L56.71,31.77z"/>
<path d="M71.47,31.77V17.81h8.09v8.09L71.47,31.77z"/>
<path d="M39.43,134.24v-28.92h8.09v16.76L39.43,134.24z"/>
<path d="M54.18,134.24v-28.92h8.09v16.76L54.18,134.24z"/>
<path d="M68.94,134.24v-28.92h8.09v16.76L68.94,134.24z"/>
<path d="M42.76,222.94v-13.96h8.09v8.09L42.76,222.94z"/>
<path d="M57.51,222.94v-13.96h8.09v8.09L57.51,222.94z"/>
<path d="M72.27,222.94v-13.96h8.09v8.09L72.27,222.94z"/>
<path d="M12.01,26.11v-8.84h5.13v5.13L12.01,26.11z"/>
<path d="M21.35,26.11v-8.84h5.13v5.13L21.35,26.11z"/>
<path d="M30.7,26.11v-8.84h5.13v5.13L30.7,26.11z"/>
<path d="M184.65,22.4l-3.22-1.69l0.81-1.51c0.91-1.68,1.38-3.37,1.41-5.08v-4.8h5.25l-0.02,4.29c-0.01,1.51-0.4,3.07-1.15,4.69
	S185.94,21.29,184.65,22.4z"/>
<path d="M175.34,22.4l-3.22-1.69l0.81-1.51c0.91-1.68,1.38-3.37,1.41-5.08v-4.8h5.25l-0.02,4.29c-0.01,1.51-0.4,3.07-1.15,4.69
	S176.63,21.29,175.34,22.4z"/>
<path d="M194.64,22.4l-3.22-1.69l0.81-1.51c0.91-1.68,1.38-3.37,1.41-5.08v-4.8h5.25l-0.02,4.29c-0.01,1.51-0.4,3.07-1.15,4.69
	S195.93,21.29,194.64,22.4z"/>
<g>
	<path d="M194.71,54.58c-3.68,1.56-6.78,1.66-8.55-2.54c-1.82-4.3,0.16-6.46,3.85-8.02l-7.09-12.21l4.91-2.08l9.27,13.94
		C200.45,48.77,200.85,51.98,194.71,54.58z"/>
</g>
<g>
	<path d="M220.29,54.58c-3.68,1.56-6.78,1.66-8.55-2.54c-1.82-4.3,0.16-6.46,3.85-8.02l-7.09-12.21l4.91-2.08l9.27,13.94
		C226.04,48.77,226.43,51.98,220.29,54.58z"/>
</g>
<g>
	<path d="M169.12,54.58c-3.68,1.56-6.78,1.66-8.55-2.54c-1.82-4.3,0.16-6.46,3.85-8.02l-7.09-12.21l4.91-2.08l9.27,13.94
		C174.87,48.77,175.26,51.98,169.12,54.58z"/>
</g>
<g>
	<path d="M144.19,54.58c-3.68,1.56-6.78,1.66-8.55-2.54c-1.82-4.3,0.16-6.46,3.85-8.02l-7.09-12.21l4.91-2.08l9.27,13.94
		C149.94,48.77,150.33,51.98,144.19,54.58z"/>
</g>
<g>
	<path d="M65.96,192.45l3.69-5.54l1.95,0.83l-2.82,4.85c1.47,0.62,2.25,1.48,1.53,3.19c-0.71,1.67-1.94,1.63-3.4,1.01
		C64.47,195.76,64.63,194.48,65.96,192.45z"/>
</g>
<g>
	<path d="M76.14,192.45l3.69-5.54l1.95,0.83l-2.82,4.85c1.47,0.62,2.25,1.48,1.53,3.19c-0.71,1.67-1.94,1.63-3.4,1.01
		C74.64,195.76,74.8,194.48,76.14,192.45z"/>
</g>
<g>
	<path d="M86.05,192.45l3.69-5.54l1.95,0.83l-2.82,4.85c1.47,0.62,2.25,1.48,1.53,3.19c-0.71,1.67-1.94,1.63-3.4,1.01
		C84.56,195.76,84.71,194.48,86.05,192.45z"/>
</g>
<g>
	<path d="M141.87,195.54l3.69-5.54l1.95,0.83l-2.82,4.85c1.47,0.62,2.25,1.48,1.53,3.19c-0.71,1.67-1.94,1.63-3.4,1.01
		C140.38,198.85,140.54,197.57,141.87,195.54z"/>
</g>
<g>
	<path d="M152.05,195.54l3.69-5.54l1.95,0.83l-2.82,4.85c1.47,0.62,2.25,1.48,1.53,3.19c-0.71,1.67-1.94,1.63-3.4,1.01
		C150.55,198.85,150.71,197.57,152.05,195.54z"/>
</g>
<g>
	<path d="M161.96,195.54l3.69-5.54l1.95,0.83l-2.82,4.85c1.47,0.62,2.25,1.48,1.53,3.19c-0.71,1.67-1.94,1.63-3.4,1.01
		C160.46,198.85,160.62,197.57,161.96,195.54z"/>
</g>
<g>
	<g>
		<path d="M103.98,142.79c0-0.57,0.47-1.04,1.04-1.04h2.39v-2.29c0-0.34,0.29-0.62,0.62-0.62h4.47c0.36,0,0.62,0.29,0.62,0.62v3.74
			c0,0.34-0.26,0.62-0.62,0.62h-7.49C104.45,143.83,103.98,143.36,103.98,142.79z M117.32,143.21v-3.74c0-0.34,0.29-0.62,0.62-0.62
			h4.47c0.34,0,0.62,0.29,0.62,0.62v3.74c0,0.34-0.29,0.62-0.62,0.62h-4.47C117.61,143.83,117.32,143.54,117.32,143.21z"/>
	</g>
</g>
<g>
	<g>
		<path d="M112.51,143.83h-4.47c-0.34,0-0.62-0.29-0.62-0.62v-3.74c0-0.34,0.29-0.62,0.62-0.62h4.47c0.34,0,0.62,0.29,0.62,0.62
			v3.74C113.14,143.54,112.85,143.83,112.51,143.83z M125.44,143.83h-7.49c-0.36,0-0.62-0.29-0.62-0.62v-3.74
			c0-0.34,0.26-0.62,0.62-0.62h4.47c0.34,0,0.62,0.29,0.62,0.62v2.29h2.39c0.57,0,1.04,0.47,1.04,1.04S126.01,143.83,125.44,143.83z
			"/>
	</g>
</g>
<g>
	<path d="M126.38,131.98c0.68-0.03,1.25,0.51,1.28,1.18l0.1,2.83l2.71-0.1c0.4-0.01,0.75,0.31,0.77,0.71l0.2,5.29
		c0.02,0.43-0.31,0.75-0.71,0.77l-4.43,0.16c-0.4,0.01-0.75-0.28-0.77-0.71l-0.33-8.86C125.17,132.58,125.71,132.01,126.38,131.98z"
		/>
</g>
<g>
	<path d="M105.99,133.26l-0.33,8.86c-0.02,0.43-0.37,0.73-0.77,0.71l-4.43-0.16c-0.4-0.02-0.73-0.34-0.71-0.77l0.19-5.29
		c0.01-0.4,0.37-0.73,0.77-0.71l2.71,0.1l0.1-2.83c0.02-0.68,0.6-1.21,1.28-1.18C105.48,132.01,106.02,132.58,105.99,133.26z"/>
</g>
<g>
</g>
<g>
</g>
<g>
</g>
<g>
</g>
<g>
</g>
<g>
</g>
</svg>
