<?xml version="1.0" encoding="utf-8"?>
<!-- Generator: Adobe Illustrator 25.4.1, SVG Export Plug-In . SVG Version: 6.00 Build 0)  -->
<svg version="1.1" id="Layer_1" xmlns="http://www.w3.org/2000/svg" xmlns:xlink="http://www.w3.org/1999/xlink" x="0px" y="0px"
	 viewBox="0 0 600 600" style="enable-background:new 0 0 600 600;" xml:space="preserve">
<style type="text/css">
	.st0{fill:#092D35;}
	.st1{display:none;}
	.st2{display:inline;opacity:0.57;fill:#EC008C;enable-background:new    ;}
	.st3{display:inline;fill:#2ABCE9;}
	.st4{display:inline;}
	.st5{display:inline;fill:none;stroke:#092D35;stroke-width:4;stroke-linecap:round;stroke-linejoin:round;stroke-miterlimit:10;}
	.st6{fill:#2C6775;}
	.st7{fill:#F4CBA2;}
	.st8{fill:#C4A283;}
	.st9{fill:#846953;}
	.st10{fill:none;stroke:#092D35;stroke-miterlimit:10;}
	.st11{fill:#60AA59;stroke:#092D35;stroke-miterlimit:10;}
	.st12{fill:#2C6775;stroke:#2C6775;stroke-miterlimit:10;}
	.st13{fill:#D73A27;}
	.st14{fill:#76A3AA;}
	.st15{fill:#F2D8C0;}
	.st16{fill:#664D38;}
	.st17{fill:#EC9C7E;}
	.st18{fill:#D8AC84;}
	.st19{fill:#D3AF8D;}
	.st20{fill:#A07F67;}
	.st21{fill:#AED0CF;}
	.st22{fill:#357D89;}
	.st23{fill:none;stroke:#24535C;stroke-miterlimit:10;}
	.st24{fill:none;stroke:#24535C;stroke-miterlimit:10;stroke-dasharray:3.0833,3.0833;}
	.st25{fill:none;stroke:#24535C;stroke-miterlimit:10;stroke-dasharray:2.8238,2.8238;}
	.st26{fill:none;stroke:#24535C;stroke-miterlimit:10;stroke-dasharray:2.9381,2.9381;}
	.st27{fill:#FBB040;}
	.st28{fill:#F7941D;}
	.st29{fill:#F9ED32;}
	.st30{fill:#3D929B;}
	.st31{fill:#43A0AA;}
	.st32{fill:#4EBFC4;}
</style>
<rect class="st0" width="600" height="600"/>
<g id="Layer_11">
</g>
<g id="Layer_1_00000074422666542905941050000011593486323533590664_">
</g>
<g id="Layer_2_00000129199155948420527770000016528301695812208285_">
</g>
<g id="Layer_3">
</g>
<g id="Layer_7" class="st1">
	<path class="st2" d="M629.59,191.8l-3.8,14.24l-4.01,14.23c2.29,1.36,4.95,2.16,7.81,2.16c8.46,0,15.31-6.86,15.31-15.31
		S638.05,191.8,629.59,191.8z"/>
	<path class="st2" d="M660.22,164.23c-8.46,0-15.31,6.86-15.31,15.31c0,5.02,2.43,9.46,6.16,12.25l11.9-27.31
		C662.07,164.33,661.16,164.23,660.22,164.23z"/>
	<path class="st2" d="M626.51,179.66l-11.9,27.31c2.56,1.91,5.72,3.06,9.16,3.06c8.46,0,15.31-6.86,15.31-15.31
		C639.08,187.2,633.65,180.96,626.51,179.66z"/>
	<polygon class="st3" points="286.99,275.93 317.81,318.09 291.07,353.54 	"/>
	<g class="st4">
		<path class="st0" d="M288.38,369.99c2.18,1.98,33.67-49.44,33.67-49.44c-13.41-15.91-28.3-38.16-38.09-49.82"/>
		<g>
			<path class="st0" d="M286.61,371.76c2.96,2.4,5.66-1.52,7.28-3.61c2.98-3.84,5.72-7.87,8.42-11.91
				c6.13-9.17,12.02-18.51,17.85-27.88c1.36-2.18,2.71-4.36,4.05-6.55c0.62-1.01,0.32-2.18-0.39-3.03
				c-10.93-12.99-20.54-27-30.77-40.52c-2.38-3.14-4.79-6.27-7.32-9.3c-0.87-1.04-2.64-0.9-3.54,0c-1.03,1.03-0.87,2.5,0,3.54
				c4.68,5.59,8.97,11.49,13.29,17.36c5.18,7.04,10.32,14.1,15.65,21.02c2.98,3.87,6.01,7.7,9.15,11.44
				c-0.13-1.01-0.26-2.02-0.39-3.03c-3.43,5.6-6.91,11.16-10.42,16.71c-5.69,8.99-11.39,18.04-17.65,26.65
				c-0.33,0.46-0.67,0.91-1.01,1.37c-0.14,0.19-0.29,0.38-0.43,0.57c-0.46,0.62,0.16-0.2-0.16,0.2c-0.51,0.64-1.02,1.28-1.56,1.9
				c-0.36,0.41-0.79,0.77-1.15,1.17c-0.3,0.33,0.58-0.4,0.22-0.17c-0.07,0.04-0.13,0.09-0.2,0.12c0.78-0.37,1.62-0.39,2.61,0.41
				c-1.05-0.85-2.51-1.02-3.54,0C285.73,369.1,285.56,370.91,286.61,371.76L286.61,371.76z"/>
		</g>
	</g>
	<path class="st5" d="M245.35,278.39c0,0,0.16,5.6-2.03,11.37c-1.73,4.56-6.04,9.24-5.22,11.35c1.42,3.67,7.26,4.18,7.26,4.18"/>
</g>
<g id="Layer_4">
</g>
<g id="Layer_5">
</g>
<g id="Layer_6">
</g>
<g id="Layer_8">
</g>
<g id="Layer_9">
	<path class="st6" d="M213.93,510.32c0,0-60.13-73.81-55.42-135.32s4.72-66.85,4.72-66.85l66.71-30.99c0,0,12.92,13.84,32.26,20.36
		c18.18,6.13,40.42,27.94,40.42,27.94s7.79-1.63,18.81-2.84c11.02-1.22,54.16-39.52,79.45-29.86s2.27,69.16,1.12,107.75
		s21.06,87.02,21.06,87.02s-21.79,40.68-62.4,41.72S213.93,510.32,213.93,510.32z"/>
	<g>
		<path class="st7" d="M367.31,223.63c-0.52,13.57-0.55,43.38,3.83,55.36c0.98,2.68,8.08,9.78,10.9,9.78c18.52,0,34,24.42,31.43,29
			c-1.82,3.25-11.02,4.38-12.44,10.85c-0.39,1.79,3.21-8.17-1.8-10.2c-1.93-0.78-13.33,9.28-16.06,9.89
			c-0.1-13.58-14.4,1.72-16.29,3.02c-3.63,2.49,12.9-15.38-12.03,0.82c-3.02,1.96,9.97-14.76,8.7-12.5
			c-2.92,5.2-25.11,38.74-26.57,8.23c-0.08-1.72-7.34-13.33-17.24-6.62c-2.38,1.62-10.7,23.63-19.63,30.21
			c11.1-17.89,8.25-28.58-3.05-37.96c-2.72-2.26-32.44-14.26-37.48-17.32c-16.93-10.31-14.59-9.79-29.64-19.03
			c-14.37-8.82-36.42,24.59-48.44,21.49c-13.19-3.41,36.26-22.39,30.64-59.32c-6.15-40.44,12.13-46.33,16.4-66.74
			c7.08-33.85-16.64-93.82,39.73-106.68c73.45-17.77,92.01,19.11,98.07,70.22C369.11,159.35,368.66,188.64,367.31,223.63z"/>
		<g>
			<g>
				<path class="st8" d="M271.83,62.91c-16.84-3.22-30.14,12.96-36.74,26.39c-1.91,3.9-3.53,7.98-4.55,12.21
					c-0.76,3.13,4.06,4.46,4.82,1.33c1.71-7.04,4.98-13.67,9.09-19.63c4.01-5.8,9.26-11.4,15.85-14.23c3.18-1.37,6.85-1.9,10.2-1.26
					c1.32,0.25,2.7-0.37,3.08-1.75C273.91,64.76,273.16,63.17,271.83,62.91L271.83,62.91z"/>
			</g>
		</g>
		<g>
			<g>
				<path class="st8" d="M274.57,74.25c0.73,10.13-5.88,20.85-0.41,30.49c1.59,2.8,5.91,0.28,4.32-2.52
					c-2.24-3.94-1.54-8.72-0.76-12.98c0.91-4.93,2.22-9.94,1.85-14.99c-0.1-1.35-1.08-2.5-2.5-2.5
					C275.79,71.75,274.47,72.9,274.57,74.25L274.57,74.25z"/>
			</g>
		</g>
		<g>
			<g>
				<path class="st0" d="M382.03,291.27c3.22,0,3.22-5,0-5C378.82,286.27,378.81,291.27,382.03,291.27L382.03,291.27z"/>
			</g>
		</g>
		<g>
			<g>
				<path class="st8" d="M286.61,106.36c-5.18,3.27-9.06,7.6-10.94,13.49c-1.8,5.65-2.25,11.67-3.8,17.4
					c-0.84,3.11,3.98,4.44,4.82,1.33c1.48-5.48,1.99-11.18,3.57-16.63c0.66-2.29,1.38-3.98,2.84-6c1.41-1.94,3.8-3.87,6.03-5.28
					C291.85,108.96,289.34,104.63,286.61,106.36L286.61,106.36z"/>
			</g>
		</g>
		<g>
			<g>
				<path class="st0" d="M375.26,289.34c5.91,1.19,11.78,2.78,17.38,5.04c5.47,2.21,10.94,5.18,14.79,9.7
					c1.77,2.07,3.22,5.01,3.54,7.58c0.17,1.34,1.03,2.5,2.5,2.5c1.22,0,2.67-1.15,2.5-2.5c-1.81-14.16-17.05-20.94-29.14-24.59
					c-3.37-1.02-6.79-1.85-10.24-2.54c-1.32-0.27-2.7,0.38-3.08,1.75C373.17,287.5,373.93,289.07,375.26,289.34L375.26,289.34z"/>
			</g>
		</g>
		<g>
			<g>
				<path class="st0" d="M163.23,316c3.22,0,3.22-5,0-5S160,316,163.23,316L163.23,316z"/>
			</g>
		</g>
		<g>
			<g>
				<path class="st0" d="M160.73,313.5c-1.26,13.43-2.63,26.86-3.62,40.31c-0.84,11.4-1.41,22.84-1.07,34.27
					c0.31,10.63,1.45,21.25,3.77,31.64c2.41,10.76,6.13,21.17,10.81,31.14c5.52,11.75,12.37,22.83,19.85,33.41
					c1.07,1.52,2.16,3.02,3.26,4.52c0.8,1.09,2.17,1.63,3.42,0.9c1.07-0.63,1.7-2.33,0.9-3.42c-7.85-10.72-15.12-21.91-21.09-33.79
					c-4.88-9.71-8.79-19.87-11.45-30.41c-2.55-10.11-3.85-20.04-4.34-30.43c-0.53-11.2-0.11-22.43,0.64-33.61
					c0.87-13.04,2.17-26.04,3.4-39.05c0.17-1.83,0.35-3.66,0.52-5.49c0.13-1.35-1.24-2.5-2.5-2.5
					C161.77,311,160.85,312.15,160.73,313.5L160.73,313.5z"/>
			</g>
		</g>
		<g>
			<g>
				<path class="st0" d="M410.97,311.65c0.48,5.17,0.61,10.37,0.36,15.56c-0.12,2.42-0.31,4.83-0.58,7.24
					c-0.06,0.58-0.13,1.16-0.21,1.74c-0.02,0.13-0.11,0.81-0.08,0.59c0.02-0.18-0.07,0.52-0.1,0.7c-0.17,1.17-0.35,2.35-0.55,3.52
					c-1.53,9.03-3.93,17.88-6.21,26.74c-2.47,9.63-4.68,19.31-5.92,29.19c-1.48,11.72-1.5,23.57-0.23,35.3
					c1.74,16.08,5.64,31.85,10.71,47.19c0.75,2.27,1.53,4.53,2.33,6.79c0.45,1.27,1.71,2.12,3.08,1.75c1.23-0.34,2.2-1.8,1.75-3.08
					c-5.56-15.71-10.12-31.89-12.35-48.43c-1.61-11.93-1.91-24.04-0.68-36.02c0.5-4.88,1.23-9.57,2.25-14.69
					c0.93-4.66,2.02-9.29,3.19-13.9c2.24-8.88,4.72-17.71,6.42-26.72c1.83-9.72,2.71-19.6,2.13-29.49c-0.08-1.33-0.18-2.66-0.3-3.98
					c-0.13-1.34-1.06-2.5-2.5-2.5C412.21,309.15,410.84,310.3,410.97,311.65L410.97,311.65z"/>
			</g>
		</g>
		<g>
			<g>
				<path class="st0" d="M207.06,375c0.27,7.94,0.54,15.87,0.82,23.81c0.13,3.93,0.17,7.87,0.59,11.79
					c0.74,6.99,2.02,13.92,3.52,20.78c4.17,19.09,10.2,38.17,19.46,55.44c4.99,9.31,11.13,18.35,19.21,25.27
					c1.02,0.88,2.53,1.01,3.54,0c0.9-0.9,1.03-2.65,0-3.54c-7.02-6.01-12.29-13.39-16.84-21.39c-4.88-8.58-8.75-17.66-12.03-26.96
					c-3.14-8.92-5.74-18.04-7.86-27.26c-0.9-3.91-1.71-7.84-2.42-11.78c-0.29-1.64-0.57-3.29-0.82-4.93
					c-0.12-0.78-0.23-1.55-0.34-2.33c-0.02-0.12-0.03-0.25-0.05-0.37c-0.09-0.64,0.07,0.56-0.01-0.06
					c-0.05-0.41-0.11-0.82-0.16-1.22c-0.44-3.65-0.56-7.27-0.69-10.94c-0.3-8.76-0.6-17.53-0.9-26.29
					C211.96,371.79,206.95,371.78,207.06,375L207.06,375z"/>
			</g>
		</g>
		<g>
			<g>
				<path class="st9" d="M302.93,233.41c1.87-0.01,3.74-0.01,5.61-0.02c0.92,0,1.83-0.01,2.75-0.01c0.38,0,0.77,0.02,1.15,0.01
					c0.51-0.01-0.46-0.17-0.01-0.01c0.26,0.08,0.21,0.05-0.15-0.1c0.23,0.13,0.19,0.09-0.12-0.12c0.98,0.86,2.58,1.04,3.54,0
					c0.87-0.95,1.05-2.61,0-3.54c-1-0.88-2.1-1.21-3.42-1.25c-1.02-0.03-2.05,0-3.08,0.01c-2.09,0.01-4.18,0.01-6.27,0.02
					c-1.31,0-2.56,1.15-2.5,2.5C300.49,232.26,301.53,233.41,302.93,233.41L302.93,233.41z"/>
			</g>
		</g>
		<g>
			<g>
				<path class="st0" d="M172.84,312.39c6.69,0.59,13.04,2.36,18.52,6.09c1.28,0.87,1.77,1.25,2.98,2.35
					c1.02,0.93,1.98,1.92,2.87,2.97c0.19,0.22,0.37,0.45,0.56,0.68c0.09,0.11,0.18,0.23,0.27,0.34c-0.3-0.38,0,0,0.07,0.1
					c0.4,0.55,0.8,1.1,1.17,1.67c0.69,1.06,1.33,2.16,1.9,3.29c0.27,0.52,0.52,1.06,0.77,1.59c0.13,0.28,0.25,0.57,0.37,0.85
					c-0.22-0.53,0.15,0.38,0.21,0.54c0.44,1.13,0.83,2.28,1.18,3.44c0.66,2.22,1.15,4.49,1.5,6.78c0.04,0.27,0.08,0.55,0.12,0.82
					c0.06,0.39-0.08-0.63-0.01-0.03c0.01,0.12,0.03,0.24,0.04,0.36c0.06,0.53,0.12,1.06,0.17,1.59c0.09,1.01,0.16,2.01,0.21,3.02
					c0.08,1.77,0.08,3.53,0.02,5.3c-0.05,1.37-0.14,2.74-0.29,4.1c-0.02,0.22-0.05,0.43-0.08,0.65c-0.08,0.67,0-0.09,0.02-0.14
					c-0.04,0.12-0.04,0.28-0.06,0.41c-0.22,1.33,0.35,2.69,1.75,3.08c1.2,0.33,2.85-0.41,3.08-1.75c0.91-5.51,0.83-11.28,0.12-16.81
					c-1.41-10.99-5.87-21.54-14.89-28.41c-6.51-4.96-14.54-7.18-22.59-7.88c-1.35-0.12-2.5,1.23-2.5,2.5
					C170.34,311.34,171.49,312.28,172.84,312.39L172.84,312.39z"/>
			</g>
		</g>
		<path class="st10" d="M316.81,167.71"/>
		<g>
			<path class="st7" d="M364.7,185.14c9.76-11.23,6.87-32.67,6.82-36.51c-0.21-16.47,3.69-6.16-1.54-28.37
				c-3.67-15.6-12.11-17.57-11.39-16.77l-5.77,98.03L352.51,239c0,0,0.24,26.7,0,34.43s11.05,46.21,11.05,46.21l14.31-1.09
				l27.44-8.66c-2.45-5.17,4.94-22.53-14.65-56.24c-7.65-13.15-18.52-38.76-19.18-51.86C370.79,188.47,358.41,190.36,364.7,185.14z"
				/>
		</g>
		<path class="st9" d="M252.76,221.16c0,0,2.19-3.26,0.98,0s-7.51,49.19-7.51,49.19s-13.97,13.87-16.29,6.81
			c-0.34-1.04-1.27-2.19-1.27-2.19l-2.76-8.03c0,0,13.07-19.3,13.31-20.19C239.94,244.05,252.76,221.16,252.76,221.16z"/>
		<path class="st9" d="M329.47,275.44c0,0-8.85-9.51-9.81-15.45c-1.02-6.34,2.42-17.62,2.42-17.62s1.01-2.97,3.33-3.34
			s5.22-7.6,5.22-7.6L329.47,275.44z"/>
		<path class="st11" d="M270.73,325.47"/>
		<path class="st8" d="M307.36,158.96c2.55,10.71-5.69,16.03-13.16,16.03s-16.52-4.49-16.52-12.77s6.06-14.98,13.52-14.98
			S305.56,151.38,307.36,158.96z"/>
		<g>
			<g>
				<path d="M295.95,218.09c0.78,2.38,2.3,4.28,4.55,5.41c1.97,0.99,4.28,1.81,6.45,2.21c3.08,0.57,6.23,0.68,9.13-0.68
					c2.38-1.11,4.42-3.4,4.82-6.05c0.2-1.33-0.33-2.69-1.75-3.08c-1.18-0.32-2.87,0.4-3.08,1.75c-0.23,1.5-1.07,2.47-2.5,3.05
					c-1.79,0.72-4.1,0.46-6.04,0.04c-0.87-0.19-1.7-0.51-2.54-0.8c-0.34-0.12-0.69-0.24-1.03-0.36c-0.19-0.07-0.38-0.14-0.56-0.21
					c-0.25-0.1,0.22,0.12-0.17-0.08c-0.76-0.39-1.09-0.55-1.48-0.91c-0.59-0.56-0.74-0.83-0.99-1.61c-0.42-1.28-1.73-2.12-3.08-1.75
					C296.44,215.36,295.53,216.8,295.95,218.09L295.95,218.09z"/>
			</g>
		</g>
		<g>
			<g>
				<path class="st0" d="M295.78,143.8c-3.81-0.01-7.76,0.95-11.21,2.51c-5.77,2.61-9.42,7.99-9.1,14.41
					c0.12,2.37,0.52,4.92,1.66,7.02c1.37,2.52,3.67,4.72,6.16,6.11c2.81,1.58,5.33-2.74,2.52-4.32c-1.69-0.95-3.2-2.34-4.19-4.01
					c-0.84-1.41-1.06-3.24-1.15-4.67c-0.04-0.71-0.02-1.42,0.02-2.13c0.01-0.11,0.07-0.65,0.01-0.2c0.02-0.16,0.05-0.32,0.08-0.47
					c0.07-0.34,0.14-0.68,0.24-1.02c0.08-0.29,0.18-0.57,0.28-0.85c0.04-0.12,0.25-0.56,0.04-0.11c0.06-0.13,0.12-0.26,0.18-0.39
					c0.29-0.56,0.61-1.09,0.98-1.6c-0.31,0.43,0.15-0.17,0.25-0.28c0.18-0.2,0.36-0.4,0.55-0.58c0.19-0.19,0.39-0.37,0.59-0.54
					c0.1-0.09,0.2-0.17,0.3-0.26c0.51-0.43-0.42,0.29,0.12-0.09c0.91-0.65,1.87-1.19,2.89-1.67c0.12-0.05,0.24-0.11,0.35-0.16
					c-0.07,0.03-0.49,0.2-0.07,0.03c0.24-0.09,0.47-0.18,0.71-0.27c0.52-0.19,1.05-0.36,1.58-0.51c0.92-0.26,1.86-0.47,2.8-0.64
					c0.25-0.04,0.49-0.08,0.74-0.12c0.67-0.11-0.5,0.05,0.16-0.02c0.35-0.04,0.71-0.08,1.06-0.11c0.48-0.04,0.95-0.07,1.43-0.07
					C299,148.81,299,143.81,295.78,143.8L295.78,143.8z"/>
			</g>
		</g>
		<g>
			<g>
				<path class="st0" d="M339.82,153.32c-3.46-0.38-7.04-0.13-10.2,1.42c-3.31,1.63-5.46,4.88-6.29,8.41
					c-0.64,2.73-0.66,5.56-0.4,8.34c0.13,1.3,1.06,2.56,2.5,2.5c1.25-0.06,2.63-1.11,2.5-2.5c-0.12-1.2-0.18-2.39-0.16-3.6
					c0.01-0.51,0.03-1.03,0.08-1.54c0.02-0.24,0.05-0.48,0.07-0.72c-0.05,0.55,0.02-0.11,0.06-0.32c0.15-0.83,0.36-1.65,0.65-2.44
					c0,0.01,0.1-0.31,0.12-0.31c0,0-0.26,0.57-0.06,0.15c0.07-0.14,0.13-0.29,0.21-0.43c0.17-0.34,0.37-0.67,0.58-0.99
					c0.08-0.12,0.18-0.34,0.3-0.42c-0.02,0.01-0.4,0.48-0.12,0.16c0.05-0.05,0.09-0.11,0.14-0.16c0.23-0.27,0.48-0.52,0.74-0.76
					c0.12-0.11,0.25-0.21,0.37-0.32c0.17-0.17-0.22,0.18-0.23,0.18c0.02,0,0.19-0.14,0.22-0.16c0.29-0.19,0.58-0.38,0.88-0.55
					c0.14-0.08,0.29-0.15,0.43-0.22c0.09-0.04,0.62-0.29,0.21-0.1c-0.41,0.18,0.14-0.05,0.23-0.08c0.18-0.06,0.36-0.12,0.54-0.18
					c0.17-0.05,1.99-0.45,1.99-0.43c0,0.06-0.6,0.06-0.22,0.03c0.1-0.01,0.2-0.02,0.3-0.03c0.23-0.02,0.46-0.04,0.68-0.05
					c0.41-0.02,0.83-0.03,1.24-0.03c0.89,0.01,1.77,0.07,2.65,0.17c1.3,0.14,2.56-1.25,2.5-2.5
					C342.25,154.34,341.22,153.47,339.82,153.32L339.82,153.32z"/>
			</g>
		</g>
		<g>
			<g>
				<path class="st0" d="M281.39,153.18c3.22,0,3.22-5,0-5S278.17,153.18,281.39,153.18L281.39,153.18z"/>
			</g>
		</g>
		<g>
			<g>
				<path d="M305.98,199.93h0.01c-0.38-0.5-0.77-1-1.15-1.49c0,0.01,0,0.01,0,0.02c0-0.44,0-0.89,0-1.33
					c-0.07,0.39,0.37-0.74,0.05-0.12c-0.13,0.25-0.26,0.49-0.39,0.74c-0.25,0.48-0.52,0.95-0.75,1.44c-0.48,1-0.73,1.91-0.16,2.98
					c0.44,0.82,1.34,1.09,2.13,1.44c0.53,0.24,1.07,0.47,1.6,0.71c2.27,1,4.66,2.15,7.21,1.98c2.38-0.16,4.43-1.23,6.38-2.53
					c1.09-0.72,1.66-2.24,0.9-3.42c-0.7-1.08-2.26-1.67-3.42-0.9c-0.86,0.57-1.74,1.16-2.69,1.56c0.49-0.21-0.37,0.11-0.46,0.13
					c-0.22,0.06-0.44,0.11-0.67,0.15c0.53-0.1-0.42,0.01-0.54,0.01c-0.17,0-0.34-0.01-0.51-0.03c0.2,0.03,0.22,0.04,0.04,0.01
					c-0.58-0.12-1.15-0.26-1.71-0.46c-0.28-0.1-0.55-0.2-0.83-0.31c0.38,0.15-0.36-0.16-0.44-0.19c-1.19-0.52-2.37-1.05-3.56-1.57
					c0.3,0.3,0.6,0.6,0.9,0.9l-0.01-0.01c0.11,0.42,0.23,0.84,0.34,1.26c0.02,0.42-0.15,0.82-0.05,0.51
					c0.01-0.02-0.32,0.67-0.16,0.39c0.1-0.17,0.17-0.36,0.26-0.53c0.21-0.41,0.43-0.81,0.65-1.22c0.24-0.46,0.49-0.92,0.66-1.41
					c0.37-1.04-0.04-2.52-1.1-3.01c-1.19-0.54-2.75-0.38-3.42,0.9C304.5,197.61,304.71,199.35,305.98,199.93L305.98,199.93z"/>
			</g>
		</g>
		<g>
			<g>
				<path d="M304.8,203.83c3.22,0,3.22-5,0-5S301.58,203.83,304.8,203.83L304.8,203.83z"/>
			</g>
		</g>
		<path class="st12" d="M303.84,163.57c0.17,2.24-2.33,7.83-8.77,8.2c-8.2,0.47-13.13-4.31-13.3-6.55
			c-0.17-2.24,4.54-1.15,10.97-1.64C299.18,163.09,303.67,161.33,303.84,163.57z"/>
		
			<ellipse transform="matrix(0.3404 -0.9403 0.9403 0.3404 61.2683 422.6903)" class="st6" cx="331.91" cy="167.68" rx="7.19" ry="4.96"/>
		<g>
			<g>
				<path class="st6" d="M306.35,162.46c-0.21-3.57-1.26-6.48-3.43-9.28c-0.26-0.33,0.23,0.33-0.16-0.22
					c-0.14-0.19-0.28-0.38-0.41-0.58c-0.49-0.75-0.93-1.51-1.57-2.15c-1.33-1.33-3.15-2.2-4.99-2.49c-4.43-0.7-8.44,1.38-11.55,4.4
					c-3.07,2.98-5.97,7.25-4.59,11.73c2.42,7.87,14.07,12.93,19.83,5.5c2.84-3.66,1.77-8.41-0.84-11.86
					c-1.43-1.89-3.59-4.63-6.26-3.26c-0.88,0.45-1.46,1.17-2.06,1.92c-0.73,0.92-1.42,1.85-1.91,2.93
					c-0.96,2.16-1.04,4.71,0.37,6.71c1.3,1.84,3.56,2.64,5.73,1.99c1.62-0.48,2.9-1.69,4.11-2.81c0.27-0.25,0.53-0.49,0.8-0.73
					c-0.03,0.03,0.56-0.47,0.29-0.25c-0.22,0.17,0.25-0.18,0.3-0.21c0.12-0.08,0.26-0.14,0.37-0.23c0.47-0.34-0.36,0.09,0.17-0.08
					c0.13-0.04,0.27-0.08,0.4-0.1c-0.55,0.08,0.28,0.12-0.29,0.02c1.83,0.31,3.6-1.1,3.08-3.08c-0.66-2.49-1.67-4.9-2.97-7.13
					c-1.62-2.78-5.95-0.26-4.32,2.52c1.1,1.88,1.91,3.83,2.47,5.93c1.03-1.03,2.05-2.05,3.08-3.08c-1.84-0.31-3.47,0.11-4.97,1.22
					c-0.72,0.53-1.38,1.12-2.03,1.72c-0.26,0.24-0.53,0.49-0.8,0.73c-0.15,0.13-0.29,0.26-0.45,0.38c0.28-0.21,0.02-0.01-0.13,0.07
					c-0.17,0.1-0.93,0.45-0.43,0.26c-0.11,0.04-0.27,0.1-0.39,0.1c0.86-0.03-0.28-0.08,0.19-0.02c0.2,0.04,0.17,0.03-0.08-0.03
					c0.03,0.02,0.07,0.03,0.1,0.05c0.04-0.02,0.07,0.13-0.12-0.09c0.23,0.27-0.15-0.27-0.07-0.1c0.05,0.12-0.13-0.4-0.14-0.49
					c0.04,0.25,0-0.11,0-0.18c-0.01-0.72-0.07,0.13,0.03-0.35c0.1-0.44,0.27-0.81,0.5-1.2c0.41-0.69,1.16-1.87,1.69-2.11
					c-0.42,0.11-0.84,0.23-1.26,0.34c-0.65,0.08-0.87-0.51-0.26,0.12c0.21,0.22,0.42,0.44,0.62,0.67c0.27,0.3,0.52,0.61,0.75,0.94
					c0.63,0.89,1.2,1.88,1.39,2.97c0.12,0.68,0.03,1.54-0.17,2.01c-0.29,0.68-0.83,1.23-1.37,1.58c-1.38,0.91-2.83,1.1-4.5,0.61
					c-1.78-0.53-3.34-1.8-4.49-3.23c-1.2-1.51-1.69-3.12-0.87-4.93c0.88-1.96,2.57-3.71,4.24-5.03c1.37-1.08,3.15-1.99,4.76-2.03
					c1.48-0.04,3.08,0.47,3.86,1.62c0.36,0.53,0.67,1.07,1.06,1.58c0.18,0.24,0.37,0.48,0.56,0.72c0.11,0.14-0.26-0.36,0.07,0.09
					c0.22,0.3,0.43,0.59,0.63,0.9s0.38,0.63,0.54,0.95c0.07,0.14,0.14,0.28,0.2,0.43c-0.17-0.4,0.12,0.36,0.12,0.36
					c0.35,1.06,0.51,2.13,0.57,3.24c0.08,1.35,1.09,2.5,2.5,2.5C305.14,164.96,306.43,163.81,306.35,162.46L306.35,162.46z"/>
			</g>
		</g>
		<g>
			<g>
				<path class="st6" d="M336.09,169.99c3.22,0,3.22-5,0-5S332.87,169.99,336.09,169.99L336.09,169.99z"/>
			</g>
		</g>
		<path d="M294.6,161.15c0,3.5-2.48,6.4-5.98,6.4s-7.23-1.71-8.21-6.87c-0.65-3.44,6.35-5.87,9.85-5.87
			C293.76,154.82,294.6,157.66,294.6,161.15z"/>
		<path d="M335.17,168.13c0,2.28-1.84,3.12-4.12,3.12s-4.53-2.17-4.12-4.41c1.19-6.43,1.84-2.83,4.12-2.83
			S335.17,165.86,335.17,168.13z"/>
		<g>
			<g>
				<path d="M345.6,154.36c-1.62-0.03-3.24-0.11-4.85-0.27c-0.41-0.04-0.82-0.08-1.23-0.13c-0.19-0.02-0.38-0.04-0.57-0.07
					c-0.06-0.01-0.13-0.02-0.19-0.02c-0.28-0.04-0.25-0.03,0.1,0.01c-0.31-0.14-0.79-0.11-1.13-0.17c-0.44-0.07-0.87-0.14-1.31-0.22
					c-0.68-0.12-1.31-0.11-1.93,0.25c-0.52,0.3-1.01,0.9-1.15,1.49c-0.28,1.22,0.37,2.83,1.75,3.08c3.47,0.61,6.98,0.98,10.5,1.04
					c1.31,0.02,2.56-1.17,2.5-2.5C348.03,155.48,347,154.38,345.6,154.36L345.6,154.36z"/>
			</g>
		</g>
		<path d="M333.61,158.11c0,0-0.79-4.42-4.66,0.89c-1.62,2.22-2.01,7.84-2.01,7.84s5.09-0.46,7.24-3.43
			C336.34,160.45,333.61,158.11,333.61,158.11z"/>
		<path class="st7" d="M267.47,147.24c0,0,21.1,6.67,25.86,6.44s15.09-3.74,15.09-3.74l-7.07-7.76l-23.67,3.31"/>
		<path class="st7" d="M284.35,175.88c4.79,1.77,9.14,1.23,13.93-0.28s4.83-4.76,4.83-4.76h-43.73"/>
		<path class="st7" d="M322.3,173.92c3.03,1.77,12.53,1.25,15.79,0.35c3.85-1.06,3.37-4.04,3.37-4.04l-27.78-0.72L322.3,173.92z"/>
		<circle class="st9" cx="304.66" cy="244.54" r="3.17"/>
		<path d="M290.37,210.25c0,0,4.49,3.69,7.99,4.17s3.8,3.47,3.8,3.47s3.46,6.08-4.34,1.66S290.37,210.25,290.37,210.25z"/>
		<path d="M325.25,213.4c0,0-3.11,1.3-6.61,1.78s-3.8,3.47-3.8,3.47s-3.46,6.08,4.34,1.66C326.98,215.88,325.25,213.4,325.25,213.4z
			"/>
		<path d="M316.83,218.19c0,0-4.1-0.98-9.47-1.19c-4.21-0.16-6.79-1.81-6.79-1.81s3.28,8.55,10.49,8.23
			C321.44,222.97,316.83,218.19,316.83,218.19z"/>
		<path class="st13" d="M315.85,220.49c0,0-4.25-0.19-9.63-0.35c-4.21-0.12-6.24-0.63-6.24-0.63s2.89,5.16,10.09,4.92
			C320.46,224.09,315.85,220.49,315.85,220.49z"/>
		<g>
			<g>
				<path class="st8" d="M403.92,303.19c1.84,1.15,3.88-0.46,3.88-2.41c0-0.76-0.23-1.59-0.41-2.33c-0.6-2.49-1.35-4.95-2.09-7.41
					c-2.21-7.33-4.56-14.62-6.93-21.9c-1.68-5.17-3.38-10.34-5.09-15.5c-0.24-0.73-0.46-1.3-1.03-1.91
					c-0.32-0.34-0.66-0.66-0.97-1.01c-0.16-0.18-0.31-0.36-0.46-0.55c-0.5-0.61,0.27,0.38-0.2-0.26c-0.65-0.89-1.23-1.83-1.76-2.8
					c-2.18-4.01-3.5-8.53-4.72-13.11c-1.42-5.32-2.54-10.72-4.1-16c-1.19-4.01-2.61-8.58-5.75-11.53c-2.34-2.21-5.88,1.32-3.54,3.54
					c0.19,0.18,0.37,0.36,0.54,0.55c0.11,0.12,0.61,0.78,0.24,0.26c0.35,0.48,0.66,0.97,0.95,1.48c0.32,0.56,0.6,1.15,0.87,1.73
					c0.06,0.14,0.12,0.28,0.18,0.42c-0.17-0.4-0.01-0.03,0.02,0.05c0.15,0.37,0.3,0.75,0.44,1.12c1.15,3.11,1.98,6.33,2.78,9.54
					c1.79,7.17,3.32,14.45,6.24,21.27c1.41,3.29,3.22,6.52,5.86,8.98c-0.21-0.37-0.43-0.74-0.64-1.1
					c1.72,5.15,3.41,10.32,5.09,15.48c2.74,8.42,5.49,16.85,7.97,25.35c0.43,1.48,0.86,2.97,1.23,4.47c0.11,0.45,0.19,0.9,0.29,1.35
					c0.13,0.54-0.01-0.76-0.03-0.18c-0.01,0.19-0.08,0.16,0.04-0.19c0.11-0.33,0.07-0.4,0.04-0.29c0.19-0.85,0.83-1.19,1.91-1
					c1.61,0.01,2.16-0.14,1.66-0.45C403.71,297.17,401.19,301.49,403.92,303.19L403.92,303.19z"/>
			</g>
		</g>
		<g>
			<g>
				<path class="st6" d="M334.88,164.19c0.13,0.09,0.5,0.53,0.26,0.2c-0.03-0.03-0.21-0.32-0.04-0.05c0.17,0.28-0.02-0.07-0.05-0.16
					c-0.13-0.42-0.24-0.85-0.37-1.28c-0.36-1.12-0.91-2.2-1.84-2.96c-2.13-1.73-4.87-1.88-7.34-0.8c-2.08,0.9-4.1,2.85-5.14,4.87
					c-0.69,1.35-0.99,2.82-0.67,4.32c0.27,1.27,1.04,2.39,1.89,3.34c1.55,1.73,3.98,3.05,6.36,2.84c2.51-0.22,4.86-1.75,5.6-4.25
					c0.79-2.67-0.66-5.39-2.51-7.24c-1.33-1.33-3.26-1.6-4.67-0.2c-0.89,0.88-1.72,2.11-2.07,3.32c-0.89,3.07,1.71,6.48,5.01,5.49
					c1.04-0.31,1.87-1.03,2.66-1.75c0.14-0.13,0.29-0.26,0.43-0.39c0.41-0.38-0.28,0.15,0.05-0.06c0.08-0.05,0.18-0.11,0.26-0.16
					c0.27-0.19-0.09,0.04-0.2,0.07c0.13-0.04,0.26-0.01-0.06-0.02c-0.22,0.02-0.26,0.03-0.12,0.02c0.2,0,0.1-0.02-0.3-0.06
					c0.91,0.15,1.75,0.04,2.43-0.64c0.63-0.63,0.88-1.57,0.64-2.43c-0.4-1.45-0.99-2.85-1.76-4.15c-0.94,1.22-1.88,2.45-2.82,3.67
					c0.09,0.02,0.56,0.23,0.29,0.07c-0.35-0.21,0.31,0.19-0.02,0c-0.25-0.15,0.22,0.19,0.24,0.21c0.11,0.1,0.21,0.2,0.31,0.3
					c0.54,0.54,1.07,1.1,1.73,1.52c1.4,0.88,3.34,1.17,4.83,0.34c1.83-1.02,2.36-3.4,1.3-5.16c-1.23-2.04-4.23-2.26-5.82-0.53
					c-0.89,0.96-1.02,2.6,0,3.54c0.96,0.88,2.59,1.03,3.54,0c-0.55,0.6-1.6,0.15-1.98-0.4c-0.39-0.56-0.09-1.41,0.44-1.75
					c0.12-0.08,0.77-0.21,0.56-0.18c-0.49,0.06,0.08-0.01,0.06,0.02c-0.03,0.04-0.61-0.24-0.22-0.05c0.35,0.17-0.17-0.12-0.18-0.13
					c0.18,0.08,0.31,0.27,0.06,0.03c-0.16-0.15-0.31-0.3-0.47-0.46c-0.23-0.23-0.46-0.47-0.7-0.69c-0.76-0.69-1.63-1.27-2.64-1.49
					c-2.08-0.45-3.98,1.72-2.82,3.67c0.3,0.52,0.6,1.05,0.83,1.6c-0.15-0.37,0.13,0.37,0.12,0.36c0.11,0.33,0.21,0.65,0.3,0.99
					c1.03-1.03,2.05-2.05,3.08-3.08c-1.22-0.2-2.37-0.07-3.42,0.65c-0.44,0.3-0.85,0.64-1.25,1c-0.16,0.15-0.32,0.3-0.49,0.45
					c-0.06,0.05-0.56,0.51-0.24,0.22c0.34-0.32-0.18,0.18-0.25,0.14c0.38-0.14,0.45-0.17,0.21-0.09c-0.2,0.05-0.18,0.05,0.06,0
					c0.24-0.02,0.26-0.04,0.06-0.03c0.22-0.01,0.44,0.03,0.63,0.14c0.16,0.08,0.29,0.2,0.39,0.36c0.1,0.28,0.12,0.33,0.06,0.15
					c-0.05-0.18-0.05-0.12,0,0.18c0-0.29-0.01-0.26-0.05,0.08c0.03-0.16,0.08-0.32,0.14-0.47c-0.07,0.19-0.07,0.21,0.01,0.05
					c0.05-0.08,0.49-0.72,0.25-0.41c0.1-0.13,0.21-0.26,0.31-0.38c0.3-0.31,0.14-0.23-0.49,0.25c-0.44,0-0.89,0-1.33,0
					c-0.09-0.02-0.74-0.6-0.55-0.28c0.06,0.1,0.19,0.18,0.26,0.27c0.12,0.12,0.23,0.25,0.34,0.38c0,0,0.25,0.32,0.12,0.15
					c-0.13-0.18,0.1,0.16,0.1,0.16c0.07,0.11,0.14,0.21,0.2,0.32c0.08,0.14,0.16,0.29,0.23,0.44c0.16,0.36-0.08-0.29,0.02,0.08
					c0.03,0.12,0.06,0.23,0.09,0.35c-0.02-0.06,0.01-0.36-0.01-0.08c0,0.07-0.03,0.56,0.01,0.26c0.04-0.27-0.04,0.12-0.05,0.14
					c-0.02,0.08-0.17,0.31-0.02,0.07c0.17-0.29-0.04,0.04-0.06,0.05c-0.12,0.11-0.29,0.2,0.03-0.03c-0.1,0.07-0.2,0.19-0.29,0.28
					c0.29-0.29,0.03-0.05-0.16,0.07c-0.04,0.03-0.35,0.16-0.07,0.05c0.3-0.13-0.1,0.02-0.18,0.05c-0.1,0.03-0.2,0.04-0.3,0.07
					c0.03-0.01,0.44-0.02,0.16-0.02c-0.1,0-0.2,0.01-0.3,0.01c-0.08,0-0.63-0.09-0.33-0.02c0.23,0.05-0.35-0.12-0.45-0.14
					c-0.26-0.05,0,0.01,0.06,0.04c-0.14-0.06-0.28-0.14-0.41-0.21c-0.2-0.11-0.4-0.24-0.59-0.37c0.34,0.24-0.3-0.28-0.38-0.36
					c-0.17-0.16-0.32-0.34-0.47-0.51c0.24,0.28-0.1-0.15-0.17-0.26c-0.08-0.13-0.16-0.27-0.23-0.41c0.02,0.05,0.11,0.32,0.04,0.05
					c-0.03-0.11-0.07-0.22-0.09-0.34c0.05,0.28,0,0.11,0.03-0.06c-0.07,0.44,0.09-0.3,0.13-0.42c0.1-0.28,0.02-0.02,0,0.02
					c0.06-0.11,0.12-0.22,0.19-0.33c0.05-0.08,0.49-0.71,0.28-0.44c0.18-0.23,0.38-0.44,0.58-0.65c0.2-0.21,0.4-0.4,0.61-0.6
					c0.08-0.07,0.54-0.44,0.24-0.22c0.19-0.14,0.39-0.28,0.6-0.4c0.14-0.08,0.28-0.16,0.42-0.23c0.15-0.08,0.31-0.12,0.06-0.03
					c0.23-0.08,0.46-0.14,0.69-0.2c0.47-0.11,0.06,0-0.04,0c0.11,0,0.21-0.01,0.32-0.01c0.11,0,0.21,0.01,0.32,0.01
					c-0.05,0-0.41-0.1-0.14-0.02c0.13,0.04,0.27,0.06,0.41,0.1c0.07,0.02,0.44,0.2,0.19,0.06c-0.26-0.15,0.04,0.04,0.07,0.06
					c0.22,0.14,0.14,0.12-0.01-0.03c0.1,0.1,0.19,0.19,0.29,0.29c-0.16-0.15-0.16-0.23-0.03,0c0.02,0.04,0.18,0.34,0.05,0.06
					c-0.14-0.28,0.03,0.11,0.05,0.18c0.09,0.26,0.16,0.53,0.23,0.79c0.42,1.5,1.05,2.64,2.31,3.58c1.05,0.78,2.84,0.21,3.42-0.9
					C336.46,166.3,336,165.02,334.88,164.19L334.88,164.19z"/>
			</g>
		</g>
		<path class="st14" d="M343.6,164.1c0,5.76-2.05,10.43-7.04,10.43s-9.04-4.67-9.04-10.43s4.05-10.43,9.04-10.43
			S343.6,158.34,343.6,164.1z"/>
		<g>
			<g>
				<path class="st6" d="M342.02,173.05c0.15-0.2,0.31-0.37,0.5-0.52c-0.34,0.26-0.67,0.52-1.01,0.78c0.11-0.08,0.22-0.14,0.35-0.2
					c-0.4,0.17-0.8,0.34-1.19,0.5c0.23-0.09,0.46-0.12,0.69-0.18c0.97-0.25,1.9-0.8,2.6-1.52c1.38-1.41,1.59-3.17,1.78-5.03
					c0.15-1.53,0.32-3.06,0.42-4.6c0.12-1.88,0.09-3.71-0.24-5.57c-0.21-1.18-0.79-2.56-1.7-3.39c-0.49-0.45-1-0.78-1.61-1.03
					c-0.65-0.27-1.23-0.35-1.93-0.43c-0.01,0-0.03,0-0.04-0.01c-0.11-0.01-0.22-0.03-0.32-0.04c-1.23-0.13-2.48-0.16-3.71-0.11
					c-2.2,0.08-4.47,0.33-6.58,0.98c-1.11,0.34-2.29,0.74-3.26,1.39c-1.21,0.8-2.05,1.67-2.85,2.87c-1.12,1.66-1.5,3.73-1.66,5.69
					c-0.14,1.68,0.11,3.39,0.4,5.04c0.1,0.61,0.23,1.22,0.41,1.82c0.36,1.22,1.19,2.34,2.3,2.99c1.07,0.63,2.65,0.89,3.85,0.5
					c2.53-0.82,4.29-3.47,3.49-6.15c-0.25-0.83-0.4-1.69-0.52-2.55c0.06,0.44,0.12,0.89,0.18,1.33c-0.15-1.18-0.2-2.37-0.04-3.55
					c-0.06,0.44-0.12,0.89-0.18,1.33c0.09-0.62,0.24-1.22,0.48-1.8c-0.17,0.4-0.34,0.8-0.5,1.19c0.16-0.37,0.36-0.72,0.61-1.04
					c-0.26,0.34-0.52,0.67-0.78,1.01c0.2-0.26,0.43-0.48,0.68-0.69c-0.34,0.26-0.67,0.52-1.01,0.78c0.33-0.25,0.68-0.44,1.06-0.6
					c-0.4,0.17-0.8,0.34-1.19,0.5c1.28-0.52,2.62-0.83,3.98-1.03c-0.44,0.06-0.89,0.12-1.33,0.18c2.15-0.28,4.39-0.34,6.55-0.05
					c-1.44-0.83-2.88-1.65-4.32-2.48c0.08,0.12,0.14,0.24,0.2,0.37c-0.17-0.4-0.34-0.8-0.5-1.19c0.13,0.34,0.2,0.7,0.25,1.06
					c-0.06-0.44-0.12-0.89-0.18-1.33c0.2,1.58,0.09,3.19-0.03,4.77c-0.12,1.55-0.27,3.1-0.44,4.64c0.06-0.44,0.12-0.89,0.18-1.33
					c-0.03,0.16-0.06,0.3-0.11,0.45c0.17-0.4,0.34-0.8,0.5-1.19c-0.03,0.07-0.06,0.13-0.1,0.2c0.26-0.34,0.52-0.67,0.78-1.01
					c-0.03,0.05-0.07,0.09-0.12,0.13c0.34-0.26,0.67-0.52,1.01-0.78c-0.04,0.03-0.09,0.06-0.14,0.08c0.4-0.17,0.8-0.34,1.19-0.5
					c-0.28,0.1-0.57,0.13-0.85,0.23c-1.16,0.41-2.29,1.03-3.06,2.01c-0.85,1.09-1.46,2.09-1.46,3.54c0,1.23,0.54,2.69,1.46,3.54
					c0.95,0.87,2.2,1.52,3.54,1.46C339.71,174.46,341.22,174.07,342.02,173.05L342.02,173.05z"/>
			</g>
		</g>
		<path class="st6" d="M339.57,167.62c0,2.25-3.12,5.6-6.97,5.6s-6.97-1.82-6.97-4.07s3.12-4.07,6.97-4.07
			C336.45,165.09,339.57,165.38,339.57,167.62z"/>
		<path d="M322.06,167.43c0,0-1.39-6.6,3.18-9.77c4.78-3.31,11.58-3.95,11.58-3.95s1.64,16.97-5.41,19.03
			C322.27,175.42,322.06,167.43,322.06,167.43z"/>
		<circle class="st15" cx="325.27" cy="158.78" r="3.09"/>
		<ellipse class="st8" cx="329.64" cy="153.71" rx="7.84" ry="3.95"/>
		<g>
			<g>
				<path class="st16" d="M313.98,150.26c2.34,4.09,8.68,3.86,12.71,3.88c5.49,0.04,11.36-0.5,16.58,0.69
					c3.13,0.72,4.47-4.1,1.33-4.82c-5.32-1.22-10.87-0.9-16.28-0.87c-1.27,0.01-2.54,0-3.81-0.04c-0.58-0.02-1.17-0.05-1.75-0.09
					c-0.27-0.02-0.55-0.04-0.82-0.07c-0.05-0.01-0.81-0.1-0.37-0.04c-0.89-0.13-1.8-0.31-2.64-0.65c0.67,0.27-0.75-0.51-0.43-0.26
					c0.31,0.24-0.12-0.13-0.18-0.19c-0.07-0.08,0.27,0.43-0.02-0.07C316.7,144.94,312.38,147.46,313.98,150.26L313.98,150.26z"/>
			</g>
		</g>
		<g>
			<path class="st7" d="M318.64,170.85c1.11,2.56,18.06,1.64,24.36,1.17"/>
			<g>
				<path class="st8" d="M316.48,172.11c0.81,1.63,2.93,2.16,4.57,2.43c2.39,0.39,4.82,0.49,7.24,0.52
					c4.9,0.06,9.82-0.18,14.71-0.54c1.35-0.1,2.5-1.08,2.5-2.5c0-1.28-1.15-2.6-2.5-2.5c-4.5,0.34-9.02,0.56-13.54,0.55
					c-2.23,0-4.45-0.07-6.67-0.3c-0.63-0.06,0.35,0.06-0.2-0.02c-0.23-0.04-0.46-0.07-0.69-0.12c-0.37-0.07-0.74-0.16-1.1-0.26
					c-0.14-0.04-0.28-0.11-0.42-0.14c0.61,0.16,0.33,0.17,0.13,0.04c-0.41-0.26,0.44,0.63,0.29,0.32c-0.6-1.21-2.31-1.55-3.42-0.9
					C316.14,169.41,315.87,170.9,316.48,172.11L316.48,172.11z"/>
			</g>
		</g>
		<g>
			<g>
				<path class="st6" d="M287.53,156.08c3.58-0.85,6.36-1.42,10.09-1.11c0.2,0.02,1.11,0.18,0.35,0.03c0.31,0.06,0.62,0.1,0.93,0.17
					c0.52,0.11,1,0.29,1.5,0.44c0.47,0.15-0.55-0.28-0.12-0.05c0.11,0.06,0.23,0.11,0.34,0.16c0.18,0.09,0.35,0.19,0.52,0.3
					c0.1,0.06,0.19,0.13,0.29,0.19c0.3,0.18-0.3-0.18-0.23-0.19c0.11-0.01,0.45,0.4,0.53,0.48c0.04,0.04,0.38,0.44,0.39,0.44
					c-0.12,0.07-0.39-0.58-0.17-0.21c0.04,0.07,0.1,0.14,0.14,0.22c0.1,0.16,0.18,0.33,0.27,0.5c0.19,0.34-0.2-0.06-0.1-0.27
					c-0.02,0.05,0.12,0.33,0.14,0.39c0.05,0.17,0.1,0.33,0.14,0.5c0.04,0.16,0.07,0.8,0.07,0.29c0-0.54,0.01,0.18,0.02,0.32
					c0.01,0.22,0.01,0.45,0.01,0.67c0,0.19-0.02,0.38-0.03,0.57c-0.07,0.8,0.1-0.46-0.01,0.15c-0.08,0.44-0.17,0.88-0.29,1.32
					c-0.12,0.46-0.27,0.91-0.43,1.35c-0.08,0.21-0.16,0.41-0.24,0.62c-0.18,0.47,0.26-0.56,0.04-0.1c-0.08,0.16-0.15,0.33-0.23,0.5
					c-0.49,1.04-1.06,2.03-1.7,2.99c-0.32,0.48-0.64,1.05-1.04,1.46c0.56-0.57-0.09,0.11-0.23,0.28c-0.21,0.26-0.43,0.51-0.65,0.76
					c-0.89,1.01-1,2.54,0,3.54c0.91,0.91,2.64,1.02,3.54,0c3.17-3.6,5.89-8.09,6.24-12.98c0.17-2.32-0.48-4.61-1.96-6.4
					c-1.52-1.84-3.89-2.83-6.21-3.21c-4.42-0.72-8.95,0.04-13.26,1.06c-1.31,0.31-2.09,1.81-1.75,3.08
					C284.82,155.68,286.21,156.4,287.53,156.08L287.53,156.08z"/>
			</g>
		</g>
		<path class="st7" d="M228.55,213.4c0,0-1.02,7.37,0,25.62c0.49,8.73,3.86,16.59,0.69,22.98c-4.36,8.81,0.71,15.16,0.71,15.16
			s-53.99,31.52-47.33,11.62s30.16-36.55,29.53-49.45c-2.78-57.38,9.3-48.48,9.3-48.48L228.55,213.4z"/>
		<g>
			<g>
				<path class="st8" d="M226.14,113.78c-2.58,11.6-0.65,23.22,0.73,34.83c0.64,5.34,1.13,10.75,0.67,16.13
					c-0.21,2.48-0.68,4.96-1.45,7.33c-0.19,0.57-0.4,1.13-0.63,1.68c-0.16,0.39,0.24-0.55-0.04,0.11c-0.06,0.14-0.12,0.28-0.18,0.42
					c-0.2,0.45-0.4,0.89-0.61,1.34c-3.39,7.24-7.5,14.12-10.69,21.45c-0.66,1.53-1.32,3.07-1.8,4.67c-0.64,2.13-0.9,4.41-1.2,6.61
					c-0.56,4.08-0.8,8.14-0.67,12.25c0.12,3.8,0.29,7.58,0.08,11.38c-0.17,3.16-0.17,6.03-1.22,8.87c-0.07,0.2-0.39,0.86-0.03,0.08
					c-0.08,0.18-0.16,0.36-0.24,0.54c-0.21,0.45-0.42,0.9-0.65,1.34c-0.47,0.91-0.96,1.81-1.48,2.7c-1.31,2.26-2.71,4.45-4.14,6.63
					c-6.52,9.91-13.76,19.39-19.72,29.65c-1.96,3.38-4.42,7.37-4.59,11.39c-0.07,1.72,0.56,3.46,2.07,4.41
					c1.57,0.98,3.48,0.86,5.22,0.52c1-0.2,1.97-0.51,2.92-0.86c1.27-0.46,2.12-1.7,1.75-3.08c-0.34-1.22-1.8-2.21-3.08-1.75
					c-0.95,0.35-1.93,0.66-2.92,0.86c-0.18,0.04-0.37,0.06-0.55,0.09c0.88-0.18,0.23-0.02-0.01-0.02c-0.15,0-0.3,0-0.45,0.01
					c-0.45,0.02-0.49-0.25,0.08,0.04c-0.2-0.1-1.16-0.43-0.14,0.03c-0.65-0.3,0.29,0.4-0.08-0.04c0.63,0.73-0.13-0.43,0.26,0.46
					c-0.04-0.09-0.07-0.2-0.09-0.31c-0.1-0.49-0.02,0.75,0.02,0.17c0.02-0.25,0.04-0.57,0.02-0.82c-0.03-0.34-0.15,0.72-0.02,0.18
					c0.05-0.2,0.08-0.41,0.13-0.62c0.18-0.76,0.45-1.5,0.73-2.23c0.03-0.09,0.07-0.17,0.1-0.26c0.18-0.49-0.25,0.55-0.03,0.07
					c0.08-0.18,0.16-0.36,0.24-0.54c0.22-0.48,0.45-0.96,0.68-1.43c0.51-1.03,1.06-2.03,1.63-3.03
					c5.75-10.13,12.87-19.45,19.31-29.13c2.56-3.85,5.22-7.76,7.14-11.99c1-2.2,1.4-4.07,1.67-6.49c0.48-4.31,0.67-8.62,0.53-12.96
					c-0.11-3.53-0.3-7.04-0.07-10.57c0.26-3.97,0.65-8.19,1.98-11.95c1.1-3.13,2.73-6.31,4.37-9.55c1.87-3.7,3.82-7.35,5.68-11.05
					c1.44-2.87,2.94-5.79,3.82-8.89c1.46-5.14,1.71-10.57,1.42-15.88c-0.61-11.12-3.27-22.08-2.73-33.27
					c0.13-2.77,0.48-5.5,1.09-8.21C231.66,111.98,226.84,110.64,226.14,113.78L226.14,113.78z"/>
			</g>
		</g>
		<g>
			<path class="st7" d="M334.22,319.64c-1.46,1.58-4.58-84.12-4.58-84.12c8.75-12.46,8.5-14.48,11.87-27.27"/>
			<g>
				<path class="st9" d="M332.45,317.87c1.16-1.12,3.09-0.77,3.81,0.46c-0.13-0.22,0.17,0.78,0.19,0.44
					c0.01-0.15-0.09-0.37-0.12-0.52c-0.05-0.25-0.07-0.5-0.12-0.74c0.18,0.94-0.01-0.07-0.05-0.5c-0.23-2.09-0.38-4.19-0.53-6.29
					c-0.48-6.74-0.83-13.49-1.16-20.24c-0.74-14.91-1.36-29.83-1.94-44.75c-0.13-3.4-0.26-6.81-0.39-10.21
					c-0.11,0.42-0.23,0.84-0.34,1.26c3.11-4.44,6.14-8.94,8.16-13.99c1.79-4.46,2.74-9.24,3.96-13.88c0.82-3.11-4-4.44-4.82-1.33
					c-0.85,3.24-1.61,6.51-2.55,9.73c-0.79,2.7-1.55,4.72-2.78,7.06c-1.7,3.25-3.77,6.3-5.87,9.3c-0.62,0.89-0.77,1.55-0.73,2.51
					c0.2,5.42,0.41,10.85,0.63,16.27c0.38,9.44,0.77,18.88,1.21,28.32c0.41,8.94,0.84,17.88,1.41,26.8
					c0.19,2.92,0.38,5.83,0.67,8.74c0.16,1.55,0.08,3.9,1.29,5.1c1,0.99,2.61,0.96,3.61,0
					C338.31,319.17,334.77,315.64,332.45,317.87L332.45,317.87z"/>
			</g>
		</g>
		<g>
			<g>
				<path class="st0" d="M229.17,277.51c-3.23-0.3-6.8,0.93-9.85,1.85c-5.31,1.61-10.49,3.6-15.61,5.72
					c-11.14,4.59-22.27,9.8-32.34,16.45c-3.9,2.57-8.3,5.5-10.81,9.56c-1.69,2.75,2.55,5.41,4.24,2.66c0.18-0.3,0.38-0.59,0.59-0.87
					c0.1-0.14,0.21-0.26,0.3-0.39c-0.18,0.22-0.19,0.2,0.12-0.14c0.61-0.66,1.24-1.3,1.92-1.9c0.77-0.7,1.59-1.36,2.42-1.99
					c0.2-0.15,0.39-0.3,0.58-0.44c0.1-0.08,0.69-0.51,0.52-0.39c0.15-0.12,0.97-0.69,1.4-0.98c4.58-3.12,9.44-5.84,14.37-8.38
					c5.51-2.84,11.13-5.45,16.83-7.87c5.08-2.15,9.59-3.92,14.89-5.63c2.14-0.69,4.32-1.34,6.51-1.82c0.83-0.18,1.66-0.29,2.49-0.44
					c0.34-0.06-0.68,0.03-0.09,0.01c0.16,0,0.32-0.02,0.47-0.02c0.29-0.01,0.57,0,0.86,0.02
					C232.21,282.81,232.37,277.81,229.17,277.51L229.17,277.51z"/>
			</g>
		</g>
		<path d="M277.99,161.71c0,0-1.69-8.42,5.52-11.99c6.05-3,13.19-1.11,13.19-1.11s2.5,19.63-5.47,22.07
			C277.93,174.74,277.99,161.71,277.99,161.71z"/>
		<circle class="st15" cx="281.39" cy="153.58" r="5.47"/>
		<path class="st8" d="M270.08,147.11c0,3.54,5.49,6.42,12.26,6.42s12.26-2.87,12.26-6.42s-5.49-3.42-12.26-3.42
			S270.08,143.57,270.08,147.11z"/>
		<g>
			<g>
				<path class="st16" d="M262.26,147.46c0.48,2.27,2.92,2.96,4.9,3.19c2.35,0.27,4.76,0.08,7.11-0.07
					c6.66-0.42,13.37-1.1,20.04-0.51c3.11,0.27,6.72,1.01,9.35,2.51c2.8,1.6,5.32-2.72,2.52-4.32c-5.63-3.22-12.6-3.51-18.92-3.41
					c-5.95,0.1-11.88,0.94-17.83,0.91c-0.55,0-1.1-0.02-1.65-0.06c-0.12-0.01-0.89-0.11-0.45-0.04s-0.24-0.05-0.35-0.08
					c-0.18-0.04-0.39-0.15-0.57-0.17c0.41,0.04,0.43,0.28,0.1,0.01c-0.2-0.16,0.39,0.32,0.33,0.26c-0.21-0.2-0.12-0.22,0.17,0.27
					c-0.25-0.42,0.18,0.66,0.07,0.17C266.42,142.99,261.6,144.32,262.26,147.46L262.26,147.46z"/>
			</g>
		</g>
		<circle class="st17" cx="330.17" cy="180.5" r="9.63"/>
		<g>
			<g>
				<path class="st16" d="M301.58,152.64c0.61,0.24,1.38,1.25,1.68,2.22c0.47,1.5,0.4,3.14,0.24,4.68
					c-0.31,3.01-1.44,5.98-3.08,8.57c-0.72,1.14-0.24,2.76,0.9,3.42c1.2,0.7,2.7,0.25,3.42-0.9c3.95-6.25,7.12-19.22-1.84-22.82
					c-1.25-0.5-2.75,0.55-3.08,1.75C299.44,150.99,300.32,152.14,301.58,152.64L301.58,152.64z"/>
			</g>
		</g>
		<g>
			<g>
				<path class="st9" d="M332.45,321.41c0.14,0.13,0.27,0.27,0.4,0.41c-0.33-0.36,0.03,0.06,0.14,0.23
					c0.11,0.18,0.21,0.37,0.31,0.56c0.05,0.1,0.1,0.2,0.14,0.3c-0.11-0.24-0.06-0.16,0.01,0.04c0.39,1.08,0.66,2.19,0.86,3.31
					c0.24,1.28,0.32,2.01,0.47,3.18c0.17,1.35,0.33,2.69,0.53,4.03c0.3,2.02,0.7,4.2,1.98,5.85c1.26,1.64,3.12,2.11,5.08,1.7
					c3.55-0.74,6.9-3.4,9.73-5.52c3.92-2.95,7.67-6.14,11.24-9.5c1.56-1.47,3.09-2.97,4.53-4.56c1.04-1.15,2.06-2.31,2.66-3.74
					c0.47-1.13-0.42-2.54-1.45-2.95c-1.17-0.47-2.45-0.06-3.12,1.02c-1.81,2.89-2.4,6.87-2.61,10.2c-0.18,2.89,0.19,7.89,4.05,8.07
					c2.34,0.11,4.64-1.65,6.41-2.97c2.61-1.96,5.07-4.12,7.43-6.37c1.85-1.77,3.87-3.58,5.33-5.7c-1.52-0.2-3.05-0.4-4.57-0.6
					c0.14,0.72,0.03-0.43,0.02,0.31c0,0.01-0.04,0.84,0.01,0.36c-0.06,0.53-0.22,1.07-0.39,1.58c-0.33,1.02-0.7,1.76-1.21,2.81
					c-0.84,1.73-2,3.69-1.89,5.68c0.12,2.26,2.05,3.84,4.27,3.8c1.53-0.03,2.99-0.79,4.22-1.63c3.06-2.08,5.66-4.81,8.27-7.41
					c1.12-1.11,2.22-2.25,3.43-3.27c0.1-0.08,0.2-0.16,0.29-0.25c0.38-0.36-0.48,0.32-0.07,0.05c0.15-0.1,0.46-0.23,0.56-0.36
					c0.08-0.09,0.9-0.2-0.36,0.14c0.3-0.08,0.19,0.02-0.39,0.02c0.01,0-0.83-0.19-1.01-0.29c-0.51-0.3-0.84-0.73-0.99-1.27
					c0.06,0.23,0.05,0.08-0.05-0.45c0.23,0.28-0.02,1.58-0.03,1.95c-0.02,0.75-0.05,1.49-0.09,2.24c-0.05,0.77-0.12,1.53-0.2,2.29
					c-0.2,1.69-0.19,3.37-0.15,5.07c0.06,2.31,2.63,3.11,4.27,1.77c4.91-4.01,9.81-8.01,14.72-12.02c1.05-0.85,0.89-2.65,0-3.54
					c-1.03-1.03-2.49-0.86-3.54,0c-4.91,4.01-9.81,8.01-14.72,12.02c1.42,0.59,2.85,1.18,4.27,1.77c-0.08-3.36,0.37-6.65,0.45-10
					c0.05-2.02-0.23-4.55-2.9-4.54c-1.43,0-2.64,1.04-3.66,1.91c-2.62,2.25-4.92,4.86-7.45,7.21c-0.66,0.61-1.32,1.2-2.01,1.77
					c-0.14,0.12-0.28,0.23-0.43,0.34c-0.33,0.26,0.46-0.33-0.08,0.06c-0.37,0.27-0.74,0.53-1.13,0.78
					c-0.25,0.15-0.51,0.29-0.76,0.43c-0.16,0.09-0.65,0.24,0.02,0.01c-0.1,0.03-0.32,0.08-0.41,0.14c-0.09,0.07-0.28,0.05-0.39,0.1
					c0.53-0.22,0.5-0.02,0.18-0.04c-0.45-0.03,0.59,0.11,0.28,0.05c-0.56-0.12,0.16,0.24-0.12-0.04c0.29,0.3,0.49,0.39,0.65,0.81
					c-0.06-0.26-0.05-0.19,0.03,0.22c0.01-0.27,0-0.22-0.05,0.16c0.16-0.35,0.21-0.81,0.34-1.18c0.26-0.71-0.21,0.44,0.12-0.29
					c0.14-0.32,0.29-0.63,0.44-0.95c0.24-0.5,0.49-1.01,0.73-1.51c1.22-2.59,2.27-5.24,1.71-8.15c-0.44-2.28-3.45-2.22-4.57-0.6
					c-0.23,0.33,0.01-0.04,0.15-0.19c-0.1,0.1-0.18,0.23-0.28,0.34c-0.26,0.29-0.51,0.58-0.78,0.87c-0.73,0.79-1.49,1.56-2.26,2.32
					c-1.98,1.96-4.03,3.85-6.17,5.63c-0.49,0.4-0.98,0.8-1.48,1.19c0.3-0.23-0.37,0.28-0.45,0.33c-0.27,0.2-0.55,0.4-0.83,0.59
					c-0.42,0.29-0.85,0.57-1.29,0.83c-0.21,0.12-0.42,0.24-0.63,0.36c-0.12,0.06-0.8,0.36-0.43,0.21c0.4-0.15-0.13,0.03-0.22,0.06
					c-0.42,0.14-0.32,0.01,0.1,0.02c-0.57-0.02,0.55,0.15,0.2,0.06c-0.04-0.01,0.66,0.31,0.37,0.16c0.32,0.16,0.36,0.29,0.36,0.29
					c0.03,0.04,0.06,0.08,0.09,0.12c-0.05-0.08-0.09-0.15-0.13-0.23c0.07-0.07,0.09,0.28,0.02,0.06c-0.07-0.24-0.14-0.49-0.2-0.73
					c-0.11-0.47-0.04-0.16-0.02-0.05c-0.02-0.17-0.03-0.34-0.05-0.51c-0.03-0.41-0.04-0.82-0.03-1.23c0.02-1.79,0.24-3.23,0.65-4.97
					c0.19-0.8,0.41-1.59,0.68-2.36c0.05-0.15,0.11-0.3,0.16-0.45c0.11-0.3-0.16,0.31,0.04-0.11c0.13-0.27,0.27-0.54,0.43-0.79
					c-1.52-0.64-3.05-1.28-4.57-1.93c0.43-1.03-0.16,0.07-0.35,0.36c0.49-0.74-0.03,0.03-0.18,0.21c-0.24,0.28-0.48,0.56-0.73,0.84
					c-1.17,1.3-2.41,2.53-3.67,3.75c-3.22,3.11-6.6,6.07-10.13,8.83c-0.58,0.46-1.41,1.08-2.23,1.68c-0.85,0.62-1.71,1.22-2.6,1.79
					c-0.66,0.43-1.33,0.84-2.02,1.22c-0.33,0.19-0.67,0.36-1.01,0.53c-0.16,0.08-0.32,0.15-0.48,0.23c-0.41,0.2,0.51-0.16-0.15,0.06
					c-0.27,0.09-0.54,0.2-0.82,0.27c-0.12,0.03-0.26,0.04-0.37,0.09c-0.43,0.17,0.65-0.07,0.2-0.03c-0.09,0.01-0.22,0.03-0.31,0.01
					c-0.42-0.08,0.7,0.16,0.19,0.02c-0.5-0.13,0.55,0.26,0.09,0.03c0.65,0.33,0.06,0.17-0.03-0.09c0.23,0.6,0.11,0.15,0.03-0.02
					c-0.07-0.16-0.16-0.31-0.24-0.47c0.28,0.58-0.15-0.52-0.21-0.72c-0.28-1-0.45-2.04-0.6-3.07c-0.13-0.86,0.06,0.48-0.05-0.39
					c-0.05-0.36-0.09-0.72-0.14-1.09c-0.08-0.65-0.16-1.29-0.24-1.94c-0.18-1.4-0.37-2.81-0.65-4.2c-0.47-2.29-1.26-4.75-3.02-6.4
					C333.64,315.68,330.09,319.21,332.45,321.41L332.45,321.41z"/>
			</g>
		</g>
		<g>
			<g>
				<path class="st18" d="M381.23,241.37c-0.5,6.2-0.75,12.42-1.4,18.61c-0.98,9.3-2.61,18.57-5.24,27.55
					c-1.63,5.55-3.65,10.98-6.21,16.18c-0.6,1.21-0.33,2.71,0.9,3.42c1.1,0.65,2.82,0.32,3.42-0.9
					c8.55-17.3,11.64-36.67,12.94-55.76c0.21-3.03,0.34-6.08,0.59-9.11c0.11-1.35-1.23-2.5-2.5-2.5
					C382.29,238.87,381.34,240.02,381.23,241.37L381.23,241.37z"/>
			</g>
		</g>
		<g>
			<g>
				<path class="st18" d="M390.4,259.68c0.35,2.39,0.79,4.77,1.17,7.16c0.1,0.61,0.19,1.23,0.28,1.84c0.02,0.13,0.11,0.81,0.08,0.59
					c-0.02-0.12,0.08,0.63,0.1,0.84c0.15,1.23,0.26,2.47,0.32,3.72c0.33,6.12-0.55,11.66-2.37,17.52c-1.48,4.76-3.46,9.34-5.67,13.8
					c-1.42,2.87,2.89,5.41,4.32,2.52c3.71-7.49,6.98-15.41,8.2-23.73c0.85-5.77,0.61-11.41-0.25-17.16
					c-0.42-2.81-0.95-5.61-1.36-8.42c-0.2-1.34-1.89-2.07-3.08-1.75C390.71,256.99,390.2,258.33,390.4,259.68L390.4,259.68z"/>
			</g>
		</g>
		<g>
			<g>
				<path class="st15" d="M312.7,214.53c3.22,0,3.22-5,0-5S309.48,214.53,312.7,214.53L312.7,214.53z"/>
			</g>
		</g>
		<g>
			<g>
				<path class="st18" d="M402.89,299.34c-0.82,2.27-1.64,4.54-2.58,6.76c0.08-0.2,0.17-0.4,0.25-0.6
					c-0.19,0.44-0.35,0.96-0.65,1.34c0.13-0.17,0.26-0.34,0.39-0.51c-0.01,0.02-0.02,0.03-0.04,0.04c0.17-0.13,0.34-0.26,0.51-0.39
					l-0.01,0.01c0.2-0.08,0.4-0.17,0.6-0.25c0,0,0,0-0.01,0c0.22-0.03,0.44-0.06,0.66-0.09l0,0c0.22,0.03,0.44,0.06,0.66,0.09l0,0
					c0.2,0.08,0.4,0.17,0.6,0.25l0,0c0.17,0.13,0.34,0.26,0.51,0.39l0,0c0.13,0.17,0.26,0.34,0.39,0.51c0,0,0,0,0-0.01
					c0.08,0.2,0.17,0.4,0.25,0.6v-0.01c0.03,0.22,0.06,0.44,0.09,0.66l0,0c-0.06-1.3-1.11-2.56-2.5-2.5c-1.31,0.06-2.56,1.1-2.5,2.5
					c0.02,0.47,0.1,0.86,0.34,1.28c0.55,0.94,1.78,1.5,2.84,1.16c0.73-0.23,1.26-0.68,1.64-1.33c0.17-0.3,0.31-0.63,0.45-0.94
					c0.4-0.92,0.77-1.85,1.14-2.78c0.62-1.61,1.22-3.22,1.81-4.85c0.21-0.58,0.05-1.41-0.25-1.93s-0.9-1.01-1.49-1.15
					C404.56,297.27,403.37,298.02,402.89,299.34L402.89,299.34z"/>
			</g>
		</g>
		<path class="st19" d="M305.74,252.79c0,0-6.03,14.09-5.76,20.38c0.27,6.29,10.83,54.71,10.83,54.71s2.29,4.06,10.62-5.25
			c5.5-6.14,11.02-1.22,11.02-1.22s-4.13-34.5-2.98-45.97c0.45-4.55-5.07-8.06-8.17-12.02c-4.44-5.68,2.06-15.64,0.73-17.45
			C317.76,254.23,305.74,252.79,305.74,252.79z"/>
		<path class="st8" d="M269.52,240.1l-7.07,42.6l-10.03,8.74l-22.48-14.28c0,0,10.61-1.94,14.47-5.5
			c3.87-3.56,8.17-49.38,8.17-49.38L269.52,240.1z"/>
		<g>
			<g>
				<path class="st9" d="M251.58,222.43c3.27,5.5,8.29,9.99,13.15,14.05c5.57,4.66,11.49,8.93,17.63,12.81
					c2.44,1.54,4.93,3.03,7.49,4.36c1.71,0.89,3.54,1.87,5.44,2.31c0.8,0.18,1.6,0.27,2.41,0.05c0.96-0.26,1.81-0.94,2.75-1.29
					c1.04-0.38,2.15-0.66,3.26-0.75c3.41-0.27,7.33,1.2,10.53-0.47c1.21-0.63,2.28-1.64,3.31-2.52c1.3-1.1,2.56-2.23,3.81-3.39
					c2.81-2.61,5.55-5.31,8.14-8.13c1.94-2.11,4.09-4.36,5.41-6.93c2.46-4.78,4.44-9.91,6.25-14.96c2.63-7.37,4.67-14.97,5.86-22.71
					c0.37-2.38,0.66-4.78,0.9-7.18c0.07-0.7,0.2-1.42,0.21-2.12c0.01-0.81-0.26-1.7-0.38-2.5c-0.07-0.47-0.01-0.08,0,0.01
					c-0.02-0.2-0.05-0.4-0.07-0.6c-0.04-0.4-0.08-0.8-0.11-1.2c-0.07-0.92-0.11-1.83-0.11-2.75c0-1.97,0.21-3.88,0.81-5.77
					c0.5-1.55,1.43-2.94,1.84-4.55c0.44-1.71,0.61-3.51,0.64-5.28c0.1-6.3-1.39-12.72-3.3-18.7c-0.13-0.4-0.25-0.79-0.39-1.18
					c-0.45-1.27-1.71-2.12-3.08-1.75c-1.23,0.34-2.2,1.8-1.75,3.08c1.49,4.23,2.65,9,3.18,13.21c0.42,3.3,0.6,6.74-0.23,9.66
					c-0.21,0.75-0.34,1.07-0.54,1.44c-0.49,0.93-0.93,1.89-1.25,2.89c-0.64,2.01-0.88,4.18-0.93,6.29c-0.07,2.7,0.12,5.57,0.75,8.2
					c0.07,0.31,0.07-0.73-0.1-0.41c-0.05,0.1-0.04,0.35-0.05,0.46c-0.04,0.36-0.07,0.72-0.11,1.08c-0.09,0.91-0.18,1.81-0.29,2.71
					c-0.07,0.57-0.14,1.13-0.21,1.7c-0.05,0.41,0.05-0.34-0.05,0.37c-0.05,0.36-0.1,0.73-0.16,1.09c-0.22,1.44-0.46,2.87-0.73,4.29
					c-0.69,3.59-1.54,7.15-2.55,10.66c-1.3,4.55-2.86,9.02-4.62,13.41c-1.46,3.63-2.82,7.58-5.19,10.74
					c-0.04,0.06-0.28,0.37-0.03,0.04c-0.1,0.13-0.2,0.25-0.3,0.38c-0.24,0.3-0.48,0.59-0.73,0.89c-0.54,0.64-1.09,1.27-1.66,1.89
					c-1.21,1.34-2.47,2.65-3.74,3.94c-2.5,2.52-5.07,4.98-7.75,7.31c-0.55,0.48-1.1,0.95-1.67,1.41c-0.22,0.18-0.44,0.35-0.66,0.53
					c-0.09,0.07-0.39,0.29,0.05-0.04c-0.14,0.1-0.28,0.22-0.42,0.31c-0.16,0.11-0.83,0.42-0.36,0.25c-0.13,0.05-0.93,0.22-0.41,0.14
					c-0.78,0.11-1.59,0.03-2.36-0.03c-1.81-0.15-3.61-0.37-5.43-0.23c-2.55,0.2-4.96,0.89-7.23,2.08c-0.33,0.17-1.26,0.49-0.11,0.13
					c-0.03,0.01-0.06,0.02-0.09,0.03c-0.31,0.08,0.83-0.08,0.38-0.06c-0.51,0.02,0.32,0.03,0.3,0.06c-0.01,0.02-0.4-0.08-0.43-0.09
					c-0.3-0.09-0.6-0.17-0.9-0.28c-0.19-0.07-0.37-0.14-0.55-0.21c-0.6-0.22,0.41,0.2-0.22-0.09c-2.14-0.99-4.21-2.1-6.24-3.29
					c-5.65-3.31-11.18-7.1-16.3-11.05c-5.22-4.03-10.32-8.39-14.5-13.51c-0.07-0.09-0.38-0.49-0.11-0.13
					c-0.09-0.12-0.18-0.24-0.27-0.36c-0.17-0.24-0.35-0.47-0.52-0.71c-0.36-0.51-0.69-1.03-1.01-1.56
					C254.25,217.14,249.93,219.65,251.58,222.43L251.58,222.43z"/>
			</g>
		</g>
		<g>
			<g>
				<path class="st15" d="M305.85,214.4c0.61,0.04,1.21,0.08,1.82,0.13c0.34,0.01,0.67-0.06,0.96-0.22c0.31-0.1,0.58-0.27,0.8-0.52
					c0.24-0.23,0.42-0.49,0.52-0.8c0.16-0.3,0.23-0.62,0.22-0.96c-0.03-0.22-0.06-0.44-0.09-0.66c-0.12-0.42-0.33-0.79-0.64-1.1
					c-0.17-0.13-0.34-0.26-0.51-0.39c-0.39-0.23-0.81-0.34-1.26-0.34c-0.61-0.04-1.21-0.08-1.82-0.13
					c-0.34-0.01-0.67,0.06-0.96,0.22c-0.31,0.1-0.58,0.27-0.8,0.52c-0.24,0.23-0.42,0.49-0.52,0.8c-0.16,0.3-0.23,0.62-0.22,0.96
					c0.03,0.22,0.06,0.44,0.09,0.66c0.12,0.42,0.33,0.79,0.64,1.1c0.17,0.13,0.34,0.26,0.51,0.39
					C304.98,214.29,305.4,214.4,305.85,214.4L305.85,214.4z"/>
			</g>
		</g>
		<path class="st13" d="M296.69,214.01c0,0,6.42,0.21,11.79,0.01c4.21-0.15,10.15,1.11,10.15,1.11s-0.9,4.53-9.58,3.02
			C300.37,216.64,296.69,214.01,296.69,214.01z"/>
		<path class="st19" d="M303.11,107.5c0,0,2.7,16.61,6.88,23.42s5.77,11.26,5.77,11.26l8.75,6.92c0,0,0.76-19.54-5.87-25.65
			C314.13,112.89,303.11,107.5,303.11,107.5z"/>
		<path class="st19" d="M287.87,111.05c0,0-6.51,3.86-8.25,12.69s-1.52,7.7-1.52,7.7l9.76,3.8l2.02-25.84L287.87,111.05z"/>
		<g>
			<g>
				<path class="st8" d="M300.23,105.64c12.02,7.14,20.4,19.53,23.14,33.18c0.78,3.88,1.02,7.84,0.82,11.79
					c-0.17,3.22,4.83,3.21,5,0c0.8-15.26-5.41-30.61-16.2-41.36c-3.06-3.05-6.52-5.72-10.23-7.93
					C299.98,99.68,297.46,104,300.23,105.64L300.23,105.64z"/>
			</g>
		</g>
		<g>
			<g>
				<path class="st8" d="M288.02,111.94c-0.81,3.72-0.87,7.44-0.67,11.23c0.19,3.56,0.31,7.07-0.45,10.58
					c-0.29,1.32,0.39,2.7,1.75,3.08c1.25,0.34,2.79-0.42,3.08-1.75c0.81-3.72,0.87-7.44,0.67-11.23c-0.19-3.56-0.31-7.07,0.45-10.58
					c0.29-1.32-0.39-2.7-1.75-3.08C289.84,109.85,288.31,110.62,288.02,111.94L288.02,111.94z"/>
			</g>
		</g>
		<g>
			<g>
				<path class="st8" d="M299.12,108.67c0.24,13.06,5.41,25.74,14.34,35.27c2.2,2.35,5.74-1.19,3.54-3.54
					c-8.02-8.56-12.66-20.01-12.88-31.73C304.06,105.46,299.06,105.45,299.12,108.67L299.12,108.67z"/>
			</g>
		</g>
		<g>
			<g>
				<path class="st8" d="M355.15,267.24c-0.08-0.39-0.03,0.8,0.05,0.35c0.02-0.09-0.01-0.2,0-0.3c0.01-0.12,0.02-0.25,0.02-0.38
					c0.01-0.62-0.12,0.58-0.02,0.15c0.17-0.73,0.29-1.47,0.48-2.2c0.55-2.1,1.23-4.17,1.92-6.24c2.04-6.12,4.22-12.19,6.24-18.32
					c2.37-7.18,4.59-14.43,6.3-21.8c1.57-6.74,2.85-13.72,2.74-20.66c-0.1-5.86-1.3-12.68-6.19-16.54c0.13,1.01,0.26,2.02,0.39,3.03
					c2.16-3.79,3.46-8.07,4.36-12.32c1.17-5.46,1.73-11.07,1.93-16.65c0.45-12.82-1.01-25.85-4.37-38.23
					c-1.92-7.08-4.53-14-8.04-20.45c-1.54-2.83-5.85-0.31-4.32,2.52c5.87,10.81,9.15,23.06,10.72,35.21
					c1.45,11.31,1.68,23.29-0.36,34.33c-0.47,2.52-1.06,5.02-1.84,7.46c-0.17,0.53-0.35,1.06-0.55,1.58
					c-0.11,0.29-0.22,0.58-0.33,0.86c-0.05,0.14-0.31,0.76-0.13,0.34c-0.41,0.96-0.87,1.9-1.39,2.81c-0.49,0.87-0.47,2.35,0.39,3.03
					c0.43,0.34,0.83,0.7,1.21,1.09c0.18,0.19,0.34,0.39,0.52,0.58c0.11,0.12,0.33,0.45-0.05-0.08c0.09,0.13,0.19,0.25,0.28,0.38
					c0.31,0.47,0.61,0.94,0.87,1.44c0.13,0.24,0.24,0.49,0.36,0.74c0.07,0.14,0.21,0.53-0.02-0.06c0.06,0.16,0.13,0.31,0.19,0.47
					c0.44,1.17,0.75,2.39,0.98,3.62c0.06,0.31,0.11,0.62,0.15,0.94c0.1,0.65-0.06-0.56,0.01,0.1c0.02,0.16,0.04,0.33,0.05,0.49
					c0.07,0.71,0.12,1.41,0.16,2.12c0.31,6.89-0.78,12.78-2.29,19.46c-3.08,13.67-7.95,26.82-12.42,40.07
					c-0.81,2.4-1.62,4.8-2.27,7.25c-0.43,1.63-0.9,3.41-0.54,5.1C351,271.71,355.83,270.38,355.15,267.24L355.15,267.24z"/>
			</g>
		</g>
		<g>
			<g>
				<path class="st8" d="M321.58,115.47c0.33,0.07,0.66,0.17,0.98,0.28c0.17,0.06,0.33,0.12,0.5,0.18c0.54,0.19-0.2-0.11,0.2,0.08
					c0.91,0.43,1.8,0.89,2.67,1.4c2.02,1.19,4.04,2.61,5.76,3.99c4.03,3.22,8,6.99,10.68,11.21c0.35,0.54,0.67,1.1,0.97,1.67
					c0.13,0.25,0.26,0.51,0.38,0.77c0.17,0.36-0.02-0.12,0.16,0.37c0.19,0.51,0.36,1.03,0.49,1.57c0.05,0.2,0.14,0.91,0.08,0.34
					c0.02,0.26,0.04,0.51,0.04,0.77c0.05,3.21,5.05,3.22,5,0c-0.07-5.18-3.76-9.85-7.06-13.51c-3.81-4.21-8.3-7.98-13.12-10.98
					c-1.96-1.22-4.13-2.46-6.4-2.97C319.77,109.95,318.43,114.77,321.58,115.47L321.58,115.47z"/>
			</g>
		</g>
		<g>
			<g>
				<path class="st9" d="M250.24,219.98c-0.01,0.34-0.05,0.68-0.11,1.01c-0.03,0.18-0.06,0.35-0.09,0.52
					c-0.09,0.56,0.07-0.22-0.04,0.21c-0.27,0.97-0.57,1.93-0.92,2.87c-0.82,2.2-1.87,4.43-2.93,6.36c-2.47,4.53-5.5,9.09-9.19,12.46
					c-0.47,0.44-0.97,0.85-1.48,1.24c-0.22,0.17-0.46,0.34-0.69,0.51c-0.33,0.23,0.11-0.04-0.34,0.22
					c-0.47,0.28-0.95,0.53-1.46,0.75c-0.19,0.08-0.87,0.3-0.32,0.14c-0.25,0.06-0.5,0.13-0.75,0.17c-3.15,0.6-2.3,5.53,0.86,4.92
					c5.09-0.97,9.05-5.41,12.08-9.29c3.49-4.48,6.42-9.56,8.54-14.82c0.86-2.14,1.71-4.49,1.82-6.82
					C255.37,217.24,250.39,216.75,250.24,219.98L250.24,219.98z"/>
			</g>
		</g>
		<g>
			<g>
				<path class="st8" d="M265.72,166.26c4.72,3.49,10.47,5.66,16.15,7c5.32,1.26,11.01,1.97,16.44,1.06c2.2-0.37,4.43-1.13,6.08-2.7
					c2.34-2.22-1.2-5.75-3.54-3.54c-0.13,0.13-0.69,0.49-0.11,0.12c-0.19,0.13-0.38,0.25-0.59,0.36c-0.11,0.06-0.86,0.4-0.24,0.15
					c-0.25,0.1-0.5,0.19-0.75,0.27c-0.56,0.18-1.13,0.32-1.71,0.43c-0.09,0.02-1.02,0.16-0.52,0.1c-0.34,0.05-0.67,0.08-1.01,0.11
					c-2.93,0.25-6,0.04-8.81-0.41c-6.65-1.07-13.4-3.24-18.86-7.28c-1.09-0.8-2.79-0.18-3.42,0.9
					C264.08,164.11,264.63,165.45,265.72,166.26L265.72,166.26z"/>
			</g>
		</g>
		<circle class="st17" cx="280.37" cy="182.9" r="13.74"/>
		<g>
			<g>
				<path class="st9" d="M234.22,246.75c0.73,8.97-5.88,18.46-0.41,27c1.59,2.48,5.91,0.25,4.32-2.23
					c-2.24-3.49-1.54-7.72-0.76-11.49c0.91-4.37,2.22-8.8,1.85-13.27c-0.1-1.2-1.08-2.21-2.5-2.21
					C235.44,244.54,234.12,245.56,234.22,246.75L234.22,246.75z"/>
			</g>
		</g>
		<path class="st16" d="M251.56,153.97c0,0-4.98-16.24-10.62-12.87s-6.02,37.18-0.93,37.21c5.09,0.02,8.55,4.59,8.55,4.59"/>
		<g>
			<g>
				<path class="st9" d="M246.8,156.16c1.89,21.68-4.02,45.03,2.91,65.41c2.02,5.91,6.37,0.27,4.36-5.64
					c-2.84-8.33-2.61-18.61-2.25-27.79c0.44-10.63,1.29-21.43,0.34-32.25c-0.26-2.89-1.43-5.3-2.96-5.23
					C247.83,150.73,246.55,153.27,246.8,156.16L246.8,156.16z"/>
			</g>
		</g>
		<g>
			<g>
				<path class="st8" d="M248.35,119.75c0.03,0.34,0.03,0.68,0.02,1.02c-0.01,0.18-0.02,0.35-0.02,0.53
					c-0.02,0.57,0.05-0.22-0.02,0.21c-0.14,1-0.32,1.98-0.55,2.96c-0.54,2.28-1.31,4.63-2.12,6.68c-1.89,4.8-4.33,9.7-7.57,13.51
					c-0.41,0.49-0.85,0.96-1.31,1.42c-0.2,0.2-0.41,0.4-0.62,0.59c-0.29,0.27,0.11-0.05-0.31,0.26c-0.43,0.33-0.88,0.65-1.36,0.93
					c-0.18,0.11-0.83,0.4-0.3,0.18c-0.24,0.1-0.48,0.19-0.72,0.26c-3.05,0.99-1.59,5.77,1.47,4.78c4.93-1.59,8.31-6.49,10.83-10.72
					c2.9-4.88,5.18-10.28,6.63-15.77c0.59-2.23,1.14-4.67,0.96-6.99C253.1,116.39,248.09,116.53,248.35,119.75L248.35,119.75z"/>
			</g>
		</g>
		<g>
			<g>
				<path class="st0" d="M227.78,278.41c5.71,8.07,14.93,12.69,23.77,16.55c10.41,4.54,21,8.17,31,13.56
					c4.83,2.6,9.42,5.55,13.41,9.17c1.94,1.77,3.95,3.88,5.44,5.83c1.62,2.12,3.36,4.51,4.05,7.11c0.25,0.96,0.17,2.13-0.07,3.11
					c-0.33,1.34-0.72,2.16-1.37,3.38c-1.41,2.66-3.11,5.16-4.37,7.9c-1.42,3.09-2.13,6.19-2.41,9.54
					c-0.46,5.51-0.39,11.09-0.24,16.61c0.24,8.38,0.86,16.75,1.79,25.08c1.12,10.09,2.67,20.15,4.77,30.08
					c2.2,10.46,5,20.82,8.64,30.88c3.59,9.94,7.98,19.67,13.61,28.63c5.27,8.38,11.67,16.2,19.46,22.35
					c1.93,1.52,3.91,2.96,5.98,4.28c2.72,1.73,5.23-2.59,2.52-4.32c-7.75-4.94-14.72-12.04-20.06-19.48
					c-5.92-8.25-10.74-17.65-14.42-26.8c-3.98-9.89-7.05-20.14-9.5-30.52c-1.2-5.09-2.25-10.22-3.16-15.36
					c-0.44-2.5-0.86-5-1.24-7.51c-0.38-2.5-0.69-4.72-0.97-6.91c-1.11-8.71-1.89-17.47-2.27-26.25c-0.27-6.13-0.4-12.29-0.07-18.42
					c0.05-0.99,0.12-1.98,0.21-2.97c0.04-0.4,0.09-0.8,0.13-1.2c0.06-0.57-0.11,0.7-0.01,0.1c0.03-0.17,0.05-0.34,0.08-0.5
					c1.01-5.85,5.13-10.25,7.21-15.67c1.04-2.73,1.24-5.77,0.23-8.54c-1.03-2.82-2.84-5.37-4.66-7.73
					c-3.47-4.49-7.73-8.24-12.39-11.46c-9.4-6.5-20.19-10.67-30.73-14.94c-4.93-2-9.6-3.89-14.42-6.31c-2.2-1.1-4.37-2.28-6.45-3.6
					c-2.1-1.33-3.47-2.31-5.19-3.85c-0.78-0.7-1.53-1.43-2.24-2.21c-0.36-0.39-0.71-0.8-1.05-1.21c-0.09-0.1-0.42-0.53-0.17-0.21
					c-0.18-0.24-0.36-0.49-0.53-0.73c-0.78-1.1-2.18-1.62-3.42-0.9C227.59,275.63,227,277.3,227.78,278.41L227.78,278.41z"/>
			</g>
		</g>
	</g>
	<g>
		<g>
			<path class="st0" d="M334.88,317.23c-8.31-2.62-15.85,2.71-21.04,8.75c-5.17,6.01-8.95,12.99-12.7,19.92
				c-0.61,1.13-1.21,2.28-1.91,3.36c-0.1,0.15-0.31,0.36-0.36,0.53c0.1-0.36,0.44-0.39,0.05-0.1c-0.29,0.22,0.45-0.32,0.35-0.26
				c-0.26,0.15,0.66-0.24,0.46-0.19c0.78-0.21,1.67,0.02,2.24,0.59c0.01,0.01,0.45,0.69,0.3,0.36c-0.54-1.24-2.35-1.52-3.42-0.9
				c-1.27,0.75-1.44,2.18-0.9,3.42c0.78,1.78,3.18,1.75,4.43,0.57c0.66-0.62,1.15-1.45,1.61-2.22c1.55-2.62,2.9-5.35,4.38-8
				c2.05-3.67,4.22-7.28,6.71-10.66c0.71-0.97,0.92-1.25,1.76-2.25c0.68-0.82,1.38-1.62,2.12-2.39c0.71-0.75,1.45-1.46,2.23-2.14
				c0.34-0.29,0.68-0.58,1.03-0.86c0.37-0.3,0.09-0.07,0.01-0.01c0.09-0.07,0.17-0.13,0.26-0.19c0.21-0.15,0.41-0.3,0.62-0.44
				c0.9-0.62,1.84-1.14,2.81-1.62c0.51-0.25-0.15,0.04,0.24-0.11c0.25-0.1,0.5-0.19,0.75-0.28c0.47-0.16,0.95-0.29,1.44-0.4
				c0.23-0.05,0.45-0.09,0.68-0.13c0.12-0.02,0.49-0.05-0.08,0.01c0.13-0.01,0.26-0.03,0.39-0.04c0.5-0.03,0.99-0.05,1.49-0.03
				c0.24,0.01,0.47,0.03,0.71,0.05c0.47,0.04,0.03,0-0.06-0.01c0.14,0.02,0.27,0.04,0.41,0.07c0.56,0.11,1.11,0.25,1.65,0.42
				C336.63,323.02,337.95,318.2,334.88,317.23L334.88,317.23z"/>
		</g>
	</g>
	<path class="st8" d="M347.06,143.04c-1.56,3.48-12.05-0.86-12.05-0.86l-13.21-27.73c0,0,3.5,1.02,9.18,5.21s8,7.23,10.5,10.92
		C343.98,134.26,348.62,139.56,347.06,143.04z"/>
	<path class="st20" d="M367.11,286.86c0,0,5.13-9.98,8.76-24.5c3.63-14.52,4.3-27.75,4.3-27.75s5.13,18.86-2.81,44.48
		c-5.21,16.83-7.96,22.5-7.96,22.5L367.11,286.86z"/>
	<path class="st20" d="M351.37,247.35c0,0,5.66-14.37,9.29-28.88c3.63-14.52,6.83-25.47,6.83-25.47s4.45,12.26-3.49,37.88
		c-5.21,16.83-12.79,37.77-12.79,37.77L351.37,247.35z"/>
	<path class="st20" d="M382.17,295.13c0,0,2.64-7.78,5.63-17.39c3-9.61,2.91-21.57,2.91-21.57s6.48,16.86-0.07,33.82
		c-4.3,11.14-5.71,14.98-5.71,14.98L382.17,295.13z"/>
	<path class="st20" d="M399.02,303.64c0,0,0.04,0,1.83-2.98c1.79-2.98,0.03-7.89,0.03-7.89s5.74,4.59,2.77,10.18
		c-2.18,4.09-1.93,2.95-3.28,5.22L399.02,303.64z"/>
	<polygon class="st21" points="227.43,272.7 225.48,310.18 284.97,301.18 	"/>
	<polygon class="st0" points="309.21,332.09 284.97,301.18 232.72,308.94 	"/>
	<polygon class="st22" points="235.17,324.19 238.14,373.35 268.28,374.1 	"/>
	<polygon class="st22" points="286.15,318.95 283.32,371.83 268.28,374.1 	"/>
	<polygon class="st0" points="235.17,324.19 261.64,327.87 286.15,318.95 255.64,322.1 	"/>
	<g>
		<g>
			<line class="st23" x1="235.17" y1="324.19" x2="235.26" y2="325.69"/>
			<line class="st24" x1="235.45" y1="328.76" x2="237.96" y2="370.31"/>
			<polyline class="st23" points="238.05,371.85 238.14,373.35 239.64,373.39 			"/>
			<polyline class="st25" points="242.47,373.46 268.28,374.1 280.44,372.26 			"/>
			<polyline class="st23" points="281.84,372.05 283.32,371.83 283.4,370.33 			"/>
			<line class="st26" x1="283.56" y1="367.4" x2="285.99" y2="321.92"/>
			<line class="st23" x1="286.07" y1="320.45" x2="286.15" y2="318.95"/>
		</g>
	</g>
	<g>
		<path class="st16" d="M249.53,318.6c0,0,0.58-4.86,0.77-4.89c0.22-0.04,2.99,3.81,2.99,3.81L249.53,318.6z"/>
		<polygon class="st7" points="249.44,318.21 249.56,321.23 254.23,320.18 253.16,317.15 		"/>
		<polygon class="st27" points="252.64,320.69 261.22,353.15 263.03,352.83 254.18,319.95 253.03,318.53 		"/>
		<polygon class="st28" points="249.56,321.23 258.14,353.69 259.95,353.38 251.22,320.94 250.09,319.19 		"/>
		<polygon class="st29" points="251.17,320.95 259.75,353.41 261.55,353.09 252.69,320.17 251.67,318.92 		"/>
	</g>
	<g>
		<path class="st16" d="M274.17,315.29c0,0,2.72-4.07,2.9-4.02c0.21,0.06,0.95,4.75,0.95,4.75L274.17,315.29z"/>
		<polygon class="st7" points="274.27,314.9 273,317.65 277.64,318.82 278.06,315.64 		"/>
		<polygon class="st27" points="276,318.56 268.98,351.4 270.73,351.93 277.7,318.6 277.32,316.81 		"/>
		<polygon class="st28" points="273,317.65 265.98,350.49 267.74,351.02 274.61,318.14 274.4,316.07 		"/>
		<polygon class="st29" points="274.56,318.13 267.54,350.96 269.3,351.49 276.28,318.12 275.93,316.54 		"/>
	</g>
	<g>
		<path class="st16" d="M261.35,319.24c0,0,1.27-4.73,1.45-4.73c0.22-0.01,2.42,4.19,2.42,4.19L261.35,319.24z"/>
		<polygon class="st7" points="261.33,318.84 261.01,321.85 265.79,321.47 265.16,318.32 		"/>
		<polygon class="st27" points="264.14,321.75 268.02,355.1 269.86,355.04 265.76,321.23 264.83,319.67 		"/>
		<polygon class="st28" points="261.01,321.85 264.91,355.2 266.74,355.14 262.7,321.79 261.83,319.91 		"/>
		<polygon class="st29" points="262.64,321.8 266.53,355.15 268.37,355.08 264.26,321.25 263.43,319.86 		"/>
	</g>
	<polygon class="st30" points="235.17,324.19 261.64,327.87 286.15,318.95 268.28,374.1 	"/>
	<polygon class="st31" points="261.64,327.87 268.28,374.1 252.42,326.59 	"/>
	<polygon class="st32" points="261.64,327.87 268.28,373.35 271.45,324.3 	"/>
	<polygon class="st0" points="246.83,315.22 245.84,320.62 246.83,324.54 250.71,325.66 249.6,321.46 249.41,316.38 	"/>
</g>
<g id="Layer_10">
</g>
<path class="st7" d="M250.71,233.07c0,0-8.12,17.59-17.93,18.31c-6.29,0.47-6.87,15.56-6.87,15.56l1.52,5.76
	c0,0,7.74-2.82,11.85-10.62C245.44,250.38,250.71,233.07,250.71,233.07z"/>
</svg>
