<?xml version="1.0" encoding="utf-8"?>
<!-- Generator: Adobe Illustrator 25.4.1, SVG Export Plug-In . SVG Version: 6.00 Build 0)  -->
<svg version="1.1" xmlns="http://www.w3.org/2000/svg" xmlns:xlink="http://www.w3.org/1999/xlink" x="0px" y="0px"
	 viewBox="0 0 600 600" style="enable-background:new 0 0 600 600;" xml:space="preserve">
<style type="text/css">
	.st0{display:none;}
	.st1{display:inline;opacity:0.57;fill:#EC008C;}
	.st2{display:inline;fill:#2ABCE9;}
	.st3{display:inline;}
	.st4{fill:#092D35;}
	.st5{display:inline;fill:none;stroke:#092D35;stroke-width:4;stroke-linecap:round;stroke-linejoin:round;stroke-miterlimit:10;}
	.st6{fill:#F4CBA2;}
	.st7{fill:none;stroke:#092D35;stroke-miterlimit:10;}
	.st8{fill:#3B4B53;}
	.st9{fill:#60AA59;stroke:#092D35;stroke-miterlimit:10;}
	.st10{fill:#C4A283;}
	.st11{fill:#2C6775;stroke:#2C6775;stroke-miterlimit:10;}
	.st12{fill:#2C6775;}
	.st13{fill:#D8AC84;}
	.st14{fill:#D73A27;}
	.st15{fill:#76A3AA;}
	.st16{fill:#F2D8C0;}
</style>
<g id="Layer_11">
</g>
<g id="Layer_1">
</g>
<g id="Layer_2">
</g>
<g id="Layer_3">
</g>
<g id="Layer_7" class="st0">
	<path class="st1" d="M629.59,191.8l-3.8,14.24l-4.01,14.23c2.29,1.36,4.95,2.16,7.81,2.16c8.46,0,15.31-6.86,15.31-15.31
		S638.05,191.8,629.59,191.8z"/>
	<path class="st1" d="M660.22,164.23c-8.46,0-15.31,6.86-15.31,15.31c0,5.02,2.43,9.46,6.16,12.25l11.9-27.31
		C662.07,164.33,661.16,164.23,660.22,164.23z"/>
	<path class="st1" d="M626.51,179.66l-11.9,27.31c2.56,1.91,5.72,3.06,9.16,3.06c8.46,0,15.31-6.86,15.31-15.31
		C639.08,187.2,633.65,180.96,626.51,179.66z"/>
	<polygon class="st2" points="286.99,275.93 317.81,318.09 291.07,353.54 	"/>
	<g class="st3">
		<path class="st4" d="M288.38,369.99c2.18,1.98,33.67-49.44,33.67-49.44c-13.41-15.91-28.3-38.16-38.09-49.82"/>
		<g>
			<path class="st4" d="M286.61,371.76c2.96,2.4,5.66-1.52,7.28-3.61c2.98-3.84,5.72-7.87,8.42-11.91
				c6.13-9.17,12.02-18.51,17.85-27.88c1.36-2.18,2.71-4.36,4.05-6.55c0.62-1.01,0.32-2.18-0.39-3.03
				c-10.93-12.99-20.54-27-30.77-40.52c-2.38-3.14-4.79-6.27-7.32-9.3c-0.87-1.04-2.64-0.9-3.54,0c-1.03,1.03-0.87,2.5,0,3.54
				c4.68,5.59,8.97,11.49,13.29,17.36c5.18,7.04,10.32,14.1,15.65,21.02c2.98,3.87,6.01,7.7,9.15,11.44
				c-0.13-1.01-0.26-2.02-0.39-3.03c-3.43,5.6-6.91,11.16-10.42,16.71c-5.69,8.99-11.39,18.04-17.65,26.65
				c-0.33,0.46-0.67,0.91-1.01,1.37c-0.14,0.19-0.29,0.38-0.43,0.57c-0.46,0.62,0.16-0.2-0.16,0.2c-0.51,0.64-1.02,1.28-1.56,1.9
				c-0.36,0.41-0.79,0.77-1.15,1.17c-0.3,0.33,0.58-0.4,0.22-0.17c-0.07,0.04-0.13,0.09-0.2,0.12c0.78-0.37,1.62-0.39,2.61,0.41
				c-1.05-0.85-2.51-1.02-3.54,0C285.73,369.1,285.56,370.91,286.61,371.76L286.61,371.76z"/>
		</g>
	</g>
	<path class="st5" d="M245.35,278.39c0,0,0.16,5.6-2.03,11.37c-1.73,4.56-6.04,9.24-5.22,11.35c1.42,3.67,7.26,4.18,7.26,4.18"/>
</g>
<g id="Layer_4">
</g>
<g id="Layer_5">
</g>
<g id="Layer_6">
</g>
<g id="Layer_8">
</g>
<g id="Layer_9">
	<g>
		<path class="st6" d="M367.31,223.63c-0.52,13.57-0.55,43.38,3.83,55.36c0.98,2.68,8.08,9.78,10.9,9.78c18.52,0,34,24.42,31.43,29
			c-1.82,3.25-11.02,4.38-12.44,10.85c-0.39,1.79,3.21-8.17-1.8-10.2c-1.93-0.78-13.33,9.28-16.06,9.89
			c-0.1-13.58-14.4,1.72-16.29,3.02c-3.63,2.49,12.9-15.38-12.03,0.82c-3.02,1.96,9.97-14.76,8.7-12.5
			c-2.92,5.2-25.11,38.74-26.57,8.23c-0.08-1.72-7.34-13.33-17.24-6.62c-2.38,1.62-10.7,23.63-19.63,30.21
			c11.1-17.89,11.3-23.68,0-33.06c-2.72-2.26-37.74-16.05-42.78-19.11c-16.93-10.31-12.34-12.9-27.39-22.14
			c-14.37-8.82-36.42,24.59-48.44,21.49c-13.19-3.41,22.46-22.87,30.64-59.32c-7.49-44.57,4.14-47.23,4.71-68.07
			c1.48-53.9-1.34-85.93,60.21-97c61.66-11.08,83.23,10.75,89.29,61.87C369.11,159.35,368.66,188.64,367.31,223.63z"/>
		<g>
			<g>
				<path class="st4" d="M281.61,109.35c0.03,2.23,1.04,4.35,2.13,6.25c1.39,2.4,3.09,4.62,4.83,6.78c3.31,4.1,6.95,7.95,10.7,11.66
					c0.83,0.82,1.66,1.64,2.51,2.43c2.35,2.2,5.89-1.33,3.54-3.54c-2.17-2.04-4.27-4.16-6.33-6.32c-3.72-3.9-7.29-7.81-10.09-12.16
					c-0.69-1.06-1.32-2.16-1.84-3.31c-0.12-0.26,0.06,0.15,0.07,0.16c-0.05-0.14-0.11-0.28-0.16-0.42
					c-0.08-0.24-0.17-0.48-0.23-0.73c-0.05-0.2-0.08-0.41-0.14-0.61c-0.12-0.39,0.03,0.17,0.03,0.23c0-0.14-0.02-0.27-0.02-0.41
					C286.57,106.14,281.57,106.13,281.61,109.35L281.61,109.35z"/>
			</g>
		</g>
		<g>
			<g>
				<path class="st4" d="M274.62,72.9c-7.41-2.16-15.28-0.79-22.27,2.14c-7.15,3-13.71,7.54-19.15,13.06
					c-2.58,2.62-4.98,5.52-6.8,8.72c-1.59,2.8,2.73,5.32,4.32,2.52c2.96-5.22,7.54-9.69,12.46-13.31c5.69-4.2,12.18-7.57,19.19-8.81
					c3.65-0.65,7.39-0.53,10.94,0.5C276.38,78.62,277.7,73.8,274.62,72.9L274.62,72.9z"/>
			</g>
		</g>
		<g>
			<g>
				<path class="st4" d="M321.58,115.47c0.33,0.07,0.66,0.17,0.98,0.28c0.17,0.06,0.33,0.12,0.5,0.18c0.54,0.19-0.2-0.11,0.2,0.08
					c0.91,0.43,1.8,0.89,2.67,1.4c2.02,1.19,4.04,2.61,5.76,3.99c4.03,3.22,8,6.99,10.68,11.21c0.35,0.54,0.67,1.1,0.97,1.67
					c0.13,0.25,0.26,0.51,0.38,0.77c0.17,0.36-0.02-0.12,0.16,0.37c0.19,0.51,0.36,1.03,0.49,1.57c0.05,0.2,0.14,0.91,0.08,0.34
					c0.02,0.26,0.04,0.51,0.04,0.77c0.05,3.21,5.05,3.22,5,0c-0.07-5.18-3.76-9.85-7.06-13.51c-3.81-4.21-8.3-7.98-13.12-10.98
					c-1.96-1.22-4.13-2.46-6.4-2.97C319.77,109.95,318.43,114.77,321.58,115.47L321.58,115.47z"/>
			</g>
		</g>
		<g>
			<g>
				<path class="st4" d="M274.57,74.25c0.73,10.13-5.88,20.85-0.41,30.49c1.59,2.8,5.91,0.28,4.32-2.52
					c-2.24-3.94-1.54-8.72-0.76-12.98c0.91-4.93,2.22-9.94,1.85-14.99c-0.1-1.35-1.08-2.5-2.5-2.5
					C275.79,71.75,274.47,72.9,274.57,74.25L274.57,74.25z"/>
			</g>
		</g>
		<g>
			<g>
				<path class="st4" d="M382.03,291.27c3.22,0,3.22-5,0-5C378.82,286.27,378.81,291.27,382.03,291.27L382.03,291.27z"/>
			</g>
		</g>
		<g>
			<g>
				<path class="st4" d="M299.12,108.67c0.24,13.06,5.41,25.74,14.34,35.27c2.2,2.35,5.74-1.19,3.54-3.54
					c-8.02-8.56-12.66-20.01-12.88-31.73C304.06,105.46,299.06,105.45,299.12,108.67L299.12,108.67z"/>
			</g>
		</g>
		<g>
			<g>
				<path class="st4" d="M283.26,113.78c-1.66,7.57-0.58,15.39-2.23,22.95c-0.29,1.32,0.4,2.7,1.75,3.08
					c1.25,0.34,2.78-0.42,3.08-1.75c1.66-7.57,0.58-15.39,2.23-22.95c0.29-1.32-0.4-2.7-1.75-3.08
					C285.08,111.69,283.55,112.46,283.26,113.78L283.26,113.78z"/>
			</g>
		</g>
		<g>
			<g>
				<path class="st4" d="M281.85,108.2c-5.18,3.27-9.06,7.6-10.94,13.49c-1.8,5.65-2.25,11.67-3.8,17.4
					c-0.84,3.11,3.98,4.44,4.82,1.33c1.48-5.48,1.99-11.18,3.57-16.63c0.66-2.29,1.38-3.98,2.84-6c1.41-1.94,3.8-3.87,6.03-5.28
					C287.09,110.8,284.58,106.47,281.85,108.2L281.85,108.2z"/>
			</g>
		</g>
		<g>
			<g>
				<path class="st4" d="M375.26,289.34c5.91,1.19,11.78,2.78,17.38,5.04c5.47,2.21,10.94,5.18,14.79,9.7
					c1.77,2.07,3.22,5.01,3.54,7.58c0.17,1.34,1.03,2.5,2.5,2.5c1.22,0,2.67-1.15,2.5-2.5c-1.81-14.16-17.05-20.94-29.14-24.59
					c-3.37-1.02-6.79-1.85-10.24-2.54c-1.32-0.27-2.7,0.38-3.08,1.75C373.17,287.5,373.93,289.07,375.26,289.34L375.26,289.34z"/>
			</g>
		</g>
		<g>
			<g>
				<path class="st4" d="M163.23,316c3.22,0,3.22-5,0-5C160.01,311,160,316,163.23,316L163.23,316z"/>
			</g>
		</g>
		<g>
			<g>
				<path class="st4" d="M160.73,313.5c-1.26,13.43-2.63,26.86-3.62,40.31c-0.84,11.4-1.41,22.84-1.07,34.27
					c0.31,10.63,1.45,21.25,3.77,31.64c2.41,10.76,6.13,21.17,10.81,31.14c5.52,11.75,12.37,22.83,19.85,33.41
					c1.07,1.52,2.16,3.02,3.26,4.52c0.8,1.09,2.17,1.63,3.42,0.9c1.07-0.63,1.7-2.33,0.9-3.42c-7.85-10.72-15.12-21.91-21.09-33.79
					c-4.88-9.71-8.79-19.87-11.45-30.41c-2.55-10.11-3.85-20.04-4.34-30.43c-0.53-11.2-0.11-22.43,0.64-33.61
					c0.87-13.04,2.17-26.04,3.4-39.05c0.17-1.83,0.35-3.66,0.52-5.49c0.13-1.35-1.24-2.5-2.5-2.5
					C161.77,311,160.85,312.15,160.73,313.5L160.73,313.5z"/>
			</g>
		</g>
		<g>
			<g>
				<path class="st4" d="M410.97,311.65c0.48,5.17,0.61,10.37,0.36,15.56c-0.12,2.42-0.31,4.83-0.58,7.24
					c-0.06,0.58-0.13,1.16-0.21,1.74c-0.02,0.13-0.11,0.81-0.08,0.59c0.02-0.18-0.07,0.52-0.1,0.7c-0.17,1.17-0.35,2.35-0.55,3.52
					c-1.53,9.03-3.93,17.88-6.21,26.74c-2.47,9.63-4.68,19.31-5.92,29.19c-1.48,11.72-1.5,23.57-0.23,35.3
					c1.74,16.08,5.64,31.85,10.71,47.19c0.75,2.27,1.53,4.53,2.33,6.79c0.45,1.27,1.71,2.12,3.08,1.75c1.23-0.34,2.2-1.8,1.75-3.08
					c-5.56-15.71-10.12-31.89-12.35-48.43c-1.61-11.93-1.91-24.04-0.68-36.02c0.5-4.88,1.23-9.57,2.25-14.69
					c0.93-4.66,2.02-9.29,3.19-13.9c2.24-8.88,4.72-17.71,6.42-26.72c1.83-9.72,2.71-19.6,2.13-29.49c-0.08-1.33-0.18-2.66-0.3-3.98
					c-0.13-1.34-1.06-2.5-2.5-2.5C412.21,309.15,410.84,310.3,410.97,311.65L410.97,311.65z"/>
			</g>
		</g>
		<g>
			<g>
				<path class="st4" d="M207.06,375c0.27,7.94,0.54,15.87,0.82,23.81c0.13,3.93,0.17,7.87,0.59,11.79
					c0.74,6.99,2.02,13.92,3.52,20.78c4.17,19.09,10.2,38.17,19.46,55.44c4.99,9.31,11.13,18.35,19.21,25.27
					c1.02,0.88,2.53,1.01,3.54,0c0.9-0.9,1.03-2.65,0-3.54c-7.02-6.01-12.29-13.39-16.84-21.39c-4.88-8.58-8.75-17.66-12.03-26.96
					c-3.14-8.92-5.74-18.04-7.86-27.26c-0.9-3.91-1.71-7.84-2.42-11.78c-0.29-1.64-0.57-3.29-0.82-4.93
					c-0.12-0.78-0.23-1.55-0.34-2.33c-0.02-0.12-0.03-0.25-0.05-0.37c-0.09-0.64,0.07,0.56-0.01-0.06
					c-0.05-0.41-0.11-0.82-0.16-1.22c-0.44-3.65-0.56-7.27-0.69-10.94c-0.3-8.76-0.6-17.53-0.9-26.29
					C211.96,371.79,206.95,371.78,207.06,375L207.06,375z"/>
			</g>
		</g>
		<g>
			<g>
				<path class="st4" d="M197.24,293.94c3.22,0,3.22-5,0-5C194.02,288.94,194.02,293.94,197.24,293.94L197.24,293.94z"/>
			</g>
		</g>
		<g>
			<g>
				<path class="st4" d="M298.06,233.41c1.87-0.01,3.74-0.01,5.61-0.02c0.92,0,1.83-0.01,2.75-0.01c0.38,0,0.77,0.02,1.15,0.01
					c0.51-0.01-0.46-0.17-0.01-0.01c0.26,0.08,0.21,0.05-0.15-0.1c0.23,0.13,0.19,0.09-0.12-0.12c0.98,0.86,2.58,1.04,3.54,0
					c0.87-0.95,1.05-2.61,0-3.54c-1-0.88-2.1-1.21-3.42-1.25c-1.02-0.03-2.05,0-3.08,0.01c-2.09,0.01-4.18,0.01-6.27,0.02
					c-1.31,0-2.56,1.15-2.5,2.5C295.62,232.26,296.66,233.41,298.06,233.41L298.06,233.41z"/>
			</g>
		</g>
		<g>
			<g>
				<path class="st4" d="M172.84,312.39c6.69,0.59,13.04,2.36,18.52,6.09c1.28,0.87,1.77,1.25,2.98,2.35
					c1.02,0.93,1.98,1.92,2.87,2.97c0.19,0.22,0.37,0.45,0.56,0.68c0.09,0.11,0.18,0.23,0.27,0.34c-0.3-0.38,0,0,0.07,0.1
					c0.4,0.55,0.8,1.1,1.17,1.67c0.69,1.06,1.33,2.16,1.9,3.29c0.27,0.52,0.52,1.06,0.77,1.59c0.13,0.28,0.25,0.57,0.37,0.85
					c-0.22-0.53,0.15,0.38,0.21,0.54c0.44,1.13,0.83,2.28,1.18,3.44c0.66,2.22,1.15,4.49,1.5,6.78c0.04,0.27,0.08,0.55,0.12,0.82
					c0.06,0.39-0.08-0.63-0.01-0.03c0.01,0.12,0.03,0.24,0.04,0.36c0.06,0.53,0.12,1.06,0.17,1.59c0.09,1.01,0.16,2.01,0.21,3.02
					c0.08,1.77,0.08,3.53,0.02,5.3c-0.05,1.37-0.14,2.74-0.29,4.1c-0.02,0.22-0.05,0.43-0.08,0.65c-0.08,0.67,0-0.09,0.02-0.14
					c-0.04,0.12-0.04,0.28-0.06,0.41c-0.22,1.33,0.35,2.69,1.75,3.08c1.2,0.33,2.85-0.41,3.08-1.75c0.91-5.51,0.83-11.28,0.12-16.81
					c-1.41-10.99-5.87-21.54-14.89-28.41c-6.51-4.96-14.54-7.18-22.59-7.88c-1.35-0.12-2.5,1.23-2.5,2.5
					C170.34,311.34,171.49,312.28,172.84,312.39L172.84,312.39z"/>
			</g>
		</g>
		<path class="st7" d="M316.81,167.71"/>
		<g>
			<path class="st6" d="M364.7,185.14c13.53-11.22,3.98-26.48,3.93-30.32c-0.21-16.47,10.14-12.43,4.91-34.64
				c-3.67-15.6-15.68-17.49-14.96-16.7l-5.77,98.03L352.51,239c0,0,0.24,26.7,0,34.43s11.05,46.21,11.05,46.21l14.31-1.09
				l27.44-8.66c-2.45-5.17,4.94-22.53-14.65-56.24c-7.65-13.15-18.52-38.76-19.18-51.86C370.79,188.47,358.41,190.36,364.7,185.14z"
				/>
		</g>
		<path class="st8" d="M253.74,221.16C253.74,221.16,254.95,217.9,253.74,221.16s-9.33,50.5-9.33,50.5s-10.24,10.34-12.56,3.28
			c-0.34-1.04-6.12-1.77-6.12-1.77l0.18-6.23c0,0-0.33-1.29-0.09-2.18C226.54,262.06,253.74,221.16,253.74,221.16z"/>
		<path class="st8" d="M331.01,269.88c0,0-10.39-3.95-11.35-9.89c-1.02-6.34,2.42-20.62,2.42-20.62s1.01-2.97,3.33-3.34
			s3.22-5.6,3.22-5.6L331.01,269.88z"/>
		<path class="st9" d="M270.73,325.47"/>
		<g>
			<g>
				<path class="st4" d="M227.78,278.41c6.15,8.69,15.97,14.23,25.23,19.02c10.71,5.53,21.86,10.19,32.43,16.01
					c4.63,2.55,9.38,5.46,13.22,8.7c1.77,1.5,3.45,3.13,4.93,4.93c0.07,0.08,0.54,0.67,0.28,0.34c0.17,0.22,0.33,0.44,0.5,0.67
					c0.41,0.57,0.81,1.16,1.1,1.81c0.45,0.98,0.55,1.75,0.44,2.95c-0.03,0.3,0,0.03,0.01-0.02c-0.03,0.17-0.06,0.34-0.1,0.51
					c-0.06,0.26-0.13,0.51-0.2,0.76c-0.22,0.74-0.32,0.98-0.61,1.56c-0.6,1.25-1.32,2.45-2.04,3.63c-1.62,2.66-3.22,5.3-4.33,8.22
					c-0.94,2.47-1.26,5.06-1.46,7.68c-0.42,5.64-0.34,11.32-0.16,16.96c0.27,8.39,0.92,16.78,1.87,25.12
					c1.15,10.08,2.73,20.12,4.86,30.05c2.22,10.37,5.03,20.63,8.67,30.59c3.58,9.79,7.93,19.37,13.51,28.19
					c5.26,8.33,11.65,16.09,19.42,22.2c1.9,1.49,3.85,2.9,5.88,4.2c2.72,1.73,5.23-2.59,2.52-4.32c-4.02-2.56-7.23-5.15-10.71-8.56
					c-3.44-3.36-6.54-7.05-9.19-10.71c-5.87-8.14-10.69-17.46-14.36-26.49c-4-9.84-7.08-20.03-9.55-30.35
					c-1.21-5.05-2.26-10.13-3.18-15.24c-0.44-2.46-0.86-4.92-1.24-7.39c-0.19-1.23-0.37-2.46-0.55-3.7
					c-0.19-1.31-0.31-2.22-0.44-3.24c-1.13-8.67-1.93-17.39-2.34-26.12c-0.3-6.23-0.44-12.48-0.16-18.71
					c0.05-1.04,0.11-2.09,0.2-3.13c0.04-0.41,0.07-0.83,0.12-1.24c0.02-0.19,0.05-0.38,0.07-0.57c0.04-0.42-0.12,0.73-0.01,0.07
					c0.84-5.15,3.99-9.09,6.39-13.58c1.29-2.41,2.36-5.12,2.1-7.91c-0.28-3-1.84-5.38-3.7-7.66c-3.18-3.89-7.25-7.03-11.4-9.8
					c-9.83-6.54-20.79-11.25-31.4-16.34c-5.31-2.55-10.6-5.16-15.7-8.11c-2.33-1.35-4.62-2.78-6.83-4.32
					c-2.04-1.43-3.71-2.74-5.61-4.51c-0.8-0.75-1.57-1.53-2.3-2.34c-0.38-0.42-0.75-0.86-1.11-1.3c-0.28-0.35,0.07,0.1-0.2-0.25
					c-0.19-0.25-0.38-0.51-0.56-0.77c-0.78-1.1-2.18-1.62-3.42-0.9C227.59,275.63,227,277.3,227.78,278.41L227.78,278.41z"/>
			</g>
		</g>
		<path class="st10" d="M307.36,158.96c2.55,10.71-5.69,16.03-13.16,16.03s-16.52-4.49-16.52-12.77s6.06-14.98,13.52-14.98
			S305.56,151.38,307.36,158.96z"/>
		<g>
			<g>
				<path class="st4" d="M295.95,218.09c0.78,2.38,2.3,4.28,4.55,5.41c1.97,0.99,4.28,1.81,6.45,2.21c3.08,0.57,6.23,0.68,9.13-0.68
					c2.38-1.11,4.42-3.4,4.82-6.05c0.2-1.33-0.33-2.69-1.75-3.08c-1.18-0.32-2.87,0.4-3.08,1.75c-0.23,1.5-1.07,2.47-2.5,3.05
					c-1.79,0.72-4.1,0.46-6.04,0.04c-0.87-0.19-1.7-0.51-2.54-0.8c-0.34-0.12-0.69-0.24-1.03-0.36c-0.19-0.07-0.38-0.14-0.56-0.21
					c-0.25-0.1,0.22,0.12-0.17-0.08c-0.76-0.39-1.09-0.55-1.48-0.91c-0.59-0.56-0.74-0.83-0.99-1.61c-0.42-1.28-1.73-2.12-3.08-1.75
					C296.44,215.36,295.53,216.8,295.95,218.09L295.95,218.09z"/>
			</g>
		</g>
		<g>
			<g>
				<path class="st4" d="M295.78,143.8c-3.81-0.01-7.76,0.95-11.21,2.51c-5.77,2.61-9.42,7.99-9.1,14.41
					c0.12,2.37,0.52,4.92,1.66,7.02c1.37,2.52,3.67,4.72,6.16,6.11c2.81,1.58,5.33-2.74,2.52-4.32c-1.69-0.95-3.2-2.34-4.19-4.01
					c-0.84-1.41-1.06-3.24-1.15-4.67c-0.04-0.71-0.02-1.42,0.02-2.13c0.01-0.11,0.07-0.65,0.01-0.2c0.02-0.16,0.05-0.32,0.08-0.47
					c0.07-0.34,0.14-0.68,0.24-1.02c0.08-0.29,0.18-0.57,0.28-0.85c0.04-0.12,0.25-0.56,0.04-0.11c0.06-0.13,0.12-0.26,0.18-0.39
					c0.29-0.56,0.61-1.09,0.98-1.6c-0.31,0.43,0.15-0.17,0.25-0.28c0.18-0.2,0.36-0.4,0.55-0.58c0.19-0.19,0.39-0.37,0.59-0.54
					c0.1-0.09,0.2-0.17,0.3-0.26c0.51-0.43-0.42,0.29,0.12-0.09c0.91-0.65,1.87-1.19,2.89-1.67c0.12-0.05,0.24-0.11,0.35-0.16
					c-0.07,0.03-0.49,0.2-0.07,0.03c0.24-0.09,0.47-0.18,0.71-0.27c0.52-0.19,1.05-0.36,1.58-0.51c0.92-0.26,1.86-0.47,2.8-0.64
					c0.25-0.04,0.49-0.08,0.74-0.12c0.67-0.11-0.5,0.05,0.16-0.02c0.35-0.04,0.71-0.08,1.06-0.11c0.48-0.04,0.95-0.07,1.43-0.07
					C299,148.81,299,143.81,295.78,143.8L295.78,143.8z"/>
			</g>
		</g>
		<g>
			<g>
				<path class="st4" d="M339.82,153.32c-3.46-0.38-7.04-0.13-10.2,1.42c-3.31,1.63-5.46,4.88-6.29,8.41
					c-0.64,2.73-0.66,5.56-0.4,8.34c0.13,1.3,1.06,2.56,2.5,2.5c1.25-0.06,2.63-1.11,2.5-2.5c-0.12-1.2-0.18-2.39-0.16-3.6
					c0.01-0.51,0.03-1.03,0.08-1.54c0.02-0.24,0.05-0.48,0.07-0.72c-0.05,0.55,0.02-0.11,0.06-0.32c0.15-0.83,0.36-1.65,0.65-2.44
					c0,0.01,0.1-0.31,0.12-0.31c0,0-0.26,0.57-0.06,0.15c0.07-0.14,0.13-0.29,0.21-0.43c0.17-0.34,0.37-0.67,0.58-0.99
					c0.08-0.12,0.18-0.34,0.3-0.42c-0.02,0.01-0.4,0.48-0.12,0.16c0.05-0.05,0.09-0.11,0.14-0.16c0.23-0.27,0.48-0.52,0.74-0.76
					c0.12-0.11,0.25-0.21,0.37-0.32c0.17-0.17-0.22,0.18-0.23,0.18c0.02,0,0.19-0.14,0.22-0.16c0.29-0.19,0.58-0.38,0.88-0.55
					c0.14-0.08,0.29-0.15,0.43-0.22c0.09-0.04,0.62-0.29,0.21-0.1c-0.41,0.18,0.14-0.05,0.23-0.08c0.18-0.06,0.36-0.12,0.54-0.18
					c0.17-0.05,1.99-0.45,1.99-0.43c0,0.06-0.6,0.06-0.22,0.03c0.1-0.01,0.2-0.02,0.3-0.03c0.23-0.02,0.46-0.04,0.68-0.05
					c0.41-0.02,0.83-0.03,1.24-0.03c0.89,0.01,1.77,0.07,2.65,0.17c1.3,0.14,2.56-1.25,2.5-2.5
					C342.25,154.34,341.22,153.47,339.82,153.32L339.82,153.32z"/>
			</g>
		</g>
		<g>
			<g>
				<path class="st4" d="M281.39,153.18c3.22,0,3.22-5,0-5C278.17,148.18,278.17,153.18,281.39,153.18L281.39,153.18z"/>
			</g>
		</g>
		<g>
			<g>
				<path class="st4" d="M305.98,199.93c0,0,0.01,0,0.01,0c-0.38-0.5-0.77-1-1.15-1.49c0,0.01,0,0.01,0,0.02c0-0.44,0-0.89,0-1.33
					c-0.07,0.39,0.37-0.74,0.05-0.12c-0.13,0.25-0.26,0.49-0.39,0.74c-0.25,0.48-0.52,0.95-0.75,1.44c-0.48,1-0.73,1.91-0.16,2.98
					c0.44,0.82,1.34,1.09,2.13,1.44c0.53,0.24,1.07,0.47,1.6,0.71c2.27,1,4.66,2.15,7.21,1.98c2.38-0.16,4.43-1.23,6.38-2.53
					c1.09-0.72,1.66-2.24,0.9-3.42c-0.7-1.08-2.26-1.67-3.42-0.9c-0.86,0.57-1.74,1.16-2.69,1.56c0.49-0.21-0.37,0.11-0.46,0.13
					c-0.22,0.06-0.44,0.11-0.67,0.15c0.53-0.1-0.42,0.01-0.54,0.01c-0.17,0-0.34-0.01-0.51-0.03c0.2,0.03,0.22,0.04,0.04,0.01
					c-0.58-0.12-1.15-0.26-1.71-0.46c-0.28-0.1-0.55-0.2-0.83-0.31c0.38,0.15-0.36-0.16-0.44-0.19c-1.19-0.52-2.37-1.05-3.56-1.57
					c0.3,0.3,0.6,0.6,0.9,0.9c0,0-0.01-0.01-0.01-0.01c0.11,0.42,0.23,0.84,0.34,1.26c0.02,0.42-0.15,0.82-0.05,0.51
					c0.01-0.02-0.32,0.67-0.16,0.39c0.1-0.17,0.17-0.36,0.26-0.53c0.21-0.41,0.43-0.81,0.65-1.22c0.24-0.46,0.49-0.92,0.66-1.41
					c0.37-1.04-0.04-2.52-1.1-3.01c-1.19-0.54-2.75-0.38-3.42,0.9C304.5,197.61,304.71,199.35,305.98,199.93L305.98,199.93z"/>
			</g>
		</g>
		<g>
			<g>
				<path class="st4" d="M304.8,203.83c3.22,0,3.22-5,0-5C301.58,198.83,301.58,203.83,304.8,203.83L304.8,203.83z"/>
			</g>
		</g>
		<path class="st11" d="M303.84,163.57c0.17,2.24-2.33,7.83-8.77,8.2c-8.2,0.47-13.13-4.31-13.3-6.55
			c-0.17-2.24,4.54-1.15,10.97-1.64C299.18,163.09,303.67,161.33,303.84,163.57z"/>
		
			<ellipse transform="matrix(0.3404 -0.9403 0.9403 0.3404 61.2158 422.6726)" class="st12" cx="331.86" cy="167.71" rx="7.19" ry="4.96"/>
		<g>
			<g>
				<path class="st12" d="M306.35,162.46c-0.21-3.57-1.26-6.48-3.43-9.28c-0.26-0.33,0.23,0.33-0.16-0.22
					c-0.14-0.19-0.28-0.38-0.41-0.58c-0.49-0.75-0.93-1.51-1.57-2.15c-1.33-1.33-3.15-2.2-4.99-2.49c-4.43-0.7-8.44,1.38-11.55,4.4
					c-3.07,2.98-5.97,7.25-4.59,11.73c2.42,7.87,14.07,12.93,19.83,5.5c2.84-3.66,1.77-8.41-0.84-11.86
					c-1.43-1.89-3.59-4.63-6.26-3.26c-0.88,0.45-1.46,1.17-2.06,1.92c-0.73,0.92-1.42,1.85-1.91,2.93
					c-0.96,2.16-1.04,4.71,0.37,6.71c1.3,1.84,3.56,2.64,5.73,1.99c1.62-0.48,2.9-1.69,4.11-2.81c0.27-0.25,0.53-0.49,0.8-0.73
					c-0.03,0.03,0.56-0.47,0.29-0.25c-0.22,0.17,0.25-0.18,0.3-0.21c0.12-0.08,0.26-0.14,0.37-0.23c0.47-0.34-0.36,0.09,0.17-0.08
					c0.13-0.04,0.27-0.08,0.4-0.1c-0.55,0.08,0.28,0.12-0.29,0.02c1.83,0.31,3.6-1.1,3.08-3.08c-0.66-2.49-1.67-4.9-2.97-7.13
					c-1.62-2.78-5.95-0.26-4.32,2.52c1.1,1.88,1.91,3.83,2.47,5.93c1.03-1.03,2.05-2.05,3.08-3.08c-1.84-0.31-3.47,0.11-4.97,1.22
					c-0.72,0.53-1.38,1.12-2.03,1.72c-0.26,0.24-0.53,0.49-0.8,0.73c-0.15,0.13-0.29,0.26-0.45,0.38c0.28-0.21,0.02-0.01-0.13,0.07
					c-0.17,0.1-0.93,0.45-0.43,0.26c-0.11,0.04-0.27,0.1-0.39,0.1c0.86-0.03-0.28-0.08,0.19-0.02c0.2,0.04,0.17,0.03-0.08-0.03
					c0.03,0.02,0.07,0.03,0.1,0.05c0.04-0.02,0.07,0.13-0.12-0.09c0.23,0.27-0.15-0.27-0.07-0.1c0.05,0.12-0.13-0.4-0.14-0.49
					c0.04,0.25,0-0.11,0-0.18c-0.01-0.72-0.07,0.13,0.03-0.35c0.1-0.44,0.27-0.81,0.5-1.2c0.41-0.69,1.16-1.87,1.69-2.11
					c-0.42,0.11-0.84,0.23-1.26,0.34c-0.65,0.08-0.87-0.51-0.26,0.12c0.21,0.22,0.42,0.44,0.62,0.67c0.27,0.3,0.52,0.61,0.75,0.94
					c0.63,0.89,1.2,1.88,1.39,2.97c0.12,0.68,0.03,1.54-0.17,2.01c-0.29,0.68-0.83,1.23-1.37,1.58c-1.38,0.91-2.83,1.1-4.5,0.61
					c-1.78-0.53-3.34-1.8-4.49-3.23c-1.2-1.51-1.69-3.12-0.87-4.93c0.88-1.96,2.57-3.71,4.24-5.03c1.37-1.08,3.15-1.99,4.76-2.03
					c1.48-0.04,3.08,0.47,3.86,1.62c0.36,0.53,0.67,1.07,1.06,1.58c0.18,0.24,0.37,0.48,0.56,0.72c0.11,0.14-0.26-0.36,0.07,0.09
					c0.22,0.3,0.43,0.59,0.63,0.9c0.2,0.31,0.38,0.63,0.54,0.95c0.07,0.14,0.14,0.28,0.2,0.43c-0.17-0.4,0.12,0.36,0.12,0.36
					c0.35,1.06,0.51,2.13,0.57,3.24c0.08,1.35,1.09,2.5,2.5,2.5C305.14,164.96,306.43,163.81,306.35,162.46L306.35,162.46z"/>
			</g>
		</g>
		<g>
			<g>
				<path class="st12" d="M336.09,169.99c3.22,0,3.22-5,0-5C332.87,164.99,332.87,169.99,336.09,169.99L336.09,169.99z"/>
			</g>
		</g>
		<path d="M294.6,161.15c0,3.5-2.48,6.4-5.98,6.4c-3.5,0-7.23-1.71-8.21-6.87c-0.65-3.44,6.35-5.87,9.85-5.87
			C293.76,154.82,294.6,157.66,294.6,161.15z"/>
		<path d="M335.17,168.13c0,2.28-1.84,3.12-4.12,3.12s-4.53-2.17-4.12-4.41c1.19-6.43,1.84-2.83,4.12-2.83
			S335.17,165.86,335.17,168.13z"/>
		<g>
			<g>
				<path d="M345.6,154.36c-1.62-0.03-3.24-0.11-4.85-0.27c-0.41-0.04-0.82-0.08-1.23-0.13c-0.19-0.02-0.38-0.04-0.57-0.07
					c-0.06-0.01-0.13-0.02-0.19-0.02c-0.28-0.04-0.25-0.03,0.1,0.01c-0.31-0.14-0.79-0.11-1.13-0.17c-0.44-0.07-0.87-0.14-1.31-0.22
					c-0.68-0.12-1.31-0.11-1.93,0.25c-0.52,0.3-1.01,0.9-1.15,1.49c-0.28,1.22,0.37,2.83,1.75,3.08c3.47,0.61,6.98,0.98,10.5,1.04
					c1.31,0.02,2.56-1.17,2.5-2.5C348.03,155.48,347,154.38,345.6,154.36L345.6,154.36z"/>
			</g>
		</g>
		<path d="M333.61,158.11c0,0-0.79-4.42-4.66,0.89c-1.62,2.22-2.01,7.84-2.01,7.84s5.09-0.46,7.24-3.43
			C336.34,160.45,333.61,158.11,333.61,158.11z"/>
		<path class="st6" d="M267.47,147.24c0,0,21.1,6.67,25.86,6.44c4.76-0.23,15.09-3.74,15.09-3.74l-7.07-7.76l-23.67,3.31"/>
		<path class="st6" d="M284.35,175.88c4.79,1.77,9.14,1.23,13.93-0.28s4.83-4.76,4.83-4.76h-43.73"/>
		<path class="st6" d="M322.3,173.92c3.03,1.77,12.53,1.25,15.79,0.35c3.85-1.06,3.37-4.04,3.37-4.04l-27.78-0.72L322.3,173.92z"/>
		<circle class="st13" cx="304.66" cy="244.54" r="3.17"/>
		<path class="st4" d="M290.37,210.25c0,0,4.49,3.69,7.99,4.17c3.5,0.48,3.8,3.47,3.8,3.47s3.46,6.08-4.34,1.66
			C290.02,215.13,290.37,210.25,290.37,210.25z"/>
		<path class="st4" d="M325.25,213.4c0,0-3.11,1.3-6.61,1.78c-3.5,0.48-3.8,3.47-3.8,3.47s-3.46,6.08,4.34,1.66
			C326.98,215.88,325.25,213.4,325.25,213.4z"/>
		<path class="st14" d="M296.69,214.01c0,0,6.42,0.22,11.79,0.01c4.21-0.16,10.15,1.16,10.15,1.16s-0.9,5.91-9.58,4.33
			C300.37,217.93,296.69,214.01,296.69,214.01z"/>
		<path class="st4" d="M316.83,218.19c0,0-4.25-0.26-9.63-0.47c-4.21-0.16-6.24-0.83-6.24-0.83s2.89,6.85,10.09,6.54
			C321.44,222.97,316.83,218.19,316.83,218.19z"/>
		<path class="st14" d="M315.85,220.49c0,0-4.25-0.19-9.63-0.35c-4.21-0.12-6.24-0.63-6.24-0.63s2.89,5.16,10.09,4.92
			C320.46,224.09,315.85,220.49,315.85,220.49z"/>
		<g>
			<g>
				<path class="st4" d="M403.92,303.19c1.84,1.15,3.88-0.46,3.88-2.41c0-0.76-0.23-1.59-0.41-2.33c-0.6-2.49-1.35-4.95-2.09-7.41
					c-2.21-7.33-4.56-14.62-6.93-21.9c-1.68-5.17-3.38-10.34-5.09-15.5c-0.24-0.73-0.46-1.3-1.03-1.91
					c-0.32-0.34-0.66-0.66-0.97-1.01c-0.16-0.18-0.31-0.36-0.46-0.55c-0.5-0.61,0.27,0.38-0.2-0.26c-0.65-0.89-1.23-1.83-1.76-2.8
					c-2.18-4.01-3.5-8.53-4.72-13.11c-1.42-5.32-2.54-10.72-4.1-16c-1.19-4.01-2.61-8.58-5.75-11.53c-2.34-2.21-5.88,1.32-3.54,3.54
					c0.19,0.18,0.37,0.36,0.54,0.55c0.11,0.12,0.61,0.78,0.24,0.26c0.35,0.48,0.66,0.97,0.95,1.48c0.32,0.56,0.6,1.15,0.87,1.73
					c0.06,0.14,0.12,0.28,0.18,0.42c-0.17-0.4-0.01-0.03,0.02,0.05c0.15,0.37,0.3,0.75,0.44,1.12c1.15,3.11,1.98,6.33,2.78,9.54
					c1.79,7.17,3.32,14.45,6.24,21.27c1.41,3.29,3.22,6.52,5.86,8.98c-0.21-0.37-0.43-0.74-0.64-1.1
					c1.72,5.15,3.41,10.32,5.09,15.48c2.74,8.42,5.49,16.85,7.97,25.35c0.43,1.48,0.86,2.97,1.23,4.47c0.11,0.45,0.19,0.9,0.29,1.35
					c0.13,0.54-0.01-0.76-0.03-0.18c-0.01,0.19-0.08,0.16,0.04-0.19c0.11-0.33,0.07-0.4,0.04-0.29c0.19-0.85,0.83-1.19,1.91-1
					c1.61,0.01,2.16-0.14,1.66-0.45C403.71,297.17,401.19,301.49,403.92,303.19L403.92,303.19z"/>
			</g>
		</g>
		<g>
			<g>
				<path class="st12" d="M334.88,164.19c0.13,0.09,0.5,0.53,0.26,0.2c-0.03-0.03-0.21-0.32-0.04-0.05
					c0.17,0.28-0.02-0.07-0.05-0.16c-0.13-0.42-0.24-0.85-0.37-1.28c-0.36-1.12-0.91-2.2-1.84-2.96c-2.13-1.73-4.87-1.88-7.34-0.8
					c-2.08,0.9-4.1,2.85-5.14,4.87c-0.69,1.35-0.99,2.82-0.67,4.32c0.27,1.27,1.04,2.39,1.89,3.34c1.55,1.73,3.98,3.05,6.36,2.84
					c2.51-0.22,4.86-1.75,5.6-4.25c0.79-2.67-0.66-5.39-2.51-7.24c-1.33-1.33-3.26-1.6-4.67-0.2c-0.89,0.88-1.72,2.11-2.07,3.32
					c-0.89,3.07,1.71,6.48,5.01,5.49c1.04-0.31,1.87-1.03,2.66-1.75c0.14-0.13,0.29-0.26,0.43-0.39c0.41-0.38-0.28,0.15,0.05-0.06
					c0.08-0.05,0.18-0.11,0.26-0.16c0.27-0.19-0.09,0.04-0.2,0.07c0.13-0.04,0.26-0.01-0.06-0.02c-0.22,0.02-0.26,0.03-0.12,0.02
					c0.2,0,0.1-0.02-0.3-0.06c0.91,0.15,1.75,0.04,2.43-0.64c0.63-0.63,0.88-1.57,0.64-2.43c-0.4-1.45-0.99-2.85-1.76-4.15
					c-0.94,1.22-1.88,2.45-2.82,3.67c0.09,0.02,0.56,0.23,0.29,0.07c-0.35-0.21,0.31,0.19-0.02,0c-0.25-0.15,0.22,0.19,0.24,0.21
					c0.11,0.1,0.21,0.2,0.31,0.3c0.54,0.54,1.07,1.1,1.73,1.52c1.4,0.88,3.34,1.17,4.83,0.34c1.83-1.02,2.36-3.4,1.3-5.16
					c-1.23-2.04-4.23-2.26-5.82-0.53c-0.89,0.96-1.02,2.6,0,3.54c0.96,0.88,2.59,1.03,3.54,0c-0.55,0.6-1.6,0.15-1.98-0.4
					c-0.39-0.56-0.09-1.41,0.44-1.75c0.12-0.08,0.77-0.21,0.56-0.18c-0.49,0.06,0.08-0.01,0.06,0.02c-0.03,0.04-0.61-0.24-0.22-0.05
					c0.35,0.17-0.17-0.12-0.18-0.13c0.18,0.08,0.31,0.27,0.06,0.03c-0.16-0.15-0.31-0.3-0.47-0.46c-0.23-0.23-0.46-0.47-0.7-0.69
					c-0.76-0.69-1.63-1.27-2.64-1.49c-2.08-0.45-3.98,1.72-2.82,3.67c0.3,0.52,0.6,1.05,0.83,1.6c-0.15-0.37,0.13,0.37,0.12,0.36
					c0.11,0.33,0.21,0.65,0.3,0.99c1.03-1.03,2.05-2.05,3.08-3.08c-1.22-0.2-2.37-0.07-3.42,0.65c-0.44,0.3-0.85,0.64-1.25,1
					c-0.16,0.15-0.32,0.3-0.49,0.45c-0.06,0.05-0.56,0.51-0.24,0.22c0.34-0.32-0.18,0.18-0.25,0.14c0.38-0.14,0.45-0.17,0.21-0.09
					c-0.2,0.05-0.18,0.05,0.06,0c0.24-0.02,0.26-0.04,0.06-0.03c0.22-0.01,0.44,0.03,0.63,0.14c0.16,0.08,0.29,0.2,0.39,0.36
					c0.1,0.28,0.12,0.33,0.06,0.15c-0.05-0.18-0.05-0.12,0,0.18c0-0.29-0.01-0.26-0.05,0.08c0.03-0.16,0.08-0.32,0.14-0.47
					c-0.07,0.19-0.07,0.21,0.01,0.05c0.05-0.08,0.49-0.72,0.25-0.41c0.1-0.13,0.21-0.26,0.31-0.38c0.3-0.31,0.14-0.23-0.49,0.25
					c-0.44,0-0.89,0-1.33,0c-0.09-0.02-0.74-0.6-0.55-0.28c0.06,0.1,0.19,0.18,0.26,0.27c0.12,0.12,0.23,0.25,0.34,0.38
					c0,0,0.25,0.32,0.12,0.15c-0.13-0.18,0.1,0.16,0.1,0.16c0.07,0.11,0.14,0.21,0.2,0.32c0.08,0.14,0.16,0.29,0.23,0.44
					c0.16,0.36-0.08-0.29,0.02,0.08c0.03,0.12,0.06,0.23,0.09,0.35c-0.02-0.06,0.01-0.36-0.01-0.08c0,0.07-0.03,0.56,0.01,0.26
					c0.04-0.27-0.04,0.12-0.05,0.14c-0.02,0.08-0.17,0.31-0.02,0.07c0.17-0.29-0.04,0.04-0.06,0.05c-0.12,0.11-0.29,0.2,0.03-0.03
					c-0.1,0.07-0.2,0.19-0.29,0.28c0.29-0.29,0.03-0.05-0.16,0.07c-0.04,0.03-0.35,0.16-0.07,0.05c0.3-0.13-0.1,0.02-0.18,0.05
					c-0.1,0.03-0.2,0.04-0.3,0.07c0.03-0.01,0.44-0.02,0.16-0.02c-0.1,0-0.2,0.01-0.3,0.01c-0.08,0-0.63-0.09-0.33-0.02
					c0.23,0.05-0.35-0.12-0.45-0.14c-0.26-0.05,0,0.01,0.06,0.04c-0.14-0.06-0.28-0.14-0.41-0.21c-0.2-0.11-0.4-0.24-0.59-0.37
					c0.34,0.24-0.3-0.28-0.38-0.36c-0.17-0.16-0.32-0.34-0.47-0.51c0.24,0.28-0.1-0.15-0.17-0.26c-0.08-0.13-0.16-0.27-0.23-0.41
					c0.02,0.05,0.11,0.32,0.04,0.05c-0.03-0.11-0.07-0.22-0.09-0.34c0.05,0.28,0,0.11,0.03-0.06c-0.07,0.44,0.09-0.3,0.13-0.42
					c0.1-0.28,0.02-0.02,0,0.02c0.06-0.11,0.12-0.22,0.19-0.33c0.05-0.08,0.49-0.71,0.28-0.44c0.18-0.23,0.38-0.44,0.58-0.65
					c0.2-0.21,0.4-0.4,0.61-0.6c0.08-0.07,0.54-0.44,0.24-0.22c0.19-0.14,0.39-0.28,0.6-0.4c0.14-0.08,0.28-0.16,0.42-0.23
					c0.15-0.08,0.31-0.12,0.06-0.03c0.23-0.08,0.46-0.14,0.69-0.2c0.47-0.11,0.06,0-0.04,0c0.11,0,0.21-0.01,0.32-0.01
					c0.11,0,0.21,0.01,0.32,0.01c-0.05,0-0.41-0.1-0.14-0.02c0.13,0.04,0.27,0.06,0.41,0.1c0.07,0.02,0.44,0.2,0.19,0.06
					c-0.26-0.15,0.04,0.04,0.07,0.06c0.22,0.14,0.14,0.12-0.01-0.03c0.1,0.1,0.19,0.19,0.29,0.29c-0.16-0.15-0.16-0.23-0.03,0
					c0.02,0.04,0.18,0.34,0.05,0.06c-0.14-0.28,0.03,0.11,0.05,0.18c0.09,0.26,0.16,0.53,0.23,0.79c0.42,1.5,1.05,2.64,2.31,3.58
					c1.05,0.78,2.84,0.21,3.42-0.9C336.46,166.3,336,165.02,334.88,164.19L334.88,164.19z"/>
			</g>
		</g>
		<path class="st15" d="M343.6,164.1c0,5.76-2.05,10.43-7.04,10.43s-9.04-4.67-9.04-10.43s4.05-10.43,9.04-10.43
			S343.6,158.34,343.6,164.1z"/>
		<g>
			<g>
				<path class="st12" d="M342.02,173.05c0.15-0.2,0.31-0.37,0.5-0.52c-0.34,0.26-0.67,0.52-1.01,0.78c0.11-0.08,0.22-0.14,0.35-0.2
					c-0.4,0.17-0.8,0.34-1.19,0.5c0.23-0.09,0.46-0.12,0.69-0.18c0.97-0.25,1.9-0.8,2.6-1.52c1.38-1.41,1.59-3.17,1.78-5.03
					c0.15-1.53,0.32-3.06,0.42-4.6c0.12-1.88,0.09-3.71-0.24-5.57c-0.21-1.18-0.79-2.56-1.7-3.39c-0.49-0.45-1-0.78-1.61-1.03
					c-0.65-0.27-1.23-0.35-1.93-0.43c-0.01,0-0.03,0-0.04-0.01c-0.11-0.01-0.22-0.03-0.32-0.04c-1.23-0.13-2.48-0.16-3.71-0.11
					c-2.2,0.08-4.47,0.33-6.58,0.98c-1.11,0.34-2.29,0.74-3.26,1.39c-1.21,0.8-2.05,1.67-2.85,2.87c-1.12,1.66-1.5,3.73-1.66,5.69
					c-0.14,1.68,0.11,3.39,0.4,5.04c0.1,0.61,0.23,1.22,0.41,1.82c0.36,1.22,1.19,2.34,2.3,2.99c1.07,0.63,2.65,0.89,3.85,0.5
					c2.53-0.82,4.29-3.47,3.49-6.15c-0.25-0.83-0.4-1.69-0.52-2.55c0.06,0.44,0.12,0.89,0.18,1.33c-0.15-1.18-0.2-2.37-0.04-3.55
					c-0.06,0.44-0.12,0.89-0.18,1.33c0.09-0.62,0.24-1.22,0.48-1.8c-0.17,0.4-0.34,0.8-0.5,1.19c0.16-0.37,0.36-0.72,0.61-1.04
					c-0.26,0.34-0.52,0.67-0.78,1.01c0.2-0.26,0.43-0.48,0.68-0.69c-0.34,0.26-0.67,0.52-1.01,0.78c0.33-0.25,0.68-0.44,1.06-0.6
					c-0.4,0.17-0.8,0.34-1.19,0.5c1.28-0.52,2.62-0.83,3.98-1.03c-0.44,0.06-0.89,0.12-1.33,0.18c2.15-0.28,4.39-0.34,6.55-0.05
					c-1.44-0.83-2.88-1.65-4.32-2.48c0.08,0.12,0.14,0.24,0.2,0.37c-0.17-0.4-0.34-0.8-0.5-1.19c0.13,0.34,0.2,0.7,0.25,1.06
					c-0.06-0.44-0.12-0.89-0.18-1.33c0.2,1.58,0.09,3.19-0.03,4.77c-0.12,1.55-0.27,3.1-0.44,4.64c0.06-0.44,0.12-0.89,0.18-1.33
					c-0.03,0.16-0.06,0.3-0.11,0.45c0.17-0.4,0.34-0.8,0.5-1.19c-0.03,0.07-0.06,0.13-0.1,0.2c0.26-0.34,0.52-0.67,0.78-1.01
					c-0.03,0.05-0.07,0.09-0.12,0.13c0.34-0.26,0.67-0.52,1.01-0.78c-0.04,0.03-0.09,0.06-0.14,0.08c0.4-0.17,0.8-0.34,1.19-0.5
					c-0.28,0.1-0.57,0.13-0.85,0.23c-1.16,0.41-2.29,1.03-3.06,2.01c-0.85,1.09-1.46,2.09-1.46,3.54c0,1.23,0.54,2.69,1.46,3.54
					c0.95,0.87,2.2,1.52,3.54,1.46C339.71,174.46,341.22,174.07,342.02,173.05L342.02,173.05z"/>
			</g>
		</g>
		<path class="st12" d="M339.57,167.62c0,2.25-3.12,5.6-6.97,5.6c-3.85,0-6.97-1.82-6.97-4.07c0-2.25,3.12-4.07,6.97-4.07
			C336.45,165.09,339.57,165.38,339.57,167.62z"/>
		<path d="M322.06,167.43c0,0-1.39-6.6,3.18-9.77c4.78-3.31,11.58-3.95,11.58-3.95s1.64,16.97-5.41,19.03
			C322.27,175.42,322.06,167.43,322.06,167.43z"/>
		<circle class="st15" cx="325.27" cy="158.78" r="3.09"/>
		<ellipse class="st6" cx="329.64" cy="153.71" rx="7.84" ry="3.95"/>
		<g>
			<g>
				<path class="st4" d="M313.98,150.26c2.34,4.09,8.68,3.86,12.71,3.88c5.49,0.04,11.36-0.5,16.58,0.69
					c3.13,0.72,4.47-4.1,1.33-4.82c-5.32-1.22-10.87-0.9-16.28-0.87c-1.27,0.01-2.54,0-3.81-0.04c-0.58-0.02-1.17-0.05-1.75-0.09
					c-0.27-0.02-0.55-0.04-0.82-0.07c-0.05-0.01-0.81-0.1-0.37-0.04c-0.89-0.13-1.8-0.31-2.64-0.65c0.67,0.27-0.75-0.51-0.43-0.26
					c0.31,0.24-0.12-0.13-0.18-0.19c-0.07-0.08,0.27,0.43-0.02-0.07C316.7,144.94,312.38,147.46,313.98,150.26L313.98,150.26z"/>
			</g>
		</g>
		<g>
			<path class="st6" d="M318.64,170.85c1.11,2.56,18.06,1.64,24.36,1.17"/>
			<g>
				<path class="st10" d="M316.48,172.11c0.81,1.63,2.93,2.16,4.57,2.43c2.39,0.39,4.82,0.49,7.24,0.52
					c4.9,0.06,9.82-0.18,14.71-0.54c1.35-0.1,2.5-1.08,2.5-2.5c0-1.28-1.15-2.6-2.5-2.5c-4.5,0.34-9.02,0.56-13.54,0.55
					c-2.23,0-4.45-0.07-6.67-0.3c-0.63-0.06,0.35,0.06-0.2-0.02c-0.23-0.04-0.46-0.07-0.69-0.12c-0.37-0.07-0.74-0.16-1.1-0.26
					c-0.14-0.04-0.28-0.11-0.42-0.14c0.61,0.16,0.33,0.17,0.13,0.04c-0.41-0.26,0.44,0.63,0.29,0.32c-0.6-1.21-2.31-1.55-3.42-0.9
					C316.14,169.41,315.87,170.9,316.48,172.11L316.48,172.11z"/>
			</g>
		</g>
		<g>
			<g>
				<path class="st4" d="M255.18,225.57c3.76,6.32,9.69,11.37,15.44,15.83c5.78,4.48,11.89,8.66,18.4,12.01
					c1.95,1,4.04,2.11,6.21,2.57c1.08,0.23,2.09,0.25,3.09-0.25c2.15-1.06,4.15-1.8,6.58-1.82c3.79-0.03,7.47,1.23,10.71-1.39
					c2.85-2.29,5.1-5.39,7.25-8.31c2.32-3.15,4.5-6.41,6.46-9.79c2.32-4,4.12-8.33,5.99-12.55c3.67-8.26,7.14-16.64,9.97-25.22
					c0.83-2.51,1.61-5.04,2.22-7.62c0.19-0.8,0.36-1.61,0.49-2.42c0.16-1.03,0.04-1.83-0.12-2.83c-0.05-0.28-0.09-0.55-0.13-0.83
					c-0.06-0.42,0.07,0.64-0.01-0.12c-0.02-0.16-0.04-0.33-0.06-0.49c-0.1-0.95-0.17-1.91-0.2-2.87c-0.05-1.99,0.04-4,0.56-5.93
					c0.39-1.45,1.2-2.69,1.66-4.11c0.42-1.3,0.6-2.69,0.74-4.05c0.69-6.68-0.37-13.62-1.39-20.21c-0.78-5.04-1.73-10.05-2.85-15.02
					c-0.06-0.28-0.12-0.55-0.19-0.83c-0.74-3.13-5.56-1.81-4.82,1.33c0.82,3.5,1.51,7.03,2.15,10.56
					c1.18,6.57,2.15,12.69,2.26,19.46c0.02,1.39,0,2.79-0.12,4.18c-0.03,0.35-0.07,0.69-0.11,1.04c0.07-0.55-0.02,0.1-0.05,0.31
					c-0.1,0.59-0.23,1.17-0.4,1.74c-0.06,0.2-0.15,0.4-0.21,0.61c-0.13,0.5,0.2-0.4,0.05-0.11c-0.06,0.11-0.1,0.22-0.16,0.32
					c-0.51,0.95-0.94,1.94-1.25,2.97c-0.63,2.07-0.86,4.3-0.89,6.46c-0.02,1.82,0.12,3.64,0.36,5.44c0.08,0.62,0.17,1.24,0.28,1.85
					c0.06,0.34,0.08,1.23,0.02,0.08c0.01,0.22,0.13-0.73,0.01-0.11c-0.03,0.17-0.06,0.34-0.09,0.51c-0.08,0.44-0.17,0.88-0.27,1.31
					c-0.23,1-0.49,2-0.77,2.99c-1.95,6.95-4.56,13.72-7.3,20.38c-1.98,4.84-4.1,9.62-6.29,14.36c-1.6,3.47-3.27,6.78-5.32,10
					c-2.08,3.27-4.28,6.49-6.73,9.49c-1.06,1.3-2.17,2.58-3.41,3.73c-0.24,0.22-0.49,0.44-0.74,0.65c-0.1,0.08-0.39,0.25,0.04-0.03
					c-0.12,0.08-0.24,0.17-0.37,0.24c-0.61,0.3,0.3-0.07-0.1,0.05c-0.18,0.05-0.35,0.1-0.53,0.13c0.51-0.11-0.53,0.02-0.72,0.02
					c-1.78,0-3.54-0.34-5.32-0.36c-2.53-0.02-4.99,0.46-7.31,1.45c-0.62,0.27-1.3,0.52-1.86,0.9c-0.65,0.44,0.67-0.17,0.14-0.05
					c0.8-0.18,0.61-0.06,0.29-0.07c-0.36-0.01,0.76,0.2,0.09,0.01c-0.78-0.22-1.53-0.46-2.29-0.76c-0.52-0.21,0.39,0.17,0.05,0.02
					c-0.14-0.06-0.27-0.12-0.41-0.18c-0.23-0.1-0.46-0.21-0.69-0.32c-0.63-0.3-1.26-0.61-1.87-0.93c-1.3-0.67-2.58-1.39-3.84-2.13
					c-3.14-1.84-6.2-3.83-9.17-5.93c-5.97-4.22-11.88-8.92-16.55-14.62c-0.68-0.83-1.56-2.04-2.29-3.27
					C257.85,220.29,253.53,222.8,255.18,225.57L255.18,225.57z"/>
			</g>
		</g>
		<g>
			<g>
				<path class="st12" d="M287.53,156.08c3.48-0.82,6.37-1.28,10.05-0.97c0.64,0.05-0.54-0.11,0.07,0.01
					c0.12,0.02,0.24,0.04,0.35,0.06c0.31,0.06,0.62,0.12,0.92,0.2c0.26,0.07,0.52,0.14,0.77,0.23c0.12,0.04,0.24,0.09,0.36,0.13
					c0.49,0.15-0.46-0.24-0.05-0.02c0.44,0.23,0.85,0.47,1.27,0.72c0.44,0.26-0.41-0.4,0.11,0.09c0.17,0.16,0.34,0.31,0.5,0.48
					c0.08,0.09,0.16,0.19,0.24,0.28c0.31,0.31-0.25-0.44-0.13-0.17c0.08,0.17,0.23,0.34,0.33,0.5c0.1,0.17,0.18,0.35,0.28,0.53
					c0.19,0.35,0.06-0.1-0.08-0.21c0.06,0.05,0.1,0.26,0.12,0.34c0.12,0.42,0.22,0.82,0.31,1.25c0.11,0.51-0.03-0.65,0,0.08
					c0.01,0.23,0.03,0.47,0.03,0.7c0,0.46-0.09,0.93-0.08,1.39c0.01,0.33,0.12-0.68,0.03-0.19c-0.02,0.11-0.04,0.23-0.06,0.34
					c-0.05,0.28-0.1,0.55-0.17,0.82c-0.11,0.47-0.24,0.93-0.39,1.38c-0.08,0.23-0.16,0.46-0.24,0.69c-0.04,0.12-0.09,0.23-0.13,0.35
					c-0.03,0.07-0.28,0.67-0.1,0.25c0.18-0.41-0.03,0.06-0.05,0.11c-0.06,0.14-0.13,0.27-0.19,0.41c-0.13,0.27-0.27,0.55-0.41,0.82
					c-0.29,0.54-0.59,1.07-0.92,1.59c-0.33,0.52-0.68,1.02-1.04,1.52c-0.06,0.08-0.12,0.16-0.18,0.24c0.46-0.61,0.02-0.03-0.08,0.09
					c-0.19,0.23-0.39,0.46-0.59,0.69c-0.89,1.01-1,2.54,0,3.54c0.91,0.91,2.64,1.02,3.54,0c3.27-3.71,5.86-8.5,6.06-13.53
					c0.09-2.22-0.44-4.57-1.77-6.39c-1.61-2.2-4.05-3.52-6.7-4.05c-4.41-0.86-8.99-0.15-13.31,0.87c-1.31,0.31-2.09,1.81-1.75,3.08
					C284.82,155.68,286.21,156.4,287.53,156.08L287.53,156.08z"/>
			</g>
		</g>
		<path class="st6" d="M228.55,213.4c0,0-1.02,7.37,0,25.62s1.4,38.14,1.4,38.14s-53.99,31.52-47.33,11.62
			c6.66-19.9,30.16-36.55,29.53-49.45c-2.78-57.38,2.21-51.01,2.21-51.01L228.55,213.4z"/>
		<g>
			<g>
				<path class="st4" d="M226.39,96.82c-4.86,7.16-6.89,15.97-8.08,24.41c-1.34,9.48-1.67,19.06-2.07,28.62
					c-0.33,7.95-0.4,15.89-2.39,23.35c-1.48,5.56-4.05,10.77-5.69,16.28c-1.71,5.73-2.28,11.77-1.74,17.73
					c0.96,10.59,4.86,20.91,3.28,31.66c0.05-0.33-0.02,0.14-0.04,0.21c-0.03,0.15-0.07,0.3-0.11,0.45c-0.1,0.38-0.22,0.74-0.36,1.11
					c-0.07,0.19-0.15,0.37-0.22,0.55c-0.09,0.25,0.26-0.56-0.05,0.1c-0.21,0.44-0.41,0.88-0.63,1.32c-1.08,2.14-2.33,4.2-3.6,6.24
					c-6.66,10.6-14.36,20.53-20.83,31.25c-2.24,3.72-4.93,7.91-5.51,12.3c-0.23,1.71,0.04,3.51,1.37,4.73
					c1.56,1.44,3.75,1.37,5.71,1.01c1.04-0.19,2.06-0.52,3.05-0.88c1.27-0.46,2.12-1.7,1.75-3.08c-0.34-1.22-1.8-2.21-3.08-1.75
					c-1.02,0.37-2.05,0.67-3.11,0.9c-0.5,0.11-0.24,0.01,0.01,0.01c-0.18,0.01-0.36,0.03-0.54,0.04c-0.15,0-0.29-0.01-0.44,0
					c-0.71,0.02,0.54,0.02,0.06,0.01c-0.11,0-0.27-0.12-0.37-0.1c-0.11,0.01,0.64,0.33,0.21,0.07c-0.4-0.25,0.53,0.48,0.19,0.15
					c-0.38-0.38,0.3,0.44,0.14,0.21c-0.42-0.61,0.12,0.56-0.04-0.08c-0.14-0.56-0.03,0.46,0.01,0.22c0.03-0.14-0.02-0.35-0.02-0.49
					c0-0.13,0.03-0.27,0.02-0.4c-0.03-0.45-0.16,0.72-0.01,0.09c0.09-0.37,0.16-0.75,0.26-1.11c0.11-0.4,0.25-0.79,0.39-1.18
					c0.08-0.21,0.16-0.42,0.24-0.63c0.23-0.59-0.19,0.39,0.08-0.19c0.99-2.16,2.11-4.24,3.31-6.28
					c6.26-10.61,13.81-20.39,20.47-30.74c2.35-3.65,5.01-7.55,6.26-11.76c0.45-1.51,0.52-3.14,0.63-4.7
					c0.19-2.78,0.13-5.57-0.14-8.35c-0.5-5.1-1.64-10.09-2.55-15.12c-0.91-5.08-1.34-10.22-0.72-15.36
					c0.73-6.11,3.2-11.78,5.31-17.51c1.39-3.77,2.43-7.51,3-11.49c0.57-4.03,0.88-8.08,1.1-12.14c0.51-9.22,0.64-18.45,1.49-27.65
					c0.76-8.27,2.06-17.17,5.51-24.59c0.79-1.7,1.71-3.34,2.77-4.9C232.52,96.68,228.19,94.17,226.39,96.82L226.39,96.82z"/>
			</g>
		</g>
		<g>
			<path class="st6" d="M334.22,319.64c-1.46,1.58-5.59-89.21-5.59-89.21c8.75-12.46,4.99-6,8.36-18.79"/>
			<g>
				<path class="st4" d="M332.45,317.87c1.08-1.04,3.13-0.69,3.81,0.46c-0.1-0.17,0.18,0.74,0.19,0.43c0-0.15-0.09-0.36-0.12-0.52
					c-0.06-0.27-0.09-0.55-0.14-0.83c-0.09-0.55,0.08,0.71,0.02,0.12c-0.02-0.2-0.05-0.41-0.08-0.61c-0.26-2.23-0.44-4.47-0.62-6.7
					c-0.56-7.1-0.98-14.21-1.4-21.32c-0.5-8.54-0.95-17.09-1.39-25.63c-0.38-7.32-0.74-14.64-1.09-21.96
					c-0.12-2.42-0.23-4.85-0.34-7.27c-0.05-1.12,0.03-2.35-0.16-3.45c-0.01-0.05,0-0.1-0.01-0.15c-0.11,0.42-0.23,0.84-0.34,1.26
					c1.51-2.15,3.06-4.27,4.55-6.44c0.74-1.07,1.43-2.15,1.88-3.38c0.34-0.92,0.48-1.9,0.66-2.86c0.42-2.26,0.94-4.49,1.52-6.71
					c0.82-3.12-4.01-4.44-4.82-1.33c-0.69,2.62-1.22,5.26-1.74,7.92c-0.11,0.58-0.32,1.13-0.45,1.7c0.01-0.05,0.29-0.56,0.03-0.09
					c-0.07,0.12-0.13,0.25-0.2,0.38c-0.2,0.37-0.43,0.72-0.66,1.07c-0.67,1.02-1.39,2.01-2.1,3c-0.56,0.79-1.12,1.58-1.68,2.37
					c-0.66,0.94-1.61,1.91-1.65,3.11c-0.01,0.31,0.03,0.64,0.04,0.95c0.27,5.91,0.55,11.82,0.84,17.72
					c0.49,9.91,0.99,19.82,1.53,29.73c0.51,9.36,1.04,18.72,1.72,28.07c0.22,3.06,0.45,6.12,0.77,9.17
					c0.17,1.59,0.09,4.08,1.33,5.32c1,1,2.61,0.98,3.62,0C338.31,319.17,334.77,315.64,332.45,317.87L332.45,317.87z"/>
			</g>
		</g>
		<g>
			<g>
				<path class="st4" d="M228.55,275.44c-3.27-0.19-6.84,1.23-9.86,2.3c-5.21,1.85-10.3,4.07-15.3,6.41
					c-11.02,5.15-21.99,10.92-31.86,18.07c-3.79,2.75-8.09,5.85-10.46,10.01c-1.6,2.8,2.72,5.32,4.32,2.52
					c0.17-0.3,0.36-0.6,0.56-0.89c0.11-0.15,0.22-0.31,0.33-0.46c-0.32,0.43-0.13,0.16,0.07-0.08c0.58-0.68,1.19-1.34,1.83-1.96
					c0.74-0.72,1.52-1.41,2.31-2.08c0.43-0.37,0.88-0.72,1.32-1.08c0.12-0.09,0.73-0.57,0.37-0.29c0.24-0.19,0.48-0.37,0.73-0.55
					c4.53-3.4,9.37-6.38,14.28-9.2c5.36-3.08,10.85-5.95,16.43-8.62c2.62-1.26,5.27-2.47,7.93-3.63c2.06-0.89,4.33-1.83,6.76-2.74
					c2.13-0.8,4.29-1.55,6.5-2.14c0.81-0.22,1.63-0.39,2.46-0.55c0.68-0.13-0.37,0.01-0.04,0c0.16-0.01,0.31-0.03,0.47-0.04
					c0.28-0.02,0.56-0.03,0.85-0.01C231.76,280.63,231.75,275.63,228.55,275.44L228.55,275.44z"/>
			</g>
		</g>
		<g>
			<g>
				<path class="st4" d="M300.23,105.64c12.02,7.14,20.4,19.53,23.14,33.18c0.78,3.88,1.02,7.84,0.82,11.79
					c-0.17,3.22,4.83,3.21,5,0c0.8-15.26-5.41-30.61-16.2-41.36c-3.06-3.05-6.52-5.72-10.23-7.93
					C299.98,99.68,297.46,104,300.23,105.64L300.23,105.64z"/>
			</g>
		</g>
		<path d="M277.99,161.71c0,0-1.69-8.42,5.52-11.99c6.05-3,9.56-2.48,9.56-2.48s6.13,21-1.84,23.44
			C277.93,174.74,277.99,161.71,277.99,161.71z"/>
		<circle class="st16" cx="276.7" cy="157.63" r="5.47"/>
		<g>
			<path class="st6" d="M269.52,172.31c32.35-0.79,28.76,3.3,33.59-1.46"/>
			<g>
				<path class="st10" d="M269.52,174.81c8.09-0.19,16.21-0.18,24.28,0.5c2.61,0.22,5.69,0.94,8.15-0.31
					c1.12-0.57,2.04-1.51,2.93-2.38c2.3-2.26-1.24-5.8-3.54-3.54c-0.39,0.39-0.79,0.77-1.2,1.14c-0.09,0.08-0.18,0.15-0.27,0.23
					c-0.32,0.31,0.53-0.31,0.25-0.19c-0.16,0.07-0.35,0.22-0.5,0.32c-0.54,0.37,0.28-0.04,0.1-0.02c-0.15,0.02-0.4,0.09-0.54,0.14
					c-0.19,0.08,0.78-0.03,0.05-0.02c-0.24,0-0.48,0.01-0.73,0.01c-4.16-0.09-8.31-0.69-12.47-0.85c-5.5-0.2-11.01-0.17-16.51-0.04
					C266.31,169.89,266.3,174.89,269.52,174.81L269.52,174.81z"/>
			</g>
		</g>
		<path class="st6" d="M270.85,148.56c0,3.54,5.49,6.42,12.26,6.42c6.77,0,12.26-2.87,12.26-6.42s-5.49-3.42-12.26-3.42
			C276.34,145.15,270.85,145.02,270.85,148.56z"/>
		<g>
			<g>
				<path class="st4" d="M262.26,147.46c0.45,2.14,2.83,3.08,4.72,3.51c2.67,0.61,5.47,0.76,8.2,0.87
					c6.86,0.28,13.73,0.06,20.59,0.25c1.67,0.05,3.35,0.11,5.02,0.25c0.36,0.03,0.71,0.06,1.07,0.1c0.2,0.02,1.17,0.14,0.52,0.05
					c0.63,0.09,1.26,0.2,1.88,0.34c3.13,0.72,4.47-4.1,1.33-4.82c-5.57-1.28-11.59-0.99-17.27-1.01
					c-6.15-0.02-12.42,0.21-18.54-0.57c0.65,0.08-0.3-0.05-0.47-0.08c-0.29-0.05-0.57-0.1-0.85-0.16c-0.49-0.11-0.96-0.26-1.43-0.4
					c-0.61-0.18,0.46,0.23-0.07-0.04c-0.26-0.13-0.59-0.5-0.01,0.06c-0.21-0.2-0.18-0.34-0.1-0.05c0,0,0.28,0.58,0.23,0.37
					C266.42,142.99,261.6,144.32,262.26,147.46L262.26,147.46z"/>
			</g>
		</g>
		<circle class="st16" cx="332.6" cy="185.14" r="9.63"/>
		<g>
			<g>
				<path class="st4" d="M301.58,152.64c0.61,0.24,1.38,1.25,1.68,2.22c0.47,1.5,0.4,3.14,0.24,4.68c-0.31,3.01-1.44,5.98-3.08,8.57
					c-0.72,1.14-0.24,2.76,0.9,3.42c1.2,0.7,2.7,0.25,3.42-0.9c3.95-6.25,7.12-19.22-1.84-22.82c-1.25-0.5-2.75,0.55-3.08,1.75
					C299.44,150.99,300.32,152.14,301.58,152.64L301.58,152.64z"/>
			</g>
		</g>
		<circle class="st16" cx="280.37" cy="185.14" r="13.74"/>
		<g>
			<g>
				<path class="st4" d="M272.18,73.54c-8.92,7.94-17.07,17.26-21.77,28.35c-3.24,7.64-4.66,15.91-3.95,24.2
					c0.55,6.46,2.24,12.66,4.08,18.84c0.38,1.26,0.75,2.52,1.09,3.79c0.15,0.56,0.3,1.11,0.42,1.67c0.06,0.27,0.05,0.98,0.06,0.2
					c-0.01,0.27,0.01,0.56,0.02,0.83c0.03,0.6,0.16-0.51-0.04,0.28c-0.06,0.22-0.11,0.44-0.17,0.66c-0.07,0.24-0.17,0.48-0.26,0.72
					c-0.11,0.32,0.29-0.58,0.06-0.14c-0.09,0.17-0.16,0.35-0.24,0.52c-0.49,1.01-1.06,1.97-1.58,2.96
					c-1.67,3.24-2.44,6.56-1.77,10.18c1.08,5.78,5.37,10.77,9.28,14.89c0-1.18,0-2.36,0-3.54c-3.72,2.93-7.05,6.56-8.58,11.13
					c-1.09,3.25-0.99,6.75-0.14,10.04c0.68,2.66,1.9,5.12,2.85,7.68c0.18,0.49,0.36,0.99,0.49,1.5c0.07,0.25,0.12,0.5,0.18,0.75
					c0.15,0.65,0.05-0.37,0.03,0.28c0,0.19-0.02,0.4,0,0.59c0.04,0.38,0.01-0.16,0.04-0.24c-0.04,0.11-0.04,0.23-0.08,0.34
					c-0.34,0.9-0.71,1.8-1.1,2.69c-3.87,9.02-8.43,17.71-12.85,26.46c-3.84,7.62-7.85,15.35-10.34,23.54
					c-1.79,5.9-3.11,13.85,2.2,18.4c1.02,0.88,2.53,1.01,3.54,0c0.9-0.9,1.03-2.65,0-3.54c-0.22-0.18-0.42-0.37-0.62-0.58
					c-0.06-0.07-0.56-0.64-0.35-0.37c0.2,0.25-0.26-0.38-0.33-0.5c-0.16-0.26-0.29-0.54-0.43-0.81c-0.18-0.35,0.1,0.38-0.09-0.27
					c-0.07-0.24-0.15-0.48-0.22-0.73c-0.07-0.25-0.12-0.51-0.17-0.77c0-0.02-0.09-0.67-0.05-0.26c0.05,0.37-0.02-0.21-0.02-0.28
					c-0.04-0.61-0.06-1.22-0.04-1.84c0.01-0.34,0.03-0.69,0.06-1.03c0.02-0.19,0.14-1.15,0.08-0.76c0.22-1.48,0.56-2.94,0.97-4.38
					c2.16-7.64,5.86-14.83,9.41-21.9c4.27-8.51,8.72-16.94,12.59-25.65c1.4-3.15,3.28-6.2,2.59-9.73c-0.45-2.31-1.61-4.46-2.45-6.65
					c-0.57-1.49-1.07-3.02-1.37-4.6c-0.03-0.16-0.06-0.33-0.08-0.49c-0.07-0.45,0,0.07-0.03-0.2c-0.04-0.42-0.07-0.84-0.08-1.26
					c-0.01-0.43,0-0.86,0.03-1.29c0.01-0.18,0.03-0.35,0.04-0.52c0.03-0.24-0.03,0.14,0.04-0.26c0.83-4.61,4.16-8.08,7.81-10.96
					c1.08-0.85,0.84-2.65,0-3.54c-3.29-3.48-6.78-7.58-7.85-12.03c-0.05-0.2-0.25-1.42-0.18-0.83c-0.04-0.33-0.06-0.67-0.07-1
					c-0.01-0.32,0-0.64,0.02-0.95c0.01-0.18,0.03-0.37,0.05-0.55c-0.07,0.69-0.01,0.09,0.02-0.04c0.13-0.62,0.28-1.22,0.49-1.82
					c0.09-0.26,0.19-0.52,0.3-0.77c-0.28,0.7,0.12-0.25,0.22-0.44c1.01-2.08,2.43-4.07,2.95-6.35c0.6-2.59-0.22-5.06-0.93-7.53
					c-1.64-5.69-3.44-11.33-4.26-17.22c0.07,0.51-0.06-0.51-0.08-0.7c-0.05-0.46-0.1-0.92-0.14-1.39c-0.08-0.87-0.13-1.73-0.17-2.6
					c-0.07-1.81-0.04-3.63,0.09-5.43c0.27-3.65,1.08-7.55,2.39-11.35c4.06-11.78,12.69-21.64,21.93-29.85
					C278.13,74.94,274.58,71.41,272.18,73.54L272.18,73.54z"/>
			</g>
		</g>
		<g>
			<g>
				<path class="st4" d="M277.73,76.66c9.97-3.36,20.43-5.25,30.97-4.51c8.11,0.58,16.23,2.91,23.28,6.89
					c3.46,1.96,6.24,3.96,9.05,6.47c1.38,1.24,2.7,2.55,3.95,3.92c0.57,0.63,1.13,1.27,1.68,1.93c0.75,0.9,0.99,1.22,1.54,1.96
					c2.09,2.83,3.91,5.86,5.42,9.03c0.16,0.34,0.32,0.69,0.48,1.04c0.06,0.14,0.47,1.09,0.29,0.65c0.35,0.83,0.67,1.67,0.97,2.51
					c0.54,1.52,1.01,3.06,1.41,4.63c0.23,0.9,0.43,1.81,0.6,2.73c0.08,0.42,0.15,0.83,0.22,1.25c0.03,0.21,0.06,0.42,0.09,0.62
					c0.09,0.6-0.04-0.39,0.02,0.16c0.2,1.69,0.32,3.4,0.32,5.1c0,0.86-0.03,1.72-0.09,2.58c-0.03,0.39-0.06,0.78-0.1,1.17
					c-0.02,0.19-0.04,0.39-0.07,0.58c-0.06,0.53,0.08-0.48-0.03,0.19c-0.27,1.59-0.6,3.14-1.08,4.68c-0.97,3.08,3.86,4.39,4.82,1.33
					c4.1-13.03-0.15-27.83-7.57-38.83c-9.52-14.13-24.71-23.08-41.54-25.23c-12.11-1.55-24.45,0.45-35.95,4.32
					C273.37,72.86,274.67,77.69,277.73,76.66L277.73,76.66z"/>
			</g>
		</g>
		<g>
			<g>
				<path class="st4" d="M332.45,321.41c0.14,0.13,0.27,0.27,0.4,0.41c-0.33-0.36,0.03,0.06,0.14,0.23
					c0.11,0.18,0.21,0.37,0.31,0.56c0.05,0.1,0.1,0.2,0.14,0.3c-0.11-0.24-0.06-0.16,0.01,0.04c0.39,1.08,0.66,2.19,0.86,3.31
					c0.24,1.28,0.32,2.01,0.47,3.18c0.17,1.35,0.33,2.69,0.53,4.03c0.3,2.02,0.7,4.2,1.98,5.85c1.26,1.64,3.12,2.11,5.08,1.7
					c3.55-0.74,6.9-3.4,9.73-5.52c3.92-2.95,7.67-6.14,11.24-9.5c1.56-1.47,3.09-2.97,4.53-4.56c1.04-1.15,2.06-2.31,2.66-3.74
					c0.47-1.13-0.42-2.54-1.45-2.95c-1.17-0.47-2.45-0.06-3.12,1.02c-1.81,2.89-2.4,6.87-2.61,10.2c-0.18,2.89,0.19,7.89,4.05,8.07
					c2.34,0.11,4.64-1.65,6.41-2.97c2.61-1.96,5.07-4.12,7.43-6.37c1.85-1.77,3.87-3.58,5.33-5.7c-1.52-0.2-3.05-0.4-4.57-0.6
					c0.14,0.72,0.03-0.43,0.02,0.31c0,0.01-0.04,0.84,0.01,0.36c-0.06,0.53-0.22,1.07-0.39,1.58c-0.33,1.02-0.7,1.76-1.21,2.81
					c-0.84,1.73-2,3.69-1.89,5.68c0.12,2.26,2.05,3.84,4.27,3.8c1.53-0.03,2.99-0.79,4.22-1.63c3.06-2.08,5.66-4.81,8.27-7.41
					c1.12-1.11,2.22-2.25,3.43-3.27c0.1-0.08,0.2-0.16,0.29-0.25c0.38-0.36-0.48,0.32-0.07,0.05c0.15-0.1,0.46-0.23,0.56-0.36
					c0.08-0.09,0.9-0.2-0.36,0.14c0.3-0.08,0.19,0.02-0.39,0.02c0.01,0-0.83-0.19-1.01-0.29c-0.51-0.3-0.84-0.73-0.99-1.27
					c0.06,0.23,0.05,0.08-0.05-0.45c0.23,0.28-0.02,1.58-0.03,1.95c-0.02,0.75-0.05,1.49-0.09,2.24c-0.05,0.77-0.12,1.53-0.2,2.29
					c-0.2,1.69-0.19,3.37-0.15,5.07c0.04,1.78,2.13,3.27,3.76,2.16c4.72-3.21,9.44-6.41,14.16-9.62c2.65-1.8,0.15-6.13-2.52-4.32
					c-4.72,3.21-9.44,6.41-14.16,9.62c1.25,0.72,2.51,1.44,3.76,2.16c-0.08-3.36,0.37-6.65,0.45-10c0.05-2.02-0.23-4.55-2.9-4.54
					c-1.43,0-2.64,1.04-3.66,1.91c-2.62,2.25-4.92,4.86-7.45,7.21c-0.66,0.61-1.32,1.2-2.01,1.77c-0.14,0.12-0.28,0.23-0.43,0.34
					c-0.33,0.26,0.46-0.33-0.08,0.06c-0.37,0.27-0.74,0.53-1.13,0.78c-0.25,0.15-0.51,0.29-0.76,0.43
					c-0.16,0.09-0.65,0.24,0.02,0.01c-0.1,0.03-0.32,0.08-0.41,0.14c-0.09,0.07-0.28,0.05-0.39,0.1c0.53-0.22,0.5-0.02,0.18-0.04
					c-0.45-0.03,0.59,0.11,0.28,0.05c-0.56-0.12,0.16,0.24-0.12-0.04c0.29,0.3,0.49,0.39,0.65,0.81c-0.06-0.26-0.05-0.19,0.03,0.22
					c0.01-0.27,0-0.22-0.05,0.16c0.16-0.35,0.21-0.81,0.34-1.18c0.26-0.71-0.21,0.44,0.12-0.29c0.14-0.32,0.29-0.63,0.44-0.95
					c0.24-0.5,0.49-1.01,0.73-1.51c1.22-2.59,2.27-5.24,1.71-8.15c-0.44-2.28-3.45-2.22-4.57-0.6c-0.23,0.33,0.01-0.04,0.15-0.19
					c-0.1,0.1-0.18,0.23-0.28,0.34c-0.26,0.29-0.51,0.58-0.78,0.87c-0.73,0.79-1.49,1.56-2.26,2.32c-1.98,1.96-4.03,3.85-6.17,5.63
					c-0.49,0.4-0.98,0.8-1.48,1.19c0.3-0.23-0.37,0.28-0.45,0.33c-0.27,0.2-0.55,0.4-0.83,0.59c-0.42,0.29-0.85,0.57-1.29,0.83
					c-0.21,0.12-0.42,0.24-0.63,0.36c-0.12,0.06-0.8,0.36-0.43,0.21c0.4-0.15-0.13,0.03-0.22,0.06c-0.42,0.14-0.32,0.01,0.1,0.02
					c-0.57-0.02,0.55,0.15,0.2,0.06c-0.04-0.01,0.66,0.31,0.37,0.16c0.32,0.16,0.36,0.29,0.36,0.29c0.03,0.04,0.06,0.08,0.09,0.12
					c-0.05-0.08-0.09-0.15-0.13-0.23c0.07-0.07,0.09,0.28,0.02,0.06c-0.07-0.24-0.14-0.49-0.2-0.73c-0.11-0.47-0.04-0.16-0.02-0.05
					c-0.02-0.17-0.03-0.34-0.05-0.51c-0.03-0.41-0.04-0.82-0.03-1.23c0.02-1.79,0.24-3.23,0.65-4.97c0.19-0.8,0.41-1.59,0.68-2.36
					c0.05-0.15,0.11-0.3,0.16-0.45c0.11-0.3-0.16,0.31,0.04-0.11c0.13-0.27,0.27-0.54,0.43-0.79c-1.52-0.64-3.05-1.28-4.57-1.93
					c0.43-1.03-0.16,0.07-0.35,0.36c0.49-0.74-0.03,0.03-0.18,0.21c-0.24,0.28-0.48,0.56-0.73,0.84c-1.17,1.3-2.41,2.53-3.67,3.75
					c-3.22,3.11-6.6,6.07-10.13,8.83c-0.58,0.46-1.41,1.08-2.23,1.68c-0.85,0.62-1.71,1.22-2.6,1.79c-0.66,0.43-1.33,0.84-2.02,1.22
					c-0.33,0.19-0.67,0.36-1.01,0.53c-0.16,0.08-0.32,0.15-0.48,0.23c-0.41,0.2,0.51-0.16-0.15,0.06c-0.27,0.09-0.54,0.2-0.82,0.27
					c-0.12,0.03-0.26,0.04-0.37,0.09c-0.43,0.17,0.65-0.07,0.2-0.03c-0.09,0.01-0.22,0.03-0.31,0.01c-0.42-0.08,0.7,0.16,0.19,0.02
					c-0.5-0.13,0.55,0.26,0.09,0.03c0.65,0.33,0.06,0.17-0.03-0.09c0.23,0.6,0.11,0.15,0.03-0.02c-0.07-0.16-0.16-0.31-0.24-0.47
					c0.28,0.58-0.15-0.52-0.21-0.72c-0.28-1-0.45-2.04-0.6-3.07c-0.13-0.86,0.06,0.48-0.05-0.39c-0.05-0.36-0.09-0.72-0.14-1.09
					c-0.08-0.65-0.16-1.29-0.24-1.94c-0.18-1.4-0.37-2.81-0.65-4.2c-0.47-2.29-1.26-4.75-3.02-6.4
					C333.64,315.68,330.09,319.21,332.45,321.41L332.45,321.41z"/>
			</g>
		</g>
		<g>
			<g>
				<path class="st4" d="M357.32,105.64c6.13,4.33,10.6,10.4,12.5,17.63c1.64,6.25,1.39,13.3,0.43,19.53
					c-0.49,3.12-1.14,6.21-1.85,9.29c-0.58,2.51-1.59,5.21-1.65,7.8c-0.04,1.93,0.7,3.75,1.57,5.43c0.4,0.77,0.83,1.52,1.23,2.29
					c0.21,0.4,0.4,0.81,0.6,1.22c0.27,0.55-0.05-0.16,0.07,0.15c0.09,0.23,0.18,0.46,0.26,0.7c0.18,0.51,0.32,1.04,0.43,1.57
					c0.02,0.12,0.04,0.23,0.06,0.35c0.11,0.6-0.04-0.57,0,0.05c0.02,0.28,0.04,0.56,0.05,0.84c0.01,0.29,0,0.59-0.02,0.88
					c-0.01,0.13-0.02,0.27-0.03,0.4c-0.06,0.68,0.11-0.52-0.02,0.17c-0.13,0.72-0.31,1.43-0.54,2.12
					c-1.28,3.78-4.54,7.67-7.49,10.78c-0.85,0.89-1.09,2.68,0,3.54c2.28,1.8,4.49,3.8,6.03,6.29c0.52,0.83,0.95,1.66,1.24,2.49
					c0.32,0.91,0.6,2.11,0.65,2.69c0.07,0.9,0.07,1.79-0.01,2.69c-0.01,0.17-0.03,0.33-0.05,0.5c0.07-0.52-0.06,0.28-0.06,0.31
					c-0.09,0.48-0.19,0.96-0.32,1.43c-0.42,1.62-1.03,3.19-1.66,4.74c-1.09,2.64-2.58,5.58-1.92,8.52c0.37,1.68,1.06,3.28,1.44,4.97
					c0.48,2.13,0.69,3.73,0.85,5.84c0.69,9.11-0.79,18.2-3,27.01c-2.27,9.06-5.42,18.02-9.14,26.52
					c-3.12,7.14-6.55,14.37-11.05,20.77c-0.78,1.11-0.2,2.78,0.9,3.42c1.25,0.73,2.64,0.21,3.42-0.9c4.01-5.7,7.13-12.09,10-18.42
					c4.02-8.87,7.45-18.03,10-27.44c2.51-9.26,4.31-18.96,3.99-28.59c-0.14-4.28-0.7-8.62-2.01-12.71
					c-0.21-0.65-0.44-1.29-0.61-1.95c0.21,0.81,0.09-0.12,0.06-0.36c-0.02-0.12,0.09-0.56-0.04,0.2c0.04-0.22,0.07-0.43,0.12-0.64
					c0.31-1.38,0.89-2.7,1.43-4c1.55-3.74,3.01-7.65,2.67-11.78c-0.52-6.33-4.57-11.33-9.4-15.13c0,1.18,0,2.36,0,3.54
					c4.95-5.22,10.53-12.04,9.39-19.75c-0.31-2.09-1.18-4.03-2.17-5.89c-0.43-0.8-0.88-1.59-1.28-2.4
					c-0.08-0.17-0.16-0.35-0.24-0.52c-0.17-0.34,0.17,0.53-0.02-0.05c-0.13-0.39-0.25-0.78-0.35-1.18c-0.14-0.55,0-0.27-0.02-0.07
					c0.02-0.19-0.01-0.42-0.02-0.62c-0.01-0.24,0.13-0.79-0.03-0.04c0.06-0.29,0.12-0.59,0.19-0.88c0.32-1.39,0.66-2.78,0.99-4.16
					c0.75-3.16,1.45-6.33,1.99-9.54c1.21-7.18,1.67-14.53,0.15-21.69c-1.97-9.24-7.53-16.84-15.18-22.25
					c-1.1-0.78-2.78-0.2-3.42,0.9C355.69,103.47,356.21,104.86,357.32,105.64L357.32,105.64z"/>
			</g>
		</g>
		<g>
			<g>
				<path class="st4" d="M381.23,241.37c-0.5,6.2-0.75,12.42-1.4,18.61c-0.98,9.3-2.61,18.57-5.24,27.55
					c-1.63,5.55-3.65,10.98-6.21,16.18c-0.6,1.21-0.33,2.71,0.9,3.42c1.1,0.65,2.82,0.32,3.42-0.9
					c8.55-17.3,11.64-36.67,12.94-55.76c0.21-3.03,0.34-6.08,0.59-9.11c0.11-1.35-1.23-2.5-2.5-2.5
					C382.29,238.87,381.34,240.02,381.23,241.37L381.23,241.37z"/>
			</g>
		</g>
		<g>
			<g>
				<path class="st4" d="M390.4,259.68c0.35,2.39,0.79,4.77,1.17,7.16c0.1,0.61,0.19,1.23,0.28,1.84c0.02,0.13,0.11,0.81,0.08,0.59
					c-0.02-0.12,0.08,0.63,0.1,0.84c0.15,1.23,0.26,2.47,0.32,3.72c0.33,6.12-0.55,11.66-2.37,17.52c-1.48,4.76-3.46,9.34-5.67,13.8
					c-1.42,2.87,2.89,5.41,4.32,2.52c3.71-7.49,6.98-15.41,8.2-23.73c0.85-5.77,0.61-11.41-0.25-17.16
					c-0.42-2.81-0.95-5.61-1.36-8.42c-0.2-1.34-1.89-2.07-3.08-1.75C390.71,256.99,390.2,258.33,390.4,259.68L390.4,259.68z"/>
			</g>
		</g>
		<g>
			<g>
				<path class="st4" d="M364.19,191.71c3.22,0,3.22-5,0-5C360.97,186.71,360.97,191.71,364.19,191.71L364.19,191.71z"/>
			</g>
		</g>
		<g>
			<g>
				<path class="st4" d="M402.89,299.34c-0.82,2.27-1.64,4.54-2.58,6.76c0.08-0.2,0.17-0.4,0.25-0.6c-0.19,0.44-0.35,0.96-0.65,1.34
					c0.13-0.17,0.26-0.34,0.39-0.51c-0.01,0.02-0.02,0.03-0.04,0.04c0.17-0.13,0.34-0.26,0.51-0.39c0,0-0.01,0.01-0.01,0.01
					c0.2-0.08,0.4-0.17,0.6-0.25c0,0,0,0-0.01,0c0.22-0.03,0.44-0.06,0.66-0.09c0,0,0,0,0,0c0.22,0.03,0.44,0.06,0.66,0.09
					c0,0,0,0,0,0c0.2,0.08,0.4,0.17,0.6,0.25c0,0,0,0,0,0c0.17,0.13,0.34,0.26,0.51,0.39c0,0,0,0,0,0c0.13,0.17,0.26,0.34,0.39,0.51
					c0,0,0,0,0-0.01c0.08,0.2,0.17,0.4,0.25,0.6c0,0,0-0.01,0-0.01c0.03,0.22,0.06,0.44,0.09,0.66c0,0,0,0,0,0
					c-0.06-1.3-1.11-2.56-2.5-2.5c-1.31,0.06-2.56,1.1-2.5,2.5c0.02,0.47,0.1,0.86,0.34,1.28c0.55,0.94,1.78,1.5,2.84,1.16
					c0.73-0.23,1.26-0.68,1.64-1.33c0.17-0.3,0.31-0.63,0.45-0.94c0.4-0.92,0.77-1.85,1.14-2.78c0.62-1.61,1.22-3.22,1.81-4.85
					c0.21-0.58,0.05-1.41-0.25-1.93c-0.3-0.52-0.9-1.01-1.49-1.15C404.56,297.27,403.37,298.02,402.89,299.34L402.89,299.34z"/>
			</g>
		</g>
	</g>
	<g>
		<g>
			<path class="st4" d="M334.88,317.23c-8.41-2.65-16.27,2.21-21.83,8.2c-5.32,5.73-9.41,12.62-12.79,19.63
				c-0.57,1.19-1.13,2.39-1.65,3.6c-0.23,0.53-0.46,1.07-0.69,1.61c-0.15,0.35-0.39,0.9,0.03-0.07c-0.54,1.24-0.36,2.68,0.9,3.42
				c1.06,0.62,2.88,0.35,3.42-0.9c0.13-0.3,0.26-0.61,0.39-0.91c0.21-0.5-0.28,0.66-0.08,0.2c0.07-0.15,0.13-0.31,0.2-0.46
				c0.4-0.93,0.81-1.85,1.24-2.76c1.37-2.93,2.86-5.79,4.49-8.58c1.95-3.33,4.17-6.65,6.42-9.34c1.28-1.53,2.65-3,4.14-4.34
				c1.44-1.3,2.42-2.08,4.24-3.12c0.46-0.26,0.92-0.51,1.4-0.73c0.2-0.1,0.4-0.19,0.61-0.28c-0.49,0.2,0.12-0.04,0.22-0.08
				c0.97-0.34,1.93-0.61,2.94-0.78c0.71-0.12-0.52,0.04,0.2-0.02c0.25-0.02,0.51-0.04,0.76-0.05c0.47-0.02,0.95-0.01,1.42,0.02
				c0.22,0.01,0.44,0.03,0.66,0.06c-0.59-0.07,0.35,0.07,0.45,0.09c0.53,0.11,1.06,0.25,1.58,0.42
				C336.63,323.02,337.95,318.2,334.88,317.23L334.88,317.23z"/>
		</g>
	</g>
</g>
<g id="Layer_10">
	<g>
	</g>
	<g>
	</g>
	<g>
	</g>
	<g>
	</g>
	<g>
	</g>
	<g>
	</g>
</g>
</svg>
