<?xml version="1.0" encoding="utf-8"?>
<!-- Generator: Adobe Illustrator 25.4.1, SVG Export Plug-In . SVG Version: 6.00 Build 0)  -->
<svg version="1.1" id="Layer_1" xmlns="http://www.w3.org/2000/svg" xmlns:xlink="http://www.w3.org/1999/xlink" x="0px" y="0px"
	 viewBox="0 0 627.82 41.78" style="enable-background:new 0 0 627.82 41.78;" xml:space="preserve">
<path d="M0,12.86c4.14,1.83,8,4.15,12.03,6.17c3.23,1.62,6.14,2.1,8.94-0.79c0.81-0.84,1.89-1.46,2.93-2.04
	c3.84-2.14,7.7-2.2,11.56-0.01c1.7,0.96,3.49,1.78,5.13,2.84c5.58,3.6,11.29,3.21,17.2,0.91c6.4-2.49,12.27-2.23,17.95,2.51
	c4.72,3.94,9.4,7.89,13.72,12.26c0.21,0.21,0.47,0.37,0.7,0.56c4.5,3.79,6.6,3.35,10.19-1.4c3.78-5.01,7.16-10.35,12.21-14.34
	c8.39-6.62,17.88-8.02,28.07-6.47c10.48,1.6,18.92,7.21,26.85,13.8c1.62,1.34,3.25,2.7,5.03,3.8c2.53,1.58,3.85,1.44,6.05-0.58
	c2.43-2.24,4.67-4.68,7.08-6.94c4-3.75,7.91-4.16,12.69-1.46c1.05,0.59,2.21,1.02,3.14,1.75c5.22,4.09,10.42,3.61,15.76,0.21
	c2.53-1.61,5.18-3.07,7.84-4.46c6.39-3.33,12.67-4.4,18.99,0.44c2.6,2,5.64,3.44,8.52,5.05c3.62,2.02,7.19,1.92,10.57-0.6
	c1.93-1.44,3.85-2.88,5.73-4.38c5.69-4.54,11.58-4.29,17.58-0.74c2.97,1.75,5.8,3.72,8.98,5.14c2.72,1.22,5.15,1.06,7.73-0.28
	c5.23-2.72,10.14-5.89,14.64-9.69c1.72-1.45,3.58-2.73,5.36-4.1c4.5-3.46,9.61-3.53,14.62-2.46c5.28,1.12,9.75,0.22,14-2.92
	c5.92-4.37,12.46-5.86,19.59-3.56c5.02,1.62,9.66,4.04,13.69,7.49c6.29,5.39,13.04,10.12,20.1,14.43c3.28,2,6.89,3.29,10.62,3.42
	c9.73,0.33,18.75-1.98,26.47-8.3c2.43-1.99,4.95-3.89,7.47-5.77c3.98-2.95,8.35-3.87,13.2-2.59c5.12,1.35,10.01,3.07,14.18,6.54
	c2.89,2.4,5.97,4.54,9.41,6.16c4.15,1.96,8.44,3.11,13.03,3.21c4.18,0.09,8.35,0.38,12.52,0.38c4.13,0,8.03,0.92,11.92,2.19
	c6.29,2.06,12.63,3.89,19.39,3.37c2.14-0.16,4.24-0.54,6.04-1.6c4.68-2.75,9.77-4.62,14.57-7.09c5.27-2.71,10.66-2.85,16.16-1.11
	c4.42,1.39,8.84,2.76,13.34,3.93c5.77,1.5,10.65,0.29,15.34-2.91c0.87-0.59,1.64-1.36,2.56-1.84c7.38-3.88,11.15-1.86,15.95,4.72
	c0.45,0.62,0.74,1.39,0.05,2.04c-0.78,0.73-1.33,0.05-1.88-0.44c-6.78-5.95-8.48-6.29-15.94-1.33c-6.99,4.65-14.14,3.91-21.57,1.8
	c-3.89-1.11-7.67-2.54-11.66-3.43c-4.12-0.93-7.7-0.28-11.31,1.45c-4.87,2.33-9.79,4.57-14.6,7.01c-5.55,2.81-11.3,2.53-17.11,1.41
	c-3.82-0.74-7.54-1.82-11.22-3.15c-6.63-2.39-13.63-1.91-20.51-2.02c-9-0.14-17.18-2.43-24.13-8.37c-3.92-3.35-8.25-5.84-13.33-7.18
	c-4.17-1.1-8.04-1.05-11.65,1.34c-4.24,2.81-8.2,6.06-12.56,8.65c-9.79,5.82-20.24,7.94-31.46,4.74c-2.21-0.63-4.1-1.85-5.99-3.03
	c-4.58-2.86-9.02-5.88-13.16-9.41c-4.67-3.98-9.65-7.61-15.24-10.29c-6.81-3.27-13.31-2.9-19.55,1.42c-0.86,0.6-1.7,1.24-2.56,1.85
	c-4.01,2.85-8.4,4.04-13.21,2.63c-6.63-1.94-12.25-0.3-17.53,3.97c-4.32,3.49-9.05,6.47-13.5,9.81c-5.17,3.88-10.44,4.11-15.92,0.81
	c-2.05-1.24-4.06-2.56-6.11-3.79c-5.82-3.51-11.68-3.23-16.54,1.25c-2.17,2.01-4.46,3.94-7.42,4.98c-2.85,1.01-5.49,1.14-8.31,0.06
	c-3.82-1.46-7.41-3.37-10.66-5.79c-4.35-3.23-8.82-3.35-13.58-1.32c-2.9,1.23-5.72,2.6-8.3,4.46c-2.59,1.86-5.6,2.94-8.56,3.98
	c-3.71,1.31-7.1-0.28-10.34-1.91c-1.6-0.8-3.15-1.78-4.56-2.88c-2.64-2.05-5.29-1.69-7.99-0.31c-2.19,1.12-3.82,2.93-5.36,4.76
	c-1.18,1.4-2.59,2.5-3.89,3.74c-3.01,2.87-5.93,3.2-10.12,0.12c-2.54-1.87-4.88-4.01-7.36-5.97c-5.09-4.01-10.51-7.5-16.74-9.41
	c-8.84-2.71-17.63-3.08-26.27,1.04c-5.79,2.75-9.88,7.26-13.43,12.36c-1.98,2.85-3.99,5.66-6.49,8.07
	c-2.93,2.83-4.86,2.97-8.46,0.97c-2.81-1.56-5.09-3.76-7.16-6.11c-3.62-4.1-7.86-7.44-12.39-10.39c-3.57-2.33-7.49-2.73-11.59-0.96
	c-4.88,2.1-9.88,3.49-15.3,1.8c-2.05-0.64-3.83-1.7-5.72-2.6c-1.35-0.64-2.68-1.34-3.96-2.12c-4.8-2.92-9.28-2.21-13.18,1.53
	c-3.25,3.12-6.57,3.1-10.23,1.14c-3.57-1.92-7.16-3.82-10.68-5.84"/>
<g>
</g>
<g>
</g>
<g>
</g>
<g>
</g>
<g>
</g>
<g>
</g>
</svg>
