<?xml version="1.0" encoding="utf-8"?>
<!-- Generator: Adobe Illustrator 25.4.1, SVG Export Plug-In . SVG Version: 6.00 Build 0)  -->
<svg version="1.1" id="Layer_1" xmlns="http://www.w3.org/2000/svg" xmlns:xlink="http://www.w3.org/1999/xlink" x="0px" y="0px"
	 viewBox="0 0 622.8 30.41" style="enable-background:new 0 0 622.8 30.41;" xml:space="preserve">
<path d="M12.35,26.14c3.22-0.81,6.42-1.64,9.32-3.3c3.84-2.2,7.7-2.23,11.66-0.31c2.98,1.45,5.99,2.84,9.02,4.18
	c2.7,1.2,5.41,1.07,7.63-0.95c3.12-2.84,6.33-3.01,9.86-0.96c1.3,0.76,2.64,1.44,3.99,2.11c2.47,1.24,5.02,0.4,5.69-2.28
	c1.21-4.88,3.62-9.23,5.62-13.76c2.39-5.44,5.34-6.28,10.79-4.08c5.26,2.13,9.71,5.4,14.16,8.76c3.36,2.54,6.69,5.09,10.39,7.14
	c6.92,3.86,16.39,2.98,22.53-4.14c3.03-3.52,6.29-6.82,9.1-10.55c3.65-4.85,8.62-5.13,13.75-1.71c5.69,3.79,9.08,9.58,13.43,14.52
	c1.72,1.95,3.45,3.76,5.73,5.03c2.64,1.47,5.05,1.54,7.45-0.63c2-1.82,4.09-3.51,5.68-5.74c1.14-1.59,2.55-2.97,4.18-4.08
	c2.87-1.97,5.88-2.27,8.89-0.46c3.1,1.86,6.14,3.82,9.12,5.86c1.26,0.86,2.54,1.61,3.95,2.16c3.35,1.3,4.18,1.08,6.73-1.55
	c1.98-2.04,3.8-4.15,5.35-6.59c2.36-3.69,3.34-3.7,7.38-2.01c1.84,0.77,3.48,1.74,5.03,2.95c3.18,2.47,4.69,2.88,7.49,0.1
	c3.32-3.31,6.49-2.93,10.24-1.47c2.65,1.03,5.41,1.84,8.17,2.54c3.22,0.82,6.56,1.8,8.86-1.94c0.28-0.45,1.04-0.99,1.46-0.91
	c4.96,0.96,9.98-2.52,15.09,0.8c2.62,1.7,6.38,1.33,9.67,1.7c2.33,0.26,4.01-0.99,5.79-2.13c3.19-2.05,4.31-1.95,7.32,0.13
	c2.98,2.06,5.45,4.75,8.56,6.64c4.89,2.97,9.86,2.62,13.89-1.43c2.23-2.23,4.35-4.58,6.31-7.08c4-5.09,8.27-5.56,13.78-1.93
	c2.78,1.83,5.27,3.94,7.51,6.41c2.64,2.9,5.56,5.51,8.66,7.92c2.87,2.23,5.25,2.19,8.05-0.1c1.92-1.57,3.23-3.6,4.34-5.74
	c1.66-3.2,3.17-6.48,4.72-9.73c1.23-2.56,3.53-4.43,4.55-7.13l0.01-0.07c5.27-2.83,9.79-1.31,13.96,2.39
	c4.17,3.7,8.05,7.68,11.85,11.75c1.34,1.43,2.72,2.85,4.26,4.05c4.09,3.2,7.84,2.56,10.74-1.7c0.25-0.37,0.5-0.76,0.69-1.17
	c2.09-4.47,4.88-8.58,6.85-13.13c2.04-4.74,7.46-5.94,12.08-2.72c3.84,2.67,7.15,5.98,10.25,9.48c2.7,3.04,5.43,6.06,8.21,9.02
	c1.59,1.69,3.44,2.84,5.96,2.7c2.06-0.12,3.65-0.68,5.13-2.3c2.43-2.65,4.58-5.57,7.37-7.91c4.24-3.56,7.07-4,11.92-1.24
	c3.13,1.79,6.17,3.77,9.13,5.83c6.21,4.33,11.16,1.88,14.33-3.6c1.27-2.2,2.14-4.55,4.47-6.04c1.81-1.16,3.28-1.31,4.89,0.09
	c0.8,0.69,1.6,1.38,2.41,2.05c2.04,1.68,4.25,2.32,6.67,0.88c2.18-1.3,4.53-1.42,6.98-1.44c7.4-0.06,14.8-0.02,21.92,2.39
	c2.67,0.9,5.17-0.07,7.52-0.8c4.04-1.25,7.39-0.55,10.52,2.09c2.67,2.25,5.5,3.79,9.03,1.84c7.07,0.39,13.99-1.5,21.04-1.39
	c0.49,0.01,1.36-0.15,1.41,0.65c0.04,0.74-0.73,0.81-1.31,0.93c-5.45,1.16-10.87,2.48-16.53,1.91c-1.64-0.16-3.36-0.12-4.87,0.73
	c-2.83,1.6-5.62,0.82-7.45-1.19c-4.03-4.42-8.7-4.18-13.67-2.72c-3.2,0.94-6.25,0.64-9.3-0.46c-3.61-1.3-7.35-1.56-11.08-1.05
	c-3.29,0.45-6.53-0.87-9.84,0.03c-1.28,0.35-2.7,0.29-3.9,0.99c-2.75,1.61-5.08,0.92-7.46-0.96c-5.16-4.08-6.15-3.82-9.39,2.01
	c-0.29,0.53-0.5,1.11-0.83,1.6c-4.35,6.37-8.28,8.39-15.39,3.76c-2.77-1.81-5.52-3.68-8.45-5.2c-5.06-2.63-8.09-3.86-13,2.06
	c-2.13,2.56-4.52,4.82-6.83,7.17c-2.99,3.04-6.14,3.34-9.56,0.7c-3.22-2.49-5.91-5.57-8.63-8.6c-2.62-2.91-5.3-5.77-8.08-8.52
	c-1.61-1.59-3.53-2.84-5.6-3.79c-3.52-1.61-4.85-1.23-7.29,1.96c-2.95,3.86-4.47,8.5-6.95,12.6c-0.99,1.64-1.75,3.35-3.29,4.75
	c-3.67,3.32-6.8,3.85-10.54,0.61c-3.52-3.05-6.79-6.42-9.98-9.83c-2.38-2.55-4.95-4.85-7.56-7.14c-1.51-1.32-3.27-2.18-5.12-2.8
	c-2.92-0.97-4.72-0.2-6.63,2.32c-3.2,4.22-5.5,8.99-7.83,13.67c-1.39,2.78-3.36,4.97-5.14,7.35c-1.87,2.49-6.13,2.91-9,1.52
	c-4.08-1.98-6.69-5.56-9.72-8.67c-2.54-2.61-5.25-4.99-8.2-7.07c-3.94-2.77-7-2.39-10.38,1.07c-2.41,2.47-4.72,5.04-7.1,7.54
	c-5.35,5.64-12.01,6.23-18.09,1.49c-2.13-1.66-4.01-3.65-6.1-5.36c-2.87-2.35-3.21-2.38-5.96,0.11c-1.15,1.04-2.39,1.2-3.74,1.2
	c-5.71,0.04-11.39-0.12-16.76-2.45c-0.53-0.23-1.27-0.48-1.75-0.29c-3.58,1.38-7.56,1.13-11.08,2.6c-3.01,1.25-5.81,1.83-9.09,0.66
	c-3.37-1.2-7.02-1.51-10.37-2.95c-1.32-0.57-3.14-0.8-4.21,0.57c-1.23,1.57-3.18,1.62-4.6,2.66c-2.78,2.04-5.03,0.92-7.26-0.93
	c-1.39-1.15-2.81-2.27-4.26-3.35c-1.94-1.45-3.67-1.04-5.09,0.8c-1.28,1.67-2.38,3.5-3.75,5.09c-6.12,7.09-6.66,6.79-14.24,2.4
	c-2.86-1.65-5.46-3.76-8.44-5.26c-5.18-2.61-9.38-1.51-12.3,3.44c-2.15,3.64-5.28,6-8.98,7.83c-2.16,1.07-3.94,0.72-5.89-0.59
	c-2.56-1.73-4.47-4.03-6.41-6.33c-2.81-3.35-5.65-6.67-8.44-10.04c-1.75-2.12-3.88-3.81-6.22-5.15c-3.47-1.98-6.93-1.58-9.28,1.53
	c-3,3.98-6.46,7.57-9.78,11.21c-7.04,7.73-13.7,10.03-25.17,4.96c-4.44-1.96-8-5.34-11.92-8.13c-4.17-2.97-8.16-6.22-12.93-8.26
	c-3.43-1.47-4.75-1.06-6.74,2.04c-1.88,2.93-3.39,6.04-4.53,9.32c-0.99,2.87-2.48,5.49-3.9,8.13c-1.09,2.02-2.77,2.49-4.97,1.71
	c-1.86-0.66-3.5-1.73-5.12-2.84c-2.33-1.61-4.61-1.77-7.08,0.04c-4.68,3.44-9.46,3.16-14.28,0.06c-1.88-1.21-3.99-2.06-6.04-3
	c-3.26-1.5-6.45-1.06-9.55,0.54c-1.21,0.62-2.42,1.23-3.62,1.86C12.21,30.21,5.91,29.41,0,24.76"/>
<g>
</g>
<g>
</g>
<g>
</g>
<g>
</g>
<g>
</g>
<g>
</g>
</svg>
