<?xml version="1.0" encoding="utf-8"?>
<!-- Generator: Adobe Illustrator 25.4.1, SVG Export Plug-In . SVG Version: 6.00 Build 0)  -->
<svg version="1.1" id="Layer_1" xmlns="http://www.w3.org/2000/svg" xmlns:xlink="http://www.w3.org/1999/xlink" x="0px" y="0px"
	 viewBox="0 0 627.79 40.22" style="enable-background:new 0 0 627.79 40.22;" xml:space="preserve">
<path d="M1.85,12.74c3.17-3.21,7.54-5.33,12.53-6.11c3.84-0.6,7.2,0.9,10.43,2.25c4.58,1.91,8.86,4.32,13.04,6.86
	c3.35,2.03,6.91,3.8,10.78,4.94c7.86,2.32,15.41,0.4,20.93-5.04c1.82-1.8,3.68-3.6,5.74-5.19c6.09-4.7,11.28-5.86,19.95-0.14
	c3.95,2.6,7.96,5.09,12.13,7.41c7.32,4.08,14.79,3.84,22.46,0.81c4.37-1.73,8.81-3.32,13.19-5.02c5.45-2.13,10.27-0.87,14.7,2.08
	c3.23,2.15,6.41,4.36,9.8,6.34c2.56,1.5,5.33,2.59,8.18,3.56c2.36,0.8,4.72,0.5,6.61-0.76c3.1-2.06,6.19-4.23,8-7.36
	c1.53-2.63,3.83-4.76,6.08-6.89c3.5-3.31,7.26-3.4,11.02-0.34c2.23,1.81,4.24,3.84,6.54,5.58c4.88,3.7,10.06,6.82,17.02,6.91
	c2.92,0.04,5.45-0.67,7.94-1.69c3.68-1.5,7.31-3.09,10.93-4.69c3.86-1.7,7.78-1.92,11.86-0.67c3.47,1.06,6.71,2.49,9.66,4.35
	c2.16,1.36,4.54,2.28,6.99,3.07c4.98,1.6,9.62,1.17,14.09-1.57c5.11-3.13,9.52-7.05,15.02-9.73c8.31-4.05,12.9-3.15,17.97,0.78
	c1.95,1.51,4.13,2.77,6.1,4.29c1.71,1.33,3.82,2.33,5.91,3.2c5.41,2.27,10.45,2.29,15.4-1.37c4.38-3.24,7.98-6.97,11.33-10.94
	c1.64-1.95,3.54-3.64,5.7-5.17c5.55-3.92,10.75-3,15.38,1.27c3.88,3.58,7.9,7.05,11.89,10.54c5.71,4.98,12.73,6.02,20.51,1.51
	c3.27-1.89,6.22-4.16,9.67-5.85c2.17-1.06,4.37-2.04,6.66-2.84c4.13-1.44,7.68,0.02,11.02,1.98c4.49,2.65,8.03,6.22,11.96,9.41
	c2.45,1.98,5,3.78,8.12,4.99c5.76,2.23,10.86,1.19,15.39-2.21c2.75-2.06,5.28-4.36,7.72-6.69c1.47-1.4,3.05-2.66,4.69-3.91
	c5.97-4.53,9.07-2.18,12.63,1.09c2.48,2.28,4.45,4.97,6.76,7.4c1.95,2.05,4.18,3.89,7.17,4.77c4.94,1.45,9.46,0.28,13.77-1.86
	c3.57-1.77,6.48-4.28,9.51-6.63c7.26-5.62,9.88-5.64,16.96,0.15c0.85,0.69,1.59,1.51,2.51,2.11c5.83,3.82,10.1,3.91,15.6,0.72
	c2.9-1.68,5.75-3.45,8.76-4.98c5.2-2.64,8.58-1.82,11.65,2.67c3.11,4.55,6.11,9.16,9.32,13.66c4.01,5.62,9.4,9.25,17.62,8.39
	c0.58-0.06,1.15-0.16,1.72-0.18c0.5-0.02,0.84,0.31,0.9,0.69c0.08,0.49-0.45,0.52-0.84,0.58c-2.14,0.33-4.28,0.65-6.41,0.97
	c-5.76-0.09-9.56-2.88-12.63-6.63c-3.7-4.53-6.93-9.32-10.15-14.11c-0.37-0.54-0.71-1.11-1.13-1.62c-2.87-3.42-4.46-3.87-8.83-1.96
	c-3.24,1.42-6.31,3.13-9.4,4.78c-6.05,3.23-12.49,3.07-17.61-1.03c-1.39-1.11-2.76-2.24-4.19-3.31c-3.65-2.74-5.71-2.78-9.76-0.56
	c-4.33,2.37-7.65,5.8-12.03,8.14c-9.88,5.29-16.93,3.9-23.99-2.9c-2.23-2.15-4.06-4.61-6.28-6.76c-4.62-4.48-5.43-4.92-11.78-0.41
	c-3.69,2.62-6.77,5.87-10.18,8.79c-0.92,0.79-2.02,1.45-3.11,2.07c-6.02,3.37-12.08,3.38-17.99-0.12c-2.15-1.27-4.28-2.73-5.92-4.46
	c-2.98-3.15-6.55-5.7-10.24-8.15c-5.75-3.81-10.62-3.9-16.39-0.28c-4.01,2.52-8.13,4.87-12.36,7.11c-5.28,2.8-10.43,3.28-15.98,0.28
	c-5.8-3.13-10.18-7.49-14.65-11.77c-1.91-1.82-4.13-3.14-6.35-4.55c-1.35-0.86-2.77-0.59-4.19-0.28c-3.44,0.74-5.88,2.73-8.05,4.98
	c-2.52,2.61-5.02,5.24-7.33,7.99c-1.66,1.99-3.86,3.37-6.03,4.84c-7.63,5.18-15.34,4.04-21.86-0.52c-2.83-1.98-5.64-3.98-8.5-5.93
	c-3.72-2.53-7.63-3.26-12.22-1.52c-5.19,1.96-9.32,5.1-13.49,8.2c-3.05,2.26-6.48,3.9-10.17,5.01c-5.25,1.58-9.94-0.3-14.48-2.39
	c-3.34-1.54-6.76-2.96-9.99-4.65c-3.86-2.03-7.72-1.89-11.63-0.41c-3.99,1.51-7.96,3.07-11.81,4.84c-6.54,3-12.87,2.25-19.23-0.38
	c-4.71-1.95-8.14-5.22-11.81-8.26c-0.63-0.52-1.23-1.07-1.86-1.6c-4.37-3.65-6.11-3.65-10.25,0.39c-2.11,2.06-4.11,4.25-5.75,6.59
	c-1.47,2.09-3.24,3.92-5.31,5.47c-3.1,2.32-6.66,3.24-10.89,2.12c-6.06-1.59-10.71-5.02-15.59-8.2c-1.28-0.83-2.41-1.86-3.76-2.58
	c-3.76-2.02-7.7-2.8-11.96-1.01c-3.39,1.42-6.93,2.58-10.27,4.07c-11.12,4.97-21.57,4.18-31.43-2.48c-2.18-1.47-4.3-3.03-6.52-4.45
	c-1.51-0.97-3.07-1.96-4.78-2.63c-4.45-1.73-8.78-1.7-12.57,1.35c-3.3,2.66-6.34,5.58-9.81,8.05c-5.6,3.99-11.9,5.37-19.11,3.38
	c-6.81-1.89-12.39-5.53-18.21-8.84c-3.93-2.23-8.06-4.06-12.61-5.1C14.88,8.1,11.92,8.34,9,10.05c-3.28,1.92-6.36,3.93-9,6.51"/>
<g>
</g>
<g>
</g>
<g>
</g>
<g>
</g>
<g>
</g>
<g>
</g>
</svg>
