<?xml version="1.0" encoding="utf-8"?>
<!-- Generator: Adobe Illustrator 25.4.1, SVG Export Plug-In . SVG Version: 6.00 Build 0)  -->
<svg version="1.1" id="Layer_1" xmlns="http://www.w3.org/2000/svg" xmlns:xlink="http://www.w3.org/1999/xlink" x="0px" y="0px"
	 viewBox="0 0 634.14 58.02" style="enable-background:new 0 0 634.14 58.02;" xml:space="preserve">
<g>
	<path d="M29.35,47.63c-0.41-0.89-0.3-1.72,0.91-2.37c0.09-0.05,0.62,0.07,0.63,0.12c0.15,0.92-0.24,1.7-1.63,2.21
		C29.25,47.59,29.35,47.63,29.35,47.63z"/>
	<path d="M31.47,44.05c-0.2-0.09-0.51-0.16-0.56-0.28c-0.06-0.12,0.06-0.36,0.22-0.42c0.52-0.19,0.73,0.04,0.72,0.3
		C31.84,43.79,31.6,43.92,31.47,44.05z"/>
	<path d="M286.33,30.14c-0.32,1.06-0.61,2.12-1.52,3.06c-0.22,0.23-1.54,3.8-2.06,3.67c-0.46-0.11,0.54-3.71,0.64-3.97
		c0.37-0.95,0.78-1.9,1.14-2.86c0.16-0.42,1.55-6.67,2.53-6.61C288.04,23.49,286.25,29.75,286.33,30.14z"/>
	<g>
		<path d="M357.55,4.21c1.23-0.01,2.47,0.05,3.17,0.75c1.57,1.59,4.21,2.72,5.09,4.6c0.89,1.92,3.49,3.31,4.62,5.16
			c0.1,0.16,0.4,0.26,0.57,0.41c0.81,0.68,10.28,13.17,9.58,13.36c-1.46,0.39-10.86-12.01-11.52-12.62
			c-2.33-2.18-3.35-4.78-6.05-6.85c-0.73-0.56-1.3-1.2-2-1.78c-2.65-2.2-5.66-2.2-7.94,0.23c-2.33,2.49-3.93,5.2-4.77,8.05
			c-0.1,0.35-0.05,0.72-0.14,1.07c-0.27,1.08-1.31,1.91-2.46,2.7c-2.09-0.94-0.32-2-0.03-2.9c0.97-2.97,1.93-5.97,4.05-8.76
			C351.28,5.57,354.45,4.18,357.55,4.21z"/>
		<path d="M378.52,26.61c1.41-0.14,2.08,0.22,2.63,1.03c4.03,5.86,9.09,11.43,13.64,17.14c0.26,0.32,0.4,0.74,1.07,0.78
			c1.01,0.06,1.1-0.54,1.28-0.9c1.59-3.38,2.12-6.87,2.91-10.33c1.03-4.53,1.84-9.08,3.51-13.55c0.73-1.95,1.85-3.79,3.99-5.34
			c1.89-1.36,3.79-1.08,5,0.55c3.18,4.29,6.42,8.57,9.74,12.82c1.45,1.86,1.98,3.88,3.25,5.79c2.62,3.96,6.35,7.48,10.22,10.99
			c1.23,1.12,2.39,2.27,3.59,3.4c1,0.94,1.92,0.69,2.58-0.14c0.95-1.22,1.67-2.48,2.2-3.8c3.7-9.24,5.72-18.66,7.89-28.06
			c0.78-3.38,2.07-6.71,4.91-9.73c1.91-2.03,4.83-2.61,7.85-1.63c0.63,0.21,1.34,0.49,1.67,0.85c1.72,1.88,3.87,3.71,4.87,5.73
			c2.15,4.34,5.16,8.55,6.12,13.1c0.11,0.51,0.76,0.96,1.06,1.46c1.05,1.76,2.29,3.47,2.65,5.37c0.21,1.15,0.69,2.3,1.31,3.4
			c2.96,5.24,6.01,10.46,9.03,15.68c0.15,0.25,0.24,0.53,0.49,0.75c0.64,0.54,0.74,1.57,2.18,1.44c1.01-0.09,1.18-0.96,1.53-1.53
			c2.85-4.65,4.34-9.49,5.55-14.37c1.13-4.55,3.22-8.93,5.98-13.2c0.67-1.03,1.6-1.89,2.96-2.64c3.77-2.09,8.35-1.63,10.37,1.25
			c2.2,3.13,3.83,6.41,6.02,9.55c2.01,2.88,4.36,5.68,6.69,8.47c1.01,1.21,2.59,2.19,4.27,3.09c2.15,1.16,3.03,1.16,4.77-0.12
			c1.32-0.98,2.37-2.07,3.18-3.24c2.74-3.92,4.02-8.07,4.87-12.25c1.38-6.84,2.48-13.7,4.65-20.47c0.6-1.87,1.88-3.58,3.23-5.27
			c1.63-2.04,5.18-2.94,8.99-0.48c4.1,2.64,6.64,5.86,9.58,8.97c3.86,4.08,5.4,8.65,8.43,12.89c1.75,2.45,3.38,5.12,4.18,7.89
			c0.44,1.51,2.29,2.83,3.09,4.39c0.96,1.86,2.52,3.61,3.77,5.42c0.4,0.58,0.62,1.49,1.62,1.46c1.28-0.04,0.87-0.99,1.04-1.57
			c1.68-5.77,1.38-11.62,1.84-17.44c0.16-1.97,0.18-3.95,0.78-5.89c0.19-0.61,0.39-1.24,0.78-1.82c1.52-2.26,4.83-2.75,7.83-1.14
			c2.25,1.21,3.97,2.71,5.26,4.31c2.52,3.11,4.08,6.48,5.45,9.81c1.65,4.01,3.83,7.85,6.75,11.59c1.89,2.42,3.45,4.93,5.9,7.18
			c0.31,0.29,0.44,0.67,0.56,1.01c0.23,0.69,0.01,1.31-1.3,1.44c-1.12,0.11-1.57-0.39-1.68-0.98c-0.43-2.2-2.3-4.06-3.97-5.95
			c-2.95-3.34-4.76-6.95-6.77-10.51c-2.01-3.56-3.75-7.17-5.73-10.73c-1.19-2.15-3.04-4.11-5.7-5.72c-2.41-1.46-3.52-1.19-4.49,0.78
			c-1.68,3.4-1.45,6.92-1.78,10.39c-0.34,3.46,0.36,6.99-0.5,10.38c-0.71,2.8-0.93,5.7-2.63,8.4c-0.43,0.68-0.71,1.41-2.32,1.34
			c-1.59-0.07-1.82-0.63-1.76-1.49c0.09-1.09-0.73-2.09-1.32-3.11c-3.85-6.68-8.92-13.09-12.05-19.92
			c-2.35-5.12-6.13-9.88-9.83-14.65c-1.63-2.11-4.02-3.99-6.72-5.68c-2.12-1.33-3.28-1.28-4.76,0.39c-1.31,1.48-2.55,3.01-3.03,4.72
			c-1.35,4.83-3.19,9.62-4.11,14.48c-0.79,4.19-1.75,8.35-2.93,12.5c-0.97,3.42-2.08,6.86-5.81,9.71c-3.17,2.42-5.59,2.58-9.22,0.43
			c-3.44-2.04-5.98-4.48-7.87-7.12c-3.13-4.35-5.95-8.79-8.92-13.18c-0.83-1.23-1.4-2.79-4.07-2.87c-2.8-0.08-3.87,1.39-5.04,2.67
			c-1.82,1.99-2.53,4.22-3.47,6.35c-1.47,3.34-2.75,6.72-3.63,10.18c-1.22,4.79-2.9,9.67-6.82,14.07c-0.21,0.24-0.36,0.5-0.59,0.72
			c-0.45,0.45-0.81,1.04-1.88,0.99c-1.19-0.05-1.69-0.57-2.07-1.22c-3.4-5.73-6.9-11.43-9.42-17.35c-2.36-5.54-5.39-10.98-7.9-16.5
			c-1.65-3.63-3.38-7.23-5.69-10.74c-1.01-1.53-2.36-2.91-3.99-4.18c-1.33-1.04-2.52-0.96-3.94,0.09c-3.31,2.46-4.51,5.47-5.48,8.44
			c-1.62,5-2.46,10.09-4.16,15.08c-0.93,2.73-0.49,5.53-1.8,8.22c-1.84,3.77-3.44,7.58-5.17,11.37c-0.24,0.51-0.56,1.04-1.04,1.48
			c-1.06,0.98-2.47,1-3.48,0c-7.23-7.11-14.43-14.23-19.12-22.13c-2.46-4.15-5.9-8.02-8.98-11.99c-0.86-1.11-1.48-1.08-2.73-0.01
			c-1.59,1.36-2.19,2.97-2.66,4.52c-1.24,4.03-1.71,8.15-3.26,12.13c-1.63,4.19-1.27,8.58-3.82,12.66
			c-0.57,0.91-0.52,2.24-2.41,2.33c-2.02,0.09-2.03-1.27-2.69-2.14c-2.81-3.76-5.77-7.47-8.56-11.23c-1.82-2.45-3.25-5-5.6-7.3
			c-0.69-0.68-1.3-1.44-0.76-2.3C378.6,26.57,378.52,26.61,378.52,26.61z"/>
		<path d="M31.7,40.96c2.76-9.42,5.13-18.9,10.99-27.88c1.04-1.6,2.43-3.08,3.94-4.52c0.54-0.52,1.33-0.98,2.14-1.35
			c2.55-1.18,3.64-1.05,5.42,0.55c2.16,1.94,3.44,4.15,5.17,6.23c3.75,4.49,5.83,9.37,9.17,13.96c1.06,1.46,1.6,3.05,2.29,4.6
			c1.38,3.14,3.23,6.16,5.95,8.97c1.65,1.7,2.32,3.7,4.45,5.26c0.72,0.52,1.2,0.72,1.92,0c1.16-1.15,2.34-2.31,3.02-3.6
			c1.9-3.59,3.67-7.19,5-10.89c2.02-5.61,3.53-11.27,5.3-16.9c1.04-3.32,2.46-6.65,5.24-9.68c1.41-1.54,3.24-2.76,5.86-3.56
			c1.8-0.55,3.27-0.45,4.9,0.34c2.91,1.41,4.45,3.4,5.88,5.31c4.57,6.11,8.81,12.29,12.6,18.61c3.52,5.88,7.22,11.73,11.73,17.4
			c3.03,3.8,6.15,7.52,10.51,10.83c1.79,1.36,2.4,1.4,3.96-0.05c3.21-2.96,4.95-6.29,6.24-9.73c2.47-6.63,3.7-13.45,7.59-19.86
			c1.92-3.17,3.42-6.5,7.06-9.24c3.29-2.48,6.45-2.59,9.88-0.19c3.17,2.22,4.8,4.95,6.4,7.62c2.71,4.54,5.46,9.06,7.88,13.67
			c2.9,5.52,7.25,10.77,12.71,15.62c0.17,0.15,0.33,0.3,0.51,0.44c1.99,1.63,2.32,1.64,3.72-0.1c1.76-2.18,2.96-4.48,4.08-6.81
			c3.72-7.76,5.45-15.81,9.43-23.52c1.5-2.9,3.13-5.82,6.66-8.15c0.6-0.39,1.09-0.85,1.75-1.2c4.04-2.12,5.76-1.88,8.67,0.83
			c3.1,2.89,5.45,5.94,6.84,9.27c0.14,0.35,0.28,0.71,0.55,1.02c5.08,5.76,8.75,11.94,14.43,17.52c0.89,0.88,1.42,2.31,3.39,2.28
			c1.72-0.03,2.04-1.43,2.74-2.26c1.54-1.83,2.77-3.76,4.13-5.65c0.29-0.41,0.58-0.82,0.97-1.19c0.24-0.24,0.75-0.29,1.15-0.14
			c0.2,0.08,0.42,0.32,0.36,0.44c-1.83,3.96-3.72,7.91-8.13,11.19c-1.09,0.81-2.27,0.77-3.32-0.06c-0.82-0.64-1.73-1.26-2.36-1.96
			c-4.13-4.55-8.17-9.13-11.36-13.97c-3.13-4.75-6.55-9.43-10.11-14.07c-2.36-3.08-5.01-3.14-8.22-0.33
			c-3.69,3.23-5.44,6.97-7.14,10.67c-1.98,4.31-3.24,8.73-5.1,13.06c-1.97,4.58-3.2,9.29-6.6,13.63c-0.9,1.15-1.78,2.28-3.32,3.16
			c-1.5,0.86-2.45,0.83-3.53-0.27c-6.86-6.93-13.02-14.03-16.78-21.86c-2.52-5.24-5.87-10.36-9.76-15.31
			c-0.77-0.97-1.57-1.94-2.96-2.67c-1.73-0.91-3.05-0.94-4.62,0.06c-1.11,0.71-2.27,1.49-2.9,2.36c-3.35,4.68-6.49,9.41-8.31,14.41
			c-1.94,5.32-3.88,10.63-5.95,15.93c-0.99,2.55-2.92,4.89-5.23,7.1c-2.23,2.14-4.16,2.22-6.81,0.2c-5.3-4.03-9.37-8.48-12.47-13.26
			c-4.88-7.51-9.65-15.05-14.6-22.55c-2.85-4.31-5.89-8.57-8.99-12.81c-0.83-1.14-2.03-2.2-3.3-3.19c-1.84-1.43-3.32-1.45-5.53-0.13
			c-2.69,1.61-4.47,3.52-5.61,5.72c-2.59,4.98-3.56,10.14-5.26,15.22c-0.88,2.63-1.8,5.27-3.09,7.83c-1.8,3.6-2.09,7.42-4.72,10.89
			c-1.3,1.71-2.29,3.51-4.39,4.96c-1.87,1.3-2.68,1.29-3.91-0.14c-3.85-4.45-7.63-8.92-10.13-13.73
			c-3.02-5.82-6.55-11.53-10.16-17.21c-1.69-2.66-3.85-5.23-5.91-7.8c-0.53-0.67-0.83-1.67-2.64-1.55c-1.53,0.1-2.28,0.86-2.79,1.59
			c-1.2,1.74-2.97,3.31-3.97,5.12c-2.17,3.89-4.27,7.77-5.62,11.81c-1.23,3.66-2.09,7.39-4.56,10.87c-0.63,0.88,0.15,1.99-0.83,2.87
			c-0.31,0.28-0.42,0.79-1.12,0.73C31.37,41.75,31.66,41.29,31.7,40.96z"/>
		<path d="M1.7,28.19c2.51,4.76,5.81,9.35,8.51,14.07c2.36,4.12,6.44,7.86,10.78,11.41c1.29,1.05,2.02,0.97,3.37-0.16
			c1.67-1.4,2.31-3.11,3.63-4.61c0.39-0.45,0.23-1.11,1.35-1.27l-0.09-0.04c-0.33,2.51-1.35,4.9-3.52,7.07
			c-2.19,2.19-4.47,2.35-6.79,0.27c-3.64-3.28-7.04-6.67-9.54-10.32C5.96,39.57,2.87,34.45,0,29.26"/>
		<path d="M286.22,26.5c-0.38-0.7-0.35-1.42-0.14-2.13c1.92-6.26,3.22-12.59,6.37-18.69c0.8-1.56,1.78-3.06,3.56-4.3
			c2.77-1.93,5.16-1.82,7.53,0.28c3.75,3.31,6.7,6.91,9.1,10.62c3.98,6.15,7.95,12.3,11.71,18.51c1.92,3.17,3.78,6.43,6.58,9.4
			c0.99,1.05,1.11,2.22,1.94,3.28c0.76,0.97,1.42,1.98,2.44,2.86c0.83,0.72,1.61,0.69,2.21-0.17c0.7-0.98,1.59-1.9,1.85-3.01
			c0.24-1.05,0.87-2.08,1.41-3.1c0.18-0.33,0.68-0.65,1.33-0.52c0.6,0.11,0.25,0.44,0.12,0.69c-1.46,2.81-1.98,5.76-3.76,8.52
			c-0.5,0.77-1.12,1.29-2.37,1.39c-1.24,0.1-1.82-0.54-2.23-1.12c-1.33-1.89-2.95-3.69-4.07-5.66c-3.33-5.85-6.98-11.63-10.55-17.43
			c-2.9-4.7-5.68-9.43-8.86-14.06c-2.04-2.97-4.22-5.92-7.02-8.68c-0.8-0.79-1.69-1.55-3.38-1.57c-2.06-0.02-2.66,1.01-3.29,1.91
			c-2.1,2.98-3.68,6.06-4.83,9.22c-1.45,4.01-2.69,8.04-4.07,12.06c-0.22,0.65-0.01,1.51-1.64,1.69L286.22,26.5z"/>
		<path d="M345.79,21.75c-1.67,4.43-1.16,8.57-2.08,12.61c-0.02,0.09,0.01,0.19-0.05,0.27c-0.92,1.13-0.21,5.81-2.64,6.6
			c-1.02-1.17,0.48-5.37,0.76-6.47c1.08-4.24,1.75-8.51,2.52-12.76c0.07-0.38,0.94-5.39,1.98-5.27
			C346.99,16.8,345.79,21.76,345.79,21.75z"/>
		<path d="M375.84,22.81c1.41,1.14,3.03,2.22,2.68,3.8c0,0,0.08-0.04,0.08-0.04c-2.2-0.94-2.94-2.24-2.66-3.81L375.84,22.81z"/>
		<path d="M375.94,22.77c-0.74,0.03-1.07-0.3-1.26-0.62c-0.27-0.46-1.22-0.83-0.65-1.39c0.08-0.08,0.81,0.04,1.21,0.11
			c1.3,0.24,1.53,0.76,1,1.46c-0.12,0.16-0.26,0.32-0.4,0.48C375.84,22.81,375.94,22.77,375.94,22.77z"/>
		<path d="M286.15,26.47c0.15,0.14,0.28,0.29,0.44,0.42c0.34,0.27,0.73,0.55,0.24,0.87c-0.11,0.07-0.5,0.06-0.69,0.01
			c-0.62-0.19-0.62-0.51-0.36-0.85c0.12-0.15,0.3-0.28,0.45-0.42C286.22,26.5,286.15,26.47,286.15,26.47z"/>
		<path d="M372.3,19.1c-0.07-0.19,0.08-0.33,0.34-0.26c0.18,0.05,0.28,0.23,0.35,0.36c0.03,0.05-0.11,0.13-0.17,0.2
			C372.65,19.3,372.47,19.2,372.3,19.1z"/>
	</g>
</g>
<g>
</g>
<g>
</g>
<g>
</g>
<g>
</g>
<g>
</g>
<g>
</g>
</svg>
