<?xml version="1.0" encoding="utf-8"?>
<!-- Generator: Adobe Illustrator 25.4.1, SVG Export Plug-In . SVG Version: 6.00 Build 0)  -->
<svg version="1.1" id="Layer_1" xmlns="http://www.w3.org/2000/svg" xmlns:xlink="http://www.w3.org/1999/xlink" x="0px" y="0px"
	 viewBox="0 0 622.8 60.41" style="enable-background:new 0 0 622.8 60.41;" xml:space="preserve">
<path d="M0,25.81c4.31-6.35,9.57-7.1,15.52-2.12c3.02,2.52,5.53,5.53,7.67,8.78c2.29,3.47,4.63,6.87,7.42,10.02
	c2.28,2.56,4.02,5.56,6.07,8.33c0.49,0.66,0.99,1.6,2,1.5c1.07-0.1,1.14-1.12,1.4-1.93c2.73-8.46,4.44-17.14,6.19-25.83
	c1.04-5.16,2.28-10.32,5.01-14.98c3.53-6.01,9.03-6.37,13.29-0.76c4.52,5.95,9.25,11.76,12.65,18.46c0.78,1.55,1.73,4.1,3.5,3.89
	c1.48-0.17,1.21-2.92,1.72-4.51c2.16-6.8,2.52-14.06,5.6-20.62c0.37-0.78,0.58-1.64,1.03-2.37c1.15-1.87,2.39-3.7,5.01-3.67
	c2.9,0.04,5.55,1.31,6.52,3.73c2.22,5.49,6.17,10,8.5,15.39c2.35,5.42,5.78,10.28,8.73,15.39c0.43,0.75,1.01,1.41,1.5,2.13
	c0.98,1.45,1.95,1.73,2.83-0.05c0.82-1.68,1.68-3.35,2.33-5.09c1.25-3.39,3.1-6.46,5.25-9.34c3.24-4.34,6.54-4.87,10.92-1.83
	c1.3,0.9,2.64,1.83,3.5,3.23c3.37,5.46,7.11,10.66,9.73,16.6c1.94,4.39,5.27,8.2,8,12.25c0.86,1.27,1.74,0.85,2.28-0.22
	c1.5-2.94,2.93-5.92,4.32-8.92c1.4-3.01,2.73-6.07,5.22-8.39c2.28-2.12,4.78-3.92,8.28-2.59c1.11,0.42,2.04,0.92,2.75,1.98
	c2.8,4.17,5.46,8.41,7.82,12.83c1.23,2.3,2.87,4.3,4.45,6.36c0.34,0.45,0.73,1.17,1.3,1c0.73-0.22,0.82-1.04,0.99-1.76
	c1.61-6.66,2.15-13.55,4.57-20.05c1.1-2.95,2.05-5.96,3.9-8.59c0.84-1.18,1.75-2.29,2.97-3.14c3.19-2.24,5.61-2.01,7.95,1.04
	c2.36,3.08,4.56,6.27,6.79,9.44c0.82,1.17,1.53,1.35,2.05-0.14c1.42-4.05,2.79-8.11,4.18-12.17c0.98-2.86,2.45-5.46,4.05-8.05
	c1.54-2.51,3.91-3.38,6.44-4.11c1.6-0.46,2.98-0.13,4.29,1.29c3.43,3.74,6.01,8.06,9.18,11.98c1.09,1.34,1.94,2.87,2.98,4.25
	c1.1,1.47,1.73,1.44,2.31-0.18c0.87-2.43,1.62-4.9,2.32-7.39c0.98-3.48,2.42-6.77,4.39-9.81c1.01-1.56,2.08-3.09,3.76-4.16
	c4.62-2.92,7.61-2.31,11.61,1.45c6.96,6.54,10.89,15.1,16.49,22.54c2.34,3.12,4.36,6.47,6.74,9.55c1.65,2.13,2.5,1.99,3.71-0.46
	c2.1-4.26,4.4-8.41,6.74-12.55c1.16-2.06,2.69-3.75,4.52-5.21c3.78-3.01,8.03-4.38,12.92-1.32c8,5.01,14.26,11.36,17.13,20.43
	c1.25,3.95,2.98,7.73,3.71,11.85c0.26,1.49,1.32,2.85,2.02,4.27c0.25,0.52,0.49,1.15,1.15,1.18c0.95,0.05,1.15-0.83,1.25-1.45
	c0.9-5.21,1.77-10.44,1.95-15.73c0.16-4.45,0.62-8.84,2.27-13.04c0.42-1.06,0.72-2.26,1.43-3.11c4.1-4.98,7.33-3.88,10.49-0.25
	c1.69,1.94,2.95,4.21,4.14,6.53c2.88,5.63,6.03,11.13,9.08,16.68c0.34,0.61,0.69,1.44,1.51,1.26c0.39-0.09,0.75-0.87,0.88-1.39
	c0.75-3.06,1.33-6.16,2.16-9.19c1.02-3.72,2.13-7.43,4.85-10.44c3.02-3.34,6.31-3.61,9.37-0.24c3.02,3.31,5.65,6.95,8.44,10.46
	c0.36,0.45,0.57,1.01,0.91,1.47c1.64,2.16,2.48,2.27,3.86,0.01c1.8-2.95,3.42-6.02,4.85-9.16c1.28-2.83,3.25-5.08,5.52-7.1
	c1.96-1.74,4.1-2.27,6.89-1.34c3.95,1.32,6.95,3.75,9.45,6.71c4.65,5.5,9.01,11.23,13.46,16.89c0.53,0.67,0.83,1.46,1.76,1.82
	c0.8,0.31,1.5,0.34,1.86-0.42c0.75-1.55,1.6-3.1,2-4.75c1.31-5.42,2.46-10.87,3.62-16.32c0.52-2.45,1.72-4.67,3.3-6.47
	c3.16-3.61,6.83-3.2,10.78,1.17c0.84,0.93,1.31,2.24,1.78,3.43c3.09,7.75,7.52,14.85,11.41,22.21c0.33,0.62,0.71,1.49,1.5,1.4
	c0.75-0.09,0.91-1.01,1.12-1.68c1.17-3.69,2.37-7.36,3.48-11.07c0.7-2.36,1.75-4.57,3.01-6.66c2.49-4.11,7.05-4.6,10.17-0.94
	c2.15,2.52,3.84,5.4,5.8,8.07c4.05,5.52,5.35,5.89,10.73,0.22c1.79-1.89,3.55-3.8,5.45-5.57c2.34-2.18,3.78-2.34,6.69-0.78
	c1.79,0.96,3.41,2.05,4.79,3.67c2.69,3.17,6.22,5.58,8.89,8.83c1.31,1.59,2.75,1.43,4.05-0.29c1.47-1.95,2.68-4.1,3.94-6.2
	c0.75-1.25,1.56-2.39,2.72-3.33c3.94-3.18,6.61-3.01,9.52,1.07c3.08,4.32,5.97,8.78,8.73,13.3c0.99,1.63,2.1,3.1,3.45,4.41
	c2.55,2.48,3.79,2.34,5.89-0.66c1.42-2.03,2.4-4.29,2.91-6.67c0.56-2.58,1.85-4.83,3.2-7c2.54-4.1,6.07-4.16,9.15-0.37
	c0.64,0.78,1.12,1.68,1.73,2.49c0.53,0.68,1.08,1.37,1.73,1.94c0.77,0.67,1.67,1.3,2.78,0.8c1.06-0.48,1.28-1.53,1.44-2.52
	c0.23-1.4-0.49-2.84,0.08-4.25c0.23-0.57,0.54-1.03,1.2-1.09c0.76-0.07,1.08,0.53,1.1,1.07c0.09,2.54,0.58,5.15-0.83,7.53
	c-1.54,2.59-3.47,2.83-6.13,1.39c-2.31-1.25-3.57-3.2-5.08-5.13c-2.05-2.63-3.16-2.53-4.96,0.16c-1.52,2.28-2.74,4.73-3.4,7.41
	c-0.67,2.7-2.16,5.02-3.84,7.19c-2.2,2.84-4.78,3.02-7.49,0.69c-2.91-2.5-4.98-5.61-6.9-8.84c-1.84-3.09-3.72-6.17-5.79-9.12
	c-2.6-3.71-4.49-3.71-7.63-0.52c-1.25,1.27-2.17,2.67-2.99,4.2c-0.75,1.38-1.55,2.77-2.54,4c-2.67,3.34-4.85,3.44-8.04,0.45
	c-3.6-3.37-6.76-7.16-10.56-10.35c-3.53-2.95-4.31-3.02-7.59,0.33c-1.62,1.66-3.2,3.35-4.8,5.04c-0.3,0.32-0.54,0.69-0.87,0.97
	c-4.59,3.99-6.67,4.65-11.65-0.84c-2.22-2.45-3.92-5.35-5.87-8.04c-0.59-0.81-0.98-1.74-1.93-2.3c-1.43-0.85-2.81-1.06-3.85,0.43
	c-1.14,1.65-2.36,3.33-3.08,5.16c-1.68,4.25-3.58,8.45-4.37,12.99c-0.1,0.56-0.07,1.19-0.33,1.68c-0.72,1.35-1,3.26-2.83,3.51
	c-1.77,0.24-2.28-1.49-3.05-2.68c-4.83-7.39-8.11-15.53-12.06-23.35c-0.58-1.16-1-2.4-1.66-3.51c-1.01-1.69-2.49-2.9-4.64-2.72
	c-1.93,0.16-3.04,1.35-3.83,3.1c-2.61,5.8-3.87,11.96-4.84,18.13c-0.54,3.41-1.97,6.26-3.73,9.03c-1.27,2.01-2.62,1.88-4.14-0.04
	c-4.3-5.44-8.55-10.91-12.88-16.33c-2.53-3.16-5.14-6.26-8.74-8.41c-3.14-1.88-4.67-1.81-7.51,0.54c-2.08,1.72-3.24,4.02-4.39,6.34
	c-1.47,2.96-2.86,5.97-4.84,8.66c-0.51,0.7-0.97,1.45-1.59,2.05c-2.28,2.2-3.88,2.23-5.84-0.26c-2.78-3.51-5.34-7.18-7.98-10.79
	c-0.42-0.58-0.77-1.22-1.24-1.76c-2.74-3.17-5.22-3.09-7.2,0.47c-2.16,3.89-3.75,7.97-4.3,12.46c-0.42,3.38-1.48,6.69-2.26,10.03
	c-0.24,1.03-0.75,2-1.86,2.19c-1.53,0.25-1.88-1.09-2.35-2.1c-3.58-7.52-7.42-14.92-11.53-22.19c-1.06-1.88-2.09-3.8-3.61-5.38
	c-2.32-2.41-4.72-2.24-6.4,0.66c-1.89,3.27-2.68,6.92-3.1,10.61c-0.21,1.84-0.04,3.71-0.04,5.57c0.3,5.65-1.98,10.95-2.35,16.5
	c-0.05,0.81-0.56,1.63-1,2.37c-1.25,2.1-2.53,2.21-3.92,0.14c-2.5-3.75-3.9-8-5.47-12.16c-1.26-3.35-2.48-6.72-3.7-10.08
	c-2.22-6.13-6.32-10.96-11.5-14.86c-5.33-4.02-10.81-4.4-15.55,1.97c-2.79,3.76-4.28,8.09-6.5,12.08c-1.25,2.26-2.12,4.73-4.03,6.59
	c-1.87,1.82-2.62,1.76-4.03-0.43c-4.98-7.75-9.8-15.6-14.92-23.26c-3.04-4.55-6.26-9.01-10.3-12.82c-2.45-2.31-5.25-2.42-7.86-0.31
	c-2.59,2.09-3.87,4.96-5.03,7.93c-1.82,4.68-2.37,9.76-4.79,14.25c-0.73,1.35-0.81,3.51-2.64,3.63c-1.86,0.12-2.35-1.9-3.05-3.28
	c-3.05-5.92-7.72-10.77-11.41-16.27c-1.35-2.01-2.64-2.06-4.91-0.85c-2.32,1.23-3.68,3.26-4.72,5.51c-2.17,4.7-3.45,9.7-5.14,14.56
	c-0.62,1.76-1.23,3.52-2.14,5.14c-0.53,0.95-0.75,2.34-2.27,2.32c-1.55-0.02-1.68-1.37-2.12-2.39c-1.74-3.98-4.08-7.61-6.98-10.89
	c-2.72-3.08-3.8-3.07-6.55,0.11c-2.82,3.26-4.13,7.24-5.09,11.27c-1.41,5.96-2.52,11.99-3.72,18c-0.34,1.69-0.63,3.4-1.59,4.88
	c-1.2,1.84-2.5,1.76-3.61-0.08c-4.32-7.13-8.65-14.24-13-21.35c-2.31-3.79-5.34-4.12-8.29-0.68c-2.55,2.97-4.5,6.37-5.76,10.07
	c-1.08,3.15-2.78,5.99-4.54,8.79c-1.85,2.95-3,2.81-4.94-0.21c-4.54-7.04-8.32-14.48-12.5-21.72c-1.65-2.86-3.49-5.62-5.31-8.38
	c-0.63-0.95-1.4-1.85-2.24-2.64c-3.2-2.99-5.93-2.81-8.37,0.77c-1.78,2.62-3.28,5.42-4.75,8.22c-1.47,2.8-2.63,5.75-4.11,8.55
	c-1.52,2.87-2.87,2.9-4.65,0.17c-4.16-6.4-7.65-13.17-11.28-19.85c-2.33-4.3-4.38-8.75-6.8-12.99c-1.33-2.32-2.76-5.5-5.8-5.3
	c-2.9,0.19-3.42,3.46-4.35,5.88c-2.86,7.52-3.58,15.58-6.3,23.13c-0.34,0.94-0.48,1.96-1.1,2.77c-0.67,0.86-0.93,2.28-2.44,2.18
	c-1.47-0.1-1.59-1.44-2.15-2.42c-4.74-8.24-9.91-16.22-15.51-23.92c-2.8-3.86-6.01-3.69-8.77,0.31c-2.84,4.12-3.8,8.96-5,13.66
	c-2.27,8.86-4.2,17.8-6.85,26.56c-0.54,1.78-1.12,3.57-1.95,5.24c-0.86,1.73-2.34,1.75-3.32,0.12
	c-5.51-9.15-12.33-17.43-18.45-26.17c-1.86-2.66-4.32-4.7-7.16-6.25"/>
<g>
</g>
<g>
</g>
<g>
</g>
<g>
</g>
<g>
</g>
<g>
</g>
</svg>
